<svg xmlns="http://www.w3.org/2000/svg" xmlns:xlink="http://www.w3.org/1999/xlink" width="24" height="24" viewBox="0 0 24 24">
  <defs>
    <clipPath id="clip-path">
      <rect id="長方形_495" data-name="長方形 495" width="24" height="24" transform="translate(1178 15265)" fill="#fff" stroke="#707070" stroke-width="1"/>
    </clipPath>
  </defs>
  <g id="card_icon" transform="translate(-1178 -15265)" clip-path="url(#clip-path)">
    <path id="パス_2389" data-name="パス 2389" d="M.96,101.975H23.04a.959.959,0,0,0,.96-.96V87a.957.957,0,0,0-.96-.96H.96A.959.959,0,0,0,0,87v14.014A.962.962,0,0,0,.96,101.975ZM3.551,92.9V90.125a.507.507,0,0,1,.5-.5H8.276a.5.5,0,0,1,.5.5v.54H5.348a.5.5,0,0,0-.5.495V93.4h-.8A.5.5,0,0,1,3.551,92.9Zm1.672.495V91.16a.124.124,0,0,1,.124-.12H8.771v1.939a.419.419,0,0,1-.42.42H5.224Zm11.193-3.685a2.944,2.944,0,0,0-.6,1.8,2.985,2.985,0,0,0,.607,1.8h0A2.118,2.118,0,1,1,15.3,89.393a2.049,2.049,0,0,1,1.053.286C16.376,89.691,16.4,89.7,16.417,89.713Zm2.389,3.918a2.119,2.119,0,1,1,2.123-2.122A2.113,2.113,0,0,1,18.806,93.631ZM3.409,98.87V97.336H17.392V98.87H3.409Zm17.183-1.534V98.87H18.45V97.336Z" transform="translate(1178 15182.959)" fill="#fff"/>
  </g>
</svg>
