<svg xmlns="http://www.w3.org/2000/svg" xmlns:xlink="http://www.w3.org/1999/xlink" width="40" height="40" viewBox="0 0 40 40">
  <defs>
    <clipPath id="clip-path">
      <rect id="長方形_339" data-name="長方形 339" width="40" height="40" transform="translate(864 4773)" fill="#fff" stroke="#707070" stroke-width="1"/>
    </clipPath>
  </defs>
  <g id="マスクグループ_14" data-name="マスクグループ 14" transform="translate(-864 -4773)" clip-path="url(#clip-path)">
    <g id="時計_メーターのアイコン素材_1" data-name="時計・メーターのアイコン素材 1" transform="translate(864 4773.998)">
      <path id="パス_799" data-name="パス 799" d="M110.063,165.7a3.708,3.708,0,0,1,.679-.863c.035-.031.063-.07.1-.1h0l.009-.009-8.3-4.548-.018-.01h0l-.011-.006-1,1.828,8.225,4.511A3.723,3.723,0,0,1,110.063,165.7Z" transform="translate(-93.775 -147.944)" fill="#fff"/>
      <path id="パス_800" data-name="パス 800" d="M292.572,263.648v0l-.011-.006a3.538,3.538,0,0,1-.4,1.18,3.181,3.181,0,0,1-.441.629c-.018.019-.033.041-.052.06h0l-.008.01,2.586,1.419,1-1.811,0-.006h0l.006-.011-2.018-1.1Z" transform="translate(-269.408 -243.53)" fill="#fff"/>
      <path id="パス_801" data-name="パス 801" d="M193.641,159.6a2.692,2.692,0,0,0-3.448,3.494l-2.672,2.643-.009.009h0l-.009.008,1.562,1.549,2.683-2.647a2.693,2.693,0,0,0,3.474-3.526l5.133-5.2-1.568-1.543Zm-.052,3.014a.993.993,0,1,1-.4-1.348A.987.987,0,0,1,193.589,162.614Z" transform="translate(-173.198 -142.608)" fill="#fff"/>
      <path id="パス_802" data-name="パス 802" d="M19.531,0A19.531,19.531,0,1,0,39.062,19.533,19.553,19.553,0,0,0,19.531,0Zm0,35.943A16.415,16.415,0,1,1,35.949,19.533,16.428,16.428,0,0,1,19.531,35.945Z" transform="translate(0)" fill="#fff"/>
      <path id="パス_803" data-name="パス 803" d="M172.578,370.189h0l-.148-.087h0a.237.237,0,0,0-.326.081l-.881,1.465a.237.237,0,0,0,.081.325c.06.036.12.072.181.107h0a.237.237,0,0,0,.324-.087l.855-1.481A.237.237,0,0,0,172.578,370.189Z" transform="translate(-158.129 -341.833)" fill="#fff"/>
      <path id="パス_804" data-name="パス 804" d="M115.911,319.382a.237.237,0,0,0-.323-.091l-1.492.834a.238.238,0,0,0-.091.323l.1.18h0a.237.237,0,0,0,.324.086l1.479-.857a.238.238,0,0,0,.086-.325C115.968,319.483,115.939,319.433,115.911,319.382Z" transform="translate(-105.279 -294.901)" fill="#fff"/>
      <path id="パス_805" data-name="パス 805" d="M174.079,115.907a.238.238,0,0,0,.324.086l.149-.085h0a.237.237,0,0,0,.091-.323l-.834-1.492a.238.238,0,0,0-.323-.091h0l-.182.1h0a.238.238,0,0,0-.086.325Z" transform="translate(-159.975 -105.274)" fill="#fff"/>
      <path id="パス_806" data-name="パス 806" d="M96.117,250.822v-.014c0-.053,0-.106,0-.16h0a.237.237,0,0,0-.234-.241l-1.71-.027a.237.237,0,0,0-.241.233c0,.065,0,.13,0,.194v.014a.237.237,0,0,0,.237.237h1.71A.237.237,0,0,0,96.117,250.822Z" transform="translate(-86.767 -231.277)" fill="#fff"/>
      <path id="パス_807" data-name="パス 807" d="M371.195,174.436a.238.238,0,0,0,.323.091l1.491-.836a.237.237,0,0,0,.091-.323h0c-.034-.061-.068-.12-.1-.18a.237.237,0,0,0-.324-.086l-1.478.86a.237.237,0,0,0-.086.324Z" transform="translate(-342.767 -159.864)" fill="#fff"/>
      <path id="パス_808" data-name="パス 808" d="M321.092,116.937h0l.147.086h0a.238.238,0,0,0,.326-.081l.88-1.466a.238.238,0,0,0-.081-.326h0l-.182-.107h0a.237.237,0,0,0-.324.087L321,116.613A.237.237,0,0,0,321.092,116.937Z" transform="translate(-296.485 -106.236)" fill="#fff"/>
      <path id="パス_809" data-name="パス 809" d="M391.425,252.521h-1.71a.237.237,0,0,0-.238.237v.027c0,.058,0,.115,0,.173h0a.237.237,0,0,0,.233.241l1.709.028a.238.238,0,0,0,.241-.233h0c0-.069,0-.138,0-.208v-.027A.237.237,0,0,0,391.425,252.521Z" transform="translate(-359.762 -233.254)" fill="#fff"/>
      <path id="パス_810" data-name="パス 810" d="M250.759,389.437h-.166a.237.237,0,0,0-.241.233l-.029,1.71a.237.237,0,0,0,.233.241h0l.2,0h.007a.238.238,0,0,0,.238-.239l-.007-1.71A.237.237,0,0,0,250.759,389.437Z" transform="translate(-231.226 -359.723)" fill="#fff"/>
      <path id="パス_811" data-name="パス 811" d="M372,322.037l-1.481-.855a.238.238,0,0,0-.324.087l-.086.146h0a.238.238,0,0,0,.081.326l1.463.884a.238.238,0,0,0,.326-.08c.037-.061.073-.122.108-.183A.237.237,0,0,0,372,322.037Z" transform="translate(-341.84 -296.647)" fill="#fff"/>
      <path id="パス_812" data-name="パス 812" d="M319.828,371.278a.237.237,0,0,0-.324-.086h0l-.151.086h0a.237.237,0,0,0-.091.323l.834,1.492a.237.237,0,0,0,.322.091h0l.181-.1h0a.238.238,0,0,0,.086-.325Z" transform="translate(-294.876 -342.841)" fill="#fff"/>
      <path id="パス_813" data-name="パス 813" d="M252.889,96.077h.175a.238.238,0,0,0,.241-.234l.025-1.709a.238.238,0,0,0-.234-.241h-.207a.237.237,0,0,0-.237.237v1.71A.237.237,0,0,0,252.889,96.077Z" transform="translate(-233.377 -86.728)" fill="#fff"/>
    </g>
  </g>
</svg>
