<svg xmlns="http://www.w3.org/2000/svg" xmlns:xlink="http://www.w3.org/1999/xlink" width="147.852" height="92.411" viewBox="0 0 147.852 92.411">
  <defs>
    <clipPath id="clip-path">
      <rect id="長方形_492" data-name="長方形 492" width="96" height="62" transform="translate(80.067 2.729)" fill="#fff" stroke="#707070" stroke-width="1"/>
    </clipPath>
  </defs>
  <g id="footer_logo_ch" transform="translate(-83.8 -16.828)">
    <g id="footer_logo_ch-2" data-name="footer_logo_ch" transform="translate(28.933 14.1)" clip-path="url(#clip-path)">
      <g id="logo" transform="translate(80 5.575)">
        <path id="パス_23" data-name="パス 23" d="M78.937,56.795H15.32a43.119,43.119,0,0,0,8.292-19.439C25.68,24.467,23.581,10.381,15.32,0H48.708L70.729,17.424c.556,1.186-.4,3.642-.514,5.049-1.05,12.039.913,24.75,8.733,34.312Z" transform="translate(0.76)" fill="#fff"/>
        <path id="パス_24" data-name="パス 24" d="M92.582,18.26c-3.285,6.371-3.1,12.417,0,18.82H73.006a32.3,32.3,0,0,1,0-18.82Z" transform="translate(3.553 0.906)" fill="#fff"/>
        <path id="パス_25" data-name="パス 25" d="M0,37.07c.745-2.991,2.477-6.056,2.477-9.237S.7,21.294,0,18.25H19.051a25.512,25.512,0,0,1,0,18.82Z" transform="translate(0 0.906)" fill="#fff"/>
        <path id="パス_26" data-name="パス 26" d="M77.021,0a45.675,45.675,0,0,0-6.644,12.889L53.95,0Z" transform="translate(2.677)" fill="#fff"/>
      </g>
    </g>
    <path id="パス_2545" data-name="パス 2545" d="M9.648-5.778v-4.77h5.166v4.77Zm-6.534,0v-4.77H8.262v4.77Zm6.534-6.084v-3.2H8.262v3.2H1.8v8.514H3.114V-4.464H8.262V1.368H9.648V-4.464h5.166v1.026h1.368v-8.424Zm13.536,8.19A15.154,15.154,0,0,1,19.908-.018c.27.2.738.594.99.828a19.091,19.091,0,0,0,3.564-4.032Zm.468-5.22h8.6v2.88h-8.6Zm9.99,4.068v-5.238h-11.3v5.238H27.27V-.2c0,.252-.072.342-.414.342-.324.018-1.44.018-2.664-.018a6.024,6.024,0,0,1,.45,1.278,11.324,11.324,0,0,0,3.222-.2c.612-.216.792-.576.792-1.368V-4.824Zm-2.448,1.8A28.144,28.144,0,0,1,34.488.882L35.658.09a37.556,37.556,0,0,0-3.366-3.78Zm-2.142-9.792a17.272,17.272,0,0,0-1.4-2.358l-1.26.4a21.465,21.465,0,0,1,1.1,1.962H20.124V-11.5H35.712v-1.314ZM53.532-14.6a39.335,39.335,0,0,1-4.356,1.332l.414.972a22.879,22.879,0,0,0,4.392-1.35Zm.738,3.816A42.778,42.778,0,0,0,49.1-11.97l-.432,1.026a40.275,40.275,0,0,1,5.184,1.3ZM44.64-13.1a23.641,23.641,0,0,0-4.122-1.512L40-13.7a22.54,22.54,0,0,1,4.158,1.62Zm-.018,1.188c-1.962.4-3.924.81-5.238,1.026l.4,1.188c1.422-.324,3.2-.738,4.95-1.17Zm-1.4,9.09v-1.53H50.4v1.53ZM50.4-5.382H43.218V-6.858H50.4ZM43.542-7.956a8.837,8.837,0,0,0,3.168-3.438,12.043,12.043,0,0,0,3.744,3.438Zm2.952-7.128c-.756,4.608-3.312,6.714-8.028,7.7a6.388,6.388,0,0,1,.792,1.17,18.719,18.719,0,0,0,2.628-.882V1.332h1.332V-1.746H50.4V-.2c0,.252-.09.324-.378.342-.27.018-1.278.018-2.3-.018a4.534,4.534,0,0,1,.45,1.116,11.026,11.026,0,0,0,2.844-.18c.54-.2.738-.522.738-1.26V-7.29a12.977,12.977,0,0,0,2.628.918,4.71,4.71,0,0,1,.828-1.134,11.877,11.877,0,0,1-7.938-5.166,14.061,14.061,0,0,0,.612-2.214Zm23.6,2.862a13.624,13.624,0,0,0-1.35-2.808l-1.188.414a14.076,14.076,0,0,1,1.26,2.862Zm-6.1,6.228c-.324-.54-1.782-2.592-2.394-3.366v-.972h2.25v-1.26H61.6v-3.474H60.282v3.474H57.69v1.26h2.52a18.863,18.863,0,0,1-2.844,6.768,5.97,5.97,0,0,1,.72,1.278,18.369,18.369,0,0,0,2.2-4.9V1.35H61.6V-7.758c.594.954,1.278,2.124,1.566,2.736Zm5.67,5.58v-4.7h3.474V-6.336H69.66v-4.086H73.6v-1.242H64.224v1.242h4.05v4.086h-3.69v1.224h3.69v4.7H63.63V.828H73.908V-.414Zm15.552-6.3h2.466l-.432.378a13.707,13.707,0,0,1,1.368.558l-3.4.054Zm-5.544-.9V-8.73h4.248v1.116Zm0-3.06h4.248v1.08H79.668Zm9.918,0v1.08H85.212v-1.08Zm0,3.06H85.212V-8.73h4.374Zm3.132,3.888H88.434V-4.878l1.782-.054a12.146,12.146,0,0,1,1.026.72l.792-.756a14.708,14.708,0,0,0-3.222-1.746H90.9v-4.878H85.212V-12.6H92v-1.08H85.212v-1.35h-1.3v1.35H77.022v1.08h6.894v1.008H78.408v4.878h5.508v.99c-2.574.036-4.932.054-6.714.054l.054,1.044c2.592-.036,6.192-.108,9.882-.216v1.116H76.5v1.1h3.726l-.882.756a15.525,15.525,0,0,1,2.97,2.34l.954-.882a15.005,15.005,0,0,0-2.952-2.214h6.822V-.09c0,.234-.09.306-.36.324-.288.018-1.3.018-2.394-.018a4.082,4.082,0,0,1,.432,1.152,10.423,10.423,0,0,0,2.9-.2c.576-.18.72-.54.72-1.224V-2.628h4.284Zm14.616-7.632a13.328,13.328,0,0,0-2.934-2.466l-.846.774a14.052,14.052,0,0,1,2.862,2.556ZM106.9-6.624a15.7,15.7,0,0,0-3.222-2.538l-.828.792a15.457,15.457,0,0,1,3.168,2.628Zm-4.734,1.278c-.378-.486-1.926-2.466-2.484-3.1v-.324h2.646v-1.26H99.684v-3.006a15.976,15.976,0,0,0,2.358-.72l-.81-1.062a27.3,27.3,0,0,1-5.724,1.44,6.184,6.184,0,0,1,.4,1.044c.792-.108,1.638-.252,2.466-.414v2.718H95.346v1.26H98.19a18.315,18.315,0,0,1-3.1,5.652,6.052,6.052,0,0,1,.666,1.206,19.057,19.057,0,0,0,2.61-4.7V1.35h1.314V-6.984c.612.918,1.368,2.088,1.674,2.682Zm9.63,1.62-.2-1.224-2.106.324v-10.44H108.18V-4.41l-6.084.972.216,1.278,5.868-.972V1.35h1.314v-4.7Zm11.376-7.362v.756h4.518a5.917,5.917,0,0,1-1.314,1.278c-.882-.4-1.8-.792-2.61-1.1l-.54.756c.666.27,1.422.612,2.178.972a11.4,11.4,0,0,1-2.718.972,4.392,4.392,0,0,1,.576.846A11.025,11.025,0,0,0,126.45-7.92c1.026.486,1.944.972,2.574,1.35l.576-.9c-.558-.306-1.35-.72-2.214-1.116a6.5,6.5,0,0,0,1.8-2.358l-.666-.306-.216.054h-4.9a2.607,2.607,0,0,0,1.638-2.412h2.124v.7c0,.972.2,1.35,1.17,1.35h.99a3.49,3.49,0,0,0,.792-.054c-.036-.27-.072-.648-.09-.918a3.312,3.312,0,0,1-.738.072H128.5c-.216,0-.252-.09-.252-.432V-14.58h-4.284v.918c0,.63-.252,1.242-1.6,1.782a3.287,3.287,0,0,1,.738.828Zm-4.086-.936v.972h-2.394v.774h2.232a2.93,2.93,0,0,1-2.106,1.62,3.064,3.064,0,0,1,.594.684,4.191,4.191,0,0,0,2.16-1.566,13.48,13.48,0,0,1,1.98,1.458l.594-.63a15.918,15.918,0,0,0-2.268-1.53l.018-.036h2.466v-.774h-2.358v-.972h2.034v-.756h-3.6a6.776,6.776,0,0,0,.288-.666l-.846-.2a5.442,5.442,0,0,1-1.314,2,4.186,4.186,0,0,1,.738.432,5.077,5.077,0,0,0,.684-.81Zm3.582,4.068h-6.3v-5.688h6.192v-.864h-7.254v7.416h7.362ZM123.5-4.68h-1.89v-.81h1.89Zm4.1.81v.936h-2.376c-.54,0-.648-.054-.648-.414V-3.87ZM117.27-.18V-.846H127.6V-.18Zm3.186-3.69c-.234.5-.99.972-3.078,1.206a3.149,3.149,0,0,1,.594.792c2.556-.414,3.4-1.116,3.6-2H123.5v.5c0,.954.324,1.152,1.638,1.152H127.6v.594H117.27V-3.87Zm10.1-1.62v-.936H114.21v.936h6.336v.81h-4.5V1.332h1.224V.63H127.6v.7h1.26V-4.68h-4.284v-.81Zm9.918-6.156h7.56v1.962h1.278v-3.132h-4.482l.378-.144a12.217,12.217,0,0,0-1.17-2.232l-1.206.4a9.594,9.594,0,0,1,.972,1.98H139.23v3.132h1.242Zm7.4,3.186V-9.648h-7.2V-8.46Zm-9.81-5.922-.216.054h-4.068V1.35h1.206V-13.1h2.376c-.378,1.206-.918,2.754-1.422,4.05a5.323,5.323,0,0,1,1.6,3.618,1.561,1.561,0,0,1-.378,1.26,1.073,1.073,0,0,1-.558.162,5.175,5.175,0,0,1-1.044-.018,2.71,2.71,0,0,1,.342,1.188,6.654,6.654,0,0,0,1.206-.036,1.783,1.783,0,0,0,.936-.342,2.543,2.543,0,0,0,.7-2.088,5.592,5.592,0,0,0-1.62-3.888c.612-1.44,1.26-3.186,1.8-4.662ZM146.718,0c-.4,0-.468-.072-.468-.522v-4.7h3.186V-6.444H139.3V-5.22h2.5c-.234,2.79-.954,4.554-4.05,5.526a4.018,4.018,0,0,1,.774,1.062c3.4-1.188,4.266-3.294,4.572-6.588h1.89V-.5c0,1.278.288,1.656,1.548,1.656h1.584c1.08,0,1.422-.594,1.53-2.934a2.973,2.973,0,0,1-1.152-.486C148.464-.306,148.392,0,148,0Z" transform="translate(82 107.828)" fill="#fff"/>
  </g>
</svg>
