<svg xmlns="http://www.w3.org/2000/svg" width="242.764" height="26.829" viewBox="0 0 242.764 26.829">
  <g id="header_logo_en" transform="translate(-80 -3.829)">
    <path id="パス_2548" data-name="パス 2548" d="M6.786.234a5.1,5.1,0,0,0,4.05-1.89L9.918-2.7a4.01,4.01,0,0,1-3.06,1.476c-2.52,0-4.1-2.088-4.1-5.418,0-3.294,1.656-5.346,4.158-5.346a3.6,3.6,0,0,1,2.7,1.26l.9-1.08a4.879,4.879,0,0,0-3.618-1.638c-3.348,0-5.85,2.592-5.85,6.858C1.044-2.3,3.51.234,6.786.234ZM14.04,0h1.638V-7.092c.99-.99,1.674-1.494,2.682-1.494,1.3,0,1.854.774,1.854,2.61V0h1.638V-6.192c0-2.5-.936-3.834-2.988-3.834a4.589,4.589,0,0,0-3.24,1.638l.054-2.016v-3.924H14.04ZM28.71.234A4.193,4.193,0,0,0,31.95-1.53H32L32.13,0H33.5V-9.774H31.86v6.93c-.936,1.17-1.638,1.656-2.646,1.656-1.3,0-1.836-.774-1.836-2.592V-9.774H25.74v6.192C25.74-1.1,26.658.234,28.71.234ZM37.692,0h1.62V-2.574l1.836-2.142L44.01,0h1.782L42.1-5.832,45.36-9.774H43.524L39.366-4.608h-.054v-9.72h-1.62Zm11,4.212c1.944,0,2.97-1.476,3.636-3.4l3.69-10.584h-1.6L52.668-4.338c-.27.864-.558,1.854-.828,2.736h-.09c-.306-.882-.648-1.89-.936-2.736l-2-5.436h-1.71L51.03.018l-.216.738c-.4,1.206-1.1,2.106-2.214,2.106a2.336,2.336,0,0,1-.738-.162l-.324,1.314A3.009,3.009,0,0,0,48.69,4.212ZM62.532.234c2.394,0,4.536-1.872,4.536-5.112,0-3.258-2.142-5.148-4.536-5.148S58-8.136,58-4.878C58-1.638,60.138.234,62.532.234Zm0-1.368c-1.692,0-2.826-1.494-2.826-3.744s1.134-3.78,2.826-3.78,2.844,1.53,2.844,3.78S64.224-1.134,62.532-1.134ZM79.29.234c2.754,0,4.482-1.656,4.482-3.744,0-1.962-1.188-2.862-2.718-3.528l-1.89-.81c-1.026-.432-2.178-.918-2.178-2.2,0-1.188.972-1.944,2.466-1.944a4.274,4.274,0,0,1,3.006,1.242l.882-1.062a5.411,5.411,0,0,0-3.888-1.638c-2.394,0-4.158,1.476-4.158,3.51,0,1.926,1.458,2.862,2.682,3.384l1.908.828c1.242.558,2.2.99,2.2,2.34,0,1.3-1.044,2.16-2.772,2.16a5.111,5.111,0,0,1-3.636-1.638L74.664-1.728A6.305,6.305,0,0,0,79.29.234Zm7.83,3.888h1.638V.81L88.722-.9a4.41,4.41,0,0,0,2.7,1.134c2.25,0,4.248-1.926,4.248-5.274,0-3.006-1.368-4.986-3.888-4.986a5.212,5.212,0,0,0-3.114,1.368h-.054L88.47-9.774H87.12Zm4.032-5.256A3.788,3.788,0,0,1,88.758-2.16V-7.29a4.075,4.075,0,0,1,2.628-1.35c1.854,0,2.574,1.458,2.574,3.618C93.96-2.592,92.772-1.134,91.152-1.134ZM99.18,0h1.638V-9.774H99.18Zm.828-11.79a1.039,1.039,0,0,0,1.1-1.1,1.03,1.03,0,0,0-1.1-1.062,1.03,1.03,0,0,0-1.1,1.062A1.039,1.039,0,0,0,100.008-11.79ZM105.03,0h1.638V-7.092c.99-.99,1.674-1.494,2.682-1.494,1.3,0,1.854.774,1.854,2.61V0h1.638V-6.192c0-2.5-.936-3.834-2.988-3.834a4.687,4.687,0,0,0-3.276,1.656h-.054l-.144-1.4h-1.35Zm15.84.234a5.817,5.817,0,0,0,3.24-1.008l-.594-1.08a4.213,4.213,0,0,1-2.448.774c-1.854,0-3.132-1.332-3.24-3.42h6.588a6.394,6.394,0,0,0,.072-.936c0-2.79-1.4-4.59-3.888-4.59-2.268,0-4.41,1.98-4.41,5.148C116.19-1.656,118.278.234,120.87.234Zm-3.06-5.922c.2-1.908,1.422-3.024,2.808-3.024,1.53,0,2.43,1.062,2.43,3.024ZM137.862.234a5.1,5.1,0,0,0,4.05-1.89L140.994-2.7a4.01,4.01,0,0,1-3.06,1.476c-2.52,0-4.1-2.088-4.1-5.418,0-3.294,1.656-5.346,4.158-5.346a3.6,3.6,0,0,1,2.7,1.26l.9-1.08a4.879,4.879,0,0,0-3.618-1.638c-3.348,0-5.85,2.592-5.85,6.858C132.12-2.3,134.586.234,137.862.234Zm8.982,0A2.521,2.521,0,0,0,147.8.09l-.234-1.26a1.438,1.438,0,0,1-.342.036c-.252,0-.468-.2-.468-.7V-14.328h-1.638V-1.944C145.116-.558,145.62.234,146.844.234Zm4.3-.234h1.638V-9.774h-1.638Zm.828-11.79a1.039,1.039,0,0,0,1.1-1.1,1.03,1.03,0,0,0-1.1-1.062,1.03,1.03,0,0,0-1.1,1.062A1.039,1.039,0,0,0,151.974-11.79ZM157,0h1.638V-7.092c.99-.99,1.674-1.494,2.682-1.494,1.3,0,1.854.774,1.854,2.61V0h1.638V-6.192c0-2.5-.936-3.834-2.988-3.834a4.687,4.687,0,0,0-3.276,1.656h-.054l-.144-1.4H157Zm11.9,0h1.638V-9.774h-1.638Zm.828-11.79a1.039,1.039,0,0,0,1.1-1.1,1.03,1.03,0,0,0-1.1-1.062,1.03,1.03,0,0,0-1.1,1.062A1.039,1.039,0,0,0,169.722-11.79ZM178.6.234a4.739,4.739,0,0,0,3.168-1.242l-.72-1.1a3.446,3.446,0,0,1-2.3.972c-1.8,0-3.024-1.494-3.024-3.744s1.3-3.78,3.078-3.78a2.89,2.89,0,0,1,1.944.864l.846-1.08a4.179,4.179,0,0,0-2.862-1.152c-2.5,0-4.716,1.89-4.716,5.148C174.006-1.638,176,.234,178.6.234Z" transform="translate(141 23.829)" fill="#fff"/>
    <g id="c" transform="translate(80 3.829)">
      <path id="パス_23" data-name="パス 23" d="M45.372,26.829H15.32a20.369,20.369,0,0,0,3.917-9.183C20.214,11.558,19.222,4.9,15.32,0H31.092l10.4,8.231c.263.56-.188,1.721-.243,2.385-.5,5.687.431,11.692,4.125,16.209Z" transform="translate(-7.724)" fill="#fff"/>
      <path id="パス_24" data-name="パス 24" d="M81.514,18.26a9.3,9.3,0,0,0,0,8.89H72.267a15.256,15.256,0,0,1,0-8.89Z" transform="translate(-36.101 -9.206)" fill="#fff"/>
      <path id="パス_25" data-name="パス 25" d="M0,27.14c.352-1.413,1.17-2.861,1.17-4.363S.332,19.688,0,18.25H9a12.051,12.051,0,0,1,0,8.89Z" transform="translate(0 -9.201)" fill="#fff"/>
      <path id="パス_26" data-name="パス 26" d="M64.848,0A21.576,21.576,0,0,0,61.71,6.089L53.95,0Z" transform="translate(-27.2)" fill="#fff"/>
    </g>
  </g>
</svg>
