<svg xmlns="http://www.w3.org/2000/svg" xmlns:xlink="http://www.w3.org/1999/xlink" width="32" height="32" viewBox="0 0 32 32">
  <defs>
    <clipPath id="clip-path">
      <rect id="長方形_204" data-name="長方形 204" width="32" height="32" transform="translate(0 0.401)" fill="#fff"/>
    </clipPath>
  </defs>
  <g id="line_icon" transform="translate(0 -0.4)" clip-path="url(#clip-path)">
    <path id="パス_38" data-name="パス 38" d="M19.506-26.725v5.067a.189.189,0,0,1-.214.214h-.785a.291.291,0,0,1-.214-.071l-2.355-3.14v3q0,.285-.214.285h-.785a.252.252,0,0,1-.285-.285v-5.067q0-.214.285-.214h.785a.291.291,0,0,1,.214.071l2.284,3.14v-3a.189.189,0,0,1,.214-.214h.856A.189.189,0,0,1,19.506-26.725Zm-5.852-.214a.189.189,0,0,1,.214.214v5.067a.189.189,0,0,1-.214.214h-.785a.189.189,0,0,1-.214-.214v-5.067a.189.189,0,0,1,.214-.214Zm-1.927,4.282a.189.189,0,0,1,.214.214v.785q0,.214-.285.214H8.444a.317.317,0,0,1-.143-.036q-.071-.036-.071-.178v-5.067a.189.189,0,0,1,.214-.214h.785q.285,0,.285.214v4.068Zm12.061-4.282a.189.189,0,0,1,.214.214v.856a.189.189,0,0,1-.214.214H21.576v.856h2.212a.189.189,0,0,1,.214.214v.856a.189.189,0,0,1-.214.214H21.576v.856h2.212a.189.189,0,0,1,.214.214v.785a.189.189,0,0,1-.214.214H20.505a.189.189,0,0,1-.214-.214v-5.067a.189.189,0,0,1,.214-.214Zm8.279-6.209v20.34a5.523,5.523,0,0,1-1.713,4.1,5.7,5.7,0,0,1-4.139,1.677H5.875a5.523,5.523,0,0,1-4.1-1.713A5.7,5.7,0,0,1,.094-12.879v-20.34a5.523,5.523,0,0,1,1.713-4.1A5.7,5.7,0,0,1,5.946-39h20.34a5.523,5.523,0,0,1,4.1,1.713A5.7,5.7,0,0,1,32.067-33.148Zm-4.425,8.707a8.349,8.349,0,0,0-3.39-6.637,12.515,12.515,0,0,0-8.207-2.783A12.657,12.657,0,0,0,7.8-31.078a8.32,8.32,0,0,0-3.426,6.637A8.217,8.217,0,0,0,7.159-18.3a12.259,12.259,0,0,0,6.994,3.212q.928.214,1.035.749a5.5,5.5,0,0,1-.178,1.891q0,.214,0,.285a3.053,3.053,0,0,0,.036.321q.036.25.285.178t.678-.214a18.852,18.852,0,0,0,2.355-1.285,41.183,41.183,0,0,0,3.675-2.569,23.552,23.552,0,0,0,3.176-2.855A8.809,8.809,0,0,0,27.642-24.441Z" transform="translate(-0.094 39.515)" fill="#fff"/>
  </g>
</svg>
