<svg xmlns="http://www.w3.org/2000/svg" width="212" height="27.829" viewBox="0 0 212 27.829">
  <g id="logo" transform="translate(-80 -2.829)">
    <text id="中京脊柱專科醫院" transform="translate(141 23.829)" fill="#fff" font-size="18" font-family="SourceHanSansSC-Regular, Source Han Sans SC" letter-spacing="0.05em"><tspan x="0" y="0">中京脊柱專科醫院</tspan></text>
    <g id="c" transform="translate(80 3.829)">
      <path id="パス_23" data-name="パス 23" d="M45.372,26.829H15.32a20.369,20.369,0,0,0,3.917-9.183C20.214,11.558,19.222,4.9,15.32,0H31.092l10.4,8.231c.263.56-.188,1.721-.243,2.385-.5,5.687.431,11.692,4.125,16.209Z" transform="translate(-7.724)" fill="#fff"/>
      <path id="パス_24" data-name="パス 24" d="M81.514,18.26a9.3,9.3,0,0,0,0,8.89H72.267a15.256,15.256,0,0,1,0-8.89Z" transform="translate(-36.101 -9.206)" fill="#fff"/>
      <path id="パス_25" data-name="パス 25" d="M0,27.14c.352-1.413,1.17-2.861,1.17-4.363S.332,19.688,0,18.25H9a12.051,12.051,0,0,1,0,8.89Z" transform="translate(0 -9.201)" fill="#fff"/>
      <path id="パス_26" data-name="パス 26" d="M64.848,0A21.576,21.576,0,0,0,61.71,6.089L53.95,0Z" transform="translate(-27.2)" fill="#fff"/>
    </g>
  </g>
</svg>
