<svg xmlns="http://www.w3.org/2000/svg" xmlns:xlink="http://www.w3.org/1999/xlink" width="1072" height="747" viewBox="0 0 1072 747">
  <defs>
    <clipPath id="clip-path">
      <rect id="長方形_485" data-name="長方形 485" width="1072" height="747" transform="translate(0 0.197)" fill="#fff" stroke="#707070" stroke-width="1"/>
    </clipPath>
    <clipPath id="clip-path-2">
      <rect id="長方形_486" data-name="長方形 486" width="40" height="40" transform="translate(64.541 0.254)" fill="#333f69" stroke="#707070" stroke-width="1"/>
    </clipPath>
    <clipPath id="clip-path-3">
      <rect id="長方形_403" data-name="長方形 403" width="49" height="49" transform="translate(0.141 0.173)" fill="#333f69" stroke="#707070" stroke-width="1"/>
    </clipPath>
    <clipPath id="clip-path-4">
      <rect id="長方形_403-2" data-name="長方形 403" width="49" height="49" transform="translate(-0.006 -0.044)" fill="#333f69" stroke="#707070" stroke-width="1"/>
    </clipPath>
    <clipPath id="clip-path-5">
      <rect id="長方形_403-3" data-name="長方形 403" width="48" height="48" transform="translate(0.368 0.345)" fill="#333f69" stroke="#707070" stroke-width="1"/>
    </clipPath>
    <clipPath id="clip-path-6">
      <rect id="長方形_403-4" data-name="長方形 403" width="49" height="49" transform="translate(-0.405 -0.273)" fill="#333f69" stroke="#707070" stroke-width="1"/>
    </clipPath>
    <clipPath id="clip-path-7">
      <rect id="長方形_403-5" data-name="長方形 403" width="49" height="49" transform="translate(-0.134 0.167)" fill="#333f69" stroke="#707070" stroke-width="1"/>
    </clipPath>
    <clipPath id="clip-path-8">
      <rect id="長方形_403-6" data-name="長方形 403" width="49" height="49" transform="translate(-0.144 0.282)" fill="#333f69" stroke="#707070" stroke-width="1"/>
    </clipPath>
    <clipPath id="clip-path-9">
      <rect id="長方形_403-7" data-name="長方形 403" width="49" height="49" transform="translate(0.186 0.173)" fill="#333f69" stroke="#707070" stroke-width="1"/>
    </clipPath>
  </defs>
  <g id="map_illust_ja" transform="translate(0 -0.197)" clip-path="url(#clip-path)">
    <g id="グループ_420" data-name="グループ 420" transform="translate(-2.051 -10.854)">
      <g id="map" transform="translate(1.651 10.453)">
        <path id="back_" data-name="back " d="M-13774.355-2.952V-134.66h174.071l85.158-12.363,74.807-138.2,11.747,7.6v17.542l37.594,32.915,29.449-13.387,50.394,31.2,93.151,101.253,289.243-146.755-.008-.019,100.358-89.859,44.836,39.034,76.624,77.676V-2.952Zm473.034-218.275-59.1-36.588-27.908,12.683-24.979-21.87v-18.921L-13445.886-307l-79.012,145.977-76.487,11.1h-172.971v-920.456h274.058l42.905,76.273,161.963,62.372,114.067,151.453-75.619,80.1-41.839,66.681,110.314,96.139,125.8,194.306.54.834,73.089,66.39,40.31,14.022-265.812,134.866Zm533.935-89.816,60.456-62.629v123.913Zm-213.737,21.822-69.312-62.96-125.841-194.375-.585-.9-102.1-88.983,34.108-54.361,77.475-82.061,153.577-7.286,9.478-89.377-36.465-24.723-27.171-99.069,55.732-77.062h305.3v674.733l-71.555,74.123-50.046-43.57-103.725,92.868ZM-13285.867-944.4l-160.921-61.97-36-64.006h451.727l-53.549,74.044,30.6,111.556,33.55,22.746-7.133,67.264-140.548,6.667Z" transform="translate(13775.138 1071.16)" fill="#333f69"/>
        <path id="line" d="M-12090.818,640.188l-1.321-.762,2.2-3.809,1.32.762Zm-7.928,0-1.32-.762,10.126-17.54,1.32.762Zm-7.921,0-1.32-.762,18.047-31.259,1.32.762Zm-7.921,0-1.32-.762,25.968-44.978,1.32.762Zm-7.923,0-1.32-.762,33.891-58.7,1.32.762Zm-7.928,0-1.321-.762,41.819-72.433,1.32.762Zm-7.924,0-1.32-.762,49.742-86.157,1.32.762Zm-7.92,0-1.321-.762,57.663-99.876,1.32.762Zm-7.928,0-1.321-.762,65.591-113.607,1.32.762Zm-7.924,0-1.321-.762,73.515-127.331,1.32.762Zm-7.923,0-1.321-.762,81.438-141.054,1.32.762Zm-7.921,0-1.321-.762,89.358-154.773,1.32.762Zm-7.926,0-1.32-.762,97.283-168.5,1.32.762Zm-7.923,0-1.321-.762L-12089.94,457.2l1.32.762Zm-7.924,0-1.321-.762,113.131-195.948,1.32.762Zm-7.923,0-1.321-.762,121.054-209.671,1.32.762Zm-7.926,0-1.32-.762,128.979-223.4,1.32.762Zm-7.923,0-1.32-.762,136.9-237.121,1.32.762Zm-7.924,0-1.32-.762,144.825-250.845,1.32.762Zm-7.921,0-1.32-.762,152.746-264.564,1.32.762Zm-7.923,0-1.32-.762,160.669-278.288,1.32.762Zm-7.925,0-1.321-.762,168.595-292.015,1.32.762Zm-7.924,0-1.32-.762,176.518-305.738,1.32.762Zm-7.923,0-1.321-.762,184.441-319.462,1.32.762Zm-7.924,0-1.321-.762,192.365-333.186,1.32.762Zm-7.925,0-1.321-.762,200.29-346.912,1.32.762Zm-7.924,0-1.321-.762,208.214-360.636,1.32.762Zm-7.923,0-1.321-.762,216.137-374.36,1.32.762Zm-7.921,0-1.321-.762,224.058-388.079,1.32.762Zm-7.928,0-1.321-.762,231.985-401.81,1.32.762Zm-7.924,0-1.321-.762,239.909-415.534,1.32.762Zm-7.921,0-1.32-.762,247.829-429.253,1.32.762Zm-7.928,0-1.32-.762,255.757-442.984,1.32.762Zm-7.921,0-1.32-.762,263.678-456.7,1.32.762Zm-7.923,0-1.32-.762L-12089.94,169l1.32.762Zm-7.923,0-1.321-.762,279.524-484.148,1.32.762Zm-7.925,0-1.321-.762,287.449-497.877,1.32.762Zm-7.924,0-1.321-.762,295.373-511.6,1.32.762Zm-7.924,0-1.32-.762,303.3-525.325,1.32.762Zm-7.925,0-1.321-.762,311.222-539.051,1.32.762Zm-7.923,0-1.321-.762L-12089.94,86.65l1.32.762Zm-7.924,0-1.321-.762,327.068-566.5,1.32.762Zm-7.921,0-1.321-.762,334.989-580.218,1.32.762Zm-7.926,0-1.321-.762,342.915-593.946,1.32.762Zm-7.923,0-1.32-.762,350.837-607.668,1.32.762Zm-7.924,0-1.32-.762,358.761-621.392,1.32.762Zm-7.923,0-1.321-.762L-12089.94,4.309l1.32.762Zm-7.924,0-1.32-.762,374.607-648.84,1.32.762Zm-7.925,0-1.32-.762,382.532-662.566,1.32.762Zm-7.924,0-1.32-.762,390.456-676.29,1.32.762Zm-7.923,0-1.32-.762,398.379-690.014,1.32.762Zm-7.921,0-1.32-.762,406.3-703.733,1.32.762Zm-7.925,0-1.321-.762,414.226-717.459,1.32.762Zm-7.923,0-1.321-.762,422.148-731.183,1.32.762Zm-7.924,0-1.321-.762,430.072-744.907,1.32.762Zm-7.924,0-1.32-.762,438-758.631,1.32.762Zm-7.925,0-1.321-.762,445.921-772.357,1.32.762Zm-7.923,0-1.321-.762,453.844-786.081,1.32.762Zm-7.928,0-1.321-.762,461.771-799.812,1.32.762Zm-7.917,0-1.321-.762L-12089.94-174.1l1.32.762Zm-7.928,0-1.32-.762,477.615-827.255,1.32.762Zm-7.923,0-1.321-.762,485.539-840.979,1.32.762Zm-7.921,0-1.32-.762,493.459-854.7,1.32.762Zm-7.928,0-1.321-.762L-12089.94-229l1.32.762Zm-7.924,0-1.32-.762,509.311-882.153,1.32.762Zm-7.924,0-1.32-.762,517.234-895.876,1.32.762Zm-7.921,0-1.32-.762,525.155-909.6,1.32.762Zm-7.924,0-1.321-.762,533.08-923.322,1.32.762Zm-7.924,0-1.321-.762,541-937.046,1.32.762Zm-7.923,0-1.321-.762,548.927-950.769,1.32.762Zm-7.924,0-1.321-.762,556.851-964.493,1.32.762Zm-7.925,0-1.321-.762,564.775-978.22,1.32.762Zm-7.924,0-1.321-.762,572.7-991.944,1.32.762Zm-7.923,0-1.321-.762,580.622-1005.667,1.32.762Zm-7.923,0-1.321-.762,588.545-1019.387,1.32.762Zm-7.926,0-1.32-.762,596.47-1033.117,1.32.762Zm-7.921,0-1.32-.762,604.391-1046.837,1.32.762Zm-7.924,0-1.32-.762,612.314-1060.56,1.32.762Zm-7.923,0-1.321-.762L-12093.9-428l1.321.762Zm-7.924,0-1.32-.762L-12101.824-428l1.321.762Zm-7.925,0-1.32-.762L-12109.749-428l1.32.762Zm-7.924,0-1.32-.762L-12117.672-428l1.32.762Zm-7.923,0-1.32-.762L-12125.6-428l1.32.762Zm-7.924,0-1.32-.762L-12133.52-428l1.321.762Zm-7.925,0-1.321-.762L-12141.444-428l1.32.762Zm-7.92,0-1.321-.762L-12149.365-428l1.321.762Zm-7.924,0-1.321-.762L-12157.288-428l1.32.762Zm-7.928,0-1.321-.762L-12165.216-428l1.321.762Zm-7.924,0-1.321-.762L-12173.14-428l1.321.762Zm-7.923,0-1.321-.762L-12181.063-428l1.321.762Zm-7.921,0-1.321-.762L-12188.983-428l1.321.762Zm-7.926,0-1.32-.762L-12196.909-428l1.321.762Zm-7.923,0-1.32-.762L-12204.832-428l1.32.762Zm-7.921,0-1.32-.762L-12212.753-428l1.32.762Zm-7.924,0-1.32-.762L-12220.677-428l1.321.762Zm-7.927,0-1.321-.762L-12228.6-428l1.32.762Zm-7.924,0-1.32-.762L-12236.527-428l1.32.762Zm-7.924,0-1.32-.762L-12244.45-428l1.32.762Zm-7.921,0-1.32-.762L-12252.371-428l1.32.762Zm-7.924,0-1.321-.762L-12260.3-428l1.321.762Zm-7.924,0-1.321-.762L-12268.22-428l1.321.762Zm-7.923,0-1.321-.762L-12276.144-428l1.321.762Zm-7.924,0-1.321-.762L-12284.066-428l1.32.762Zm-7.925,0-1.321-.762L-12291.992-428l1.321.762Zm-7.924,0-1.321-.762L-12299.915-428l1.321.762Zm-7.923,0-1.321-.762L-12307.839-428l1.321.762Zm-7.924,0-1.321-.762L-12315.762-428l1.321.762Zm-7.923,0-1.32-.762L-12323.684-428l1.32.762Zm-7.924,0-1.32-.762L-12331.607-428l1.32.762Zm-7.923,0-1.32-.762L-12339.531-428l1.321.762Zm-7.924,0-1.32-.762L-12347.455-428l1.321.762Zm-7.924,0-1.321-.762L-12355.38-428l1.321.762Zm-7.924,0-1.321-.762L-12363.3-428l1.32.762Zm-7.924,0-1.32-.762L-12371.227-428l1.32.762Zm-7.92,0-1.321-.762L-12379.147-428l1.32.762Zm-7.927,0-1.32-.762L-12387.073-428l1.32.762Zm-7.925,0-1.321-.762L-12395-428l1.32.762Zm-7.921,0-1.321-.762L-12402.919-428l1.321.762Zm-7.928,0-1.32-.762L-12410.847-428l1.321.762Zm-7.923,0-1.321-.762L-12418.771-428l1.321.762Zm-7.924,0-1.321-.762L-12426.693-428l1.321.762Zm-7.921,0-1.321-.762L-12434.614-428l1.321.762Zm-7.928,0-1.32-.762L-12442.539-428l1.32.762Zm-7.923,0-1.32-.762L-12450.466-428l1.321.762Zm-7.921,0-1.32-.762L-12458.386-428l1.32.762Zm-7.924,0-1.32-.762L-12466.31-428l1.321.762Zm-7.925,0-1.321-.762L-12474.234-428l1.32.762Zm-7.923,0-1.321-.762L-12482.157-428l1.32.762Zm-7.924,0-1.321-.762L-12490.081-428l1.32.762Zm-7.924,0-1.32-.762L-12498-428l1.32.762Zm-7.925,0-1.321-.762L-12505.93-428l1.321.762Zm-7.923,0-1.321-.762L-12513.854-428l1.321.762Zm-7.921,0-1.321-.762L-12521.773-428l1.321.762Zm-7.924,0-1.321-.762L-12529.7-428l1.321.762Zm-7.925,0-1.32-.762L-12537.623-428l1.321.762Zm-3.465-7.722-1.321-.762L-12545.546-428l1.321.762Zm0-13.724-1.321-.762L-12553.47-428l1.321.762Zm0-13.724-1.321-.762L-12561.393-428l1.321.762Zm0-13.724-1.321-.762L-12569.316-428l1.321.762Zm0-13.722-1.321-.762L-12577.238-428l1.32.762Zm0-13.728-1.321-.762,572.2-991.081,1.32.762Zm0-13.719-1.321-.762L-12593.085-428l1.32.762Zm0-13.724-1.321-.762L-12601.009-428l1.321.762Zm0-13.726-1.321-.762L-12608.934-428l1.321.762Zm0-13.724-1.321-.762L-12616.856-428l1.32.762Zm0-13.724-1.321-.762L-12624.78-428l1.32.762Zm0-13.726-1.321-.762L-12632.705-428l1.321.762Zm0-13.724-1.321-.762L-12640.629-428l1.321.762Zm0-13.719-1.321-.762L-12648.55-428l1.321.762Zm0-13.731-1.321-.762L-12656.478-428l1.321.762Zm0-13.724-1.321-.762L-12664.4-428l1.321.762Zm0-13.724-1.321-.762L-12672.324-428l1.321.762Zm0-13.719-1.321-.762,477.12-826.4,1.321.762Zm0-13.731-1.321-.762L-12688.172-428l1.32.762Zm0-13.724-1.321-.762L-12696.1-428l1.32.762Zm0-13.719-1.321-.762L-12704.017-428l1.32.762Zm0-13.724-1.321-.762,445.426-771.5,1.32.762Zm0-13.724-1.321-.762,437.5-757.775,1.32.762Zm0-13.726-1.321-.762L-12727.788-428l1.32.762Zm0-13.724-1.321-.762L-12735.712-428l1.32.762Zm0-13.724-1.321-.762,413.73-716.6,1.32.762Zm0-13.724-1.321-.762L-12751.559-428l1.32.762Zm0-13.726-1.321-.762L-12759.483-428l1.321.762Zm0-13.719-1.321-.762L-12767.4-428l1.321.762Zm0-13.724-1.321-.762L-12775.328-428l1.321.762Zm0-13.724-1.321-.762L-12783.251-428l1.321.762Zm0-13.726-1.321-.762L-12791.177-428l1.321.762Zm0-13.724-1.321-.762L-12799.1-428l1.321.762Zm0-13.724-1.321-.762L-12807.023-428l1.321.762Zm0-13.724-1.321-.762L-12814.946-428l1.321.762Zm0-13.726-1.321-.762L-12822.871-428l1.32.762Zm0-13.724-1.321-.762L-12830.795-428l1.321.762Zm0-13.719-1.321-.762L-12838.715-428l1.32.762Zm0-13.724-1.321-.762L-12846.639-428l1.32.762Zm0-13.731-1.321-.762,302.8-524.462,1.32.762Zm0-13.724-1.321-.762L-12862.49-428l1.32.762Zm0-13.719-1.321-.762L-12870.411-428l1.321.762Zm0-13.731-1.321-.762L-12878.339-428l1.321.762Zm0-13.724-1.321-.762,271.1-469.564,1.321.762Zm0-13.724-1.321-.762L-12894.186-428l1.321.762Zm0-13.719-1.321-.762L-12902.106-428l1.321.762Zm0-13.726-1.321-.762,247.334-428.4,1.321.762Zm0-13.724-1.321-.762L-12917.955-428l1.321.762Zm0-13.724-1.321-.762L-12925.878-428l1.321.762Zm0-13.724-1.321-.762L-12933.8-428l1.321.762Zm0-13.726-1.321-.762,215.64-373.5,1.32.762Zm0-13.724-1.321-.762L-12949.649-428l1.32.762Zm0-13.719-1.321-.762L-12957.57-428l1.32.762Zm0-13.728-1.321-.762L-12965.5-428l1.321.762Zm0-13.722-1.321-.762,183.946-318.6,1.321.762Zm0-13.724-1.321-.762L-12981.342-428l1.32.762Zm0-13.724-1.321-.762,168.1-291.157,1.32.762Zm0-13.724-1.321-.762L-12997.188-428l1.32.762Zm0-13.724-1.321-.762L-13005.112-428l1.32.762Zm0-13.726-1.321-.762L-13013.038-428l1.321.762Zm0-13.724-1.321-.762,136.4-236.259,1.321.762Zm0-13.719-1.321-.762L-13028.882-428l1.321.762Zm0-13.724-1.321-.762L-13036.806-428l1.321.762Zm0-13.726-1.321-.762L-13044.73-428l1.321.762Zm0-13.724-1.321-.762L-13052.653-428l1.32.762Zm0-13.724-1.321-.762L-13060.577-428l1.321.762Zm0-13.724-1.321-.762L-13068.5-428l1.321.762Zm0-13.731-1.321-.762L-13076.428-428l1.32.762Zm0-13.724-1.321-.762L-13084.352-428l1.321.762Zm0-13.715-1.321-.762,65.1-112.749,1.32.762Zm0-13.731-1.321-.762L-13100.2-428l1.321.762Zm0-13.724-1.321-.762L-13108.12-428l1.32.762Zm0-13.719-1.321-.762,41.324-71.575,1.32.762Zm0-13.731-1.321-.762,33.4-57.844,1.321.762Zm0-13.724-1.321-.762,25.473-44.12,1.321.762Zm0-13.724-1.321-.762,17.55-30.4,1.321.762Zm0-13.724-1.321-.762,9.626-16.672,1.321.762Zm0-13.719-1.321-.762,1.705-2.953,1.321.762Z" transform="translate(13157.365 427.999)" fill="#0b143f"/>
        <path id="パス_2522" data-name="パス 2522" d="M-19.02-10.59v-3.66H-29.88v-5.49h11.67v-3.69H-44.79v3.69h11.13v5.49h-10.2v3.66h9.69c-.96,3.9-3.78,7.83-11.4,10.05a13.526,13.526,0,0,1,2.19,3.21c7.05-2.16,10.47-5.73,12.09-9.6A17.038,17.038,0,0,0-19.71,2.64,15.857,15.857,0,0,1-17.25-.84c-6.15-1.38-9.78-4.77-11.76-9.75ZM-7.62-3V-8.55H7.53V-3ZM7.53-17.43v5.34H-7.62v-5.34ZM.42-21.06c.6-1.2,1.17-2.52,1.74-3.87l-4.65-.6a31.371,31.371,0,0,1-1.23,4.47h-7.53V2.55h3.63V.63H7.53V2.52h3.78V-21.06ZM45.24-2.22H22.56V-20.4H44.55v-3.42H18.99V2.61h3.57V1.2H45.24ZM41.76-6.39a38.75,38.75,0,0,0-5.7-5.46,41.955,41.955,0,0,0,4.41-6.96l-3.51-1.17a32.89,32.89,0,0,1-3.72,5.94c-2.01-1.5-4.11-2.91-6.03-4.08l-2.49,2.25a67.594,67.594,0,0,1,6.24,4.5,31.5,31.5,0,0,1-7.32,5.7,27.419,27.419,0,0,1,2.79,2.82,38.779,38.779,0,0,0,7.26-6.24,39.218,39.218,0,0,1,5.25,5.37Z" transform="translate(201.401 633.598)" fill="#fff"/>
        <text id="緑区" transform="translate(826.4 986.598)" fill="#fff" font-size="30" font-family="NotoSansCJKjp-Bold, Noto Sans CJK JP" font-weight="700" letter-spacing="0.05em"><tspan x="-30.75" y="0">緑区</tspan></text>
        <path id="パス_2512" data-name="パス 2512" d="M-38.16-3.3v-6.72h13.32V-3.3Zm13.32-16.71v6.45H-38.16v-6.45Zm-17.01-3.6V2.25h3.69V.3h13.32V2.19H-21v-25.8ZM3.48-16.23H-.42v-1.89h3.9Zm0,4.86H-.42v-1.98h3.9Zm0,4.92H-.42V-8.49h3.9Zm-7.35,3H13.35v-3H6.9V-8.49h5.01v-2.88H6.9v-1.98h5.13v-2.88H6.9v-1.89h5.94v-3H7.53c.54-1.02,1.08-2.13,1.62-3.21l-3.93-.75a37.2,37.2,0,0,1-1.26,3.96H.54A34.288,34.288,0,0,0,2.07-24.3l-3.54-1.02A21.754,21.754,0,0,1-8.1-16.2a25.282,25.282,0,0,1,2.61,2.82c.54-.48,1.08-.99,1.62-1.56ZM-6.21-19.89a26.07,26.07,0,0,0-4.71-4.77l-2.73,2.04a23.377,23.377,0,0,1,4.5,4.98Zm-.81,6.12h-6.75v3.27h3.36v6.54A35.952,35.952,0,0,1-14.13-1.2l1.68,3.54c1.53-1.29,2.76-2.43,3.96-3.6,1.8,2.31,4.2,3.18,7.77,3.33,3.66.15,10.02.09,13.74-.09A16.266,16.266,0,0,1,14.13-1.5c-4.14.33-11.22.42-14.82.27-3.06-.12-5.16-.96-6.33-2.97Zm52.26-4.38v-3.48H33.33v-3.9H29.52v3.9H17.88v3.48H29.55V-15H20.7V-.99h3.6V-11.52h5.25V2.64h3.72V-11.52H39v6.6c0,.33-.15.48-.63.48s-2.25,0-3.75-.06a12.8,12.8,0,0,1,1.2,3.51,14.306,14.306,0,0,0,5.31-.6c1.23-.54,1.59-1.56,1.59-3.27V-15H33.27v-3.15Z" transform="translate(956.4 177.599)" fill="#fff"/>
        <path id="パス_2511" data-name="パス 2511" d="M-33.51-1.8V-7.65h10.17V-1.8Zm5.28-17.55a23.512,23.512,0,0,1-4.17,5.49,42.3,42.3,0,0,0-4.77-3.96c.51-.51.99-1.02,1.47-1.53Zm8.61,8.46H-30.33a27.772,27.772,0,0,0,6.96-10.47l-2.46-1.29-.6.18h-6.81c.54-.78,1.05-1.56,1.5-2.34l-4.02-.75a23.966,23.966,0,0,1-9.96,9.54,12.426,12.426,0,0,1,2.52,2.79,30.878,30.878,0,0,0,3.33-2.28,41.672,41.672,0,0,1,4.59,4.14,33.352,33.352,0,0,1-10.5,5.19A11.4,11.4,0,0,1-43.71-3a38.46,38.46,0,0,0,6.63-2.94V2.58h3.57V1.41h10.17v1.2h3.72Zm12.42-.03h5.28v1.83H-7.2Zm0-4.29h5.28v1.77H-7.2Zm14.49,0v1.77H1.77v-1.77Zm0,6.12H1.77v-1.83H7.29Zm3.63,2.67V-17.88H1.77v-1.71H13.32v-3.33H1.77v-2.46H-1.92v2.46H-13.2v3.33H-1.92v1.71h-8.73V-6.42h6.06A27.134,27.134,0,0,1-14.04-.75a19.532,19.532,0,0,1,2.46,3A29.275,29.275,0,0,0-1.92-4.53V2.61H1.77V-4.68a29.734,29.734,0,0,0,9.84,6.99A15.712,15.712,0,0,1,14.16-.78,28.6,28.6,0,0,1,4.47-6.42Zm34.32,4.2H22.56V-20.4H44.55v-3.42H18.99V2.61h3.57V1.2H45.24ZM41.76-6.39a38.75,38.75,0,0,0-5.7-5.46,41.955,41.955,0,0,0,4.41-6.96l-3.51-1.17a32.89,32.89,0,0,1-3.72,5.94c-2.01-1.5-4.11-2.91-6.03-4.08l-2.49,2.25a67.594,67.594,0,0,1,6.24,4.5,31.5,31.5,0,0,1-7.32,5.7,27.419,27.419,0,0,1,2.79,2.82,38.779,38.779,0,0,0,7.26-6.24,39.218,39.218,0,0,1,5.25,5.37Z" transform="translate(601.401 155.599)" fill="#fff"/>
      </g>
      <path id="合体_7" data-name="合体 7" d="M304.16,1078.673,471.284,663.436V340.224L327.742,253.369,209.182,456.9,0,369.863l4.1-9.857,200.557,83.449L323.983,238.616l147.3,89.131V139.956C333.021,91.611,105.093,11.724,101.273,9.18l2.959-4.441L106.679,0C114.668,3.7,347.5,85.364,473.7,129.493L527.061,8.7l9.765,4.314L481.958,137.218V334.206l1.009.61H589.8l1.571,1.627,482.707,498.563-7.671,7.427L585.273,345.491H481.958V665.5l-.385.96-167.511,416.2Z" fill="#a5adbe"/>
      <g id="higasiyama" transform="translate(1.479 885.38)">
        <path id="パス_2386" data-name="パス 2386" d="M738.941,533.566l-24.717-31.458L598.548,447.314l-74.83-70.295-64.2,5.972-126.678-9.876-51.445,9.835-1.145-5.991L332.5,366.97l126.975,9.944,66.419-6.223,76.135,71.521,116.108,55,25.6,32.587Z" transform="translate(-280.249 -337.258)" fill="#a4945e"/>
        <g id="station" transform="translate(114.177)">
          <circle id="楕円形_57" data-name="楕円形 57" cx="17" cy="17" r="17" transform="translate(7.396 25.671)" fill="#bfb592"/>
          <text id="相生山" transform="translate(23.396 16.672)" fill="#bfb592" font-size="15" font-family="NotoSansCJKjp-Regular, Noto Sans CJK JP" letter-spacing="0.05em"><tspan x="-23.25" y="0">相生山</tspan></text>
        </g>
        <g id="station-2" data-name="station" transform="translate(306.314 69.383)">
          <circle id="楕円形_57-2" data-name="楕円形 57" cx="16.5" cy="16.5" r="16.5" transform="translate(0.259 26.288)" fill="#bfb592"/>
          <text id="神沢" transform="translate(16.259 17.29)" fill="#bfb592" font-size="15" font-family="NotoSansCJKjp-Regular, Noto Sans CJK JP" letter-spacing="0.05em"><tspan x="-15.375" y="0">神沢</tspan></text>
        </g>
        <g id="station-3" data-name="station" transform="translate(420.681 120.467)">
          <ellipse id="楕円形_57-3" data-name="楕円形 57" cx="17" cy="16.5" rx="17" ry="16.5" transform="translate(-0.108 26.204)" fill="#bfb592"/>
          <text id="徳重" transform="translate(15.892 17.206)" fill="#bfb592" font-size="15" font-family="NotoSansCJKjp-Regular, Noto Sans CJK JP" letter-spacing="0.05em"><tspan x="-15.375" y="0">徳重</tspan></text>
        </g>
      </g>
      <g id="meigyousen" transform="translate(0.991 338.187)">
        <path id="パス_2387" data-name="パス 2387" d="M1066.377,760.735,868.414,740.484l-50.128-51.413h-81.9l-53.536,20.892-88.819-43.1L303.118,561.323l-99.256-64.359-58.588-7.642L-1.39,435.039.73,429.32l146,54.119,59.293,7.656,99.8,64.8L596.407,661.249l86.713,42.063,52.124-20.341h85.615l50.378,51.67L1067,754.667Z" transform="translate(1.39 -429.32)" fill="#a4945e"/>
        <g id="station-4" data-name="station" transform="translate(139.063 15.005)">
          <ellipse id="楕円形_57-4" data-name="楕円形 57" cx="16.5" cy="17" rx="16.5" ry="17" transform="translate(7.997 25.859)" fill="#bfb592"/>
          <path id="パス_2516" data-name="パス 2516" d="M-15.7-7.86h4.26v1.815H-15.7Zm-2.43,3.63-1.575.66V-7.86h1.425c.225.18.45.375.585.51A9.442,9.442,0,0,0-16.725-8.6V-5.16h6.36V-8.745H-16.62c.21-.345.42-.705.63-1.1h6.93v-.975h-6.48A12.961,12.961,0,0,0-15-12.33l-1.11-.255a10.291,10.291,0,0,1-2.115,4.11V-8.91H-19.71v-3.45h-1.02v3.45h-1.68v1.05h1.68v4.7c-.735.3-1.425.57-1.965.765l.39,1.125c1.26-.555,2.9-1.26,4.41-1.95Zm1.62,1.02h1.38V-.33h-1.38Zm3.585,0V-.33h-1.4V-3.21Zm2.22,0V-.33H-12.1V-3.21ZM-9.69-.33V-4.125h-7.785V-.33H-19.26V.705H-8.835V-.33ZM6.45-9.645A25.638,25.638,0,0,0,2.16-12.5l-.87.615A24.529,24.529,0,0,1,5.52-8.925ZM-2.61-12.45A11.9,11.9,0,0,1-6.63-9.66a6.347,6.347,0,0,1,.84.84,14.644,14.644,0,0,0,4.23-3.255Zm5.7,9.975A15.3,15.3,0,0,1,1.845-.2l.24.06H.5V-2.55h5.19v-.915H.5v-1.44h3.51V-5.85h-7.89A20.728,20.728,0,0,0,.045-7.605a19.507,19.507,0,0,0,6.21,2.3,4.708,4.708,0,0,1,.69-.96A20.234,20.234,0,0,1,.975-8.22a10.252,10.252,0,0,0,1.95-1.815l-1.05-.495A8.473,8.473,0,0,1-.03-8.805a8.668,8.668,0,0,1-1.95-1.68l-.915.465A10.7,10.7,0,0,0-.93-8.25,21.58,21.58,0,0,1-7.08-6.12a7.082,7.082,0,0,1,.72.975c.81-.195,1.635-.42,2.43-.69v.93H-.57v1.44H-5.61v.915H-.57V-.135H-2.61l.57-.2A7,7,0,0,0-3.27-2.505l-.9.285A7.314,7.314,0,0,1-3.045-.135H-6.36V.81H6.405V-.135H2.865A19.775,19.775,0,0,0,4.2-2.25Zm8.25.855V-9.885h8.82V-1.62ZM10.215-11V.78H11.34V-.5h8.82v1.2h1.185V-11Z" transform="translate(22.997 16.86)" fill="#bfb592"/>
        </g>
        <g id="station-5" data-name="station" transform="translate(290.027 87.437)">
          <circle id="楕円形_57-5" data-name="楕円形 57" cx="17" cy="17" r="17" transform="translate(0.033 25.427)" fill="#bfb592"/>
          <path id="パス_2517" data-name="パス 2517" d="M-11.43-8.28h1.71V-9.315h-1.71v-3.24h-1.02v3.24h-2.1V-8.28h1.98a16.281,16.281,0,0,1-2.28,5.625,6.223,6.223,0,0,1,.57.96A15.662,15.662,0,0,0-12.45-5.88V1.125h1.02v-7.14c.45.75.975,1.68,1.185,2.16l.615-.825c-.255-.4-1.38-2.1-1.8-2.655ZM-2.8-6.675H-6.18V-7.83H-2.8Zm0,1.98H-6.18V-5.88H-2.8Zm0,2H-6.18V-3.9H-2.8Zm-4.35-5.97v6.8h5.37v-6.8h-2.85c.06-.405.12-.855.165-1.335H-1v-.96h-3.36c.06-.525.105-1.035.15-1.515l-1.125-.06c-.015.48-.06,1.035-.09,1.575H-9.345v.96H-5.52c-.045.48-.09.93-.135,1.335ZM-.945-.66H-8.3v-7.1h-1.02v8.91H-8.3V.3h7.35ZM8.34-1V-5.22H12.8V-1ZM2.97-5.22H7.23V-1H2.97Zm4.26-5.205v4.1H2.97v-4.1ZM12.8-6.33H8.34v-4.1H12.8ZM1.875-11.505V1.02h1.1V.105H12.8V1.02h1.14V-11.505Z" transform="translate(16.033 17.426)" fill="#bfb592"/>
        </g>
        <g id="station-6" data-name="station" transform="translate(566.033 185.793)">
          <ellipse id="楕円形_57-6" data-name="楕円形 57" cx="17" cy="16.5" rx="17" ry="16.5" transform="translate(0.027 26.071)" fill="#bfb592"/>
          <path id="パス_2518" data-name="パス 2518" d="M-1.185-5.2h-6.15V-10.44h5.31v-1.1h-11.73v1.1h5.28V-5.2h-6.06V-4.11h6.06V1.14h1.14V-4.11h6.15Zm-11.52-4.2a17.554,17.554,0,0,1,1.35,3.435l1.05-.36A14.37,14.37,0,0,0-11.73-9.7Zm7.95,3.48A29.451,29.451,0,0,0-2.91-9.45l-1.17-.33A22.384,22.384,0,0,1-5.7-6.24Zm9.765.66H7.56v-.99H5.01V-7.83h1.8v-.96H2.535A14.331,14.331,0,0,0,4.56-11.52,17.507,17.507,0,0,1,7.11-8.775l.78-.855a19.456,19.456,0,0,0-2.955-2.91H3.885A11.229,11.229,0,0,1,.765-8.535a3.278,3.278,0,0,1,.72.72c.24-.21.48-.42.705-.63v.615H3.96v1.575H1.335v.99H3.96V-.8c-1.08.2-2.07.36-2.85.48L1.38.75C3.06.42,5.415,0,7.62-.435L7.575-1.44c-.855.15-1.725.315-2.565.465ZM1.7-4.23a15.15,15.15,0,0,1,.63,2.775L3.18-1.7A14.458,14.458,0,0,0,2.52-4.44Zm4.68,2.565c.3-.69.63-1.755.93-2.655l-.96-.255a18.928,18.928,0,0,1-.765,2.67Zm8.4-5.895h-3.03v-4.86h-1.14v4.86H7.5v1.11h3.105V1.125h1.14V-6.45h3.03Z" transform="translate(16.027 17.071)" fill="#bfb592"/>
        </g>
        <g id="station-7" data-name="station" transform="translate(736.059 215.528)">
          <ellipse id="楕円形_57-7" data-name="楕円形 57" cx="17" cy="16.5" rx="17" ry="16.5" transform="translate(0.001 26.335)" fill="#bfb592"/>
          <path id="パス_2519" data-name="パス 2519" d="M-12.45-5.385a8.813,8.813,0,0,1-2.4,3.51,5.587,5.587,0,0,1,.885.645,11.691,11.691,0,0,0,2.64-3.855Zm11.2-1.11V-7.56h-6.09V-9.69h4.92v-1.065h-4.92v-1.77H-8.46v1.77h-4.515V-9.69H-8.46v2.13h-6V-6.5h4.515v.87a6.48,6.48,0,0,1-3,6.045,4.315,4.315,0,0,1,.84.81c2.97-2,3.27-4.71,3.27-6.84V-6.5H-6.6V-.24c0,.2-.06.255-.285.255-.24.015-1.02.03-1.86,0a4.734,4.734,0,0,1,.4,1.11A7.237,7.237,0,0,0-6.045.93c.465-.2.615-.51.615-1.155V-6.5ZM-4.395-5.01a20.955,20.955,0,0,1,2.43,3.825L-.9-1.7A21.5,21.5,0,0,0-3.4-5.46Zm9.6-5.835A12.958,12.958,0,0,0,2.43-12.39l-.615.825A12.277,12.277,0,0,1,4.56-9.945Zm-.9,4.02a14.441,14.441,0,0,0-2.7-1.485l-.585.84A13.637,13.637,0,0,1,3.69-5.91ZM2.475.915a54.25,54.25,0,0,0,2.6-4.83l-.84-.69A50.5,50.5,0,0,1,1.53.2Zm6.2-.96c-1.065,0-1.26-.2-1.26-1.035V-6.36L9.6-7.215v5.04h1.1V-7.65l2.34-.9a31.111,31.111,0,0,1-.165,4.335c-.09.375-.225.435-.5.435-.18,0-.735,0-1.155-.015a3.017,3.017,0,0,1,.285,1.065,7.274,7.274,0,0,0,1.53-.12,1.156,1.156,0,0,0,.885-1.08,46.019,46.019,0,0,0,.18-5.505l.045-.21-.78-.315-.21.165-.09.075-2.37.93v-3.735H9.6V-8.37l-2.19.855v-3.57H6.315v4L4.53-6.39l.435.975,1.35-.525V-1.1c0,1.65.54,2.085,2.31,2.085H12.57c1.665,0,2.01-.675,2.2-2.745a3.422,3.422,0,0,1-1.05-.45c-.12,1.755-.285,2.16-1.185,2.16Z" transform="translate(16.001 17.336)" fill="#bfb592"/>
        </g>
        <g id="マスクグループ_63" data-name="マスクグループ 63" transform="translate(705.519 272.609)" clip-path="url(#clip-path-2)">
          <g id="楕円形_71" data-name="楕円形 71" transform="translate(64.541 0.254)" fill="#fff" stroke="red" stroke-width="4">
            <circle cx="20" cy="20" r="20" stroke="none"/>
            <circle cx="20" cy="20" r="18" fill="none"/>
          </g>
        </g>
      </g>
      <g id="グループ_419" data-name="グループ 419" transform="translate(32.549 40.589)">
        <g id="spot" transform="translate(878.339 309.553)">
          <g id="マスクグループ_43" data-name="マスクグループ 43" transform="translate(32.023 29.735)" clip-path="url(#clip-path-3)">
            <path id="パス_1429" data-name="パス 1429" d="M73.884,0A19.207,19.207,0,0,0,54.7,19.185C54.7,35.89,73.884,48.8,73.884,48.8S93.069,35.89,93.069,19.185A19.207,19.207,0,0,0,73.884,0Zm0,26.925a7.74,7.74,0,1,1,7.74-7.74A7.74,7.74,0,0,1,73.884,26.925Z" transform="translate(-49.362 0)" fill="#b66363"/>
          </g>
          <path id="パス_2513" data-name="パス 2513" d="M-41.955-10.68a4.845,4.845,0,0,1-1.4.165h-8.325A14.4,14.4,0,0,1-53.4-10.65v2.1c.315-.03,1.125-.1,1.725-.1h7.935a16.648,16.648,0,0,1-3.81,4.32c-.945-.825-1.935-1.635-2.535-2.085l-1.59,1.275a31.907,31.907,0,0,1,3.3,2.88A41.678,41.678,0,0,1-45.51.975l1.755-1.4c-.585-.7-1.47-1.68-2.325-2.535A24.991,24.991,0,0,0-40.965-8.82a4.083,4.083,0,0,1,.51-.63Zm14.235-.4a5.415,5.415,0,0,1-1.56.195h-5.28A16.758,16.758,0,0,1-36.33-11v2.13c.315-.015,1.14-.105,1.77-.105h5.085A11.622,11.622,0,0,1-31.71-5.3,16.994,16.994,0,0,1-37.86-.99L-36.315.63a19.758,19.758,0,0,0,5.64-4.215A34.206,34.206,0,0,1-26.9.66l1.71-1.485a42.168,42.168,0,0,0-4.185-4.29A22.054,22.054,0,0,0-27.015-9.24a7.087,7.087,0,0,1,.525-.93Zm17.385.945A.868.868,0,0,1-11.2-11a.871.871,0,0,1,.87-.87A.868.868,0,0,1-9.48-11,.864.864,0,0,1-10.335-10.14Zm-9.57-.51a16.7,16.7,0,0,1-1.785-.12v2.115c.39-.03,1.1-.06,1.785-.06h6.99a9.632,9.632,0,0,1-1.77,4.23A9.858,9.858,0,0,1-20.565-.96L-18.93.825a11.871,11.871,0,0,0,6.03-4.14,15.142,15.142,0,0,0,2.25-5.46l.12-.45a.855.855,0,0,0,.195.015A1.8,1.8,0,0,0-8.55-11a1.8,1.8,0,0,0-1.785-1.8,1.805,1.805,0,0,0-1.8,1.8,1.661,1.661,0,0,0,.03.285,6.64,6.64,0,0,1-.855.06ZM3.675-8.7v6.225H-3.57V-8.7Zm2.01-.48c0-.45,0-1.005.03-1.455-.54.03-1.11.03-1.485.03H-4.02c-.4,0-.975-.015-1.59-.03.03.42.03,1.035.03,1.455v7.335c0,.72-.03,2.025-.045,2.1h2.07L-3.57-.57H3.66L3.645.255h2.07c0-.06-.03-1.5-.03-2.085ZM22.59-2.2v-1.56H16.32a8.953,8.953,0,0,0,.135-.915h5.97V-6.27h-5.79v-.765h4.59v-1.5h-4.59V-9.3h5.19v-1.575H19.05c.3-.39.66-.87,1.02-1.4l-1.92-.48A9.883,9.883,0,0,1,17.13-11l.42.12H13.83l.345-.15a5.934,5.934,0,0,0-1.11-1.71l-1.575.615a5.977,5.977,0,0,1,.78,1.245h-2.6V-9.3h5.13v.765h-4.44v1.5h4.44v.765H9.075v1.59h5.49c-.045.33-.09.63-.15.915H8.985V-2.2h4.74c-.75.915-2.16,1.515-5.01,1.89A5.267,5.267,0,0,1,9.6,1.29c3.7-.6,5.37-1.665,6.165-3.27C16.935-.015,18.75.96,21.84,1.32A6.894,6.894,0,0,1,22.905-.33C20.37-.51,18.66-1.065,17.625-2.2ZM38.265-11.9H34.71v1.56h3.555Zm-3.7,1.62a11.739,11.739,0,0,0-1.02-2.04l-1.185.495a12.36,12.36,0,0,1,.99,2.1ZM26.91-12.69a10.51,10.51,0,0,1-2.52,2.865,9.518,9.518,0,0,1,.915,1.335,14.921,14.921,0,0,0,3.21-3.63Zm1.845,6.24a15.067,15.067,0,0,1-.825,4.92,12.888,12.888,0,0,1,1.2.825A18.815,18.815,0,0,0,30.18-6.24Zm5.43-1.44V-9.525H32.25V-12.48H30.6v2.955h-2v.435l-1.35-.465A12.245,12.245,0,0,1,24.21-5.46a9.385,9.385,0,0,1,.96,1.65c.315-.285.615-.615.93-.96V1.305h1.635v-8.28a17.344,17.344,0,0,0,.87-1.53v.615h2V1.065h1.65V-7.89Zm-1.65,1.725a32.589,32.589,0,0,1,.6,4.47l1.38-.27A35.824,35.824,0,0,0,33.84-6.42ZM38.49-7.68H34.335v1.59H35.64V-.66c0,.195-.06.24-.255.24s-.81,0-1.425-.03a6.585,6.585,0,0,1,.48,1.74A4.934,4.934,0,0,0,36.69.975c.525-.285.645-.765.645-1.605V-6.09H38.49ZM52.11-2.19V-.885H49.05V-2.19Zm.33-7.5v1.065H48.165V-9.69ZM51.48-6H49.05V-7.23h2.43Zm-6.9-1.365v.735H42.735v-.735Zm-1.845,2.64V-5.49H44.58v.765Zm10.4.135V-8.325h.96v-2.82H51.1v-1.56H49.4v1.56h-2.82v.72a13.043,13.043,0,0,0-2.28-2.265h-1.6a9.251,9.251,0,0,1-2.745,3.63,4.711,4.711,0,0,1,1.1,1.155l.1-.09V-.96c-.33.06-.63.12-.9.165L40.725.84C41.94.525,43.455.105,44.94-.33a10.293,10.293,0,0,1,.405,1.2L46.86.18A14.126,14.126,0,0,0,45.135-3.3l-1.4.6q.292.495.585,1.035c-.54.135-1.08.255-1.59.375V-3.45h3.4V-8.625H44.58V-9.87H43.125v1.245H41.82a12.643,12.643,0,0,0,1.935-2.565,10.735,10.735,0,0,1,1.86,2.31l.96-1.11v1.665h.855v9.63h1.62V.615h3.06v.6h1.65V-3.66H49.05v-.93Z" transform="translate(55.164 16.909)" fill="#fff"/>
        </g>
        <g id="spot-2" data-name="spot" transform="translate(741.861 414.771)">
          <g id="マスクグループ_43-2" data-name="マスクグループ 43" transform="translate(39.647 29.735)" clip-path="url(#clip-path-4)">
            <path id="パス_1429-2" data-name="パス 1429" d="M73.884,0A19.207,19.207,0,0,0,54.7,19.185C54.7,35.89,73.884,48.8,73.884,48.8S93.069,35.89,93.069,19.185A19.207,19.207,0,0,0,73.884,0Zm0,26.925a7.74,7.74,0,1,1,7.74-7.74A7.74,7.74,0,0,1,73.884,26.925Z" transform="translate(-49.362 0)" fill="#b66363"/>
          </g>
          <path id="パス_2514" data-name="パス 2514" d="M-58.29.63a4.232,4.232,0,0,1,.9-.405,18.874,18.874,0,0,0,8.7-5.4l-1.065-1.7a17.026,17.026,0,0,1-7.71,4.95V-9.7a10.627,10.627,0,0,1,.15-1.7H-59.67a9.27,9.27,0,0,1,.165,1.7v8.13A1.959,1.959,0,0,1-59.7-.6Zm24.45-6.15a48.991,48.991,0,0,0-6.27-2.325v-2.2a16.312,16.312,0,0,1,.135-1.815h-2.34a10.462,10.462,0,0,1,.15,1.815v8.61a16.051,16.051,0,0,1-.15,2.085h2.34c-.06-.6-.135-1.65-.135-2.085V-5.685A43.325,43.325,0,0,1-34.695-3.45ZM-19.95-8.7v6.225h-7.245V-8.7Zm2.01-.48c0-.45,0-1.005.03-1.455-.54.03-1.11.03-1.485.03h-8.25c-.4,0-.975-.015-1.59-.03.03.42.03,1.035.03,1.455v7.335c0,.72-.03,2.025-.045,2.1h2.07l-.015-.825h7.23l-.015.825h2.07c0-.06-.03-1.5-.03-2.085ZM-4.275-7.8l-1.11.465A11.573,11.573,0,0,1-4.215-5.25l1.14-.51A19.658,19.658,0,0,0-4.275-7.8Zm1.68-.69-1.1.51A13.2,13.2,0,0,1-2.46-5.955l1.125-.54A22.437,22.437,0,0,0-2.595-8.49ZM-14.28-10.26l.195,2.04c1.725-.375,4.845-.7,6.135-.84a5.89,5.89,0,0,0-2.19,4.575C-10.14-1.26-7.2.42-4.08.615l.69-2.055c-2.52-.12-4.8-1-4.8-3.45A4.509,4.509,0,0,1-5.055-9.045,15.34,15.34,0,0,1-2.19-9.24L-2.2-11.16c-1.05.045-2.67.135-4.2.255-2.715.24-5.175.465-6.42.57C-13.11-10.305-13.68-10.275-14.28-10.26Zm23.4-1.02-2.115-.855c-.27.63-.54,1.11-.735,1.515C5.49-9.21,2.355-2.97,1.26,0l2.1.705A28.669,28.669,0,0,1,4.485-2.6C5.01-3.81,5.835-4.83,6.855-4.83a.8.8,0,0,1,.87.825c.045.6.03,1.815.09,2.61a2.208,2.208,0,0,0,2.46,2.07c2.3,0,3.675-1.68,4.44-4.245l-1.6-1.305c-.42,1.845-1.23,3.51-2.505,3.51a.839.839,0,0,1-.945-.81C9.57-2.79,9.615-3.99,9.585-4.65A1.793,1.793,0,0,0,7.74-6.6a3.38,3.38,0,0,0-1.7.45c.735-1.3,1.86-3.375,2.6-4.44C8.805-10.83,8.97-11.1,9.12-11.28Zm10.2-.6a9.326,9.326,0,0,1,.195,2.01c0,1.275-.15,5.175-.15,7.17C19.365-.165,20.94.9,23.37.9a7.731,7.731,0,0,0,6.45-3.39L28.47-4.155a5.931,5.931,0,0,1-5.085,3.03,1.788,1.788,0,0,1-2.04-1.98c0-1.845.1-5.175.18-6.765a15.245,15.245,0,0,1,.2-1.98Zm21.4,3.39a12.239,12.239,0,0,0-1.65-1.41l-1.305.96a12.229,12.229,0,0,1,1.6,1.425Zm-6.24.465a6.507,6.507,0,0,1,.72,1.035c.15.255.33.585.51.96-.36.15-.72.3-1.05.435-.195.075-.765.255-1.32.405l.84,1.8c.4-.18,1.245-.63,2.25-1.11.12.285.24.57.345.825a41.055,41.055,0,0,1,1.62,4.92L40.275.8C39.87-.525,39-3.09,38.43-4.395c-.1-.255-.225-.54-.375-.855A10.465,10.465,0,0,1,41.52-6.285c.915,0,1.365.5,1.365.99,0,.765-.51,1.275-1.53,1.275a4.4,4.4,0,0,1-1.68-.39L39.63-2.7a5.445,5.445,0,0,0,1.86.375c2.2,0,3.225-1.155,3.225-2.985,0-1.305-.975-2.64-3.135-2.64a12.882,12.882,0,0,0-4.215,1.23c-.21-.45-.42-.84-.57-1.14-.1-.225-.3-.6-.45-.87Zm25.5,5.835V-.885h-3.06V-2.19Zm.33-7.5v1.065H56.04V-9.69ZM59.355-6h-2.43V-7.23h2.43Zm-6.9-1.365v.735H50.61v-.735ZM50.61-4.725V-5.49h1.845v.765Zm10.4.135V-8.325h.96v-2.82H58.98v-1.56H57.27v1.56H54.45v.72a13.043,13.043,0,0,0-2.28-2.265h-1.6A9.251,9.251,0,0,1,47.82-9.06a4.711,4.711,0,0,1,1.1,1.155l.1-.09V-.96c-.33.06-.63.12-.9.165L48.6.84C49.815.525,51.33.105,52.815-.33A10.293,10.293,0,0,1,53.22.87L54.735.18A14.126,14.126,0,0,0,53.01-3.3l-1.4.6q.292.495.585,1.035c-.54.135-1.08.255-1.59.375V-3.45h3.4V-8.625h-1.56V-9.87H51v1.245H49.695A12.643,12.643,0,0,0,51.63-11.19a10.735,10.735,0,0,1,1.86,2.31l.96-1.11v1.665h.855v9.63h1.62V.615h3.06v.6h1.65V-3.66h-4.71v-.93Z" transform="translate(62.642 16.692)" fill="#fff"/>
        </g>
        <g id="spot-3" data-name="spot" transform="translate(534.475 605.383)">
          <g id="マスクグループ_43-3" data-name="マスクグループ 43" transform="translate(55.659 29.735)" clip-path="url(#clip-path-5)">
            <path id="パス_1429-3" data-name="パス 1429" d="M73.884,0A19.207,19.207,0,0,0,54.7,19.185C54.7,35.89,73.884,48.8,73.884,48.8S93.069,35.89,93.069,19.185A19.207,19.207,0,0,0,73.884,0Zm0,26.925a7.74,7.74,0,1,1,7.74-7.74A7.74,7.74,0,0,1,73.884,26.925Z" transform="translate(-49.362 0)" fill="#b66363"/>
          </g>
          <path id="パス_2520" data-name="パス 2520" d="M-71.88-.9V-3.825h5.085V-.9Zm2.64-8.775A11.756,11.756,0,0,1-71.325-6.93,21.152,21.152,0,0,0-73.71-8.91c.255-.255.5-.51.735-.765Zm4.305,4.23H-70.29a13.886,13.886,0,0,0,3.48-5.235l-1.23-.645-.3.09h-3.405c.27-.39.525-.78.75-1.17L-73-12.78a11.983,11.983,0,0,1-4.98,4.77,6.213,6.213,0,0,1,1.26,1.395,15.44,15.44,0,0,0,1.665-1.14,20.836,20.836,0,0,1,2.295,2.07,16.676,16.676,0,0,1-5.25,2.595A5.7,5.7,0,0,1-76.98-1.5a19.229,19.229,0,0,0,3.315-1.47V1.29h1.785V.705h5.085v.6h1.86Zm13.17,4.35h-6.78v-2.94h6.78Zm3.465-7.32v-1.74h-5.85v-2.55H-56.1v2.55h-5.835v1.74H-56.1V-5.73h-4.32V1.305h1.875V.6h6.78v.645h1.95V-5.73H-54.15V-8.415ZM-36.57-6.15l-.645.39a8.112,8.112,0,0,1,.735.57c-1.005.03-2.01.06-2.955.09.24-.33.495-.69.735-1.05Zm1.38-4.425v.93h-7.8v-.93ZM-37.335-.465V-1.5h3.6V-2.91h-3.6v-.93l2.295-.09a7.494,7.494,0,0,1,.69.735l1.485-.915a16.19,16.19,0,0,0-2.37-2.04h2.25V-7.545H-42.99v-.66h9.6v-3.81H-44.775V-7.68c0,2.385-.12,5.76-1.6,8.07a6.959,6.959,0,0,1,1.59.915c1.29-2.01,1.68-5.01,1.77-7.455h2.34c-.21.375-.435.765-.645,1.11l-1.575.03.075,1.395c1.065-.045,2.355-.09,3.765-.15v.855H-42.6V-1.5h3.54V-.465H-43.6V.945H-32.67V-.465Zm20.58-8.61v-1.74H-22.71v-1.95h-1.905v1.95h-5.82v1.74H-24.6V-7.5h-4.425v7h1.8V-5.76H-24.6V1.32h1.86V-5.76h2.865v3.3c0,.165-.075.24-.315.24s-1.125,0-1.875-.03a6.4,6.4,0,0,1,.6,1.755A7.153,7.153,0,0,0-18.81-.8c.615-.27.8-.78.8-1.635V-7.5H-22.74V-9.075Zm12.93-1.035H-5.31v-.6h1.485Zm0,1.62H-5.31v-.6h1.485Zm-7.815-.6h1.395v.6H-11.64Zm0-1.62h1.395v.6H-11.64Zm4.575,1.62v.6H-8.52v-.6Zm0-1.62v.6H-8.52v-.6Zm4.95-1.08h-3.2v-.915H-7.065v.915H-8.52v-.915h-1.725v.915h-3.03V-7.4h11.16ZM-3.4-2.325a20.215,20.215,0,0,1-1.83.87,5.116,5.116,0,0,1-1.005-.87Zm-5.745,0h1.11A6.793,6.793,0,0,0-6.975-.9L-9.15-.69Zm6.84,0h1.185V-3.6H-11.73c.03-.5.045-.96.045-1.38v-.69h10.17V-6.93H-13.38v1.92c0,1.56-.15,3.825-1.455,5.43a8.832,8.832,0,0,1,1.5.9A8.012,8.012,0,0,0-11.9-2.325h1.005V-.51l-1.2.105.18,1.47C-10.44.9-8.49.69-6.645.465l-.03-1.08A8.819,8.819,0,0,0-1.8,1.305,6.844,6.844,0,0,1-.81-.2,11.945,11.945,0,0,1-3.825-.78c.72-.24,1.53-.54,2.31-.87ZM-2.67-4.1V-5.22h-8.265V-4.1ZM9.72-8.805c-.165.405-.345.84-.525,1.2H6.39l.255-.045a7.388,7.388,0,0,0-.51-1.155Zm4.845,6.69v-1.47H8.73v-.66h4.5v-1.29H8.73V-6.21h5.2V-7.605h-2.94c.225-.36.465-.765.705-1.2h2.82V-10.26H12.57c.345-.525.75-1.2,1.17-1.89l-1.875-.45a12.083,12.083,0,0,1-.945,2.175l.54.165H10.125v-2.445H8.445v2.445H7.335v-2.445H5.67v2.445H4.305l.735-.27A11.35,11.35,0,0,0,3.9-12.645l-1.53.525a13.445,13.445,0,0,1,.93,1.86H1.29v1.455H4.425l-.18.03a6.74,6.74,0,0,1,.51,1.17H1.905V-6.21h5.07v.675H2.655v1.29h4.32v.66H1.245v1.47H5.55A15.759,15.759,0,0,1,.81-.36,8.32,8.32,0,0,1,1.95,1.125a14.229,14.229,0,0,0,5.025-2.43v2.61H8.73v-2.7A12.8,12.8,0,0,0,13.77,1.14a8.391,8.391,0,0,1,1.2-1.62,13.4,13.4,0,0,1-4.755-1.635Zm11.64-1.29a21.091,21.091,0,0,0,3.1-4.365c.135-.27.36-.6.495-.81L28.365-9.7a4.895,4.895,0,0,1-1.065.36c-.675.15-2.775.585-4.965.99v-1.77a12.346,12.346,0,0,1,.135-1.71H20.235a12.574,12.574,0,0,1,.12,1.71V-7.98c-1.485.27-2.805.495-3.51.585L17.2-5.43c.63-.15,1.815-.39,3.15-.66V-2c0,1.77.5,2.6,3.915,2.6A35.259,35.259,0,0,0,28.92.27l.06-2.025a25.771,25.771,0,0,1-4.74.5c-1.635,0-1.9-.33-1.9-1.26V-6.5c2.13-.42,4.155-.825,4.62-.915a13.03,13.03,0,0,1-2.4,3.03Zm9.285-8L34.08-9.9a31.189,31.189,0,0,1,3.75,3.24l1.53-1.575A31.5,31.5,0,0,0,35.49-11.4ZM33.615-1.41,34.875.57A16.245,16.245,0,0,0,40.44-1.545,15.95,15.95,0,0,0,45.99-7.1L44.82-9.21a14.223,14.223,0,0,1-5.46,5.835A15.46,15.46,0,0,1,33.615-1.41ZM59.58-10.515a4.763,4.763,0,0,1-1.305.165H55.2l.015-.015c.18-.315.57-1,.93-1.53L53.97-12.57A6.636,6.636,0,0,1,53.295-11a13.73,13.73,0,0,1-4.785,4.98L50.13-4.77a17.652,17.652,0,0,0,3.96-3.87H58.4a10.926,10.926,0,0,1-1.56,3.2c-1-.6-2.025-1.17-2.82-1.575L52.74-5.6c.765.435,1.785,1.05,2.8,1.71A12.685,12.685,0,0,1,49.95-.525L51.69.99a14.317,14.317,0,0,0,5.535-3.735,17.37,17.37,0,0,1,1.4,1.065l1.365-1.755c-.375-.27-.885-.615-1.44-.96a17.267,17.267,0,0,0,2.07-4.11A7.056,7.056,0,0,1,61.11-9.57ZM64.755-4.59c.555-.045,1.56-.075,2.415-.075h8.055c.63,0,1.4.06,1.755.075V-6.945c-.39.03-1.065.09-1.755.09H67.17c-.78,0-1.875-.045-2.415-.09Z" transform="translate(78.027 17.081)" fill="#fff"/>
        </g>
        <g id="spot-4" data-name="spot" transform="translate(47.272)">
          <g id="マスクグループ_43-4" data-name="マスクグループ 43" transform="translate(23.636 29.735)" clip-path="url(#clip-path-6)">
            <path id="パス_1429-4" data-name="パス 1429" d="M73.884,0A19.207,19.207,0,0,0,54.7,19.185C54.7,35.89,73.884,48.8,73.884,48.8S93.069,35.89,93.069,19.185A19.207,19.207,0,0,0,73.884,0Zm0,26.925a7.74,7.74,0,1,1,7.74-7.74A7.74,7.74,0,0,1,73.884,26.925Z" transform="translate(-49.362 0)" fill="#b66363"/>
          </g>
          <path id="パス_2510" data-name="パス 2510" d="M-42.975-5.46h2.64v.915h-2.64Zm0-2.145h2.64v.885h-2.64Zm7.245,0v.885h-2.76v-.885Zm0,3.06h-2.76V-5.46h2.76Zm1.815,1.335V-8.94H-38.49V-9.8h5.775V-11.46H-38.49v-1.23h-1.845v1.23h-5.64V-9.8h5.64v.855H-44.7v5.73h3.03A13.567,13.567,0,0,1-46.4-.375a9.766,9.766,0,0,1,1.23,1.5,14.637,14.637,0,0,0,4.83-3.39v3.57h1.845V-2.34a14.867,14.867,0,0,0,4.92,3.5A7.856,7.856,0,0,1-32.295-.39,14.3,14.3,0,0,1-37.14-3.21Zm14.565-5.9v7.4h-3.405V-12.3h-1.86V-1.71H-27.87V-9.075H-29.7v10.2h1.83V.135h8.52V1.08h1.86V-9.105ZM-10.215-1.8H-7.5V-3.06h-2.715v-.585H-7.56V-8.28h-2.655v-.585h2.88V-7.7H-5.97c-.105,2.685-.465,4.83-1.635,6.45-.87.075-1.755.15-2.61.21Zm-2.79-2.955V-5.43h1.17v.675Zm3.96-.675v.675h-1.17V-5.43ZM-10.215-6.5v-.66h1.17v.66Zm-2.79-.66h1.17v.66h-1.17ZM-4.23-9.33c.03-.99.03-2.04.03-3.135H-5.91c0,1.11,0,2.145-.015,3.135h-1.41v-.825h-2.88v-.735c.975-.105,1.905-.24,2.7-.4L-8.3-12.63a46.475,46.475,0,0,1-6.465.735,5.556,5.556,0,0,1,.39,1.26c.81-.015,1.665-.06,2.535-.12v.6H-14.79v1.29h2.955v.585h-2.58v4.635h2.58v.585h-2.64V-1.8h2.64v.9c-1.155.075-2.2.15-3.045.21l.21,1.5C-13.05.675-10.89.45-8.73.225A5.844,5.844,0,0,1-7.68,1.41c2.52-2,3.21-5.085,3.405-9.105h1.35c-.09,4.845-.24,6.675-.555,7.08a.545.545,0,0,1-.51.255c-.285,0-.855-.015-1.515-.075a4.176,4.176,0,0,1,.525,1.71,10.062,10.062,0,0,0,1.86-.06A1.674,1.674,0,0,0-1.935.465c.48-.69.6-2.865.735-9,0-.21.015-.8.015-.8ZM12.615-6.825h-2.37V-7.56h2.37Zm0,1.89h-2.37v-.72h2.37Zm0,1.935h-2.37v-.765h2.37Zm-3.9-5.805v7.05h5.49v-7.05H11.7c.06-.315.1-.66.15-1.005h3.015v-1.5H12.03c.045-.45.105-.885.135-1.305L10.35-12.69c-.015.435-.03.9-.06,1.38H6.525v1.5H10.17c-.03.345-.06.69-.09,1.005Zm-4.2.84h1.5v-1.65h-1.5v-3.09H2.9v3.09H1.1v1.65H2.76A15,15,0,0,1,.75-2.94a8.558,8.558,0,0,1,.78,1.575A12.654,12.654,0,0,0,2.9-4.32V1.29h1.62V-5.175c.33.645.645,1.32.825,1.755L6.255-4.7C6-5.1,4.92-6.75,4.515-7.305ZM14.925-.93H7.935V-7.905H6.33V1.32h1.6V.6h6.99ZM22.26-6.09l-1.38.39V-8.115h1.245v-1.7H20.88v-2.88H19.245v2.88h-.7c.09-.6.165-1.185.225-1.785L17.28-11.85a18.749,18.749,0,0,1-.855,4.83,13.05,13.05,0,0,1,1.26.825,13.632,13.632,0,0,0,.555-1.92h1.005V-5.25c-1.02.285-1.935.525-2.685.69L17-2.865c.69-.18,1.44-.42,2.25-.66V1.32H20.88V-4.02c.555-.165,1.08-.345,1.62-.5Zm2.67-4.29c.21-.66.4-1.335.555-2.025l-1.62-.3a12.416,12.416,0,0,1-2.46,5.655,10.178,10.178,0,0,1,1.35,1A11.169,11.169,0,0,0,24.3-8.73h.765A11.636,11.636,0,0,1,21.75-3.165,6.3,6.3,0,0,1,23.115-2.16,15.17,15.17,0,0,0,26.55-8.73h.7c-.75,3.51-2.25,6.915-4.65,8.64A6.655,6.655,0,0,1,24.06.945c2.415-1.995,3.96-5.9,4.695-9.675h.075c-.24,5.385-.51,7.425-.885,7.905a.626.626,0,0,1-.555.285A12.167,12.167,0,0,1,26.055-.6a4.986,4.986,0,0,1,.5,1.74A8.577,8.577,0,0,0,28.245,1.1a1.643,1.643,0,0,0,1.17-.78c.57-.75.84-3.2,1.125-9.885.015-.21.03-.81.03-.81ZM43.5-8.19H40.125v-.57h2.76v-.96h-2.76v-.63h-1.62v.63h-2.64v.96h2.64v.57H35.16v1.005H43.5ZM37.41-5.82h3.87v.75H37.41Zm2.85,1.65h1.755c-.315.24-.66.5-.975.705a6.356,6.356,0,0,1-.825-.66Zm2.58-.24V-6.735H35.925V-4.17H38.28A12.187,12.187,0,0,1,34.815-2.6a7.228,7.228,0,0,1,.96,1.125A14.405,14.405,0,0,0,38.34-2.715v1.56H39.9v-1.68A9.123,9.123,0,0,0,42.93-1.14a5.025,5.025,0,0,1,.9-1.14,9.159,9.159,0,0,1-1.77-.615,13.559,13.559,0,0,0,1.53-1.02ZM34.65-.825V-10.53h9.375V-.825Zm-1.68-11.31V1.305h1.68V.765h9.375v.54h1.74v-13.44Z" transform="translate(47.23 17.461)" fill="#fff"/>
        </g>
        <g id="spot-5" data-name="spot" transform="translate(0 585.559)">
          <g id="マスクグループ_43-5" data-name="マスクグループ 43" transform="translate(23.636 29.735)" clip-path="url(#clip-path-7)">
            <path id="パス_1429-5" data-name="パス 1429" d="M73.884,0A19.207,19.207,0,0,0,54.7,19.185C54.7,35.89,73.884,48.8,73.884,48.8S93.069,35.89,93.069,19.185A19.207,19.207,0,0,0,73.884,0Zm0,26.925a7.74,7.74,0,1,1,7.74-7.74A7.74,7.74,0,0,1,73.884,26.925Z" transform="translate(-49.362 0)" fill="#b66363"/>
          </g>
          <path id="パス_2523" data-name="パス 2523" d="M-36.39-9.42-36.4-10.5a12.831,12.831,0,0,1,.09-1.515h-2.13c.075.525.12,1.08.15,1.515q.022.495.045,1.08h-4.965a14.359,14.359,0,0,1-1.665-.105V-7.53c.525-.03,1.17-.06,1.71-.06h4.1a18.064,18.064,0,0,1-6.6,5.205l1.38,1.56a20.627,20.627,0,0,0,6.12-5.07c.03,1.545.03,3.045.03,4.05,0,.435-.15.63-.525.63a12.741,12.741,0,0,1-1.995-.18L-40.5.555c.855.06,1.695.09,2.61.09,1.14,0,1.695-.555,1.68-1.515-.03-2.025-.09-4.53-.135-6.72h1.935c.4,0,.975.03,1.455.045v-2a11.6,11.6,0,0,1-1.56.12ZM-24.8-8.13a8.316,8.316,0,0,1,.1,1.35c0,2.46-.36,4.05-2.265,5.37a5.927,5.927,0,0,1-1.575.825L-26.79.84c4.1-2.19,4.17-5.25,4.17-8.97Zm7.095-3.135a7.473,7.473,0,0,1-1.515.135H-27.3a11.892,11.892,0,0,1-1.83-.15V-9.2c.7-.06,1.2-.1,1.83-.1h7.815a8.92,8.92,0,0,1-2.76,2.79L-20.7-5.265a15.094,15.094,0,0,0,3.615-4.11,7.552,7.552,0,0,1,.585-.78Zm6.66-.615-1.1,1.65c.99.555,2.55,1.575,3.39,2.16L-7.62-9.735C-8.4-10.275-10.05-11.325-11.04-11.88ZM-13.83-1.23-12.705.75A18.252,18.252,0,0,0-7.7-1.11,18.112,18.112,0,0,0-1.725-6.5L-2.88-8.535A15.291,15.291,0,0,1-8.715-2.91,16.645,16.645,0,0,1-13.83-1.23Zm.48-7.23-1.1,1.665a39.176,39.176,0,0,1,3.42,2.13l1.1-1.68C-10.7-6.885-12.345-7.92-13.35-8.46Zm24.705-2.625a5.415,5.415,0,0,1-1.56.195H4.515A16.758,16.758,0,0,1,2.745-11v2.13c.315-.015,1.14-.105,1.77-.105H9.6A11.622,11.622,0,0,1,7.365-5.3,16.994,16.994,0,0,1,1.215-.99L2.76.63A19.758,19.758,0,0,0,8.4-3.585,34.206,34.206,0,0,1,12.18.66L13.89-.825a42.168,42.168,0,0,0-4.185-4.29A22.054,22.054,0,0,0,12.06-9.24a7.087,7.087,0,0,1,.525-.93ZM19.92-2.7c-.555,0-1.155-.735-1.155-2.235A4.658,4.658,0,0,1,22.53-9.24a23.843,23.843,0,0,1-.8,3.6C21.135-3.63,20.535-2.7,19.92-2.7ZM24,.615c3.75-.57,5.67-2.79,5.67-5.91a5.669,5.669,0,0,0-6-5.805,6.624,6.624,0,0,0-6.84,6.36c0,2.505,1.4,4.32,3.03,4.32s2.91-1.83,3.8-4.83a32.282,32.282,0,0,0,.885-4.035,3.677,3.677,0,0,1,3.1,3.93A4.022,4.022,0,0,1,24.27-1.38c-.39.09-.81.165-1.38.24ZM38.115-6h1.77V-9.18a11.985,11.985,0,0,0,4.77,3.135,7.277,7.277,0,0,1,1.14-1.47,11.953,11.953,0,0,1-4.26-2.115h3.6v-1.575h-5.25v-1.53h-1.77v1.53H33.1V-9.63h3.36A11.188,11.188,0,0,1,32.43-7.38,6.592,6.592,0,0,1,33.54-6a11.537,11.537,0,0,0,4.575-3.12Zm-1.6,2.655h1.92v-1.56H36.51V-6.51H34.83v1.605H32.3v1.56h1.89a6.98,6.98,0,0,1-2.22,2.31,8.844,8.844,0,0,1,.75,1.68A7.292,7.292,0,0,0,34.83-1.7V1.29h1.68V-1.455c.36.345.72.705.93.945l1.035-1.32c-.285-.225-1.38-.945-1.965-1.29Zm9.39,0v-1.56H42.945V-6.51H41.28v1.605H38.9v1.56h1.5A7.213,7.213,0,0,1,37.725-.57,7.446,7.446,0,0,1,38.82.72a8.1,8.1,0,0,0,2.46-2.775V1.29h1.665V-2.085A10.33,10.33,0,0,0,45.03.69,7.751,7.751,0,0,1,46.29-.75a8.918,8.918,0,0,1-2.535-2.6Z" transform="translate(46.502 16.903)" fill="#fff"/>
        </g>
        <g id="spot-6" data-name="spot" transform="translate(734.999 624.444)">
          <g id="マスクグループ_43-6" data-name="マスクグループ 43" transform="translate(39.647 29.735)" clip-path="url(#clip-path-8)">
            <path id="パス_2386-2" data-name="パス 2386" d="M-2645.459-16889.562a19.208,19.208,0,0,1,19.185-19.186,19.212,19.212,0,0,1,19.185,19.186c0,16.709-19.185,29.611-19.185,29.611S-2645.459-16872.854-2645.459-16889.562Z" transform="translate(2650.796 16908.748)" fill="#63b67c"/>
            <path id="パス_2387-2" data-name="パス 2387" d="M1.025,6.173V-10.021H4.3v6.374H10.7v-6.374h3.27V6.173H10.7V-.908H4.3V6.173Z" transform="translate(17.731 23.439)" fill="#fff"/>
          </g>
          <path id="パス_2521" data-name="パス 2521" d="M-50.175-10.965a8.126,8.126,0,0,1-1.425.1h-7.17c-.69,0-1.35-.03-1.83-.06a11.831,11.831,0,0,1,.075,1.26V-6.5c0,.39-.03.765-.075,1.23h2.2a10.389,10.389,0,0,1-.06-1.23V-9h7.2A10.774,10.774,0,0,1-52.62-4.5,9.291,9.291,0,0,1-58.14-.885l1.68,1.71A10.926,10.926,0,0,0-50.775-3.48,14.615,14.615,0,0,0-48.99-9.045a9.128,9.128,0,0,1,.27-1Zm7.29-.435-1.41,1.5a31.189,31.189,0,0,1,3.75,3.24l1.53-1.575A31.5,31.5,0,0,0-42.885-11.4ZM-44.76-1.41-43.5.57a16.245,16.245,0,0,0,5.565-2.115,15.95,15.95,0,0,0,5.55-5.55l-1.17-2.115a14.223,14.223,0,0,1-5.46,5.835A15.46,15.46,0,0,1-44.76-1.41Zm26.88-8.85a21.963,21.963,0,0,0-1.185-2.055l-1.185.48a17.017,17.017,0,0,1,.99,1.71,4.941,4.941,0,0,1-1.185.135H-23.52l.015-.015c.18-.33.555-1,.915-1.53l-2.175-.675a6.915,6.915,0,0,1-.675,1.575,13.91,13.91,0,0,1-4.77,4.98l1.62,1.245a17.9,17.9,0,0,0,3.945-3.87h4.305a10.926,10.926,0,0,1-1.56,3.2c-1-.6-2.025-1.17-2.82-1.575l-1.26,1.425c.765.435,1.785,1.05,2.79,1.71a12.536,12.536,0,0,1-5.58,3.36l1.74,1.515a14.432,14.432,0,0,0,5.535-3.735c.54.39,1.035.75,1.4,1.065l1.35-1.77c-.375-.27-.885-.6-1.44-.96a16.4,16.4,0,0,0,2.07-4.1,8.04,8.04,0,0,1,.495-1.08L-18.72-9.9Zm-.6-2.25a14.276,14.276,0,0,1,1.2,2.07l1.2-.51A19.7,19.7,0,0,0-17.3-12.99Zm4.86,7.92c.555-.045,1.56-.075,2.415-.075H-3.15c.63,0,1.395.06,1.755.075V-6.945c-.39.03-1.065.09-1.755.09H-11.2c-.78,0-1.875-.045-2.415-.09Zm28.245-6.375a20.21,20.21,0,0,0-1.215-2.04l-1.185.495a17.609,17.609,0,0,1,1.215,2.055Zm-2.76.9.855-.36a21.853,21.853,0,0,0-1.2-2.055l-1.185.495c.27.405.57.93.825,1.41l-.18-.135a5.478,5.478,0,0,1-1.545.18H4.14a16.758,16.758,0,0,1-1.77-.105v2.13c.315-.015,1.14-.1,1.77-.1H9.225A11.622,11.622,0,0,1,6.99-4.935,16.815,16.815,0,0,1,.84-.63L2.385.99a19.707,19.707,0,0,0,5.64-4.2,33.163,33.163,0,0,1,3.78,4.245l1.71-1.5A42.168,42.168,0,0,0,9.33-4.755a21.973,21.973,0,0,0,2.355-4.11,7.381,7.381,0,0,1,.525-.945Zm7.485,3.7a15.1,15.1,0,0,1-2.82,3.87l1.635,1.11A24.354,24.354,0,0,0,21.06-5.565ZM27.945-7.7c.42,0,1.005.015,1.47.045V-9.615a11.931,11.931,0,0,1-1.485.105H24.45V-10.7a9.225,9.225,0,0,1,.135-1.32h-2.22a9.968,9.968,0,0,1,.12,1.305v1.2h-3.81c-.465,0-.99-.06-1.44-.105v1.98c.42-.045.99-.06,1.44-.06h3.81v.015c0,.7,0,5.46-.015,6.015-.015.39-.15.54-.54.54a9.777,9.777,0,0,1-1.665-.165l.18,1.845a21.392,21.392,0,0,0,2.43.135C23.94.69,24.45.15,24.45-.72V-7.7ZM25.86-5.52A30.319,30.319,0,0,1,28.305-1.5l1.755-.96A34.867,34.867,0,0,0,27.5-6.405ZM42.15-9.63c.525,0,1.1.03,1.62.06v-1.935a11.752,11.752,0,0,1-1.62.1H36.12a11.176,11.176,0,0,1-1.59-.1V-9.57c.45-.03,1.08-.06,1.605-.06ZM34.215-7.575c-.465,0-.99-.045-1.44-.09V-5.7c.42-.03,1-.06,1.44-.06H38.34a6.446,6.446,0,0,1-.93,3.315A6.231,6.231,0,0,1,34.695-.3L36.45.975a7.2,7.2,0,0,0,3.015-2.88,9.516,9.516,0,0,0,.96-3.855H44.04c.42,0,.99.015,1.365.045v-1.95a11.542,11.542,0,0,1-1.365.09ZM49.68.66a8.688,8.688,0,0,0,2.67-4.305,33.1,33.1,0,0,0,.45-6.45,9.566,9.566,0,0,1,.1-1.35H50.7a5.475,5.475,0,0,1,.135,1.365A25.848,25.848,0,0,1,50.4-4.14,7.076,7.076,0,0,1,47.85-.555Zm6.36.045a3.824,3.824,0,0,1,.66-.45,16.516,16.516,0,0,0,5.085-4.1L60.63-5.49a9.5,9.5,0,0,1-3.705,3.165V-10.17a7.617,7.617,0,0,1,.1-1.305H54.795a6.649,6.649,0,0,1,.12,1.29V-1.44a5.708,5.708,0,0,1-.12,1.11Z" transform="translate(61.504 17.018)" fill="#fff"/>
        </g>
        <g id="spot-7" data-name="spot" transform="translate(294.304 309.553)">
          <g id="マスクグループ_43-7" data-name="マスクグループ 43" transform="translate(16.011 29.735)" clip-path="url(#clip-path-9)">
            <path id="パス_1429-6" data-name="パス 1429" d="M73.884,0A19.207,19.207,0,0,0,54.7,19.185C54.7,35.89,73.884,48.8,73.884,48.8S93.069,35.89,93.069,19.185A19.207,19.207,0,0,0,73.884,0Zm0,26.925a7.74,7.74,0,1,1,7.74-7.74A7.74,7.74,0,0,1,73.884,26.925Z" transform="translate(-49.362 0)" fill="#b66363"/>
          </g>
          <path id="パス_2515" data-name="パス 2515" d="M-34.8-6.8h1.5v-1.62h-1.5v-2.2a12.044,12.044,0,0,0,1.665-.54,4.286,4.286,0,0,1,.33,1.095,39.88,39.88,0,0,0,7.7-1.23l-1.245-1.335a35.313,35.313,0,0,1-6.9,1.2l.045.075-1.1-1.1a19.037,19.037,0,0,1-4.245,1.185,5.773,5.773,0,0,1,.465,1.29c.51-.075,1.05-.15,1.59-.255v1.815H-38.43V-6.8h1.65a14.673,14.673,0,0,1-1.875,4.05,9.715,9.715,0,0,1,.795,1.7,13.07,13.07,0,0,0,1.365-2.79V1.305H-34.8v-5.91c.33.51.66,1.035.84,1.38l.99-1.365c-.27-.3-1.425-1.47-1.83-1.815Zm1.95,8.07h1.635V-6.6H-32.85ZM-33.06-9.45a8.828,8.828,0,0,1,.93,2.58l1.515-.51A8.008,8.008,0,0,0-31.65-9.885Zm4.995,1.8a10.942,10.942,0,0,0-.84-2.61l-1.47.4a9.777,9.777,0,0,1,.75,2.655ZM-28.77-.84V-2.175h2.13V-.84Zm2.13-4.035V-3.63h-2.13V-4.875Zm.15-5.7A23.419,23.419,0,0,1-27.87-6.8l1.335.4H-30.36V1.335h1.59V.675h2.13V1.26h1.665V-6.39h-1.38a32.09,32.09,0,0,0,1.6-3.7Zm7.575.99h1.47V-10.5h3.375v.975h1.14v.63h-2.31V-9.87H-16.9V-8.9h-2.01Zm5.985,2.76h-2.31V-7.53h2.31ZM-8.94-1.77V-3.135h-5.97V-3.87h5.43V-5.25h-9.435V-7.53h2.01v1.725h5.73V-7.53H-9.06V-8.9h-2.115v-.87h-1.11V-10.5H-9.03v-1.365h-3.255v-.825H-14.07v.825h-3.375v-.825h-1.77v.825H-22.44V-10.5h3.225v.72h-1.47V-8.9h-1.74V-7.53h1.74v3.66h4.035v.735h-5.865V-1.77h4.53a17.951,17.951,0,0,1-4.89,1.53A8.482,8.482,0,0,1-21.78,1.2,15.731,15.731,0,0,0-16.65-1v2.31h1.74v-2.43a12.4,12.4,0,0,0,5.145,2.37A6.438,6.438,0,0,1-8.625-.3,14.521,14.521,0,0,1-13.44-1.77ZM4.275-9.105v7.4H.87V-12.3H-.99V-1.71H-4.245V-9.075h-1.83v10.2h1.83V.135h8.52V1.08h1.86V-9.105Zm12.63-2.505a31.192,31.192,0,0,0,4.23,5.94,9.233,9.233,0,0,1,1.5-1.56,20.162,20.162,0,0,1-3.945-5.115Zm-4.215-.765A12.827,12.827,0,0,1,8.955-7.02a10.86,10.86,0,0,1,1.71,1.335A18.262,18.262,0,0,0,14.73-11.79ZM17.16-3.96c.555.735,1.155,1.59,1.695,2.43-1.74.09-3.495.18-5.115.255A56.252,56.252,0,0,0,16.41-6.75l-2.145-.495A36.685,36.685,0,0,1,11.7-1.185L9.615-1.11,9.855.765C12.5.645,16.275.42,19.875.18a10.2,10.2,0,0,1,.615,1.2L22.35.405A34.4,34.4,0,0,0,18.9-4.77ZM35.625-8.19H32.25v-.57h2.76v-.96H32.25v-.63H30.63v.63H27.99v.96h2.64v.57H27.285v1.005h8.34Zm-6.09,2.37H33.4v.75h-3.87Zm2.85,1.65H34.14c-.315.24-.66.5-.975.705a6.356,6.356,0,0,1-.825-.66Zm2.58-.24V-6.735H28.05V-4.17h2.355A12.187,12.187,0,0,1,26.94-2.6,7.228,7.228,0,0,1,27.9-1.47a14.405,14.405,0,0,0,2.565-1.245v1.56h1.56v-1.68a9.123,9.123,0,0,0,3.03,1.695,5.025,5.025,0,0,1,.9-1.14,9.159,9.159,0,0,1-1.77-.615,13.559,13.559,0,0,0,1.53-1.02ZM26.775-.825V-10.53H36.15V-.825Zm-1.68-11.31V1.305h1.68V.765H36.15v.54h1.74v-13.44Z" transform="translate(39.198 16.909)" fill="#fff"/>
        </g>
      </g>
    </g>
  </g>
</svg>
