<svg xmlns="http://www.w3.org/2000/svg" xmlns:xlink="http://www.w3.org/1999/xlink" width="1072" height="747" viewBox="0 0 1072 747">
  <defs>
    <clipPath id="clip-path">
      <rect id="長方形_485" data-name="長方形 485" width="1072" height="747" transform="translate(0 0.197)" fill="#fff" stroke="#707070" stroke-width="1"/>
    </clipPath>
    <clipPath id="clip-path-2">
      <rect id="長方形_486" data-name="長方形 486" width="40" height="40" transform="translate(64.541 0.254)" fill="#333f69" stroke="#707070" stroke-width="1"/>
    </clipPath>
    <clipPath id="clip-path-3">
      <rect id="長方形_403" data-name="長方形 403" width="49" height="49" transform="translate(0.141 0.173)" fill="#333f69" stroke="#707070" stroke-width="1"/>
    </clipPath>
    <clipPath id="clip-path-4">
      <rect id="長方形_403-2" data-name="長方形 403" width="49" height="49" transform="translate(-0.006 -0.044)" fill="#333f69" stroke="#707070" stroke-width="1"/>
    </clipPath>
    <clipPath id="clip-path-5">
      <rect id="長方形_403-3" data-name="長方形 403" width="48" height="48" transform="translate(0.368 0.345)" fill="#333f69" stroke="#707070" stroke-width="1"/>
    </clipPath>
    <clipPath id="clip-path-6">
      <rect id="長方形_403-4" data-name="長方形 403" width="49" height="49" transform="translate(-0.405 -0.273)" fill="#333f69" stroke="#707070" stroke-width="1"/>
    </clipPath>
    <clipPath id="clip-path-7">
      <rect id="長方形_403-5" data-name="長方形 403" width="49" height="49" transform="translate(-0.134 0.167)" fill="#333f69" stroke="#707070" stroke-width="1"/>
    </clipPath>
    <clipPath id="clip-path-8">
      <rect id="長方形_403-6" data-name="長方形 403" width="49" height="49" transform="translate(-0.144 0.282)" fill="#333f69" stroke="#707070" stroke-width="1"/>
    </clipPath>
    <clipPath id="clip-path-9">
      <rect id="長方形_403-7" data-name="長方形 403" width="49" height="49" transform="translate(0.186 0.173)" fill="#333f69" stroke="#707070" stroke-width="1"/>
    </clipPath>
  </defs>
  <g id="map_illust" transform="translate(0 -0.197)" clip-path="url(#clip-path)">
    <g id="グループ_420" data-name="グループ 420" transform="translate(-2.051 -10.854)">
      <g id="map" transform="translate(1.651 10.453)">
        <path id="back_" data-name="back " d="M-13774.355-2.952V-134.66h174.071l85.158-12.363,74.807-138.2,11.747,7.6v17.542l37.594,32.915,29.449-13.387,50.394,31.2,93.151,101.253,289.243-146.755-.008-.019,100.358-89.859,44.836,39.034,76.624,77.676V-2.952Zm473.034-218.275-59.1-36.588-27.908,12.683-24.979-21.87v-18.921L-13445.886-307l-79.012,145.977-76.487,11.1h-172.971v-920.456h274.058l42.905,76.273,161.963,62.372,114.067,151.453-75.619,80.1-41.839,66.681,110.314,96.139,125.8,194.306.54.834,73.089,66.39,40.31,14.022-265.812,134.866Zm533.935-89.816,60.456-62.629v123.913Zm-213.737,21.822-69.312-62.96-125.841-194.375-.585-.9-102.1-88.983,34.108-54.361,77.475-82.061,153.577-7.286,9.478-89.377-36.465-24.723-27.171-99.069,55.732-77.062h305.3v674.733l-71.555,74.123-50.046-43.57-103.725,92.868ZM-13285.867-944.4l-160.921-61.97-36-64.006h451.727l-53.549,74.044,30.6,111.556,33.55,22.746-7.133,67.264-140.548,6.667Z" transform="translate(13775.138 1071.16)" fill="#333f69"/>
        <path id="line" d="M-12090.818,640.188l-1.321-.762,2.2-3.809,1.32.762Zm-7.928,0-1.32-.762,10.126-17.54,1.32.762Zm-7.921,0-1.32-.762,18.047-31.259,1.32.762Zm-7.921,0-1.32-.762,25.968-44.978,1.32.762Zm-7.923,0-1.32-.762,33.891-58.7,1.32.762Zm-7.928,0-1.321-.762,41.819-72.433,1.32.762Zm-7.924,0-1.32-.762,49.742-86.157,1.32.762Zm-7.92,0-1.321-.762,57.663-99.876,1.32.762Zm-7.928,0-1.321-.762,65.591-113.607,1.32.762Zm-7.924,0-1.321-.762,73.515-127.331,1.32.762Zm-7.923,0-1.321-.762,81.438-141.054,1.32.762Zm-7.921,0-1.321-.762,89.358-154.773,1.32.762Zm-7.926,0-1.32-.762,97.283-168.5,1.32.762Zm-7.923,0-1.321-.762L-12089.94,457.2l1.32.762Zm-7.924,0-1.321-.762,113.131-195.948,1.32.762Zm-7.923,0-1.321-.762,121.054-209.671,1.32.762Zm-7.926,0-1.32-.762,128.979-223.4,1.32.762Zm-7.923,0-1.32-.762,136.9-237.121,1.32.762Zm-7.924,0-1.32-.762,144.825-250.845,1.32.762Zm-7.921,0-1.32-.762,152.746-264.564,1.32.762Zm-7.923,0-1.32-.762,160.669-278.288,1.32.762Zm-7.925,0-1.321-.762,168.595-292.015,1.32.762Zm-7.924,0-1.32-.762,176.518-305.738,1.32.762Zm-7.923,0-1.321-.762,184.441-319.462,1.32.762Zm-7.924,0-1.321-.762,192.365-333.186,1.32.762Zm-7.925,0-1.321-.762,200.29-346.912,1.32.762Zm-7.924,0-1.321-.762,208.214-360.636,1.32.762Zm-7.923,0-1.321-.762,216.137-374.36,1.32.762Zm-7.921,0-1.321-.762,224.058-388.079,1.32.762Zm-7.928,0-1.321-.762,231.985-401.81,1.32.762Zm-7.924,0-1.321-.762,239.909-415.534,1.32.762Zm-7.921,0-1.32-.762,247.829-429.253,1.32.762Zm-7.928,0-1.32-.762,255.757-442.984,1.32.762Zm-7.921,0-1.32-.762,263.678-456.7,1.32.762Zm-7.923,0-1.32-.762L-12089.94,169l1.32.762Zm-7.923,0-1.321-.762,279.524-484.148,1.32.762Zm-7.925,0-1.321-.762,287.449-497.877,1.32.762Zm-7.924,0-1.321-.762,295.373-511.6,1.32.762Zm-7.924,0-1.32-.762,303.3-525.325,1.32.762Zm-7.925,0-1.321-.762,311.222-539.051,1.32.762Zm-7.923,0-1.321-.762L-12089.94,86.65l1.32.762Zm-7.924,0-1.321-.762,327.068-566.5,1.32.762Zm-7.921,0-1.321-.762,334.989-580.218,1.32.762Zm-7.926,0-1.321-.762,342.915-593.946,1.32.762Zm-7.923,0-1.32-.762,350.837-607.668,1.32.762Zm-7.924,0-1.32-.762,358.761-621.392,1.32.762Zm-7.923,0-1.321-.762L-12089.94,4.309l1.32.762Zm-7.924,0-1.32-.762,374.607-648.84,1.32.762Zm-7.925,0-1.32-.762,382.532-662.566,1.32.762Zm-7.924,0-1.32-.762,390.456-676.29,1.32.762Zm-7.923,0-1.32-.762,398.379-690.014,1.32.762Zm-7.921,0-1.32-.762,406.3-703.733,1.32.762Zm-7.925,0-1.321-.762,414.226-717.459,1.32.762Zm-7.923,0-1.321-.762,422.148-731.183,1.32.762Zm-7.924,0-1.321-.762,430.072-744.907,1.32.762Zm-7.924,0-1.32-.762,438-758.631,1.32.762Zm-7.925,0-1.321-.762,445.921-772.357,1.32.762Zm-7.923,0-1.321-.762,453.844-786.081,1.32.762Zm-7.928,0-1.321-.762,461.771-799.812,1.32.762Zm-7.917,0-1.321-.762L-12089.94-174.1l1.32.762Zm-7.928,0-1.32-.762,477.615-827.255,1.32.762Zm-7.923,0-1.321-.762,485.539-840.979,1.32.762Zm-7.921,0-1.32-.762,493.459-854.7,1.32.762Zm-7.928,0-1.321-.762L-12089.94-229l1.32.762Zm-7.924,0-1.32-.762,509.311-882.153,1.32.762Zm-7.924,0-1.32-.762,517.234-895.876,1.32.762Zm-7.921,0-1.32-.762,525.155-909.6,1.32.762Zm-7.924,0-1.321-.762,533.08-923.322,1.32.762Zm-7.924,0-1.321-.762,541-937.046,1.32.762Zm-7.923,0-1.321-.762,548.927-950.769,1.32.762Zm-7.924,0-1.321-.762,556.851-964.493,1.32.762Zm-7.925,0-1.321-.762,564.775-978.22,1.32.762Zm-7.924,0-1.321-.762,572.7-991.944,1.32.762Zm-7.923,0-1.321-.762,580.622-1005.667,1.32.762Zm-7.923,0-1.321-.762,588.545-1019.387,1.32.762Zm-7.926,0-1.32-.762,596.47-1033.117,1.32.762Zm-7.921,0-1.32-.762,604.391-1046.837,1.32.762Zm-7.924,0-1.32-.762,612.314-1060.56,1.32.762Zm-7.923,0-1.321-.762L-12093.9-428l1.321.762Zm-7.924,0-1.32-.762L-12101.824-428l1.321.762Zm-7.925,0-1.32-.762L-12109.749-428l1.32.762Zm-7.924,0-1.32-.762L-12117.672-428l1.32.762Zm-7.923,0-1.32-.762L-12125.6-428l1.32.762Zm-7.924,0-1.32-.762L-12133.52-428l1.321.762Zm-7.925,0-1.321-.762L-12141.444-428l1.32.762Zm-7.92,0-1.321-.762L-12149.365-428l1.321.762Zm-7.924,0-1.321-.762L-12157.288-428l1.32.762Zm-7.928,0-1.321-.762L-12165.216-428l1.321.762Zm-7.924,0-1.321-.762L-12173.14-428l1.321.762Zm-7.923,0-1.321-.762L-12181.063-428l1.321.762Zm-7.921,0-1.321-.762L-12188.983-428l1.321.762Zm-7.926,0-1.32-.762L-12196.909-428l1.321.762Zm-7.923,0-1.32-.762L-12204.832-428l1.32.762Zm-7.921,0-1.32-.762L-12212.753-428l1.32.762Zm-7.924,0-1.32-.762L-12220.677-428l1.321.762Zm-7.927,0-1.321-.762L-12228.6-428l1.32.762Zm-7.924,0-1.32-.762L-12236.527-428l1.32.762Zm-7.924,0-1.32-.762L-12244.45-428l1.32.762Zm-7.921,0-1.32-.762L-12252.371-428l1.32.762Zm-7.924,0-1.321-.762L-12260.3-428l1.321.762Zm-7.924,0-1.321-.762L-12268.22-428l1.321.762Zm-7.923,0-1.321-.762L-12276.144-428l1.321.762Zm-7.924,0-1.321-.762L-12284.066-428l1.32.762Zm-7.925,0-1.321-.762L-12291.992-428l1.321.762Zm-7.924,0-1.321-.762L-12299.915-428l1.321.762Zm-7.923,0-1.321-.762L-12307.839-428l1.321.762Zm-7.924,0-1.321-.762L-12315.762-428l1.321.762Zm-7.923,0-1.32-.762L-12323.684-428l1.32.762Zm-7.924,0-1.32-.762L-12331.607-428l1.32.762Zm-7.923,0-1.32-.762L-12339.531-428l1.321.762Zm-7.924,0-1.32-.762L-12347.455-428l1.321.762Zm-7.924,0-1.321-.762L-12355.38-428l1.321.762Zm-7.924,0-1.321-.762L-12363.3-428l1.32.762Zm-7.924,0-1.32-.762L-12371.227-428l1.32.762Zm-7.92,0-1.321-.762L-12379.147-428l1.32.762Zm-7.927,0-1.32-.762L-12387.073-428l1.32.762Zm-7.925,0-1.321-.762L-12395-428l1.32.762Zm-7.921,0-1.321-.762L-12402.919-428l1.321.762Zm-7.928,0-1.32-.762L-12410.847-428l1.321.762Zm-7.923,0-1.321-.762L-12418.771-428l1.321.762Zm-7.924,0-1.321-.762L-12426.693-428l1.321.762Zm-7.921,0-1.321-.762L-12434.614-428l1.321.762Zm-7.928,0-1.32-.762L-12442.539-428l1.32.762Zm-7.923,0-1.32-.762L-12450.466-428l1.321.762Zm-7.921,0-1.32-.762L-12458.386-428l1.32.762Zm-7.924,0-1.32-.762L-12466.31-428l1.321.762Zm-7.925,0-1.321-.762L-12474.234-428l1.32.762Zm-7.923,0-1.321-.762L-12482.157-428l1.32.762Zm-7.924,0-1.321-.762L-12490.081-428l1.32.762Zm-7.924,0-1.32-.762L-12498-428l1.32.762Zm-7.925,0-1.321-.762L-12505.93-428l1.321.762Zm-7.923,0-1.321-.762L-12513.854-428l1.321.762Zm-7.921,0-1.321-.762L-12521.773-428l1.321.762Zm-7.924,0-1.321-.762L-12529.7-428l1.321.762Zm-7.925,0-1.32-.762L-12537.623-428l1.321.762Zm-3.465-7.722-1.321-.762L-12545.546-428l1.321.762Zm0-13.724-1.321-.762L-12553.47-428l1.321.762Zm0-13.724-1.321-.762L-12561.393-428l1.321.762Zm0-13.724-1.321-.762L-12569.316-428l1.321.762Zm0-13.722-1.321-.762L-12577.238-428l1.32.762Zm0-13.728-1.321-.762,572.2-991.081,1.32.762Zm0-13.719-1.321-.762L-12593.085-428l1.32.762Zm0-13.724-1.321-.762L-12601.009-428l1.321.762Zm0-13.726-1.321-.762L-12608.934-428l1.321.762Zm0-13.724-1.321-.762L-12616.856-428l1.32.762Zm0-13.724-1.321-.762L-12624.78-428l1.32.762Zm0-13.726-1.321-.762L-12632.705-428l1.321.762Zm0-13.724-1.321-.762L-12640.629-428l1.321.762Zm0-13.719-1.321-.762L-12648.55-428l1.321.762Zm0-13.731-1.321-.762L-12656.478-428l1.321.762Zm0-13.724-1.321-.762L-12664.4-428l1.321.762Zm0-13.724-1.321-.762L-12672.324-428l1.321.762Zm0-13.719-1.321-.762,477.12-826.4,1.321.762Zm0-13.731-1.321-.762L-12688.172-428l1.32.762Zm0-13.724-1.321-.762L-12696.1-428l1.32.762Zm0-13.719-1.321-.762L-12704.017-428l1.32.762Zm0-13.724-1.321-.762,445.426-771.5,1.32.762Zm0-13.724-1.321-.762,437.5-757.775,1.32.762Zm0-13.726-1.321-.762L-12727.788-428l1.32.762Zm0-13.724-1.321-.762L-12735.712-428l1.32.762Zm0-13.724-1.321-.762,413.73-716.6,1.32.762Zm0-13.724-1.321-.762L-12751.559-428l1.32.762Zm0-13.726-1.321-.762L-12759.483-428l1.321.762Zm0-13.719-1.321-.762L-12767.4-428l1.321.762Zm0-13.724-1.321-.762L-12775.328-428l1.321.762Zm0-13.724-1.321-.762L-12783.251-428l1.321.762Zm0-13.726-1.321-.762L-12791.177-428l1.321.762Zm0-13.724-1.321-.762L-12799.1-428l1.321.762Zm0-13.724-1.321-.762L-12807.023-428l1.321.762Zm0-13.724-1.321-.762L-12814.946-428l1.321.762Zm0-13.726-1.321-.762L-12822.871-428l1.32.762Zm0-13.724-1.321-.762L-12830.795-428l1.321.762Zm0-13.719-1.321-.762L-12838.715-428l1.32.762Zm0-13.724-1.321-.762L-12846.639-428l1.32.762Zm0-13.731-1.321-.762,302.8-524.462,1.32.762Zm0-13.724-1.321-.762L-12862.49-428l1.32.762Zm0-13.719-1.321-.762L-12870.411-428l1.321.762Zm0-13.731-1.321-.762L-12878.339-428l1.321.762Zm0-13.724-1.321-.762,271.1-469.564,1.321.762Zm0-13.724-1.321-.762L-12894.186-428l1.321.762Zm0-13.719-1.321-.762L-12902.106-428l1.321.762Zm0-13.726-1.321-.762,247.334-428.4,1.321.762Zm0-13.724-1.321-.762L-12917.955-428l1.321.762Zm0-13.724-1.321-.762L-12925.878-428l1.321.762Zm0-13.724-1.321-.762L-12933.8-428l1.321.762Zm0-13.726-1.321-.762,215.64-373.5,1.32.762Zm0-13.724-1.321-.762L-12949.649-428l1.32.762Zm0-13.719-1.321-.762L-12957.57-428l1.32.762Zm0-13.728-1.321-.762L-12965.5-428l1.321.762Zm0-13.722-1.321-.762,183.946-318.6,1.321.762Zm0-13.724-1.321-.762L-12981.342-428l1.32.762Zm0-13.724-1.321-.762,168.1-291.157,1.32.762Zm0-13.724-1.321-.762L-12997.188-428l1.32.762Zm0-13.724-1.321-.762L-13005.112-428l1.32.762Zm0-13.726-1.321-.762L-13013.038-428l1.321.762Zm0-13.724-1.321-.762,136.4-236.259,1.321.762Zm0-13.719-1.321-.762L-13028.882-428l1.321.762Zm0-13.724-1.321-.762L-13036.806-428l1.321.762Zm0-13.726-1.321-.762L-13044.73-428l1.321.762Zm0-13.724-1.321-.762L-13052.653-428l1.32.762Zm0-13.724-1.321-.762L-13060.577-428l1.321.762Zm0-13.724-1.321-.762L-13068.5-428l1.321.762Zm0-13.731-1.321-.762L-13076.428-428l1.32.762Zm0-13.724-1.321-.762L-13084.352-428l1.321.762Zm0-13.715-1.321-.762,65.1-112.749,1.32.762Zm0-13.731-1.321-.762L-13100.2-428l1.321.762Zm0-13.724-1.321-.762L-13108.12-428l1.32.762Zm0-13.719-1.321-.762,41.324-71.575,1.32.762Zm0-13.731-1.321-.762,33.4-57.844,1.321.762Zm0-13.724-1.321-.762,25.473-44.12,1.321.762Zm0-13.724-1.321-.762,17.55-30.4,1.321.762Zm0-13.724-1.321-.762,9.626-16.672,1.321.762Zm0-13.719-1.321-.762,1.705-2.953,1.321.762Z" transform="translate(13157.365 427.999)" fill="#0b143f"/>
        <path id="パス_2493" data-name="パス 2493" d="M-19.02-10.59v-3.66H-29.88v-5.49h11.67v-3.69H-44.79v3.69h11.13v5.49h-10.2v3.66h9.69c-.99,3.9-3.81,7.83-11.43,10.05a12.816,12.816,0,0,1,2.22,3.21c7.05-2.16,10.47-5.73,12.09-9.6A17.038,17.038,0,0,0-19.71,2.64,15.857,15.857,0,0,1-17.25-.84c-6.15-1.38-9.78-4.77-11.76-9.75ZM-7.62-3V-8.55H7.53V-3ZM7.53-17.43v5.34H-7.62v-5.34ZM.42-21.06c.6-1.2,1.17-2.52,1.74-3.87l-4.65-.6a31.371,31.371,0,0,1-1.23,4.47h-7.53V2.55h3.63V.63H7.53V2.52h3.78V-21.06ZM45.3-1.8H22.5V-21.24H44.52v-3.15H19.02v27H22.5V1.41H45.3ZM35.61-15.03H30.69v-2.46h4.92Zm3.51-4.8H27.36v7.14H39.12ZM27.18-8.97h2.34V-5.7H27.18ZM24.3-3.3h8.28v-8.07H24.3ZM39.27-5.7H36.84V-8.97h2.43Zm3.09-5.67H33.9V-3.3h8.46Z" transform="translate(201.401 633.598)" fill="#fff"/>
        <path id="パス_2492" data-name="パス 2492" d="M-28.74-7.86A21.865,21.865,0,0,1-30.27-.9,14.986,14.986,0,0,1-27.66.36a27.537,27.537,0,0,0,1.77-7.74Zm7.83-2.07c.18.66.36,1.26.45,1.77l2.34-1.08-.03.03A19.449,19.449,0,0,1-14.88-5.4l2.49-2.16a19.023,19.023,0,0,0-3.42-3.6l-2.01,1.68a27.383,27.383,0,0,0-2.64-6.27l-2.52,1.05c.33.6.66,1.26.96,1.92l-2.61.15c1.89-2.4,3.93-5.37,5.58-7.89l-2.91-1.35a48.364,48.364,0,0,1-2.7,4.86,15.09,15.09,0,0,0-.96-1.17,67.54,67.54,0,0,0,3.39-6.12l-3.09-1.08a36.812,36.812,0,0,1-2.16,5.19c-.24-.21-.48-.42-.69-.63l-1.74,2.4a27.608,27.608,0,0,1,3.42,4.2c-.45.63-.9,1.23-1.35,1.77l-2.16.12.36,3.09,4.17-.33V2.61h3.06V-9.81Zm7.89,3.87c-1.77,1.14-3.6,2.34-5.13,3.24a21.941,21.941,0,0,0-1.5-5.16l-2.49.75a23.847,23.847,0,0,1,1.38,5.4l2.16-.72c-.42.24-.78.45-1.11.63l1.74,3.09c1.86-1.38,4.05-3,6.03-4.59Zm-.24-12.87.42-1.56h5.07l-.27,1.56Zm8.73,7.59A26.163,26.163,0,0,1-7.38-8.28a23.45,23.45,0,0,1-1.2-3.54h6.51v-3.03H-5.49c.54-2.61,1.11-5.58,1.47-8.13l-2.43-.33-.57.15h-5.19l.45-1.89-3.33-.33c-.6,2.97-1.62,6.87-2.4,9.33l3.3.48.21-.69h5.46l-.3,1.41h-9.72v3.03h6.69V-.78c0,.33-.12.42-.48.42-.36.03-1.56.03-2.61-.03a12.689,12.689,0,0,1,.9,3,9.937,9.937,0,0,0,4.17-.54C-8.88,1.59-8.64.81-8.64-.75V-4.62A13.657,13.657,0,0,0-3.57,1.23,13.1,13.1,0,0,1-1.41-1.68,11.744,11.744,0,0,1-5.97-5.73c1.29-.96,2.76-2.28,4.08-3.48ZM29.55-1.8H6.75V-21.24H28.77v-3.15H3.27v27H6.75V1.41h22.8ZM19.86-15.03H14.94v-2.46h4.92Zm3.51-4.8H11.61v7.14H23.37ZM11.43-8.97h2.34V-5.7H11.43ZM8.55-3.3h8.28v-8.07H8.55ZM23.52-5.7H21.09V-8.97h2.43Zm3.09-5.67H18.15V-3.3h8.46Z" transform="translate(826.4 986.598)" fill="#fff"/>
        <path id="パス_2491" data-name="パス 2491" d="M-38.16-3.3v-6.72h13.32V-3.3Zm13.32-16.71v6.45H-38.16v-6.45Zm-17.01-3.6V2.25h3.69V.3h13.32V2.19H-21v-25.8ZM3.48-16.23H-.42v-1.89h3.9Zm0,4.86H-.42v-1.98h3.9Zm0,4.92H-.42V-8.49h3.9Zm-7.35,3H13.35v-3H6.87V-8.49h5.04v-2.88H6.87v-1.98h5.16v-2.88H6.87v-1.89h5.97v-3H7.53c.54-1.02,1.08-2.13,1.62-3.21l-3.93-.75a37.2,37.2,0,0,1-1.26,3.96H.54A34.288,34.288,0,0,0,2.07-24.3l-3.54-1.02A21.754,21.754,0,0,1-8.1-16.2a25.282,25.282,0,0,1,2.61,2.82c.54-.48,1.08-.99,1.62-1.56ZM-6.21-19.89a26.07,26.07,0,0,0-4.71-4.77l-2.73,2.04a23.377,23.377,0,0,1,4.5,4.98Zm-.81,6.12h-6.75v3.27h3.36v6.54A35.952,35.952,0,0,1-14.13-1.2l1.68,3.54c1.53-1.29,2.76-2.43,3.96-3.6,1.8,2.31,4.2,3.18,7.77,3.33,3.66.15,10.02.09,13.74-.09A16.266,16.266,0,0,1,14.13-1.5c-4.14.33-11.22.42-14.82.27-3.06-.12-5.16-.96-6.33-2.97Zm52.26-4.38v-3.48H33.33v-3.9H29.52v3.9H17.88v3.48H29.55V-15H20.7V-.99h3.6V-11.52h5.25V2.64h3.72V-11.52H39v6.6c0,.33-.15.48-.63.48s-2.25,0-3.75-.06a12.8,12.8,0,0,1,1.2,3.51,14.306,14.306,0,0,0,5.31-.6c1.23-.54,1.59-1.56,1.59-3.27V-15H33.27v-3.15Z" transform="translate(956.4 177.599)" fill="#fff"/>
        <path id="パス_2490" data-name="パス 2490" d="M-33.51-1.8V-7.65h10.17V-1.8Zm5.28-17.55a23.512,23.512,0,0,1-4.17,5.49,42.3,42.3,0,0,0-4.77-3.96c.51-.51.99-1.02,1.47-1.53Zm8.61,8.46H-30.33a27.772,27.772,0,0,0,6.96-10.47l-2.46-1.29-.6.18h-6.81c.54-.78,1.05-1.56,1.5-2.34l-4.02-.75a23.966,23.966,0,0,1-9.96,9.54,12.426,12.426,0,0,1,2.52,2.79,30.878,30.878,0,0,0,3.33-2.28,41.672,41.672,0,0,1,4.59,4.14,33.352,33.352,0,0,1-10.5,5.19A11.4,11.4,0,0,1-43.71-3a38.46,38.46,0,0,0,6.63-2.94V2.58h3.57V1.41h10.17v1.2h3.72Zm12.42-.03h5.28v1.83H-7.2Zm0-4.29h5.28v1.77H-7.2Zm14.49,0v1.77H1.77v-1.77Zm0,6.12H1.77v-1.83H7.29Zm3.63,2.67V-17.88H1.77v-1.71H13.32v-3.33H1.77v-2.46H-1.92v2.46H-13.2v3.33H-1.92v1.71h-8.73V-6.42h6.06A27.134,27.134,0,0,1-14.04-.75a19.532,19.532,0,0,1,2.46,3A29.275,29.275,0,0,0-1.92-4.53V2.61H1.77V-4.68a29.734,29.734,0,0,0,9.84,6.99A15.712,15.712,0,0,1,14.16-.78,28.6,28.6,0,0,1,4.47-6.42ZM45.3-1.8H22.5V-21.24H44.52v-3.15H19.02v27H22.5V1.41H45.3ZM35.61-15.03H30.69v-2.46h4.92Zm3.51-4.8H27.36v7.14H39.12ZM27.18-8.97h2.34V-5.7H27.18ZM24.3-3.3h8.28v-8.07H24.3ZM39.27-5.7H36.84V-8.97h2.43Zm3.09-5.67H33.9V-3.3h8.46Z" transform="translate(601.401 155.599)" fill="#fff"/>
      </g>
      <path id="合体_7" data-name="合体 7" d="M304.16,1078.673,471.284,663.436V340.224L327.742,253.369,209.182,456.9,0,369.863l4.1-9.857,200.557,83.449L323.983,238.616l147.3,89.131V139.956C333.021,91.611,105.093,11.724,101.273,9.18l2.959-4.441L106.679,0C114.668,3.7,347.5,85.364,473.7,129.493L527.061,8.7l9.765,4.314L481.958,137.218V334.206l1.009.61H589.8l1.571,1.627,482.707,498.563-7.671,7.427L585.273,345.491H481.958V665.5l-.385.96-167.511,416.2Z" fill="#a5adbe"/>
      <g id="higasiyama" transform="translate(1.479 885.38)">
        <path id="パス_2386" data-name="パス 2386" d="M738.941,533.566l-24.717-31.458L598.548,447.314l-74.83-70.295-64.2,5.972-126.678-9.876-51.445,9.835-1.145-5.991L332.5,366.97l126.975,9.944,66.419-6.223,76.135,71.521,116.108,55,25.6,32.587Z" transform="translate(-280.249 -337.258)" fill="#a4945e"/>
        <g id="station" transform="translate(114.177)">
          <circle id="楕円形_57" data-name="楕円形 57" cx="17" cy="17" r="17" transform="translate(7.396 25.671)" fill="#bfb592"/>
          <text id="相生山" transform="translate(23.396 16.672)" fill="#bfb592" font-size="15" font-family="NotoSansCJKjp-Regular, Noto Sans CJK JP" letter-spacing="0.05em"><tspan x="-23.25" y="0">相生山</tspan></text>
        </g>
        <g id="station-2" data-name="station" transform="translate(306.314 69.383)">
          <circle id="楕円形_57-2" data-name="楕円形 57" cx="16.5" cy="16.5" r="16.5" transform="translate(0.259 26.288)" fill="#bfb592"/>
          <text id="神沢" transform="translate(16.259 17.29)" fill="#bfb592" font-size="15" font-family="NotoSansCJKjp-Regular, Noto Sans CJK JP" letter-spacing="0.05em"><tspan x="-15.375" y="0">神沢</tspan></text>
        </g>
        <g id="station-3" data-name="station" transform="translate(420.681 120.467)">
          <ellipse id="楕円形_57-3" data-name="楕円形 57" cx="17" cy="16.5" rx="17" ry="16.5" transform="translate(-0.108 26.204)" fill="#bfb592"/>
          <text id="徳重" transform="translate(15.892 17.206)" fill="#bfb592" font-size="15" font-family="NotoSansCJKjp-Regular, Noto Sans CJK JP" letter-spacing="0.05em"><tspan x="-15.375" y="0">徳重</tspan></text>
        </g>
      </g>
      <g id="meigyousen" transform="translate(0.991 338.187)">
        <path id="パス_2387" data-name="パス 2387" d="M1066.377,760.735,868.414,740.484l-50.128-51.413h-81.9l-53.536,20.892-88.819-43.1L303.118,561.323l-99.256-64.359-58.588-7.642L-1.39,435.039.73,429.32l146,54.119,59.293,7.656,99.8,64.8L596.407,661.249l86.713,42.063,52.124-20.341h85.615l50.378,51.67L1067,754.667Z" transform="translate(1.39 -429.32)" fill="#a4945e"/>
        <g id="station-4" data-name="station" transform="translate(139.063 15.005)">
          <ellipse id="楕円形_57-4" data-name="楕円形 57" cx="16.5" cy="17" rx="16.5" ry="17" transform="translate(7.997 25.859)" fill="#bfb592"/>
          <path id="パス_2497" data-name="パス 2497" d="M-15.7-7.86h4.26v1.815H-15.7Zm-2.43,3.63-1.575.66V-7.86h1.425c.225.18.45.375.585.51A9.442,9.442,0,0,0-16.725-8.6V-5.16h6.36V-8.745H-16.62c.21-.345.42-.705.63-1.1h6.93v-.975h-6.48A12.961,12.961,0,0,0-15-12.33l-1.11-.255a10.291,10.291,0,0,1-2.115,4.11V-8.91H-19.71v-3.45h-1.02v3.45h-1.68v1.05h1.68v4.7c-.735.3-1.425.57-1.965.765l.39,1.125c1.26-.555,2.9-1.26,4.41-1.95Zm1.62,1.02h1.38V-.33h-1.38Zm3.585,0V-.33h-1.4V-3.21Zm2.22,0V-.33H-12.1V-3.21ZM-9.69-.33V-4.125h-7.785V-.33H-19.26V.705H-8.835V-.33ZM6.45-9.645A25.638,25.638,0,0,0,2.16-12.5l-.87.615A24.529,24.529,0,0,1,5.52-8.925ZM-2.61-12.45A11.9,11.9,0,0,1-6.63-9.66a6.347,6.347,0,0,1,.84.84,14.644,14.644,0,0,0,4.23-3.255Zm5.7,9.975A15.3,15.3,0,0,1,1.845-.2l.24.06H.5V-2.55h5.19v-.915H.5v-1.44h3.51V-5.85h-7.89A20.728,20.728,0,0,0,.045-7.605a19.507,19.507,0,0,0,6.21,2.3,4.708,4.708,0,0,1,.69-.96A20.234,20.234,0,0,1,.975-8.22a10.252,10.252,0,0,0,1.95-1.815l-1.05-.495A8.473,8.473,0,0,1-.03-8.805a8.668,8.668,0,0,1-1.95-1.68l-.915.465A10.7,10.7,0,0,0-.93-8.25,21.58,21.58,0,0,1-7.08-6.12a7.082,7.082,0,0,1,.72.975c.81-.195,1.635-.42,2.43-.69v.93H-.57v1.44H-5.61v.915H-.57V-.135H-2.61l.57-.2A7,7,0,0,0-3.27-2.505l-.9.285A7.314,7.314,0,0,1-3.045-.135H-6.36V.81H6.405V-.135H2.865A19.775,19.775,0,0,0,4.2-2.25Zm8.25.855V-9.885h8.82V-1.62ZM10.215-11V.78H11.34V-.5h8.82v1.2h1.185V-11Z" transform="translate(22.997 16.86)" fill="#bfb592"/>
        </g>
        <g id="station-5" data-name="station" transform="translate(290.027 87.437)">
          <circle id="楕円形_57-5" data-name="楕円形 57" cx="17" cy="17" r="17" transform="translate(0.033 25.427)" fill="#bfb592"/>
          <path id="パス_2498" data-name="パス 2498" d="M-11.43-8.28h1.71V-9.315h-1.71v-3.24h-1.02v3.24h-2.1V-8.28h1.98a16.281,16.281,0,0,1-2.28,5.625,6.223,6.223,0,0,1,.57.96A15.662,15.662,0,0,0-12.45-5.88V1.125h1.02v-7.14c.45.75.975,1.68,1.185,2.16l.615-.825c-.255-.4-1.38-2.1-1.8-2.655ZM-2.8-6.675H-6.18V-7.83H-2.8Zm0,1.98H-6.18V-5.88H-2.8Zm0,2H-6.18V-3.9H-2.8Zm-4.35-5.97v6.8h5.37v-6.8h-2.85c.06-.405.12-.855.165-1.335H-1v-.96h-3.36c.06-.525.105-1.035.15-1.515l-1.125-.06c-.015.48-.06,1.035-.09,1.575H-9.345v.96H-5.52c-.045.48-.09.93-.135,1.335ZM-.945-.66H-8.3v-7.1h-1.02v8.91H-8.3V.3h7.35ZM8.34-1V-5.22H12.8V-1ZM2.97-5.22H7.23V-1H2.97Zm4.26-5.205v4.1H2.97v-4.1ZM12.8-6.33H8.34v-4.1H12.8ZM1.875-11.505V1.02h1.1V.105H12.8V1.02h1.14V-11.505Z" transform="translate(16.033 17.426)" fill="#bfb592"/>
        </g>
        <g id="station-6" data-name="station" transform="translate(566.033 185.793)">
          <ellipse id="楕円形_57-6" data-name="楕円形 57" cx="17" cy="16.5" rx="17" ry="16.5" transform="translate(0.027 26.071)" fill="#bfb592"/>
          <path id="パス_2501" data-name="パス 2501" d="M-1.185-5.2h-6.15V-10.44h5.31v-1.1h-11.73v1.1h5.28V-5.2h-6.06V-4.11h6.06V1.14h1.14V-4.11h6.15Zm-11.52-4.2a17.554,17.554,0,0,1,1.35,3.435l1.05-.36A14.37,14.37,0,0,0-11.73-9.7Zm7.95,3.48A29.451,29.451,0,0,0-2.91-9.45l-1.17-.33A22.384,22.384,0,0,1-5.7-6.24Zm9.765.66H7.56v-.99H5.01V-7.83h1.8v-.96H2.535A14.331,14.331,0,0,0,4.56-11.52,17.507,17.507,0,0,1,7.11-8.775l.78-.855a19.456,19.456,0,0,0-2.955-2.91H3.885A11.229,11.229,0,0,1,.765-8.535a3.278,3.278,0,0,1,.72.72c.24-.21.48-.42.705-.63v.615H3.96v1.575H1.335v.99H3.96V-.8c-1.08.2-2.07.36-2.85.48L1.38.75C3.06.42,5.415,0,7.62-.435L7.575-1.44c-.855.15-1.725.315-2.565.465ZM1.7-4.23a15.15,15.15,0,0,1,.63,2.775L3.18-1.7A14.458,14.458,0,0,0,2.52-4.44Zm4.68,2.565c.3-.69.63-1.755.93-2.655l-.96-.255a18.928,18.928,0,0,1-.765,2.67Zm8.4-5.895h-3.03v-4.86h-1.14v4.86H7.5v1.11h3.105V1.125h1.14V-6.45h3.03Z" transform="translate(16.027 17.071)" fill="#bfb592"/>
        </g>
        <g id="station-7" data-name="station" transform="translate(736.059 215.528)">
          <ellipse id="楕円形_57-7" data-name="楕円形 57" cx="17" cy="16.5" rx="17" ry="16.5" transform="translate(0.001 26.335)" fill="#bfb592"/>
          <path id="パス_2502" data-name="パス 2502" d="M-12.45-5.385a8.813,8.813,0,0,1-2.4,3.51,5.587,5.587,0,0,1,.885.645,11.691,11.691,0,0,0,2.64-3.855Zm11.2-1.11V-7.56h-6.09V-9.69h4.92v-1.065h-4.92v-1.77H-8.46v1.77h-4.515V-9.69H-8.46v2.13h-6V-6.5h4.515v.87a6.48,6.48,0,0,1-3,6.045,4.315,4.315,0,0,1,.84.81c2.97-2,3.27-4.71,3.27-6.84V-6.5H-6.6V-.24c0,.2-.06.255-.285.255-.24.015-1.02.03-1.86,0a4.734,4.734,0,0,1,.4,1.11A7.237,7.237,0,0,0-6.045.93c.465-.2.6-.525.6-1.155V-6.5ZM-4.395-5.01a20.955,20.955,0,0,1,2.43,3.825L-.9-1.7A21.5,21.5,0,0,0-3.4-5.46Zm9.6-5.835A12.958,12.958,0,0,0,2.43-12.39l-.615.825A12.277,12.277,0,0,1,4.56-9.945Zm-.9,4.02a14.441,14.441,0,0,0-2.7-1.485l-.585.84A13.637,13.637,0,0,1,3.69-5.91ZM2.475.915a54.25,54.25,0,0,0,2.6-4.83l-.84-.69A50.5,50.5,0,0,1,1.53.2Zm6.2-.96c-1.065,0-1.26-.2-1.26-1.035V-6.36L9.6-7.215v5.04h1.1V-7.65l2.34-.9a31.111,31.111,0,0,1-.165,4.335c-.09.375-.225.435-.5.435-.18,0-.735,0-1.155-.015a3.017,3.017,0,0,1,.285,1.065,7.274,7.274,0,0,0,1.53-.12,1.156,1.156,0,0,0,.885-1.08,46.019,46.019,0,0,0,.18-5.505l.045-.21-.78-.315-.21.165-.09.075-2.37.93v-3.735H9.6V-8.37l-2.19.855v-3.57H6.315v4L4.53-6.39l.435.975,1.35-.525V-1.1c0,1.65.54,2.085,2.31,2.085H12.57c1.665,0,2.01-.675,2.2-2.745a3.422,3.422,0,0,1-1.05-.45c-.12,1.755-.285,2.16-1.185,2.16Z" transform="translate(16.001 17.336)" fill="#bfb592"/>
        </g>
        <g id="マスクグループ_63" data-name="マスクグループ 63" transform="translate(705.519 272.609)" clip-path="url(#clip-path-2)">
          <g id="楕円形_71" data-name="楕円形 71" transform="translate(64.541 0.254)" fill="#fff" stroke="red" stroke-width="4">
            <circle cx="20" cy="20" r="20" stroke="none"/>
            <circle cx="20" cy="20" r="18" fill="none"/>
          </g>
        </g>
      </g>
      <g id="グループ_419" data-name="グループ 419" transform="translate(32.549 40.589)">
        <g id="spot" transform="translate(878.339 309.553)">
          <g id="マスクグループ_43" data-name="マスクグループ 43" transform="translate(32.023 29.735)" clip-path="url(#clip-path-3)">
            <path id="パス_1429" data-name="パス 1429" d="M73.884,0A19.207,19.207,0,0,0,54.7,19.185C54.7,35.89,73.884,48.8,73.884,48.8S93.069,35.89,93.069,19.185A19.207,19.207,0,0,0,73.884,0Zm0,26.925a7.74,7.74,0,1,1,7.74-7.74A7.74,7.74,0,0,1,73.884,26.925Z" transform="translate(-49.362 0)" fill="#b66363"/>
          </g>
          <path id="パス_2495" data-name="パス 2495" d="M-55.92,0h1.995V-4.635c0-1.05-.18-2.6-.285-3.645h.06l.885,2.61L-51.54-1h1.275l1.71-4.665.9-2.61h.075c-.12,1.05-.285,2.6-.285,3.645V0h2.025V-11.115H-48.3L-50.145-5.91c-.24.69-.435,1.425-.675,2.13H-50.9c-.225-.705-.435-1.44-.675-2.13l-1.89-5.205h-2.46Zm15.975-5.79c.33-1.155.66-2.415.945-3.63h.075c.315,1.2.615,2.475.96,3.63l.33,1.215h-2.64ZM-43.785,0h2.25l.78-2.85h3.6l.78,2.85h2.325l-3.57-11.115h-2.61Zm15.1.21c2.565,0,4.08-1.545,4.08-3.36a3.066,3.066,0,0,0-2.235-3.015L-28.29-6.78c-.945-.375-1.725-.66-1.725-1.455,0-.735.615-1.17,1.59-1.17a3.541,3.541,0,0,1,2.355.915l1.125-1.395a4.926,4.926,0,0,0-3.48-1.425c-2.25,0-3.84,1.4-3.84,3.21a3.216,3.216,0,0,0,2.25,2.985l1.485.63c.99.42,1.665.675,1.665,1.5,0,.78-.615,1.275-1.77,1.275a4.367,4.367,0,0,1-2.82-1.23L-32.73-1.41A5.915,5.915,0,0,0-28.68.21Zm6.8-.21h2.22V-3.945h1.485c2.385,0,4.29-1.14,4.29-3.675,0-2.625-1.89-3.5-4.35-3.5h-3.645Zm2.22-5.7V-9.345h1.26c1.53,0,2.34.435,2.34,1.725,0,1.275-.735,1.92-2.265,1.92ZM-11.13,0h2.22V-4.2h1.545L-5.085,0H-2.61L-5.2-4.545A3.178,3.178,0,0,0-3.09-7.74c0-2.55-1.845-3.375-4.17-3.375h-3.87Zm2.22-5.955v-3.39h1.44c1.425,0,2.22.4,2.22,1.6s-.8,1.785-2.22,1.785ZM4.26.21C7.2.21,9.225-2,9.225-5.6S7.2-11.31,4.26-11.31-.7-9.21-.7-5.6,1.32.21,4.26.21Zm0-1.92c-1.65,0-2.7-1.515-2.7-3.885s1.05-3.81,2.7-3.81S6.96-7.98,6.96-5.6,5.91-1.71,4.26-1.71ZM25.125-2.2v-1.56h-6.27a8.953,8.953,0,0,0,.135-.915h5.97V-6.27H19.17v-.765h4.59v-1.5H19.17V-9.3h5.19v-1.575H21.585c.3-.39.66-.87,1.02-1.4l-1.92-.48A9.883,9.883,0,0,1,19.665-11l.42.12h-3.72l.345-.15a5.934,5.934,0,0,0-1.11-1.71l-1.59.615a6.044,6.044,0,0,1,.8,1.245h-2.6V-9.3h5.13v.765H12.9v1.5h4.44v.765H11.61v1.59H17.1c-.045.33-.09.63-.15.915H11.52V-2.2h4.74c-.75.915-2.16,1.515-5.01,1.89a5.267,5.267,0,0,1,.885,1.605c3.7-.6,5.37-1.665,6.165-3.27,1.17,1.965,2.985,2.94,6.075,3.3A6.894,6.894,0,0,1,25.44-.33c-2.535-.165-4.245-.735-5.3-1.875ZM40.8-11.9H37.245v1.56H40.8Zm-3.7,1.62a11.739,11.739,0,0,0-1.02-2.04l-1.185.495a12.36,12.36,0,0,1,.99,2.1Zm-7.65-2.415a10.51,10.51,0,0,1-2.52,2.865A9.518,9.518,0,0,1,27.84-8.49a14.921,14.921,0,0,0,3.21-3.63ZM31.29-6.45a15.067,15.067,0,0,1-.825,4.92,12.888,12.888,0,0,1,1.2.825,18.815,18.815,0,0,0,1.05-5.535Zm5.43-1.44V-9.525H34.785V-12.48h-1.65v2.955h-2v.435l-1.35-.465A12.245,12.245,0,0,1,26.745-5.46a9.385,9.385,0,0,1,.96,1.65c.3-.285.615-.6.915-.945v6.06h1.65v-8.28a17.344,17.344,0,0,0,.87-1.53v.615h2V1.065h1.65V-7.89ZM35.07-6.165a32.588,32.588,0,0,1,.6,4.47l1.38-.27a35.824,35.824,0,0,0-.675-4.455ZM41.025-7.68H36.87v1.59h1.305V-.66c0,.195-.06.24-.255.24s-.81,0-1.425-.03a6.585,6.585,0,0,1,.48,1.74,4.934,4.934,0,0,0,2.25-.315C39.75.69,39.87.21,39.87-.63V-6.09h1.155Zm13.62,5.49V-.885h-3.06V-2.19Zm.33-7.5v1.065H50.7V-9.69ZM54.015-6h-2.43V-7.23h2.43Zm-6.9-1.35v.72H45.27v-.72ZM45.27-4.725V-5.49h1.845v.765Zm10.4.135V-8.325h.96v-2.82H53.64v-1.56H51.93v1.56H49.11v.72a13.043,13.043,0,0,0-2.28-2.265H45.225A9.251,9.251,0,0,1,42.48-9.06a4.711,4.711,0,0,1,1.1,1.155l.1-.09V-.96c-.33.06-.63.12-.9.165L43.26.84C44.475.525,45.99.105,47.475-.33A10.293,10.293,0,0,1,47.88.87L49.4.18A14.125,14.125,0,0,0,47.67-3.3l-1.395.6q.292.495.585,1.035c-.54.135-1.08.255-1.59.375V-3.45h3.4V-8.625h-1.56V-9.87H45.66v1.245H44.355A12.643,12.643,0,0,0,46.29-11.19a10.735,10.735,0,0,1,1.86,2.31l.96-1.11v1.665h.855v9.63h1.62V.615h3.06v.6h1.65V-3.66h-4.71v-.93Z" transform="translate(55.164 16.909)" fill="#fff"/>
        </g>
        <g id="spot-2" data-name="spot" transform="translate(741.861 414.771)">
          <g id="マスクグループ_43-2" data-name="マスクグループ 43" transform="translate(39.647 29.735)" clip-path="url(#clip-path-4)">
            <path id="パス_1429-2" data-name="パス 1429" d="M73.884,0A19.207,19.207,0,0,0,54.7,19.185C54.7,35.89,73.884,48.8,73.884,48.8S93.069,35.89,93.069,19.185A19.207,19.207,0,0,0,73.884,0Zm0,26.925a7.74,7.74,0,1,1,7.74-7.74A7.74,7.74,0,0,1,73.884,26.925Z" transform="translate(-49.362 0)" fill="#b66363"/>
          </g>
          <path id="パス_2494" data-name="パス 2494" d="M-35.64-12.69a12.533,12.533,0,0,1-2.94,2.97,13.649,13.649,0,0,1,.93,1.3,18.441,18.441,0,0,0,3.585-3.66Zm7.785,10.065a6.007,6.007,0,0,1-1.4,1.065,6.147,6.147,0,0,1-1.365-1.065ZM-31-6.36h3.765v.66H-31Zm0-1.695h3.765v.645H-31Zm4.5,4.17-.3.06h-3.12c.195-.255.36-.51.525-.765h3.81V-9.165h-6.39c.15-.225.3-.465.435-.705h6.8v-1.44h-6.06a9.021,9.021,0,0,0,.39-.99l-1.74-.4A9.009,9.009,0,0,1-34.29-9.09l-1.08-.4A12.8,12.8,0,0,1-38.715-5.64a10.835,10.835,0,0,1,.93,1.665,13.281,13.281,0,0,0,1.17-1.11v6.42h1.665V-7.1c.33-.465.645-.945.915-1.41a11.452,11.452,0,0,1,.975.69c.15-.165.315-.345.465-.525v3.75h1.335a8.5,8.5,0,0,1-3.045,2.475A12.628,12.628,0,0,1-33.075-1a9.348,9.348,0,0,0,1.245-.87,7.086,7.086,0,0,0,1.02.99,15.451,15.451,0,0,1-3.51.75,5.318,5.318,0,0,1,.765,1.44,16.4,16.4,0,0,0,4.29-1.2,12.432,12.432,0,0,0,3.945,1.17A5.807,5.807,0,0,1-24.315-.2,14.8,14.8,0,0,1-27.6-.855a6.761,6.761,0,0,0,2.16-2.52ZM-12.39-1.1h-6.78v-2.94h6.78Zm3.465-7.32v-1.74h-5.85v-2.55h-1.95v2.55H-22.56v1.74h5.835V-5.73h-4.32V1.305h1.875V.6h6.78v.645h1.95V-5.73h-4.335V-8.415Zm3.93-.69h4.08v3.12H.825v-3.12H4.95v1.86H6.6V-10.29H.825v-.57h4.68v-1.32H-5.55v1.32H-.915v.57H-6.57v3.045h1.575ZM1.4-6.135h3.27V-7.11H1.4Zm0-2.46v.96H4.32V-8.6Zm-2.85,0H-4.41v.96h2.955Zm-3.24,2.46h3.24V-7.11h-3.24ZM-3.495-2V-2.64H-1V-2ZM-1-4.38v.66h-2.49v-.66Zm4.425.66H.705v-.66H3.42ZM.705-2V-2.64H3.42V-2Zm1.08,1.89C.87-.105.705-.2.705-.75V-.8H5.19V-5.58H-5.19V-.135h1.695V-.8H-1V-.75c0,1.575.57,2.01,2.625,2.01H4.77c1.635,0,2.115-.5,2.325-2.3a4.561,4.561,0,0,1-1.485-.57c-.1,1.275-.24,1.5-.99,1.5Zm10.38-4.44V-5.46h2.61v.915Zm0-3.165h2.61V-6.8h-2.61Zm7.065,0V-6.8H16.6V-7.71Zm0,3.165H16.6V-5.46H19.23ZM22.59-2.31H16.6v-.81H21.03V-9.135H16.6v-.72h5.55v-1.62H16.6V-12.69h-1.83v1.215H9.33v1.62h5.445v.72h-4.32V-3.12h4.32v.81H8.97V-.705h5.805V1.32H16.6V-.705H22.59Zm13.77.12V-.885H33.3V-2.19Zm.33-7.5v1.065H32.415V-9.69ZM35.73-6H33.3V-7.23h2.43Zm-6.9-1.35v.72H26.985v-.72ZM26.985-4.725V-5.49H28.83v.765Zm10.4.135V-8.325h.96v-2.82H35.355v-1.56h-1.71v1.56h-2.82v.72a13.043,13.043,0,0,0-2.28-2.265h-1.6a9.251,9.251,0,0,1-2.745,3.63,4.711,4.711,0,0,1,1.1,1.155L25.4-8V-.96c-.33.06-.63.12-.9.165L24.975.84C26.19.525,27.7.105,29.19-.33A10.292,10.292,0,0,1,29.6.87L31.11.18A14.126,14.126,0,0,0,29.385-3.3l-1.4.6q.293.495.585,1.035c-.54.135-1.08.255-1.59.375V-3.45h3.4V-8.625H28.83V-9.87H27.375v1.245H26.07a12.643,12.643,0,0,0,1.935-2.565,10.735,10.735,0,0,1,1.86,2.31l.96-1.11v1.665h.855v9.63H33.3V.615h3.06v.6h1.65V-3.66H33.3v-.93Z" transform="translate(62.642 16.692)" fill="#fff"/>
        </g>
        <g id="spot-3" data-name="spot" transform="translate(534.475 605.383)">
          <g id="マスクグループ_43-3" data-name="マスクグループ 43" transform="translate(55.659 29.735)" clip-path="url(#clip-path-5)">
            <path id="パス_1429-3" data-name="パス 1429" d="M73.884,0A19.207,19.207,0,0,0,54.7,19.185C54.7,35.89,73.884,48.8,73.884,48.8S93.069,35.89,93.069,19.185A19.207,19.207,0,0,0,73.884,0Zm0,26.925a7.74,7.74,0,1,1,7.74-7.74A7.74,7.74,0,0,1,73.884,26.925Z" transform="translate(-49.362 0)" fill="#b66363"/>
          </g>
          <path id="パス_2500" data-name="パス 2500" d="M-56.13-.9V-3.825h5.085V-.9Zm2.64-8.775A11.756,11.756,0,0,1-55.575-6.93,21.152,21.152,0,0,0-57.96-8.91c.255-.255.495-.51.735-.765Zm4.305,4.23H-54.54a13.886,13.886,0,0,0,3.48-5.235l-1.23-.645-.3.09h-3.4c.27-.39.525-.78.75-1.17l-2.01-.375a11.983,11.983,0,0,1-4.98,4.77,6.213,6.213,0,0,1,1.26,1.395,15.439,15.439,0,0,0,1.665-1.14,20.836,20.836,0,0,1,2.3,2.07,16.676,16.676,0,0,1-5.25,2.595A5.7,5.7,0,0,1-61.23-1.5a19.23,19.23,0,0,0,3.315-1.47V1.29h1.785V.705h5.085v.6h1.86Zm13.17,4.35h-6.78v-2.94h6.78Zm3.465-7.32v-1.74H-38.4v-2.55h-1.95v2.55h-5.835v1.74h5.835V-5.73h-4.32V1.305h1.875V.6h6.78v.645h1.95V-5.73H-38.4V-8.415ZM-20.82-6.15l-.645.39a8.112,8.112,0,0,1,.735.57c-1.005.03-2.01.06-2.955.09.24-.33.5-.69.735-1.05Zm1.38-4.425v.93h-7.8v-.93ZM-21.585-.465V-1.5h3.6V-2.91h-3.6v-.93l2.3-.09a7.494,7.494,0,0,1,.69.735l1.485-.915a16.189,16.189,0,0,0-2.37-2.04h2.25V-7.545H-27.24v-.66h9.6v-3.81H-29.025V-7.68c0,2.385-.12,5.76-1.6,8.07a6.959,6.959,0,0,1,1.59.915c1.29-2.01,1.68-5.01,1.77-7.455h2.34c-.21.375-.435.765-.645,1.11l-1.575.03.075,1.395c1.065-.045,2.355-.09,3.765-.15v.855h-3.54V-1.5h3.54V-.465h-4.545V.945H-16.92V-.465ZM-1-9.075v-1.74H-6.96v-1.95H-8.865v1.95h-5.82v1.74H-8.85V-7.5h-4.425v7h1.8V-5.76H-8.85V1.32h1.86V-5.76h2.865v3.3c0,.165-.075.24-.315.24s-1.125,0-1.875-.03A6.4,6.4,0,0,1-5.715-.5,7.153,7.153,0,0,0-3.06-.8c.615-.27.8-.78.8-1.635V-7.5H-6.99V-9.075Zm12.93-1.035H10.44v-.6h1.485Zm0,1.62H10.44v-.6h1.485ZM4.11-9.09H5.505v.6H4.11Zm0-1.62H5.505v.6H4.11ZM8.685-9.09v.6H7.23v-.6Zm0-1.62v.6H7.23v-.6Zm4.95-1.08h-3.2v-.915H8.685v.915H7.23v-.915H5.505v.915H2.475V-7.4h11.16ZM12.33-2.325a19.976,19.976,0,0,1-1.815.87,5.116,5.116,0,0,1-1.005-.87Zm-5.73,0H7.71A6.793,6.793,0,0,0,8.775-.9L6.6-.69Zm6.84,0h1.185V-3.6H4.02c.03-.5.045-.96.045-1.38v-.69h10.17V-6.93H2.37v1.92C2.37-3.45,2.22-1.185.915.42a8.832,8.832,0,0,1,1.5.9,8.012,8.012,0,0,0,1.44-3.645H4.86V-.51L3.645-.405l.195,1.47C5.31.9,7.26.69,9.105.465l-.03-1.08a8.819,8.819,0,0,0,4.875,1.92,6.844,6.844,0,0,1,.99-1.5A11.945,11.945,0,0,1,11.925-.78c.72-.24,1.53-.54,2.31-.87ZM13.08-4.1V-5.22H4.815V-4.1Zm12.39-4.71c-.165.405-.345.84-.525,1.2H22.14L22.4-7.65a8.058,8.058,0,0,0-.51-1.155Zm4.845,6.69v-1.47H24.48v-.66h4.5v-1.29h-4.5V-6.21h5.205V-7.605h-2.94c.225-.36.465-.765.705-1.2h2.82V-10.26H28.32c.345-.525.75-1.2,1.17-1.89l-1.875-.45a12.083,12.083,0,0,1-.945,2.175l.54.165H25.875v-2.445h-1.68v2.445h-1.11v-2.445H21.42v2.445H20.055l.735-.27a11.35,11.35,0,0,0-1.14-2.115l-1.53.525a13.445,13.445,0,0,1,.93,1.86H17.04v1.455h3.135l-.18.03a6.741,6.741,0,0,1,.51,1.17h-2.85V-6.21h5.07v.675h-4.32v1.29h4.32v.66H17v1.47h4.3A15.759,15.759,0,0,1,16.56-.36,8.32,8.32,0,0,1,17.7,1.125a14.229,14.229,0,0,0,5.025-2.43v2.61H24.48v-2.7A12.8,12.8,0,0,0,29.52,1.14a8.391,8.391,0,0,1,1.2-1.62,13.4,13.4,0,0,1-4.755-1.635ZM40.29-5.13V-8.355h3.39V-5.13Zm-5.265,0V-8.355H38.4V-5.13Zm5.265-4.98v-2.6H38.4v2.6H33.225v7.56h1.8v-.825H38.4v4.68h1.89v-4.68h3.39v.75h1.875V-10.11ZM58.005-7.14a15.977,15.977,0,0,1,2.55,5.475l1.815-.9a16.032,16.032,0,0,0-2.715-5.4Zm-8.58-.225a11.573,11.573,0,0,1-1.515,5.22l1.665.96a13.746,13.746,0,0,0,1.6-5.82Zm2.73-3.9a20.044,20.044,0,0,1,5.01,2.79l1.17-1.575a22.17,22.17,0,0,0-5.025-2.61ZM52.11-8.43v7.125c0,1.875.525,2.46,2.43,2.46h2.445c1.8,0,2.28-.885,2.475-3.675a5.446,5.446,0,0,1-1.665-.78c-.1,2.355-.225,2.82-.96,2.82H54.78c-.7,0-.81-.105-.81-.825V-8.43Z" transform="translate(78.027 17.081)" fill="#fff"/>
        </g>
        <g id="spot-4" data-name="spot" transform="translate(47.272)">
          <g id="マスクグループ_43-4" data-name="マスクグループ 43" transform="translate(23.636 29.735)" clip-path="url(#clip-path-6)">
            <path id="パス_1429-4" data-name="パス 1429" d="M73.884,0A19.207,19.207,0,0,0,54.7,19.185C54.7,35.89,73.884,48.8,73.884,48.8S93.069,35.89,93.069,19.185A19.207,19.207,0,0,0,73.884,0Zm0,26.925a7.74,7.74,0,1,1,7.74-7.74A7.74,7.74,0,0,1,73.884,26.925Z" transform="translate(-49.362 0)" fill="#b66363"/>
          </g>
          <text id="東山動植物園" transform="translate(47.23 17.461)" fill="#fff" font-size="15" font-family="NotoSansCJKjp-Bold, Noto Sans CJK JP" font-weight="700" letter-spacing="0.05em"><tspan x="-46.875" y="0">東山動植物園</tspan></text>
        </g>
        <g id="spot-5" data-name="spot" transform="translate(0 585.559)">
          <g id="マスクグループ_43-5" data-name="マスクグループ 43" transform="translate(23.636 29.735)" clip-path="url(#clip-path-7)">
            <path id="パス_1429-5" data-name="パス 1429" d="M73.884,0A19.207,19.207,0,0,0,54.7,19.185C54.7,35.89,73.884,48.8,73.884,48.8S93.069,35.89,93.069,19.185A19.207,19.207,0,0,0,73.884,0Zm0,26.925a7.74,7.74,0,1,1,7.74-7.74A7.74,7.74,0,0,1,73.884,26.925Z" transform="translate(-49.362 0)" fill="#b66363"/>
          </g>
          <path id="パス_2499" data-name="パス 2499" d="M-30.12-3.93a10.932,10.932,0,0,1-.765,3.48A7.493,7.493,0,0,1-29.58.18a13.768,13.768,0,0,0,.885-3.87ZM-26.2-4.965c.09.33.18.63.225.885l1.17-.54-.015.015A9.725,9.725,0,0,1-23.19-2.7l1.245-1.08a9.512,9.512,0,0,0-1.71-1.8l-1.005.84a13.691,13.691,0,0,0-1.32-3.135l-1.26.525c.165.3.33.63.48.96l-1.305.075c.945-1.2,1.965-2.685,2.79-3.945l-1.455-.675a24.182,24.182,0,0,1-1.35,2.43,7.545,7.545,0,0,0-.48-.585,33.77,33.77,0,0,0,1.695-3.06l-1.545-.54a18.406,18.406,0,0,1-1.08,2.6c-.12-.1-.24-.21-.345-.315l-.87,1.2a13.8,13.8,0,0,1,1.71,2.1c-.225.315-.45.615-.675.885l-1.08.06.18,1.545,2.085-.165v6.09h1.53v-6.21ZM-22.26-3.03c-.885.57-1.8,1.17-2.565,1.62a10.971,10.971,0,0,0-.75-2.58l-1.245.375a11.923,11.923,0,0,1,.69,2.7l1.08-.36c-.21.12-.39.225-.555.315l.87,1.545c.93-.69,2.025-1.5,3.015-2.3Zm-.12-6.435.21-.78h2.535l-.135.78Zm4.365,3.8A13.082,13.082,0,0,1-19.44-4.14a11.725,11.725,0,0,1-.6-1.77h3.255V-7.425h-1.71c.27-1.3.555-2.79.735-4.065l-1.215-.165-.285.075h-2.595l.225-.945L-23.3-12.69c-.3,1.485-.81,3.435-1.2,4.665l1.65.24.1-.345h2.73l-.15.705h-4.86V-5.91h3.345V-.39c0,.165-.06.21-.24.21-.18.015-.78.015-1.3-.015a6.344,6.344,0,0,1,.45,1.5,4.969,4.969,0,0,0,2.085-.27c.5-.24.615-.63.615-1.41V-2.31A6.828,6.828,0,0,0-17.535.615,6.55,6.55,0,0,1-16.455-.84a5.872,5.872,0,0,1-2.28-2.025c.645-.48,1.38-1.14,2.04-1.74Zm7.215-5.445a17.6,17.6,0,0,0-2.49-1.47l-1.05,1.305a17.061,17.061,0,0,1,2.46,1.605ZM-11.385-7.2A19.83,19.83,0,0,0-13.92-8.6l-.99,1.3a17.98,17.98,0,0,1,2.46,1.53ZM-13.05,1.14c.615-1.47,1.275-3.2,1.77-4.8l-1.44-.93A46.9,46.9,0,0,1-14.655.225Zm9.9-13.485V-6.8A15.713,15.713,0,0,0-4.005-8.37l-.615.285v-3.96H-6.285v5.61a12.443,12.443,0,0,0-.69-1.635l-.75.3v-4.56H-9.4v4.35l-1.275-.39a9.978,9.978,0,0,1-1.14,3.585l1.32.7A11.052,11.052,0,0,0-9.4-7.605v.27C-9.4-4.68-9.57-1.95-11.175.27a6.385,6.385,0,0,1,1.53,1.035c1.545-2.235,1.86-5.01,1.9-7.68a12.5,12.5,0,0,1,.54,1.98l.915-.375V.855H-4.62V-6.51a10.709,10.709,0,0,1,.75,2.07l.72-.345V1.29h1.71V-12.345ZM12.84-10.02l-.36.09H8.76v-2.76H6.93v2.76H1.815v1.74H11.25A26.065,26.065,0,0,1,5.475-2.325a4.49,4.49,0,0,1-.63-.915c.165-.36.3-.675.42-.96l-1.8-.66A16.816,16.816,0,0,1,.72.2l1.755,1.1A29.231,29.231,0,0,0,4.02-1.485c1.545,2.04,3.855,2.52,6.9,2.52H14.3A5.811,5.811,0,0,1,14.91-.72c-.885.015-3.18.03-3.87.015a11.039,11.039,0,0,1-4.02-.57A29.885,29.885,0,0,0,14.19-9.18ZM22.665-6h1.77V-9.18a11.985,11.985,0,0,0,4.77,3.135,7.277,7.277,0,0,1,1.14-1.47,11.953,11.953,0,0,1-4.26-2.115h3.6v-1.575h-5.25v-1.53h-1.77v1.53h-5.01V-9.63h3.36a11.129,11.129,0,0,1-4.05,2.25A6.212,6.212,0,0,1,18.09-6a11.537,11.537,0,0,0,4.575-3.12Zm-1.6,2.655h1.92v-1.56H21.06V-6.51H19.38v1.605H16.845v1.56h1.89a6.98,6.98,0,0,1-2.22,2.31,8.844,8.844,0,0,1,.75,1.68A7.292,7.292,0,0,0,19.38-1.7V1.29h1.68V-1.455c.36.345.72.705.93.945l1.035-1.32c-.285-.225-1.38-.945-1.965-1.29Zm9.39,0v-1.56H27.495V-6.51H25.83v1.605H23.445v1.56h1.5A7.213,7.213,0,0,1,22.275-.57,7.446,7.446,0,0,1,23.37.72a8.1,8.1,0,0,0,2.46-2.775V1.29h1.665V-2.085A10.33,10.33,0,0,0,29.58.69,7.751,7.751,0,0,1,30.84-.75a8.918,8.918,0,0,1-2.535-2.6Z" transform="translate(46.502 16.903)" fill="#fff"/>
        </g>
        <g id="spot-6" data-name="spot" transform="translate(734.999 624.444)">
          <g id="マスクグループ_43-6" data-name="マスクグループ 43" transform="translate(39.647 29.735)" clip-path="url(#clip-path-8)">
            <path id="パス_2386-2" data-name="パス 2386" d="M-2645.459-16889.562a19.208,19.208,0,0,1,19.185-19.186,19.212,19.212,0,0,1,19.185,19.186c0,16.709-19.185,29.611-19.185,29.611S-2645.459-16872.854-2645.459-16889.562Z" transform="translate(2650.796 16908.748)" fill="#63b67c"/>
            <path id="パス_2387-2" data-name="パス 2387" d="M1.025,6.173V-10.021H4.3v6.374H10.7v-6.374h3.27V6.173H10.7V-.908H4.3V6.173Z" transform="translate(17.731 23.439)" fill="#fff"/>
          </g>
          <path id="パス_2503" data-name="パス 2503" d="M-56.152,0h2.715l1.215-5.49c.18-.87.33-1.725.48-2.58h.06c.135.855.3,1.71.48,2.58L-49.957,0h2.76l2.055-11.115h-2.1l-.885,5.43c-.165,1.155-.33,2.34-.495,3.54H-48.7c-.24-1.2-.465-2.4-.7-3.54l-1.275-5.43h-1.9l-1.29,5.43c-.24,1.155-.48,2.34-.7,3.54h-.06c-.165-1.2-.345-2.37-.51-3.54l-.885-5.43h-2.25ZM-39.4.21A4.1,4.1,0,0,0-35.362-4.2,4.1,4.1,0,0,0-39.4-8.61,4.1,4.1,0,0,0-43.432-4.2,4.1,4.1,0,0,0-39.4.21Zm0-1.8c-1.14,0-1.785-1.02-1.785-2.61s.645-2.61,1.785-2.61,1.785,1.035,1.785,2.61S-38.257-1.59-39.4-1.59ZM-32.767,0h2.2V-5.775a2.361,2.361,0,0,1,1.74-.945c.825,0,1.185.45,1.185,1.755V0h2.2V-5.235c0-2.115-.78-3.375-2.6-3.375a3.872,3.872,0,0,0-2.73,1.32H-30.8l-.165-1.11h-1.8Zm13.32.21A3.484,3.484,0,0,0-17.122-.87h.06L-16.9,0h1.785V-11.97H-17.3v2.955l.075,1.32a2.891,2.891,0,0,0-2.13-.915c-1.815,0-3.525,1.68-3.525,4.41C-22.882-1.44-21.532.21-19.447.21Zm.57-1.815c-1.11,0-1.74-.87-1.74-2.61,0-1.68.795-2.58,1.74-2.58a2.265,2.265,0,0,1,1.575.63v3.69A1.911,1.911,0,0,1-18.877-1.605ZM-8.332.21A5.288,5.288,0,0,0-5.407-.72l-.75-1.35a3.462,3.462,0,0,1-1.89.585,2.207,2.207,0,0,1-2.325-2.1H-5.2a4.146,4.146,0,0,0,.105-1.02c0-2.31-1.2-4-3.51-4A4.117,4.117,0,0,0-12.517-4.2,4.078,4.078,0,0,0-8.332.21ZM-10.4-5.055A1.891,1.891,0,0,1-8.572-6.9c1.08,0,1.59.72,1.59,1.845ZM-2.527,0H-.322V-5.01C.143-6.225.938-6.66,1.6-6.66a2.806,2.806,0,0,1,.885.135l.375-1.9a2.376,2.376,0,0,0-.99-.18A2.91,2.91,0,0,0-.517-6.915H-.562L-.727-8.4h-1.8Zm9.57.21c2.19,0,3.345-1.185,3.345-2.655,0-1.56-1.23-2.115-2.34-2.535-.885-.33-1.665-.555-1.665-1.17,0-.48.36-.81,1.125-.81a3.127,3.127,0,0,1,1.8.72l.99-1.335A4.656,4.656,0,0,0,7.448-8.61c-1.92,0-3.135,1.065-3.135,2.565,0,1.41,1.185,2.055,2.25,2.46.885.345,1.755.63,1.755,1.26,0,.525-.375.885-1.215.885a3.647,3.647,0,0,1-2.25-.915l-1,1.38A5.328,5.328,0,0,0,7.043.21ZM17.153,0h2.22V-4.8h4.2V0h2.2V-11.115h-2.2v4.38h-4.2v-4.38h-2.22ZM32.587.21A4.1,4.1,0,0,0,36.622-4.2a4.1,4.1,0,0,0-4.035-4.41A4.1,4.1,0,0,0,28.552-4.2,4.1,4.1,0,0,0,32.587.21Zm0-1.8c-1.14,0-1.785-1.02-1.785-2.61s.645-2.61,1.785-2.61,1.785,1.035,1.785,2.61S33.727-1.59,32.587-1.59ZM41.872.21a5.428,5.428,0,0,0,1.77-.315l-.36-1.605a2.454,2.454,0,0,1-.825.18c-.75,0-1.14-.45-1.14-1.41V-6.66h2.07V-8.4h-2.07v-2.265h-1.83L39.232-8.4l-1.305.1V-6.66h1.185v3.72C39.112-1.065,39.877.21,41.872.21Zm7.35,0a5.288,5.288,0,0,0,2.925-.93L51.4-2.07a3.462,3.462,0,0,1-1.89.585,2.207,2.207,0,0,1-2.325-2.1h5.175a4.145,4.145,0,0,0,.105-1.02c0-2.31-1.2-4-3.51-4A4.117,4.117,0,0,0,45.037-4.2,4.078,4.078,0,0,0,49.222.21Zm-2.07-5.265A1.891,1.891,0,0,1,48.982-6.9c1.08,0,1.59.72,1.59,1.845ZM57.1.21a2.944,2.944,0,0,0,1.14-.2l-.27-1.635a1.243,1.243,0,0,1-.3.03c-.21,0-.435-.165-.435-.675V-11.97h-2.2v9.615C55.027-.8,55.567.21,57.1.21Z" transform="translate(61.504 17.018)" fill="#fff"/>
        </g>
        <g id="spot-7" data-name="spot" transform="translate(294.304 309.553)">
          <g id="マスクグループ_43-7" data-name="マスクグループ 43" transform="translate(16.011 29.735)" clip-path="url(#clip-path-9)">
            <path id="パス_1429-6" data-name="パス 1429" d="M73.884,0A19.207,19.207,0,0,0,54.7,19.185C54.7,35.89,73.884,48.8,73.884,48.8S93.069,35.89,93.069,19.185A19.207,19.207,0,0,0,73.884,0Zm0,26.925a7.74,7.74,0,1,1,7.74-7.74A7.74,7.74,0,0,1,73.884,26.925Z" transform="translate(-49.362 0)" fill="#b66363"/>
          </g>
          <path id="パス_2496" data-name="パス 2496" d="M-34.47-6.84h1.545v-.975a10.208,10.208,0,0,1,.885.63,10.9,10.9,0,0,0,1.575-3.3,30.02,30.02,0,0,0,5.175-.945l-1.2-1.215a27.5,27.5,0,0,1-4.68.915l-.75-.15a9.484,9.484,0,0,1-1.35,3.375h-1.2V-10.62a15.641,15.641,0,0,0,1.785-.57l-1.185-1.365a21.442,21.442,0,0,1-4.65,1.245,6.183,6.183,0,0,1,.495,1.365c.585-.075,1.2-.18,1.83-.3v1.74H-38.34V-6.84h1.9a14.658,14.658,0,0,1-2.22,4.02,8.855,8.855,0,0,1,.825,1.7A13.33,13.33,0,0,0-36.195-4.1V1.29h1.725V-4.56a13.144,13.144,0,0,1,.9,1.515l1.02-1.395c-.285-.33-1.515-1.635-1.92-1.965Zm7.14-3.66a13.31,13.31,0,0,1,1.47,3.09l1.455-.63a13.392,13.392,0,0,0-1.545-3.015Zm-.57,2.655a11.518,11.518,0,0,0-.54-2.475l-1.455.315a12.79,12.79,0,0,1,.45,2.52Zm-2.835,6.8V-2.415h1.62v-1.47h-1.62V-5.13a15.884,15.884,0,0,0,2.31-1.17v1.26h1.86v1.155H-28.23v1.47h1.665V-1.05Zm5.88-5.475h-3.57v.045L-29.76-7.575A9.7,9.7,0,0,1-31.59-6.33l-.795-.21V1.32h1.65V.48h4.17v.69h1.71Zm5.94-3.06h1.47V-10.5h3.375v.975h1.14v.63h-2.31V-9.87H-16.9V-8.9h-2.01Zm5.985,2.76h-2.31V-7.53h2.31ZM-8.94-1.77V-3.135h-5.97V-3.87h5.43V-5.25h-9.435V-7.53h2.01v1.725h5.73V-7.53H-9.06V-8.9h-2.115v-.87h-1.11V-10.5H-9.03v-1.365h-3.255v-.825H-14.07v.825h-3.375v-.825h-1.77v.825H-22.44V-10.5h3.225v.72h-1.47V-8.9h-1.74V-7.53h1.74v3.66h4.035v.735h-5.865V-1.77h4.53a17.951,17.951,0,0,1-4.89,1.53A8.482,8.482,0,0,1-21.78,1.2,15.731,15.731,0,0,0-16.65-1v2.31h1.74v-2.43a12.4,12.4,0,0,0,5.145,2.37A6.438,6.438,0,0,1-8.625-.3,14.521,14.521,0,0,1-13.44-1.77ZM4.275-9.105v7.4H.87V-12.3H-.99V-1.71H-4.245V-9.075h-1.83v10.2h1.83V.135h8.52V1.08h1.86V-9.105Zm12.63-2.505a31.192,31.192,0,0,0,4.23,5.94,9.233,9.233,0,0,1,1.5-1.56,20.162,20.162,0,0,1-3.945-5.115Zm-4.215-.765A12.827,12.827,0,0,1,8.955-7.02a11.6,11.6,0,0,1,1.71,1.335A18.262,18.262,0,0,0,14.73-11.79ZM17.16-3.96c.555.735,1.155,1.59,1.695,2.43-1.74.09-3.495.18-5.115.255A56.252,56.252,0,0,0,16.41-6.75l-2.145-.495A36.685,36.685,0,0,1,11.7-1.185L9.615-1.11,9.855.765C12.5.645,16.275.42,19.875.18a10.2,10.2,0,0,1,.615,1.2L22.35.405A34.4,34.4,0,0,0,18.9-4.77ZM35.625-8.19H32.25v-.57h2.76v-.96H32.25v-.63H30.63v.63H27.99v.96h2.64v.57H27.285v1.005h8.34Zm-6.09,2.37H33.4v.75h-3.87Zm2.85,1.65H34.14c-.315.24-.66.5-.975.705a6.356,6.356,0,0,1-.825-.66Zm2.58-.24V-6.735H28.05V-4.17h2.355A12.187,12.187,0,0,1,26.94-2.6,7.228,7.228,0,0,1,27.9-1.47a14.405,14.405,0,0,0,2.565-1.245v1.56h1.56v-1.68a9.123,9.123,0,0,0,3.03,1.695,5.025,5.025,0,0,1,.9-1.14,9.159,9.159,0,0,1-1.77-.615,13.559,13.559,0,0,0,1.53-1.02ZM26.775-.825V-10.53H36.15V-.825Zm-1.68-11.31V1.305h1.68V.765H36.15v.54h1.74v-13.44Z" transform="translate(39.198 16.909)" fill="#fff"/>
        </g>
      </g>
    </g>
  </g>
</svg>
