<svg xmlns="http://www.w3.org/2000/svg" xmlns:xlink="http://www.w3.org/1999/xlink" width="24" height="24" viewBox="0 0 24 24">
  <defs>
    <clipPath id="clip-path">
      <rect id="長方形_365" data-name="長方形 365" width="24" height="24" transform="translate(0 80)" fill="#fff" stroke="#707070" stroke-width="1"/>
    </clipPath>
  </defs>
  <g id="meitethu_train" transform="translate(0 -80)" clip-path="url(#clip-path)">
    <g id="g3639" transform="translate(-746.017 -3495.135)">
      <g id="g3672" transform="translate(749.113 3575.135)">
        <path id="path2875" d="M60.54,864.488a1.854,1.854,0,0,1,.274-.831,3.615,3.615,0,0,1,.589-.705,31.156,31.156,0,0,1,2.778-2.084q1.452-.968,2.926-1.957l-.8,3.746a2.209,2.209,0,0,1-.737,1.431h4.189a1.478,1.478,0,0,1-.358-.631,1.136,1.136,0,0,1,.042-.526l1.368-6.5a8.838,8.838,0,0,0,1.831-3.115,8.022,8.022,0,0,0,.442-2.61h-.253a2.1,2.1,0,0,1-.2.768,4.452,4.452,0,0,1-.558.947,7.356,7.356,0,0,1-1.537,1.294q-1.179.821-2.5,1.694t-2.82,1.9a25.017,25.017,0,0,0-2.115,1.579,9.442,9.442,0,0,0-.958.947q-.337.4-.716.863a7.02,7.02,0,0,0-.831,1.442,4.775,4.775,0,0,0-.326,2.431l.274-.084Z" transform="translate(-55.867 -846.323)" fill="#004ea2"/>
        <path id="path2875-3" d="M2.126,808.136a1.069,1.069,0,0,1-.263-.568,1.975,1.975,0,0,1,.011-.674l2.084-8.8H4L5.43,801.59a3.884,3.884,0,0,0-.347.989,6.4,6.4,0,0,0-.116.863,5.654,5.654,0,0,0,.063,1.01l.295-.042a2.867,2.867,0,0,1,.484-1.337,6.894,6.894,0,0,1,.989-1.126,13.718,13.718,0,0,1,1.852-1.495q.842-.547,2.157-1.389t2.578-1.663a12.467,12.467,0,0,0,2.136-1.715,8.072,8.072,0,0,0,1.526-2.336,8.6,8.6,0,0,0,.758-2.978h-.295a4.735,4.735,0,0,1-.442,1.021,4.536,4.536,0,0,1-.737.958q-1.936,1.41-3.978,2.7t-3.978,2.684a3.093,3.093,0,0,0-.305-.716,2.437,2.437,0,0,0-.495-.568,2.256,2.256,0,0,0-.631-.4,3.478,3.478,0,0,0-.652-.189H2.757a1.2,1.2,0,0,1,.295.411.964.964,0,0,1,.042.41L.863,806.6a3.931,3.931,0,0,1-.326.958,1.739,1.739,0,0,1-.537.579H2.126Z" transform="translate(0 -790.371)" fill="#00a496"/>
      </g>
      <path id="path2864" d="M959.712,3697.647l.162-.4a.467.467,0,0,1-.324.061h-1.1l.291-1.25h.6a.686.686,0,0,0,.534-.214l.065-.153h-.55a.8.8,0,0,0-.615.213l.227-1.189h1.036q.162.03.194.122l.1-.458h-2.2a.549.549,0,0,1,0,.458l-.55,2.471a1.289,1.289,0,0,1-.227.335Zm1.392,0a.564.564,0,0,1-.1-.3l.55-2.5a.725.725,0,0,1,.227-.458h-1.1a.643.643,0,0,1,.032.458l-.55,2.471a.747.747,0,0,1-.194.335Zm2.1,0a.358.358,0,0,1-.1-.335l.55-2.593h.469a.588.588,0,0,0,.4-.183l.065-.152h-2.461l-.194.458a.9.9,0,0,1,.486-.122h.421l-.583,2.593a.7.7,0,0,1-.227.335Zm11.4,0a.792.792,0,0,1-.065-.58l.389-2.2a1.288,1.288,0,0,1,.227-.488H974.12a.742.742,0,0,1,.032.488l-.453,2.379a.547.547,0,0,1-.388.152.738.738,0,0,1-.34-.061.227.227,0,0,1-.13-.168,2.629,2.629,0,0,1-.016-.351l.356-1.982a.857.857,0,0,1,.227-.458h-1.1a.747.747,0,0,1,.1.488l-.356,2.227a.565.565,0,0,0,.113.412.649.649,0,0,0,.372.137,2.374,2.374,0,0,0,.453.015,1.292,1.292,0,0,0,.356-.076q.162-.061.356-.122l-.065.183Zm-5.439-.092a1.838,1.838,0,0,0,.486.107q.227.015.534.015a2.014,2.014,0,0,0,.631-.107,1.3,1.3,0,0,0,.486-.259,1.113,1.113,0,0,0,.259-.381,1.163,1.163,0,0,0,.1-.458.846.846,0,0,0-.113-.427,1.959,1.959,0,0,0-.534-.5,1.6,1.6,0,0,1-.469-.427.38.38,0,0,1-.016-.244.235.235,0,0,1,.162-.167,1.22,1.22,0,0,1,.291-.061,1.1,1.1,0,0,1,.259,0,1.4,1.4,0,0,1,.259.076.782.782,0,0,1,.324.274l.1-.61q-.453-.061-.631-.076a2.311,2.311,0,0,0-.372,0,1.441,1.441,0,0,0-.421.107,1.286,1.286,0,0,0-.4.26,1.172,1.172,0,0,0-.259.335.7.7,0,0,0-.065.366.971.971,0,0,0,.081.336,1.722,1.722,0,0,0,.5.442q.437.305.486.5a.45.45,0,0,1-.016.32.611.611,0,0,1-.162.2.484.484,0,0,1-.259.092q-.162.015-.34.015a.793.793,0,0,1-.34-.076,1.626,1.626,0,0,1-.388-.29Zm-2.59.092.1-.4a.367.367,0,0,1-.291.061h-1.133l.291-1.25h.631a.589.589,0,0,0,.5-.214l.1-.153h-.583a.8.8,0,0,0-.615.213l.259-1.189h1.036q.162.03.162.122l.1-.458h-2.2a.619.619,0,0,1,.032.458l-.615,2.471a.779.779,0,0,1-.194.335Zm2.072,0a.358.358,0,0,1-.1-.335l.55-2.593h.469a.588.588,0,0,0,.4-.183l.065-.152H967.58l-.194.458a.8.8,0,0,1,.486-.122h.421l-.583,2.593a.7.7,0,0,1-.227.335Z" transform="translate(-208.236 -98.543)" fill="#004ea2"/>
    </g>
  </g>
</svg>
