<svg xmlns="http://www.w3.org/2000/svg" xmlns:xlink="http://www.w3.org/1999/xlink" width="50" height="50" viewBox="0 0 50 50">
  <defs>
    <clipPath id="clip-path">
      <rect id="長方形_314" data-name="長方形 314" width="50" height="50" transform="translate(-5327.935 1038.85)" fill="#fff" stroke="#707070" stroke-width="1"/>
    </clipPath>
  </defs>
  <g id="nerve_icon_02" transform="translate(5327.935 -1038.85)" clip-path="url(#clip-path)">
    <g id="グループ_322" data-name="グループ 322" transform="translate(-5327.935 1039.892)">
      <path id="パス_1784" data-name="パス 1784" d="M-7015.378-10482.5a.656.656,0,0,1-.177-.8,7.092,7.092,0,0,0-.552-6.846.611.611,0,0,1,.541-.917,4.1,4.1,0,0,0,1.251-.151,5.991,5.991,0,0,0,1.911-.912.619.619,0,0,1,.946.327c.579,1.968,1.46,6.885-3.163,9.368a.7.7,0,0,1-.328.082A.679.679,0,0,1-7015.378-10482.5Zm5.554-9.766a2.291,2.291,0,0,0-1-1.3,2.441,2.441,0,0,0,1.026-1.415,2.43,2.43,0,0,0-.415-2.107l-.621-.82-.1-1.064a2.469,2.469,0,0,0-1.362-2.027,2.447,2.447,0,0,0,.3-.441,2.426,2.426,0,0,0,.071-2.146l-.422-.934.146-1.061a2.438,2.438,0,0,0-.562-1.971,2.476,2.476,0,0,0-.457-.411,2.5,2.5,0,0,0,.721-.7,2.426,2.426,0,0,0,.292-2.127l-.322-.974.253-1.039a2.425,2.425,0,0,0-.4-2.075c-.051-.069-.107-.135-.164-.2a2.5,2.5,0,0,0,.829-.637,2.438,2.438,0,0,0,.54-2.028l-.188-1.006.392-1a2.418,2.418,0,0,0-.114-2.109.2.2,0,0,1-.014-.024,2.472,2.472,0,0,0,.629-.476,2.455,2.455,0,0,0,.674-1.846l-.094-1.476a7.608,7.608,0,0,1,.643-2.526l.659-1.533,2.053.245s-3.164,9.818-1.912,15.761a2.207,2.207,0,0,0,2.406,1.815c1.15-.261,1.62-1.574,2.335-2.5a4.973,4.973,0,0,1,4.816-1.673,6.331,6.331,0,0,1,4.153,3.11,8.7,8.7,0,0,1,.99,5.127,7.512,7.512,0,0,1-2.406,5.089,4.77,4.77,0,0,1-5.42.6,7.726,7.726,0,0,1-2.2-2.536,7.253,7.253,0,0,0-2.233-2.5,2.59,2.59,0,0,0-3.141.224,3.123,3.123,0,0,0-.418,2.8s2.693,8.179.571,15.266A12.887,12.887,0,0,0-7009.824-10492.262Zm-8.37-1.454-.108-1.184a1.307,1.307,0,0,0-.262-.673l-.682-.9a.782.782,0,0,1,.312-1.19h0a2.663,2.663,0,0,1,1.2-.209l.135.008a3.788,3.788,0,0,0,2.787-1l.1-.092a2.637,2.637,0,0,1,1.06-.6l0,0a.8.8,0,0,1,1.014.717l.109,1.185a1.315,1.315,0,0,0,.262.673l.681.9a.78.78,0,0,1-.312,1.19h0a2.66,2.66,0,0,1-1.2.209l-.135-.008a3.788,3.788,0,0,0-2.788,1l-.1.091a2.628,2.628,0,0,1-1.059.6l0,0a.812.812,0,0,1-.219.03A.8.8,0,0,1-7018.194-10493.716Zm-2.267-8.326.161-1.179a1.31,1.31,0,0,0-.1-.715l-.461-1.025a.784.784,0,0,1,.572-1.093h0a2.674,2.674,0,0,1,1.221.06l.13.038a3.805,3.805,0,0,0,2.942-.363l.117-.066a2.643,2.643,0,0,1,1.168-.354h0a.79.79,0,0,1,.828.92l-.161,1.179a1.32,1.32,0,0,0,.1.714l.462,1.025a.784.784,0,0,1-.572,1.093h0a2.674,2.674,0,0,1-1.221-.06l-.13-.037a3.8,3.8,0,0,0-2.942.362l-.117.066a2.65,2.65,0,0,1-1.167.354h-.052A.791.791,0,0,1-7020.461-10502.042Zm36.362.754-3.374-2.8.228,2.134a.558.558,0,0,1-.3.554.575.575,0,0,1-.633-.071l-4.2-3.54a.554.554,0,0,1-.062-.788.572.572,0,0,1,.8-.061l3.115,2.627-.225-2.115a.555.555,0,0,1,.3-.552.578.578,0,0,1,.631.065l4.451,3.688a.555.555,0,0,1,.069.788.572.572,0,0,1-.435.2A.573.573,0,0,1-6984.1-10501.288Zm-.7-7.3-5.517-.325a.563.563,0,0,1-.533-.592.567.567,0,0,1,.6-.524l4.095.243-1.478-1.553a.552.552,0,0,1-.1-.617.563.563,0,0,1,.544-.322l5.808.293a.562.562,0,0,1,.537.587.555.555,0,0,1-.6.528l-4.4-.222,1.49,1.564a.554.554,0,0,1,.1.62.569.569,0,0,1-.514.32Zm-35.327-.529h0a.789.789,0,0,1-.729-1l.282-1.156a1.311,1.311,0,0,0-.029-.721l-.354-1.066a.789.789,0,0,1,.683-1.03h0a2.662,2.662,0,0,1,1.208.183l.126.05a3.812,3.812,0,0,0,2.964-.066l.123-.055a2.652,2.652,0,0,1,1.2-.235h0a.789.789,0,0,1,.729,1l-.282,1.157a1.307,1.307,0,0,0,.029.72l.353,1.067a.787.787,0,0,1-.682,1.029h0a2.669,2.669,0,0,1-1.208-.182l-.126-.05a3.8,3.8,0,0,0-2.964.065l-.123.056a2.674,2.674,0,0,1-1.093.237Zm27.632-5.169a.559.559,0,0,1,.43-.668l4.3-.944-1.861-1.116a.553.553,0,0,1-.264-.57.564.564,0,0,1,.44-.453l5.405-1.139a.568.568,0,0,1,.674.431.557.557,0,0,1-.436.663l-4.012.844,1.846,1.107a.554.554,0,0,1,.265.568.56.56,0,0,1-.437.453l-5.676,1.248a.685.685,0,0,1-.124.013A.565.565,0,0,1-6992.494-10514.283Zm-21.459-2.222h0a2.657,2.657,0,0,1-1.173-.338l-.117-.065a3.808,3.808,0,0,0-2.947-.322l-.129.038a2.647,2.647,0,0,1-1.22.075h0a.785.785,0,0,1-.587-1.085l.435-1.108a1.316,1.316,0,0,0,.068-.718l-.207-1.1a.791.791,0,0,1,.815-.932h0a2.67,2.67,0,0,1,1.172.338l.118.066a3.807,3.807,0,0,0,2.947.323l.129-.039a2.66,2.66,0,0,1,1.22-.076h0a.784.784,0,0,1,.587,1.084l-.435,1.11a1.3,1.3,0,0,0-.068.718l.206,1.1a.79.79,0,0,1-.777.932Zm1.247-6.757-.026,0a2.751,2.751,0,0,1-1.137-.494l-.073-.054a3.8,3.8,0,0,0-2.888-.664l-.09.016a2.777,2.777,0,0,1-1.242-.053l-.025-.008a.782.782,0,0,1-.452-1.146l.758-1.3a9.494,9.494,0,0,0,.775-3.267l6,1.382a9.519,9.519,0,0,0-.775,3.266l.1,1.494a.794.794,0,0,1-.792.841A.846.846,0,0,1-7012.707-10523.262Z" transform="translate(7026.808 10530.263)" fill="#fff" stroke="rgba(0,0,0,0)" stroke-width="1"/>
    </g>
  </g>
</svg>
