<svg xmlns="http://www.w3.org/2000/svg" xmlns:xlink="http://www.w3.org/1999/xlink" width="50" height="50" viewBox="0 0 50 50">
  <defs>
    <clipPath id="clip-path">
      <rect id="長方形_314" data-name="長方形 314" width="50" height="50" transform="translate(-5327.935 1038.85)" fill="#fff" stroke="#707070" stroke-width="1"/>
    </clipPath>
  </defs>
  <g id="nerve_icon_05" transform="translate(5327.935 -1038.85)" clip-path="url(#clip-path)">
    <g id="グループ_212" data-name="グループ 212" transform="translate(-530.893 684.943)">
      <path id="パス_738" data-name="パス 738" d="M1230.979,1023.422a15.781,15.781,0,0,0-.12-8.871,12.812,12.812,0,0,0-5.364-6.986c-3.55-2.177-8.307-2.488-11.006-5.66h-13.072c-2.7,3.172-7.455,3.483-11.006,5.66a12.81,12.81,0,0,0-5.364,6.986,15.782,15.782,0,0,0-.12,8.871c-2.14,5.237-2.364,22.895-1.489,28.484h5.489s2.037-8.882,1.867-15.106c0,0,1.335-1.67,2.163-6.11.8,2.6,1.563,5,2.26,7.625q.218.821.375,1.653a23.93,23.93,0,0,1-.058,8.794l-.581,3.142h6.758l.024-14.021c0-.59-.118-.9-.237-.936a1.113,1.113,0,0,0-.518.106,4.286,4.286,0,0,1-.482.14,2.307,2.307,0,0,1-1.754-.37,2.634,2.634,0,0,1-1.134-1.68,3.244,3.244,0,0,1,1.411-3.173,4.579,4.579,0,0,1,2.562-.759l-.021-10.7a.62.62,0,0,1,.62-.621h0a.62.62,0,0,1,.62.619l.022,11.348a.62.62,0,0,1-.683.618,3.6,3.6,0,0,0-2.412.513,2.019,2.019,0,0,0-.9,1.923,1.4,1.4,0,0,0,.6.879,1.07,1.07,0,0,0,.811.188,3.113,3.113,0,0,0,.34-.1,1.963,1.963,0,0,1,1.318-.1c.715.246,1.076.956,1.074,2.111l-.024,14.019h2.559l.161-.6a.962.962,0,0,0-.006-.524l-.231-.781a.571.571,0,0,1,.508-.735h0a1.878,1.878,0,0,1,.86.156l.089.039a2.687,2.687,0,0,0,2.12.011l.089-.038a1.882,1.882,0,0,1,.861-.147h0a.571.571,0,0,1,.5.739l-.224.833a.962.962,0,0,0,.006.524l.154.521h10.654l-.586-2.857a23.485,23.485,0,0,1,.014-9.909q.094-.413.2-.824.88-3.316,1.866-6.6a23.394,23.394,0,0,0,2.556,5.086c-.17,6.224,1.867,15.106,1.867,15.106h5.489c.875-5.589.651-23.247-1.489-28.484m-31.872,3.239a.62.62,0,0,1-.877,0l-4.524-4.524a.62.62,0,0,1,.438-1.059h2.3l-3.214-3.214a.62.62,0,0,1,.877-.877l4.273,4.273a.62.62,0,0,1-.438,1.059h-2.3l3.465,3.465a.62.62,0,0,1,0,.877m7.193-21.8h0a1.541,1.541,0,0,1,.705.128l.073.032a2.2,2.2,0,0,0,1.74.009l.073-.031a1.539,1.539,0,0,1,.707-.12h0a.469.469,0,0,1,.411.607l-.184.684a.791.791,0,0,0,.005.43l.19.641a.469.469,0,0,1-.417.6h0a1.54,1.54,0,0,1-.705-.128l-.073-.032a2.2,2.2,0,0,0-1.74-.009l-.073.031a1.539,1.539,0,0,1-.707.12h0a.469.469,0,0,1-.411-.607l.184-.684a.79.79,0,0,0-.005-.43l-.19-.641a.469.469,0,0,1,.417-.6m-.356,7.348h0a1.872,1.872,0,0,1,.86.156l.089.039a2.686,2.686,0,0,0,2.12.011l.089-.038a1.876,1.876,0,0,1,.861-.147h0a.571.571,0,0,1,.5.739l-.224.833a.961.961,0,0,0,.006.524l.231.781a.572.572,0,0,1-.509.734h0a1.873,1.873,0,0,1-.86-.156l-.089-.039a2.686,2.686,0,0,0-2.12-.011l-.089.038a1.876,1.876,0,0,1-.862.147h0a.572.572,0,0,1-.5-.739l.225-.834a.962.962,0,0,0-.006-.524l-.231-.782a.571.571,0,0,1,.508-.734m4.031,33.03h0a1.878,1.878,0,0,1-.86-.156l-.089-.039a2.686,2.686,0,0,0-2.12-.011l-.089.037a1.873,1.873,0,0,1-.862.147h0a.572.572,0,0,1-.5-.74l.225-.833a.964.964,0,0,0-.006-.524l-.231-.781a.571.571,0,0,1,.508-.734h0a1.88,1.88,0,0,1,.86.156l.089.039a2.685,2.685,0,0,0,2.12.011l.089-.038a1.872,1.872,0,0,1,.861-.147h0a.571.571,0,0,1,.5.74l-.224.834a.961.961,0,0,0,.006.524l.231.781a.572.572,0,0,1-.509.734m0-7.349h0a1.875,1.875,0,0,1-.86-.156l-.089-.039a2.686,2.686,0,0,0-2.12-.011l-.089.038a1.877,1.877,0,0,1-.862.146h0a.572.572,0,0,1-.5-.74l.225-.834a.962.962,0,0,0-.006-.524l-.231-.782a.571.571,0,0,1,.508-.734h0a1.878,1.878,0,0,1,.86.156l.089.039a2.687,2.687,0,0,0,2.12.011l.089-.038a1.879,1.879,0,0,1,.861-.147h0a.571.571,0,0,1,.5.74l-.224.833a.961.961,0,0,0,.006.524l.231.781a.572.572,0,0,1-.509.734m0-7.349h0a1.879,1.879,0,0,1-.86-.155l-.089-.039a2.688,2.688,0,0,0-2.12-.011l-.089.038a1.879,1.879,0,0,1-.861.147h0a.571.571,0,0,1-.5-.739l.224-.833a.96.96,0,0,0-.006-.524l-.231-.781a.571.571,0,0,1,.508-.734h0a1.875,1.875,0,0,1,.86.156l.089.039a2.686,2.686,0,0,0,2.12.011l.089-.038a1.874,1.874,0,0,1,.862-.147h0a.572.572,0,0,1,.5.739l-.225.834a.968.968,0,0,0,.006.524l.231.782a.571.571,0,0,1-.508.734m0-7.349h0a1.873,1.873,0,0,1-.86-.156l-.089-.039a2.685,2.685,0,0,0-2.12-.011l-.089.038a1.875,1.875,0,0,1-.861.147h0a.571.571,0,0,1-.5-.74l.224-.833a.96.96,0,0,0-.006-.524l-.231-.781a.571.571,0,0,1,.508-.734h0a1.879,1.879,0,0,1,.86.156l.089.039a2.685,2.685,0,0,0,2.12.011l.089-.038a1.878,1.878,0,0,1,.862-.147h0a.572.572,0,0,1,.5.74l-.225.834a.968.968,0,0,0,.006.524l.231.782a.571.571,0,0,1-.508.734" transform="translate(-5980 -648)" fill="#fff"/>
    </g>
  </g>
</svg>
