<svg xmlns="http://www.w3.org/2000/svg" xmlns:xlink="http://www.w3.org/1999/xlink" width="50" height="50" viewBox="0 0 50 50">
  <defs>
    <clipPath id="clip-path">
      <rect id="長方形_314" data-name="長方形 314" width="50" height="50" transform="translate(-5327.935 1038.85)" fill="#fff" stroke="#707070" stroke-width="1"/>
    </clipPath>
  </defs>
  <g id="nerve_icon_07" transform="translate(5327.935 -1038.85)" clip-path="url(#clip-path)">
    <g id="グループ_410" data-name="グループ 410" transform="translate(79.271 70.462)">
      <path id="パス_2159" data-name="パス 2159" d="M1338.216,256.868a1.63,1.63,0,0,1,.286.026,27.344,27.344,0,0,0,4.807.427h.1a27.338,27.338,0,0,0,4.806-.427,1.628,1.628,0,0,1,.286-.026h0a1.61,1.61,0,0,1,1.608,1.608v.225a.276.276,0,0,0,.276.276h.769a2.1,2.1,0,0,1,2.108,1.993,2.056,2.056,0,0,1-2.055,2.119h-.821a.276.276,0,0,0-.276.276v.378a1.615,1.615,0,0,1-1.315,1.583,28.909,28.909,0,0,1-5.387.507h-.1a28.906,28.906,0,0,1-5.387-.507,1.615,1.615,0,0,1-1.315-1.583v-.378a.276.276,0,0,0-.276-.276h-.821a2.056,2.056,0,0,1-2.055-2.118,2.1,2.1,0,0,1,2.108-1.994h.769a.276.276,0,0,0,.276-.276v-.225A1.61,1.61,0,0,1,1338.216,256.868Zm5.094,2.042a28.936,28.936,0,0,1-5.087-.452h-.006s-.019,0-.019.018v.225a1.868,1.868,0,0,1-1.865,1.866h-.769a.5.5,0,0,0-.519.451.466.466,0,0,0,.466.481h.821a1.868,1.868,0,0,1,1.865,1.866v.378a.024.024,0,0,0,.021.021,27.313,27.313,0,0,0,5.091.48h.1a27.312,27.312,0,0,0,5.091-.479.024.024,0,0,0,.022-.021v-.378a1.868,1.868,0,0,1,1.866-1.866h.821a.466.466,0,0,0,.466-.481.505.505,0,0,0-.519-.451h-.769a1.868,1.868,0,0,1-1.866-1.866v-.225c0-.016-.018-.018-.019-.018h-.006a28.934,28.934,0,0,1-5.087.452h-.1Z" transform="translate(-6725.736 723.544)" fill="#fff"/>
      <path id="パス_2160" data-name="パス 2160" d="M1338.216,230.642a1.627,1.627,0,0,1,.286.026,27.349,27.349,0,0,0,4.807.427h.1a27.341,27.341,0,0,0,4.806-.427,1.631,1.631,0,0,1,.286-.026,1.61,1.61,0,0,1,1.608,1.608v.225a.276.276,0,0,0,.276.276h.769a2.1,2.1,0,0,1,2.108,1.993,2.056,2.056,0,0,1-2.055,2.119h-.821a.276.276,0,0,0-.276.276v.378a1.615,1.615,0,0,1-1.315,1.583,28.908,28.908,0,0,1-5.387.507h-.1a28.905,28.905,0,0,1-5.387-.507,1.615,1.615,0,0,1-1.315-1.583v-.378a.276.276,0,0,0-.276-.276h-.821a2.056,2.056,0,0,1-2.055-2.119,2.1,2.1,0,0,1,2.108-1.993h.769a.276.276,0,0,0,.276-.276v-.225A1.61,1.61,0,0,1,1338.216,230.642Zm5.094,2.042a28.939,28.939,0,0,1-5.087-.452h-.006s-.019,0-.019.018v.225a1.868,1.868,0,0,1-1.865,1.866h-.769a.5.5,0,0,0-.519.451.466.466,0,0,0,.466.481h.821a1.868,1.868,0,0,1,1.865,1.866v.378a.024.024,0,0,0,.021.021,27.313,27.313,0,0,0,5.091.48h.1a27.315,27.315,0,0,0,5.091-.479.024.024,0,0,0,.022-.021v-.378a1.868,1.868,0,0,1,1.866-1.866h.821a.466.466,0,0,0,.466-.482.5.5,0,0,0-.519-.451h-.769a1.868,1.868,0,0,1-1.866-1.866v-.225c0-.016-.018-.018-.019-.018h-.006a28.938,28.938,0,0,1-5.087.452h-.1Z" transform="translate(-6725.736 740.486)" fill="#fff"/>
      <path id="パス_2161" data-name="パス 2161" d="M1376.124,291.124a5.624,5.624,0,0,1-1.313-.154,6.493,6.493,0,0,1-3.936-3.006,9.389,9.389,0,0,0-4.789-3.939.795.795,0,0,1,.47-1.519,10.8,10.8,0,0,1,5.662,4.608c1.79,2.829,4.369,2.772,6.033,1.864a4.26,4.26,0,0,0,1.927-5.688l-1.473-3.173.75-.323a5.22,5.22,0,0,0,3.13-4.649,10.6,10.6,0,0,0-.221-3.356l-.126-.48.375-.324c2.409-2.081,3.484-5.5,3.911-7.348a6.474,6.474,0,0,0-.2-3.635,7.29,7.29,0,0,0-3.623-4.382,6.442,6.442,0,0,0-7.235,1.357c-.1.1-.209.209-.312.318A.795.795,0,0,1,1374,256.2c.118-.124.237-.247.357-.363a8.365,8.365,0,0,1,4.26-2.249,7.6,7.6,0,0,1,4.775.6,8.817,8.817,0,0,1,4.432,5.281,8.06,8.06,0,0,1,.249,4.526,15.862,15.862,0,0,1-4.066,7.873,12.369,12.369,0,0,1,.16,3.439,6.872,6.872,0,0,1-3.351,5.583l.8,1.732a5.863,5.863,0,0,1-2.607,7.753A6.037,6.037,0,0,1,1376.124,291.124Z" transform="translate(-6746.458 725.756)" fill="#fff"/>
      <path id="パス_2162" data-name="パス 2162" d="M1356.692,333.958H1355.1a2.243,2.243,0,0,1-2.24-2.24v-2.389a.795.795,0,1,1,1.59,0v2.389a.651.651,0,0,0,.65.65h1.593a.651.651,0,0,0,.65-.65v-2.389a.795.795,0,0,1,1.59,0v2.389A2.243,2.243,0,0,1,1356.692,333.958Z" transform="translate(-6738.273 677.244)" fill="#fff"/>
      <path id="パス_2163" data-name="パス 2163" d="M1357.553,346.872h-1.176a1.864,1.864,0,0,1-1.862-1.862v-1.764a.795.795,0,0,1,1.59,0v1.764a.273.273,0,0,0,.272.272h1.176a.273.273,0,0,0,.273-.272v-1.764a.795.795,0,1,1,1.589,0v1.764A1.864,1.864,0,0,1,1357.553,346.872Z" transform="translate(-6739.343 668.252)" fill="#fff"/>
      <path id="パス_2164" data-name="パス 2164" d="M1366.321,315.851a.8.8,0,0,1-.365-1.5,7.636,7.636,0,0,0,3.336-4.666c.032-.136.061-.277.091-.425a6.59,6.59,0,0,1,.318-1.177,2.54,2.54,0,0,1,1.525-1.54,3.26,3.26,0,0,1,2.256.319c.462.19.9.369,1.165.257a.795.795,0,1,1,.62,1.464,3.008,3.008,0,0,1-2.389-.25,2.087,2.087,0,0,0-1.173-.274,1.02,1.02,0,0,0-.528.616,5.331,5.331,0,0,0-.236.9c-.031.154-.064.314-.1.476a9.288,9.288,0,0,1-4.155,5.712A.79.79,0,0,1,1366.321,315.851Z" transform="translate(-6746.458 691.518)" fill="#fff"/>
      <path id="パス_2165" data-name="パス 2165" d="M1305.21,291.124a6.036,6.036,0,0,1-2.889-.751,5.864,5.864,0,0,1-2.607-7.753l.8-1.732a6.872,6.872,0,0,1-3.35-5.583,12.364,12.364,0,0,1,.16-3.439,15.858,15.858,0,0,1-4.067-7.873,8.072,8.072,0,0,1,.249-4.526,8.819,8.819,0,0,1,4.432-5.281,7.6,7.6,0,0,1,4.774-.6,8.364,8.364,0,0,1,4.261,2.249c.123.12.243.243.358.365a.795.795,0,0,1-1.157,1.091c-.1-.107-.206-.214-.313-.319a6.441,6.441,0,0,0-7.235-1.357,7.291,7.291,0,0,0-3.623,4.382,6.484,6.484,0,0,0-.2,3.636c.427,1.851,1.5,5.267,3.911,7.348l.375.324-.126.48a10.72,10.72,0,0,0-.217,3.4,5.209,5.209,0,0,0,3.125,4.607l.75.324-1.474,3.173a4.26,4.26,0,0,0,1.927,5.688c1.664.908,4.243.965,6.033-1.864a10.8,10.8,0,0,1,5.663-4.607.795.795,0,0,1,.47,1.519,9.392,9.392,0,0,0-4.789,3.939,6.494,6.494,0,0,1-3.936,3.006A5.63,5.63,0,0,1,1305.21,291.124Z" transform="translate(-6699.633 725.756)" fill="#fff"/>
      <path id="パス_2166" data-name="パス 2166" d="M1337.887,315.851a.792.792,0,0,1-.363-.088,9.288,9.288,0,0,1-4.155-5.712c-.038-.162-.071-.321-.1-.476a5.351,5.351,0,0,0-.236-.9,1.022,1.022,0,0,0-.528-.616,2.085,2.085,0,0,0-1.173.274,3.009,3.009,0,0,1-2.389.25.795.795,0,0,1,.62-1.464c.266.113.7-.067,1.165-.257a3.261,3.261,0,0,1,2.256-.319,2.542,2.542,0,0,1,1.525,1.54,6.61,6.61,0,0,1,.318,1.178c.03.148.059.288.091.425a7.635,7.635,0,0,0,3.336,4.666.795.795,0,0,1-.365,1.5Z" transform="translate(-6722.507 691.518)" fill="#fff"/>
      <path id="パス_2167" data-name="パス 2167" d="M1325,276.372a3.321,3.321,0,0,1-2.193-.769,5.42,5.42,0,0,1-1.5-3.329c-.046-.235-.089-.457-.138-.674a9.15,9.15,0,0,0-2.53-4.5.795.795,0,1,1,1.106-1.142,10.756,10.756,0,0,1,2.974,5.3c.054.24.1.484.148.72a4.162,4.162,0,0,0,.974,2.422,2.414,2.414,0,0,0,2.711-.06,8.794,8.794,0,0,0,2.356-2.641.795.795,0,0,1,1.317.891,9.993,9.993,0,0,1-2.834,3.1A4.645,4.645,0,0,1,1325,276.372Z" transform="translate(-6716.008 717.818)" fill="#fff"/>
      <path id="パス_2168" data-name="パス 2168" d="M1377.213,276.372a4.644,4.644,0,0,1-2.388-.689,9.991,9.991,0,0,1-2.834-3.1.795.795,0,1,1,1.317-.891,8.792,8.792,0,0,0,2.356,2.641,2.414,2.414,0,0,0,2.711.06,4.161,4.161,0,0,0,.974-2.422c.046-.236.094-.48.148-.72a10.749,10.749,0,0,1,2.975-5.3.795.795,0,1,1,1.106,1.142,9.141,9.141,0,0,0-2.53,4.5c-.049.216-.092.438-.138.674a5.421,5.421,0,0,1-1.5,3.329A3.321,3.321,0,0,1,1377.213,276.372Z" transform="translate(-6750.546 717.818)" fill="#fff"/>
      <path id="パス_2169" data-name="パス 2169" d="M1364.6,317.62a.795.795,0,0,1-.508-1.407,3.2,3.2,0,0,0,1.08-1.815.795.795,0,0,1,1.56.307,4.75,4.75,0,0,1-1.626,2.733A.791.791,0,0,1,1364.6,317.62Z" transform="translate(-6745.344 686.791)" fill="#fff"/>
      <path id="パス_2170" data-name="パス 2170" d="M1353.095,317.62a.792.792,0,0,1-.507-.183,4.753,4.753,0,0,1-1.626-2.732.795.795,0,1,1,1.56-.308,3.2,3.2,0,0,0,1.081,1.816.795.795,0,0,1-.507,1.407Z" transform="translate(-6737.038 686.791)" fill="#fff"/>
      <path id="パス_2171" data-name="パス 2171" d="M1389.394,339.673a3.234,3.234,0,0,0,1.505-.394,2.956,2.956,0,0,0,1.358-3.962l-.682-1.47c-.049.15-.1.3-.156.446a6.205,6.205,0,0,1-2.364,3.114,5.415,5.415,0,0,1-2.23.758,3.125,3.125,0,0,0,2.57,1.509" transform="translate(-6759.74 674.287)" fill="#fff"/>
      <path id="パス_2172" data-name="パス 2172" d="M1321.04,339.673a3.234,3.234,0,0,1-1.505-.394,2.956,2.956,0,0,1-1.358-3.962l.682-1.47c.049.15.1.3.156.446a6.206,6.206,0,0,0,2.364,3.114,5.417,5.417,0,0,0,2.231.758,3.125,3.125,0,0,1-2.57,1.509" transform="translate(-6715.185 674.287)" fill="#fff"/>
    </g>
  </g>
</svg>
