<svg xmlns="http://www.w3.org/2000/svg" xmlns:xlink="http://www.w3.org/1999/xlink" width="50" height="50" viewBox="0 0 50 50">
  <defs>
    <clipPath id="clip-path">
      <rect id="長方形_314" data-name="長方形 314" width="50" height="50" transform="translate(-5327.935 1038.85)" fill="#fff" stroke="#707070" stroke-width="1"/>
    </clipPath>
  </defs>
  <g id="nerve_icon_04" transform="translate(5327.935 -1038.85)" clip-path="url(#clip-path)">
    <g id="グループ_218" data-name="グループ 218" transform="translate(-251.371 1026.851)">
      <path id="パス_741" data-name="パス 741" d="M933.109,753.045l-1.095-.413a11.449,11.449,0,0,0-8.533,0l-1.446.547c-6.805,2.577-7.851,2.973-18.081,2.973h-.518v6.882a120.372,120.372,0,0,1,48.822,0v-6.882h-.52c-10.4,0-11.5-.414-18.63-3.106m-3.307,3.62a.577.577,0,0,1-.817.817l-1.139-1.139-1.139,1.139a.577.577,0,0,1-.816-.817l1.138-1.138-1.138-1.139a.577.577,0,1,1,.816-.816l1.139,1.138,1.139-1.138a.577.577,0,0,1,.817.816l-1.138,1.139Z" transform="translate(-5980 -704.604)" fill="#fff"/>
      <path id="パス_742" data-name="パス 742" d="M967.43,681.623a.576.576,0,0,0,.642-.085l2.381-2.121-.465,6.046a.578.578,0,0,0,.532.62l.045,0a.578.578,0,0,0,.575-.533l.575-7.474a.577.577,0,0,0-.96-.475l-2.367,2.109.484-5.652a.577.577,0,0,0-1.151-.1l-.609,7.1a.578.578,0,0,0,.317.565" transform="translate(-6021.464 -653.567)" fill="#fff"/>
      <path id="パス_743" data-name="パス 743" d="M938.232,676.672a.576.576,0,0,0,.432-.195l4.971-5.61a.577.577,0,0,0-.478-.959L940,670.16l3.8-4.213a.577.577,0,0,0-.858-.773l-4.771,5.29a.577.577,0,0,0,.475.962l3.179-.253-4.021,4.538a.577.577,0,0,0,.432.96" transform="translate(-6002.283 -648.065)" fill="#fff"/>
      <path id="パス_744" data-name="パス 744" d="M992.25,672.928a.577.577,0,0,0,1.052.2l1.718-2.665,1.045,5.576a.577.577,0,0,0,.567.471.555.555,0,0,0,.106-.01.577.577,0,0,0,.462-.674l-1.312-7a.577.577,0,0,0-1.053-.206l-1.728,2.681-1.168-5.949a.578.578,0,0,0-1.134.223Z" transform="translate(-6036.887 -648)" fill="#fff"/>
      <path id="パス_745" data-name="パス 745" d="M1037.052,742.635l3.394-2.625-3.394-2.625Z" transform="translate(-6067.01 -695.212)" fill="#fff"/>
      <path id="パス_746" data-name="パス 746" d="M921.631,719.525l1.447-.547a12.6,12.6,0,0,1,9.346,0l1.1.413c6.209,2.345,7.685,2.9,14.838,3.011h.533v-4.38l3.373,2.609v-9.367a120.373,120.373,0,0,1-48.822,0l0,11.158h.517c10.019,0,11.039-.386,17.673-2.9" transform="translate(-5980.003 -678.203)" fill="#fff"/>
      <path id="パス_747" data-name="パス 747" d="M948.89,738.435h-.542c-7.363-.112-9.031-.742-15.237-3.086l-1.095-.413a11.449,11.449,0,0,0-8.533,0l-1.445.546c-6.806,2.577-7.852,2.974-18.082,2.974h-.517v5.018h.518c10.018,0,11.038-.386,17.672-2.9l1.448-.547a12.6,12.6,0,0,1,9.346,0l1.1.413c6.96,2.628,8.03,3.032,18.222,3.032h.52v-3.225l-3.372,2.609Z" transform="translate(-5980.002 -693.081)" fill="#fff"/>
    </g>
  </g>
</svg>
