<svg xmlns="http://www.w3.org/2000/svg" width="24" height="27" viewBox="0 0 24 27">
  <path id="パス_2494" data-name="パス 2494" d="M22.594-12a6.023,6.023,0,0,1,2.813.891A2.83,2.83,0,0,1,27-9a2.848,2.848,0,0,1-1.594,2.156A6.3,6.3,0,0,1,22.594-6H17.156L12.422,2.25A1.523,1.523,0,0,1,11.109,3H8.484q-.844-.141-.7-.937L10.078-6H5.25L3.234-3.281A.756.756,0,0,1,2.625-3H.656A.662.662,0,0,1,0-3.7a.36.36,0,0,1,.047-.141L1.5-9,.047-14.156A.416.416,0,0,1,0-14.344.641.641,0,0,1,.656-15H2.625a.756.756,0,0,1,.609.281L5.25-12h4.828l-2.3-8.062q-.141-.8.7-.937h2.625a1.523,1.523,0,0,1,1.313.75L17.156-12Z" transform="translate(21 27) rotate(-90)" fill="#b69863"/>
</svg>
