<svg xmlns="http://www.w3.org/2000/svg" xmlns:xlink="http://www.w3.org/1999/xlink" width="40" height="40" viewBox="0 0 40 40">
  <defs>
    <clipPath id="clip-path">
      <rect id="長方形_287" data-name="長方形 287" width="40" height="40" transform="translate(870 50)" fill="#bfb592"/>
    </clipPath>
  </defs>
  <g id="icon_10" transform="translate(-870 -50)" clip-path="url(#clip-path)">
    <g id="グループ_138" data-name="グループ 138" transform="translate(870 54.5)">
      <path id="パス_189" data-name="パス 189" d="M806.91,1821.124l-1.779-4.578a6.514,6.514,0,0,1-.422-1.919,13.255,13.255,0,0,0-13.223-12.342,15.246,15.246,0,0,0-3.79.471c.01,0,.02,0,.029.008l.184.069a.444.444,0,1,1-.318.83l-.172-.065a.444.444,0,0,1-.173-.719q-.15.044-.3.09-.148-.047-.3-.09a.444.444,0,0,1-.172.719l-.172.065a.444.444,0,0,1-.318-.83l.184-.069c.01,0,.02,0,.029-.008a15.246,15.246,0,0,0-3.79-.471,13.255,13.255,0,0,0-13.223,12.342,6.508,6.508,0,0,1-.422,1.919l-1.779,4.578a.57.57,0,0,0,.484.775l3.2.267a.572.572,0,0,1,.52.495l.133.5-.287,1.043a2.23,2.23,0,0,1,.467.525,9.084,9.084,0,0,1,.262,2.608l.126.589a.95.95,0,0,0,.95.825l4.442-.144a.762.762,0,0,1,.787.762v3.567h5.559v-.19a.444.444,0,1,1,.889,0v.19h4.859v-.19a.444.444,0,1,1,.889,0v.19h5.559v-3.567a.762.762,0,0,1,.787-.762l4.442.144a.95.95,0,0,0,.95-.825l.126-.589a9.086,9.086,0,0,1,.262-2.608,2.228,2.228,0,0,1,.467-.525l-.287-1.043.133-.5a.572.572,0,0,1,.52-.495l3.2-.267a.57.57,0,0,0,.484-.775m-28.471-10.615q.064-.191.134-.379a.444.444,0,1,1,.833.31q-.065.174-.124.351a.444.444,0,1,1-.843-.282m-.581,2.713q.02-.2.047-.4a.444.444,0,1,1,.881.117q-.025.184-.044.371a.444.444,0,0,1-.441.4l-.046,0a.444.444,0,0,1-.4-.487m0,2.766q-.019-.2-.033-.4a.444.444,0,0,1,.886-.061q.013.187.031.375a.444.444,0,0,1-.4.484l-.043,0a.444.444,0,0,1-.442-.4m.927,3.038a.444.444,0,0,1-.428-.328q-.052-.192-.1-.385a.444.444,0,0,1,.862-.213q.045.183.095.365a.445.445,0,0,1-.429.561m1.1,2.478a.444.444,0,0,1-.589-.218q-.083-.181-.161-.363a.444.444,0,1,1,.816-.352q.075.173.153.344a.444.444,0,0,1-.219.589m.116-12.834a.444.444,0,0,1-.377-.678q.106-.171.218-.338a.444.444,0,0,1,.739.494q-.1.155-.2.313a.444.444,0,0,1-.378.21m1.274,15.125a.444.444,0,0,1-.618-.112q-.113-.163-.222-.33a.444.444,0,0,1,.744-.486q.1.157.209.311a.444.444,0,0,1-.112.618m.391-17.222a.444.444,0,0,1-.314-.758q.142-.142.288-.279a.444.444,0,1,1,.608.648q-.136.127-.267.259a.443.443,0,0,1-.314.13m1.418,19.2a.444.444,0,0,1-.628.019q-.146-.137-.288-.281a.444.444,0,1,1,.631-.626q.132.133.267.26a.444.444,0,0,1,.018.628m.51,2.069a3.4,3.4,0,0,0-.071-.334.444.444,0,0,1,.858-.229,4.269,4.269,0,0,1,.09.423.444.444,0,0,1-.368.509.453.453,0,0,1-.071.006.444.444,0,0,1-.438-.374m.931,2.61a.444.444,0,1,1-.889,0v-.387a.444.444,0,1,1,.889,0Zm-.215-25.818q-.16.1-.317.2a.444.444,0,0,1-.479-.749q.168-.107.34-.21a.444.444,0,1,1,.456.763m11.689,8.191q.026.2.047.4a.444.444,0,0,1-.4.487l-.046,0a.444.444,0,0,1-.441-.4q-.019-.187-.044-.371a.444.444,0,0,1,.881-.117m-1.24-2.956a.444.444,0,0,1,.571.261q.07.188.134.379a.444.444,0,1,1-.843.282q-.059-.177-.124-.351a.444.444,0,0,1,.262-.571m-4.487,20.583a.444.444,0,1,1-.889,0v-.387a.444.444,0,1,1,.889,0Zm.113-2.944a3.362,3.362,0,0,0-.071.334.444.444,0,0,1-.438.374.451.451,0,0,1-.071-.006.444.444,0,0,1-.368-.509,4.286,4.286,0,0,1,.09-.423.444.444,0,0,1,.858.229m.143-22.813a.444.444,0,0,1-.614.135q-.157-.1-.317-.2a.444.444,0,0,1,.456-.763q.172.1.34.21a.444.444,0,0,1,.135.614m1.211,20.816q-.142.143-.288.281a.444.444,0,0,1-.61-.646q.135-.127.267-.26a.444.444,0,0,1,.631.626m.188-19.067q-.132-.132-.267-.259a.444.444,0,1,1,.608-.648q.146.137.288.279a.444.444,0,1,1-.629.628m1.545,16.91q-.109.167-.222.33a.444.444,0,1,1-.731-.506q.106-.154.209-.311a.444.444,0,0,1,.744.486m.055-14.892q-.1-.158-.2-.313a.444.444,0,0,1,.739-.494q.112.167.218.338a.444.444,0,1,1-.755.468m1.244,12.462q-.079.182-.161.363a.444.444,0,0,1-.807-.371q.078-.171.153-.344a.444.444,0,1,1,.816.352m.878-2.61q-.048.193-.1.385a.444.444,0,0,1-.857-.234q.05-.182.095-.365a.444.444,0,1,1,.862.213m.4-2.325a.444.444,0,0,1-.442.4l-.043,0a.444.444,0,0,1-.4-.484q.018-.187.031-.375a.444.444,0,0,1,.886.061q-.014.2-.033.4" transform="translate(-766.949 -1802.286)" fill="#bfb592"/>
    </g>
  </g>
</svg>
