<svg xmlns="http://www.w3.org/2000/svg" xmlns:xlink="http://www.w3.org/1999/xlink" width="32" height="32" viewBox="0 0 32 32">
  <defs>
    <clipPath id="clip-path">
      <rect id="長方形_494" data-name="長方形 494" width="32" height="32" transform="translate(0 -0.114)" fill="#fff"/>
    </clipPath>
  </defs>
  <g id="wechat_icon" transform="translate(0 0.114)" clip-path="url(#clip-path)">
    <path id="icons8-weixing" d="M13.784,6C7.285,6,2,10.508,2,16.051A9.287,9.287,0,0,0,6.032,23.6L4.2,29.086,9.92,25.547a13.572,13.572,0,0,0,5.391.468,9.873,9.873,0,0,0,8.871,4.939,11.555,11.555,0,0,0,3.325-.531l4.747,2.656-1.324-4.541a7.684,7.684,0,0,0,2.957-5.9c0-4.305-3.745-7.739-8.491-8.245C24.463,9.571,19.584,6,13.784,6ZM9.625,11.545a1.386,1.386,0,1,1-1.386,1.386A1.389,1.389,0,0,1,9.625,11.545Zm8.318,0a1.386,1.386,0,1,1-1.386,1.386A1.389,1.389,0,0,1,17.943,11.545ZM24.182,15.7c4.676,0,8.318,3.144,8.318,6.932a6.356,6.356,0,0,1-2.77,5.126l-.387.29.631,2.163-2.253-1.264-.292.1a10.276,10.276,0,0,1-3.247.52c-4.676,0-8.318-3.144-8.318-6.932S19.505,15.7,24.182,15.7Zm-3.119,4.159A1.04,1.04,0,1,0,22.1,20.9,1.065,1.065,0,0,0,21.062,19.864Zm6.239,0a1.04,1.04,0,1,0,1.04,1.04A1.065,1.065,0,0,0,27.3,19.864Z" transform="translate(-2 -3.343)" fill="#fff"/>
  </g>
</svg>
