<svg xmlns="http://www.w3.org/2000/svg" xmlns:xlink="http://www.w3.org/1999/xlink" width="64" height="64" viewBox="0 0 64 64">
  <defs>
    <clipPath id="clip-path">
      <rect id="長方形_314" data-name="長方形 314" width="64" height="64" transform="translate(-5327.662 1039.123)" fill="#fff" stroke="#707070" stroke-width="1"/>
    </clipPath>
  </defs>
  <g id="blood-icon" transform="translate(5327.662 -1039.123)" clip-path="url(#clip-path)">
    <g id="グループ_318" data-name="グループ 318" transform="translate(-1.322)">
      <path id="パス_1400" data-name="パス 1400" d="M112.991,1.325,96.67,18.619,93.26,22.233,73.795,42.86a.456.456,0,0,0,.2.747,15.507,15.507,0,0,0,9.651-.385l.035-.012a21.287,21.287,0,0,0,8.4-5.527,21.411,21.411,0,0,0,4.905-8.249,12.668,12.668,0,0,1,3.974-5.93L118.922,6.964a5.463,5.463,0,0,0,.4-.47C122.364,2.424,116.481-2.373,112.991,1.325Z" transform="translate(-5390.386 1040.123)" fill="#fff"/>
      <path id="パス_1401" data-name="パス 1401" d="M64.475,423.038s-4.011,3.556-4.011,6.89a4.011,4.011,0,1,0,8.021,0C68.485,426.594,64.475,423.038,64.475,423.038Z" transform="translate(-5378.804 669.139)" fill="#fff"/>
    </g>
  </g>
</svg>
