<svg xmlns="http://www.w3.org/2000/svg" xmlns:xlink="http://www.w3.org/1999/xlink" width="20.525" height="20.71" viewBox="0 0 20.525 20.71">
  <defs>
    <clipPath id="clip-path">
      <rect id="長方形_484" data-name="長方形 484" width="20.525" height="20.71" fill="#b69863"/>
    </clipPath>
  </defs>
  <g id="グループ_417" data-name="グループ 417" clip-path="url(#clip-path)">
    <path id="パス_2384" data-name="パス 2384" d="M13.557,137.536l-9.793-2.264.279,2.836a1.119,1.119,0,0,0,1.088.986H21.983a1.119,1.119,0,0,0,1.088-.986l.279-2.836Z" transform="translate(-3.294 -118.384)" fill="#b69863"/>
    <path id="パス_2385" data-name="パス 2385" d="M20.413,10.394,18.946,2.689a1.626,1.626,0,0,0-1.154-1.183L11.231.086a5.469,5.469,0,0,0-1.937,0L2.734,1.506A1.626,1.626,0,0,0,1.58,2.689L.112,10.394a8.277,8.277,0,0,0-.088,1.959L.41,16.276l9.853,2.278,9.853-2.278.386-3.923a8.277,8.277,0,0,0-.088-1.959M3.028,3.042l6.656-.613V5.4H2.416Zm1.057,9.73a1,1,0,0,1-.923-1.055,1,1,0,0,1,.923-1.055,1,1,0,0,1,.923,1.055,1,1,0,0,1-.923,1.055m6.178,3.164a4.153,4.153,0,1,1,4.153-4.153,4.153,4.153,0,0,1-4.153,4.153m6.178-3.164a1,1,0,0,1-.923-1.055.931.931,0,1,1,1.846,0,1,1,0,0,1-.923,1.055M10.842,5.4V2.429l6.656.613L18.11,5.4Z" transform="translate(0 0)" fill="#b69863"/>
  </g>
</svg>
