<svg xmlns="http://www.w3.org/2000/svg" xmlns:xlink="http://www.w3.org/1999/xlink" width="48" height="48" viewBox="0 0 48 48">
  <defs>
    <clipPath id="clip-path">
      <rect id="長方形_343" data-name="長方形 343" width="48" height="48" fill="#fff"/>
    </clipPath>
  </defs>
  <g id="icon_53" clip-path="url(#clip-path)">
    <path id="パス_815" data-name="パス 815" d="M1095.534-278.195v-36.579a3.46,3.46,0,0,0-3.456-3.456,3.46,3.46,0,0,0-3.456,3.456v13.337a.956.956,0,0,1,.518.849v.883a1.981,1.981,0,0,1,1.384,1.886v4.67a1.979,1.979,0,0,1-1.977,1.976h-3.523l-.005.066a2.414,2.414,0,0,1-2.391,2.2h-7.044a2.386,2.386,0,0,1-2.4-2.34L1073-298.82a2.379,2.379,0,0,1,.681-1.734,2.382,2.382,0,0,1,1.717-.724v-2.617h7.114v2.617h1.645a1.578,1.578,0,0,1,1.157.508,1.582,1.582,0,0,1,.413.975h.605v-.792a.956.956,0,0,1,.518-.849v-13.337a5.233,5.233,0,0,1,5.226-5.226,5.233,5.233,0,0,1,5.226,5.226v36.579a4.477,4.477,0,0,0,4.472,4.472,4.477,4.477,0,0,0,4.473-4.472v-25.511a1.462,1.462,0,0,1-.578-1.164v-2.683h2.925v2.683a1.461,1.461,0,0,1-.577,1.164v25.511a6.249,6.249,0,0,1-6.243,6.242A6.249,6.249,0,0,1,1095.534-278.195Zm-8.829-15.792a1.033,1.033,0,0,0,1.032,1.032,1.033,1.033,0,0,0,1.032-1.032,1.033,1.033,0,0,0-1.032-1.032A1.033,1.033,0,0,0,1086.705-293.987Zm0-3.076a1.033,1.033,0,0,0,1.032,1.032,1.033,1.033,0,0,0,1.032-1.032,1.033,1.033,0,0,0-1.032-1.032A1.033,1.033,0,0,0,1086.705-297.063Zm-10.513-1.256a1.163,1.163,0,0,0,1.162,1.162h3.2a1.163,1.163,0,0,0,1.161-1.162,1.163,1.163,0,0,0-1.161-1.162h-3.2A1.164,1.164,0,0,0,1076.193-298.32Zm1.285,24.505A2.181,2.181,0,0,1,1075.3-276v-12.493h7.319V-276a2.181,2.181,0,0,1-2.181,2.181ZM1090.9-293.6v-3.766h.63a.964.964,0,0,1,.963.963v1.84a.964.964,0,0,1-.963.963Zm-15.443-10.724a1.056,1.056,0,0,1-1.054-1.054V-308.2a1.055,1.055,0,0,1,1.054-1.053h6.992a1.055,1.055,0,0,1,1.053,1.053v2.817a1.056,1.056,0,0,1-1.053,1.054Zm30.211-3.721v-.559a1.465,1.465,0,0,1,1.463-1.463,1.464,1.464,0,0,1,1.463,1.463v.559Z" transform="translate(-1066.995 320)" fill="#fff" stroke="rgba(0,0,0,0)" stroke-width="1"/>
  </g>
</svg>
