<svg xmlns="http://www.w3.org/2000/svg" xmlns:xlink="http://www.w3.org/1999/xlink" width="646" height="526" viewBox="0 0 646 526">
  <defs>
    <clipPath id="clip-path">
      <rect id="長方形_378" data-name="長方形 378" width="338" height="525" transform="translate(183 832)" fill="#333f69"/>
    </clipPath>
    <clipPath id="clip-path-2">
      <circle id="楕円形_32" data-name="楕円形 32" cx="103.5" cy="103.5" r="103.5" fill="#fff" stroke="#707070" stroke-width="1"/>
    </clipPath>
    <linearGradient id="linear-gradient" x1="0.5" x2="0.5" y2="1" gradientUnits="objectBoundingBox">
      <stop offset="0" stop-color="#bfb592"/>
      <stop offset="0.469" stop-color="#b69863"/>
      <stop offset="1" stop-color="#bfb592"/>
    </linearGradient>
    <radialGradient id="radial-gradient" cx="0.5" cy="0.5" r="0.5" gradientUnits="objectBoundingBox">
      <stop offset="0" stop-color="red"/>
      <stop offset="1" stop-color="red" stop-opacity="0"/>
    </radialGradient>
  </defs>
  <g id="details_ch" transform="translate(-329 -3525)">
    <g id="マスクグループ_30" data-name="マスクグループ 30" transform="translate(146 2693)" clip-path="url(#clip-path)">
      <path id="パス_1101" data-name="パス 1101" d="M702.12,0c-44.664,131.985-56.425,342.159,28.25,440.235-6.584,52.108-8.059,66.971-8.059,122.5h262.1c16.5-34.168,27.639-111.54,17.424-148.08s-27.335-70.774-39.2-106.812C931.5,213.27,938.576,106.7,981.951,17.076Z" transform="translate(-484.537 798.588)" fill="#eee" opacity="0.51"/>
    </g>
    <g id="グループ_294" data-name="グループ 294" transform="matrix(0.996, -0.087, 0.087, 0.996, -3092.781, 3741.859)">
      <path id="パス_1074" data-name="パス 1074" d="M1411.674,80.963c-1.63,1.645-4.308.755-6.326-.382-3.32-1.873-2.364-4.615-4.559-6.81-2.5-2.5-7.751-2.571-11.13-3.633-10.279-3.231-17.642-6.351-27.922-9.582-1.069-.336-3.637-1.2-4.637-.693-2.772,1.407-2.724,5.236-2.75,7.961a24.924,24.924,0,0,1-4.432,13.9c-1.548,2.225-3.565,4.914-2.356,7.34.813,1.631,2.758,2.285,4.51,2.786l33.318,9.519c1.9.541,4.028,1.061,5.753.106,1.791-.991,2.453-3.172,3.385-4.995a14.092,14.092,0,0,1,8.576-7.047c2.662-.758,6.083-.394,7.394,2.043,1.541,2.865-.811,6.182-1.431,9.375a9.144,9.144,0,0,0,7.626,10.4c4.447.5,8.5-2.356,12.8-3.578a18.4,18.4,0,0,1,20.063,7.76c1.008,1.622,1.784,3.441,3.2,4.724s3.777,1.822,5.191.539c1.186-1.077,1.093-2.66,1.822-4.5,1.379-3.472,3.721-6.955,2.541-10.5-.618-1.855-6.78-5.525-8.362-8.036-2.259-3.585-3.944-7.95-8.17-12.176,2.176-2.175,1.76-6.393-.416-8.388s-6.043-2.265-8.93-1.653a20.95,20.95,0,0,0-7.853,3.941,49.4,49.4,0,0,1-7.284,4.99q-.446-5.988-1.386-11.925a7.752,7.752,0,0,0-.714-2.536,2.432,2.432,0,0,0-4.431-.143,8.078,8.078,0,0,0-.954,2.692c-.6,2.674.174,6.164-2.14,8.5" transform="translate(2209.546 46.888)" fill="#fffde8"/>
      <path id="パス_1077" data-name="パス 1077" d="M1376.855,232.55q-2.455-4.627-4.937-9.241a6.411,6.411,0,0,0-1.279-1.827,2.18,2.18,0,0,0-2.068-.551c-1.209.406-1.478,1.961-1.591,3.231-.274,3.064-.9,6.271-2.928,8.587a6.332,6.332,0,0,1-8.077,1.087c-.117-.713,1.89-2.32,1.109-3.8-.514-.975-2.574-1.023-3.642-1.294-15.29-3.873-29.57-7.016-44.86-10.889a5.542,5.542,0,0,0-3.22-.16,3.932,3.932,0,0,0-2.254,3.4,19.015,19.015,0,0,0,.375,4.277,19.775,19.775,0,0,1-3.77,14.21c-1.759,2.339-4.2,5.055-3.063,7.751.858,2.032,3.322,2.746,5.477,3.216,13.1,2.855,25.194,6.16,38.3,9.015a11.449,11.449,0,0,0,4.194.253c3.2-.965,1.336-5.771,4.063-7.392,2.484-1.477,7.779.031,8.7,2.771s.355,6.094,1.077,8.892a13.554,13.554,0,0,0,8.923,9.079,19.232,19.232,0,0,0,12.988-.69c3.944-1.558,8.121-4.2,12.084-2.686,2.37.9,3.969,3.119,5.192,5.342a27.308,27.308,0,0,0,4.614,6.179c1.8,1.783,4.133,3.02,6.357,1.8,1.771-.971,2.615-3.012,3.331-4.9,1.493-3.939,3-7.946,3.312-12.147s-.349-9.158-3.738-11.66c-1.665-1.229-7.788-3.551-10.836-7.127-2.294-2.691-6.427-5.178-5.146-7.033.706-1.022,2.805-3.075,3.287-4.22,1.157-2.752-1.344-5.932-4.249-6.618s-5.911.354-8.7,1.411-5.754,2.165-8.706,1.7A2.027,2.027,0,0,0,1376.855,232.55Z" transform="translate(2249.091 -75.866)" fill="none"/>
      <path id="パス_1078" data-name="パス 1078" d="M1313.922,431.288c-2.307-1.991-2.876-5.92-4.8-7.583s-4.441-.952-6.6.393c-1.179.735-1.955,1.966-3.017,2.86-2.739,2.305-6.75,1.994-10.3,1.557l-31.281-3.852c-2.387-.294-5.141-.829-6.255-2.961-.841-1.608-.414-3.558.031-5.317l6.33-25.02c.366-1.447.849-3.052,2.154-3.776a5.561,5.561,0,0,1,3.779-.136l34.158,6.85c2.57.515,6.383.721,8.444,1.877,1.092.613.674,3.486.489,5.148,1.8,2.358,8.159,3.369,10.336,2.438,3.682-1.574.56-7.752,3.361-10.614,2.577-2.632,9.289-1.5,12.806-.411,4.526,1.406,8.808,4.125,10.094,8.687.823,2.922-.715,7.531-.2,10.522.521,3.01,3.207,3.418,5.736,5.131a36.508,36.508,0,0,0,8.233,4.389c3.509,1.214,9.036,1.189,11.662,3.814,3.2,3.2,2.347,12.326,2.542,18.508.091,2.866-.155,6.974-1.553,8.266-2.956,2.731-7.588-.016-10.292-3a52.773,52.773,0,0,0-8.212-7.709c-3.71-2.728-6.318-4.727-8-4.635-6.536,1.932-13.432.816-18,.217a22.03,22.03,0,0,1-11.639-5.646" transform="translate(2284.234 -207.86)" fill="#fffde8"/>
      <path id="パス_1081" data-name="パス 1081" d="M1276.3,610.4c-.78-.053-1.489.773-1.66,1.536-.676,3.018.1,5.632-2.348,7-2.948,1.654-7.309,1.456-10.686,1.326l-34-1.311c-3.194-.123-7.1-.739-8.187-3.746-.739-2.051.253-4.271,1.083-6.287a45.249,45.249,0,0,0,2.522-25.839c-.568-2.863-.969-6.727,2.25-7.515a4.468,4.468,0,0,1,1.464-.091l46.966,3.979c1.4.126,3.635.337,4.5,1.444.743.95.718,2.655-1.074,5.444,1.437,1.227,3.313,1.035,5.586,1.417s3.686-.44,5.2-2.178c2.008-2.306,4.138-4.973,6.974-6.118a8.329,8.329,0,0,1,4.615-.023l11.419,2.118a13.856,13.856,0,0,1,5.67,1.938,3.806,3.806,0,0,1,1.507,4.737c-.865,2.253-4.951,5.757-5.191,8.158,1.727.241,2.174.673,5.095,1.813,4.6,1.795,5.828,3.042,8.623,5.837,2.554.672,11.214.263,13.83.628,2.227.311,4.13,1.079,5.015,4.4s.662,9.552.662,13.383c0,4.632-1.351,10.1-5.6,11.941-3.259,1.413-7.075-.082-9.915-2.215s-5.212-4.915-8.339-6.6c-4.014-2.161-8.785-2.264-13.342-2.173s-9.264.3-13.516-1.342c-3.412-1.318-6.466-4.206-7.33-7.642a4.1,4.1,0,0,0-3.375-3.094C1282.038,610.948,1279.3,610.6,1276.3,610.4Z" transform="translate(2309.151 -354.312)" fill="none"/>
      <path id="パス_1083" data-name="パス 1083" d="M1265.778,796.874c-1.537.137-2.917.631-2.844,2.172.177,3.77-.721,9.047-3.831,11.077-3.691,2.41-8.625,1.832-13.018,2.2l-28.538,2.367c-3,.249-6.659.187-8.213-2.4-.868-1.442-.763-3.246-.63-4.924q1.2-15.2,2.4-30.4c.156-1.971.405-4.141,1.868-5.471,1.48-1.347,3.7-1.374,5.7-1.324,8.869.22,14.71-.234,23.579-.014,5.819.144,14-.683,17.226-.05,2.7.53,3.043,4.517,4.517,4.944,3.857,1.116,10.785.648,13.125-.877,2.205-1.437.78-6.722,2.56-8.661,2.062-2.245,8.565-2.161,12.975-1.669s9.591,2.027,11.764,5.9c1.428,2.543-.026,6.417-.954,8.566,2.9.9,11.228,3.717,15.859,7.963,4.694.344,8.537,1.309,10.41,2.548,5.542,3.665,3.693,8.793,4.282,15.411.29,3.262.281,7.029-2.174,9.2-2.7,2.388-6.982,1.534-10.123-.237s-5.922-4.337-9.416-5.227c-9.489-2.416-17.38,3.266-26.745.408-9.862-3.01-11.307-10.22-12.522-10.694A17.846,17.846,0,0,0,1265.778,796.874Z" transform="translate(2317.346 -500.633)" fill="none"/>
      <path id="パス_1084" data-name="パス 1084" d="M1278.821,978.436c-.945.394-1.138,1.087-1.31,2.1a8.61,8.61,0,0,0,.148,4.519c.722,2.37,2.631,6.771,1.162,8.766-1.646,2.236-4.744,2.116-7.674,2.9l-39.541,10.607c-2.228.6-4.828,1.13-6.662-.27-1.61-1.229-1.967-3.467-2.2-5.479l-4.415-37.919c-.2-1.74-.359-3.666.674-5.08,1.118-1.531,3.21-1.9,5.089-2.148l32.7-4.32c4.061-.537,9.026-1.971,13.086-1.971,1.74,0,2.1,3.208,3.235,3.574a14.9,14.9,0,0,0,4.47-.077c1.389-.31,2.406-3.661,2.91-5.949a14.606,14.606,0,0,1,13.109-11.113c6.145-.323,12.479,2.829,14.427,8.667.672,2.013-.1,5.559-.246,7.37,3.546.828,7.94,3.333,11.164,3.592s8.575,1.423,11.8,1.19c4.875-.353,9.158-1.133,12.438,2.491,3.043,3.361,1.909,9.827,2.211,14.352.345,5.164,1.484,9.943-2.521,13.222-3.578,2.928-9.889,1.2-14.229-.4s-9.28-3.8-13.893-4.107c-8.343-.547-16.243,5.355-24.159,2.665-2.318-.788-5.455-2.442-8.443-7.271-.79-1.277-2.375-.308-3.327.09" transform="translate(2309.906 -635.206)" fill="#fffde8"/>
      <path id="パス_1086" data-name="パス 1086" d="M1321.572,1199.047l-41.78,19.414c-2.376,1.1-4.842,2.548-7.376,1.882-1.363-.358-2.313-.758-3.06-5.193-1.856-11.027-6.556-19.189-12.606-29.709-1.331-2.314-2.531-5.751-1.351-8.145,1.056-2.143,3.964-2.682,6.215-3.482,15.043-5.347,28.949-9.522,43.977-15.681,2.614-1.071,2.678-.094,3.576.581,1.278.962,4.287-.817,5.041-2.367.928-1.908.609-4.155.348-6.261s-.394-4.42.812-6.166c1.619-2.345,4.89-2.682,7.738-2.8,4.595-.186,10.313.3,12.084,4.544.732,1.755.566,4.989.141,7.452,2.5.664,4.9,2.16,7.627,2.587a41.723,41.723,0,0,0,9.141.738c5.162-.465,11.258-2,15.308-1.542,4.633,2.324,6.735,12.007,7.312,17.8.514,5.158-4.09,7.762-9.095,6.411-3.5-.945-8.171-2.868-11.456-3.478-6.937-1.291-9.87,6.339-14.656,11.524-3.9,4.224-11.246,8.777-17.94,11.887" transform="translate(2281.328 -794.317)" fill="#fffde8"/>
      <path id="パス_1088" data-name="パス 1088" d="M1450.5,1356.979a26.337,26.337,0,0,0-6.739-10.514c-2.523-2.244-6.447-3.295-9.818-3.474a7.866,7.866,0,0,0-7.983,5.538c-2.116-1.24-4.9.223-6.29,2.246s-1.924,4.511-3.141,6.64c-2,3.5-5.614,5.708-9.078,7.767l-24.521,14.579a15.328,15.328,0,0,0-4.511,3.515,5.209,5.209,0,0,0-.845,5.385c.837,1.63,3.356,2.987,5.061,3.66,5.711,2.253,12.9,2.729,16.576,6.761-2.22,7.6-1.028,16.439,2.5,19.016,5.967,4.358,14.5,4.575,23.974,9.674,8.879,4.778,18.116,8.828,26.8,13.959,6.47,3.825,13.766,6.885,18.431,12.778,5.076,6.413,6.731,15.564,7.223,23.728s-.73,16.328-1.76,24.252a31.931,31.931,0,0,0-5.165,17.792c-2.612,2.13-4.086,5.315-5.474,8.386l-7.939,17.567c7.4-3.783,13.369-9.944,18.067-16.8s8.223-14.428,11.727-21.963a4.29,4.29,0,0,0,.566-3.126,1.87,1.87,0,0,0-2.817-.739,20.827,20.827,0,0,1,5.974-12.2c2.048,1.589,5.2.812,7.048-1.008s2.706-4.388,3.5-6.854l5.745-17.735c1.508-4.657,2.879-10.215-.136-14.071-1.441-1.844-4.191-2.177-5.111-4.329-4.22-9.864,4.583-8.664.912-18.468-2.959-7.9-7.066-2.72-9.485-11.046-.766-2.637,1.388-5.068,2.635-7.515,2.238-4.391.548-9.868-2.4-13.82s-7-6.929-10.277-10.608-5.856-8.573-4.885-13.734a4.958,4.958,0,0,0,4.915-3.992c.294-2.254-.619-4.2-1.741-6.173a12.281,12.281,0,0,0-5-4.952c-1.963-1.016-4.287-.951-6.5-.862-6.653.267-13.305.534-20.045.737" transform="translate(2186.251 -951.367)" fill="#fffde8"/>
      <path id="パス_1090" data-name="パス 1090" d="M1339.531,1433.318c-2.319.035-4.738.049-6.824-.968s-3.7-3.409-3.051-5.641c.572-1.955,2.562-3.074,4.377-3.99l38.5-19.425a9.573,9.573,0,0,1,3.616-1.249,3.267,3.267,0,0,1,3.222,1.655c.922,2.049-1.206,4.1-3.072,5.344-12.321,8.215-24.641,16.431-36.772,24.276" transform="translate(2223.302 -997.306)" fill="#333f69"/>
      <path id="パス_1091" data-name="パス 1091" d="M1240.92,1210.69a6.221,6.221,0,0,1-6.4-9.835c1.657-2.158,4.481-2.983,7.11-3.682l16.756-4.458c9.044-2.406,17.646-6.035,26.78-8.071,1.558-.347,8.754-2.54,10.28-2.072.572.176-1.679,1.935-2.869,2.676,1.4-.494,4.387-.144,3.761.484a37.712,37.712,0,0,1-3.3,2.193c1.468-.339,3.493-.608,3.507-.352.057,1.063-3.386,2.041-3.487,2.159a7.66,7.66,0,0,1-3.376,2.2c-16.114,7.107-32.194,14.75-48.764,18.761" transform="translate(2298.166 -826.534)" fill="#333f69"/>
      <path id="パス_1092" data-name="パス 1092" d="M1207.568,986.16a11.642,11.642,0,0,1-5.791-3.428,6.633,6.633,0,0,1-1.395-6.368c1.41-3.875,6.4-4.746,10.519-5l36.859-2.266a12.352,12.352,0,0,1,5.949.612c1.83.842,3.24,2.969,2.57,4.869-.688,1.954-3.028,2.671-5.051,3.116-14.608,3.214-29.271,6.183-43.66,8.464" transform="translate(2324 -660.46)" fill="#333f69"/>
      <path id="パス_1093" data-name="パス 1093" d="M1225.157,768.085a7.853,7.853,0,0,1-4.236-4.867,5.824,5.824,0,0,1,1.851-6c1.878-1.455,4.478-1.4,6.85-1.276q17.866.942,35.717,2.146a11.4,11.4,0,0,1,4.18.818,3.455,3.455,0,0,1-.074,6.59,11.444,11.444,0,0,1-4.254.732c-13.538.588-27.077,1.177-40.034,1.859" transform="translate(2307.927 -494.664)" fill="#333f69"/>
      <path id="パス_1094" data-name="パス 1094" d="M1241.308,552.54a5.694,5.694,0,0,1-2.592-10.089c2.24-1.765,5.388-1.613,8.228-1.35a364.627,364.627,0,0,1,39.367,5.625c2.527.516,5.622,1.706,5.722,4.284a4.029,4.029,0,0,1-2.813,3.629,11.807,11.807,0,0,1-4.856.377c-14.386-.886-28.949-.13-43.056-2.475" transform="translate(2295.609 -327.462)" fill="#333f69"/>
      <path id="パス_1095" data-name="パス 1095" d="M1285.983,362.291c-2.87.373-5.2-3.041-4.482-5.844s3.577-4.638,6.44-5.062,5.76.279,8.568.977l29.564,7.346a13.23,13.23,0,0,1,4.779,1.876,3.989,3.989,0,0,1-1.251,7.435,12.628,12.628,0,0,1-4.553.188,220.679,220.679,0,0,1-39.066-6.916" transform="translate(2260.752 -179.908)" fill="#333f69"/>
      <path id="パス_1096" data-name="パス 1096" d="M1336.4,199.863a4.473,4.473,0,0,1-.664-7.031c2.1-1.718,5.184-1.088,7.8-.369l36.172,9.956a11.345,11.345,0,0,1,4.795,2.173c1.308,1.195,1.969,3.3.992,4.779-1.266,1.917-4.121,1.6-6.355,1.069-14.326-3.437-29.942-3.619-42.736-10.576" transform="translate(2219.553 -55.813)" fill="#333f69"/>
      <path id="パス_1075" data-name="パス 1075" d="M1411.674,80.963c-1.63,1.645-4.308.755-6.326-.382-3.32-1.873-2.364-4.615-4.559-6.81-2.5-2.5-7.751-2.571-11.13-3.633-10.279-3.231-17.642-6.351-27.922-9.582-1.069-.336-3.637-1.2-4.637-.693-2.772,1.407-2.724,5.236-2.75,7.961a24.924,24.924,0,0,1-4.432,13.9c-1.548,2.225-3.565,4.914-2.356,7.34.813,1.631,2.758,2.285,4.51,2.786l33.318,9.519c1.9.541,4.028,1.061,5.753.106,1.791-.991,2.453-3.172,3.385-4.995a14.092,14.092,0,0,1,8.576-7.047c2.662-.758,6.083-.394,7.394,2.043,1.541,2.865-.811,6.182-1.431,9.375a9.144,9.144,0,0,0,7.626,10.4c4.447.5,8.5-2.356,12.8-3.578a18.4,18.4,0,0,1,20.063,7.76c1.008,1.622,1.784,3.441,3.2,4.724s3.777,1.822,5.191.539c1.186-1.077,1.093-2.66,1.822-4.5,1.379-3.472,3.721-6.955,2.541-10.5-.618-1.855-6.78-5.525-8.362-8.036-2.259-3.585-3.944-7.95-8.17-12.176,2.176-2.175,1.76-6.393-.416-8.388s-6.043-2.265-8.93-1.653a20.95,20.95,0,0,0-7.853,3.941,49.4,49.4,0,0,1-7.284,4.99q-.446-5.988-1.386-11.925a7.752,7.752,0,0,0-.714-2.536,2.432,2.432,0,0,0-4.431-.143,8.078,8.078,0,0,0-.954,2.692C1413.211,75.138,1413.988,78.628,1411.674,80.963Z" transform="translate(2209.546 46.888)" fill="#a5adbe"/>
      <path id="パス_1075_-_アウトライン" data-name="パス 1075 - アウトライン" d="M1354.815,55.707a14.483,14.483,0,0,1,3.865.828c5.35,1.682,9.842,3.3,14.187,4.863,4.329,1.558,8.8,3.17,13.928,4.78a32.031,32.031,0,0,0,3.483.785c2.857.541,6.1,1.154,8.009,3.067a8.113,8.113,0,0,1,1.862,3.294,5.232,5.232,0,0,0,2.505,3.371,7.739,7.739,0,0,0,3.574,1.172,2.247,2.247,0,0,0,1.685-.641c1.358-1.37,1.469-3.255,1.587-5.252a17.74,17.74,0,0,1,.317-2.818,8.846,8.846,0,0,1,1.077-2.982,3.677,3.677,0,0,1,2.965-1.762l.227.009a3.563,3.563,0,0,1,2.762,1.956,8.56,8.56,0,0,1,.812,2.823c.557,3.512.989,7.085,1.287,10.64a41.865,41.865,0,0,0,4.287-3.006c.561-.429,1.123-.858,1.692-1.276a22.021,22.021,0,0,1,8.195-4.094,14.721,14.721,0,0,1,3.005-.309,9.875,9.875,0,0,1,6.71,2.177,7.151,7.151,0,0,1,2.14,5.064,6.47,6.47,0,0,1-1.128,3.936,39.57,39.57,0,0,1,5.937,8.646c.6,1.08,1.17,2.12,1.788,3.1a22.7,22.7,0,0,0,4.221,3.943c2.377,1.915,3.853,3.147,4.232,4.286,1.039,3.122-.307,6.076-1.608,8.932-.331.726-.662,1.452-.95,2.177a13.281,13.281,0,0,0-.518,1.715,5.721,5.721,0,0,1-1.532,3.111,3.826,3.826,0,0,1-2.624.965,5.773,5.773,0,0,1-3.761-1.5,13.839,13.839,0,0,1-2.6-3.616c-.247-.437-.493-.874-.756-1.3a17.6,17.6,0,0,0-14.727-7.968,15.89,15.89,0,0,0-4.339.593,37.525,37.525,0,0,0-4.112,1.534c-2.862,1.2-5.844,2.433-9.035,2.072a10.03,10.03,0,0,1-8.4-11.447,21.732,21.732,0,0,1,.949-3.131c.743-2.072,1.445-4.029.572-5.654-.937-1.741-3.173-1.929-4.091-1.929a8.437,8.437,0,0,0-2.278.32,13.243,13.243,0,0,0-8.029,6.6c-.187.365-.362.745-.538,1.126-.718,1.553-1.531,3.314-3.208,4.241a5.4,5.4,0,0,1-2.679.642,14,14,0,0,1-3.747-.671L1348.7,89.594c-1.943-.555-4.1-1.309-5.061-3.243-1.39-2.788.6-5.644,2.208-7.938l.213-.305a24.093,24.093,0,0,0,4.273-13.4l0-.233c.023-2.748.059-6.9,3.234-8.512A2.718,2.718,0,0,1,1354.815,55.707Zm51.412,23.937a9.7,9.7,0,0,1-4.446-1.4,6.922,6.922,0,0,1-3.306-4.321,6.482,6.482,0,0,0-1.445-2.635c-1.526-1.526-4.351-2.061-7.083-2.578a33.239,33.239,0,0,1-3.685-.836c-5.157-1.621-9.651-3.239-14-4.8-4.328-1.558-8.8-3.169-13.925-4.779a14.317,14.317,0,0,0-3.526-.808,1.08,1.08,0,0,0-.443.06c-2.212,1.122-2.239,4.35-2.261,6.943l0,.234a25.889,25.889,0,0,1-4.591,14.4l-.215.308c-1.4,2.008-2.994,4.285-2.075,6.128.642,1.288,2.308,1.856,3.959,2.328l33.318,9.519a12.515,12.515,0,0,0,3.259.6,3.672,3.672,0,0,0,1.819-.42c1.168-.646,1.793-2,2.455-3.432.186-.4.372-.8.569-1.19a15.051,15.051,0,0,1,9.124-7.5,10.239,10.239,0,0,1,2.764-.388c2.615,0,4.677,1.044,5.656,2.864,1.248,2.321.378,4.748-.464,7.1a20.446,20.446,0,0,0-.877,2.87,8.258,8.258,0,0,0,6.854,9.343c2.762.313,5.366-.783,8.15-1.946a38.853,38.853,0,0,1,4.312-1.6,17.667,17.667,0,0,1,4.824-.661,19.407,19.407,0,0,1,16.236,8.807c.276.444.535.9.794,1.361a12.327,12.327,0,0,0,2.246,3.174,4.008,4.008,0,0,0,2.567,1.043,2.054,2.054,0,0,0,1.43-.5,4.148,4.148,0,0,0,1-2.23,15.065,15.065,0,0,1,.589-1.937c.3-.752.641-1.5.984-2.258,1.213-2.661,2.358-5.174,1.539-7.633-.234-.7-2.134-2.233-3.661-3.464a22.882,22.882,0,0,1-4.609-4.379c-.636-1.009-1.227-2.078-1.84-3.188A36.175,36.175,0,0,0,1442.023,83a.888.888,0,0,1,0-1.256,4.47,4.47,0,0,0,1.177-3.313,5.424,5.424,0,0,0-1.565-3.793,8.262,8.262,0,0,0-5.509-1.709,12.916,12.916,0,0,0-2.637.271,20.4,20.4,0,0,0-7.512,3.788c-.56.411-1.112.833-1.665,1.255a34.862,34.862,0,0,1-5.754,3.816.888.888,0,0,1-1.276-.732c-.294-3.953-.758-7.94-1.378-11.852a6.928,6.928,0,0,0-.616-2.249,1.862,1.862,0,0,0-1.343-1.036,1.924,1.924,0,0,0-1.565.953,7.394,7.394,0,0,0-.831,2.4,16.245,16.245,0,0,0-.276,2.532c-.126,2.133-.269,4.551-2.1,6.4A3.989,3.989,0,0,1,1406.228,79.644Z" transform="translate(2212.676 50)" fill="#eee"/>
      <path id="パス_1076" data-name="パス 1076" d="M1376.855,232.55q-2.455-4.627-4.937-9.241a6.411,6.411,0,0,0-1.279-1.827,2.18,2.18,0,0,0-2.068-.551c-1.209.406-1.478,1.961-1.591,3.231-.274,3.064-.9,6.271-2.928,8.587a6.332,6.332,0,0,1-8.077,1.087c-.117-.713,1.89-2.32,1.109-3.8-.514-.975-2.574-1.023-3.642-1.294-15.29-3.873-29.57-7.016-44.86-10.889a5.542,5.542,0,0,0-3.22-.16,3.932,3.932,0,0,0-2.254,3.4,19.015,19.015,0,0,0,.375,4.277,19.775,19.775,0,0,1-3.77,14.21c-1.759,2.339-4.2,5.055-3.063,7.751.858,2.032,3.322,2.746,5.477,3.216,13.1,2.855,25.194,6.16,38.3,9.015a11.449,11.449,0,0,0,4.194.253c3.2-.965,1.336-5.771,4.063-7.392,2.484-1.477,7.779.031,8.7,2.771s.355,6.094,1.077,8.892a13.554,13.554,0,0,0,8.923,9.079,19.232,19.232,0,0,0,12.988-.69c3.944-1.558,8.121-4.2,12.084-2.686,2.37.9,3.969,3.119,5.192,5.342a27.308,27.308,0,0,0,4.614,6.179c1.8,1.783,4.133,3.02,6.357,1.8,1.771-.971,2.615-3.012,3.331-4.9,1.493-3.939,3-7.946,3.312-12.147s-.349-9.158-3.738-11.66c-1.665-1.229-7.788-3.551-10.836-7.127-2.294-2.691-6.427-5.178-5.146-7.033.706-1.022,2.805-3.075,3.287-4.22,1.157-2.752-1.344-5.932-4.249-6.618s-5.911.354-8.7,1.411-5.754,2.165-8.706,1.7a2.027,2.027,0,0,0-.306.031" transform="translate(2249.091 -75.866)" fill="#a5adbe"/>
      <path id="パス_1076_-_アウトライン" data-name="パス 1076 - アウトライン" d="M1403.627,281.379a7.561,7.561,0,0,1-5.115-2.546,28.107,28.107,0,0,1-4.768-6.383c-.937-1.7-2.446-4.068-4.73-4.94a6.069,6.069,0,0,0-2.2-.393c-2.215,0-4.589,1.052-6.885,2.069-.791.351-1.577.7-2.354,1.006a22.094,22.094,0,0,1-8.022,1.58,17.643,17.643,0,0,1-5.572-.873,14.347,14.347,0,0,1-9.5-9.7,20.882,20.882,0,0,1-.479-4.329,16.536,16.536,0,0,0-.58-4.5c-.49-1.461-3.005-2.743-5.384-2.743a3.993,3.993,0,0,0-2.016.453c-.94.559-1.148,1.73-1.389,3.086-.3,1.66-.662,3.726-2.87,4.393a4.707,4.707,0,0,1-1.342.157,17.319,17.319,0,0,1-3.3-.393c-6.561-1.43-12.969-3-19.167-4.512s-12.588-3.078-19.129-4.5c-2.59-.565-5.122-1.408-6.106-3.738-1.227-2.9.916-5.691,2.637-7.931l.534-.7a18.815,18.815,0,0,0,3.6-13.564c-.043-.342-.1-.683-.149-1.025a13.524,13.524,0,0,1-.228-3.453,4.789,4.789,0,0,1,2.835-4.147,4.115,4.115,0,0,1,1.429-.238,9.445,9.445,0,0,1,2.313.372c7.639,1.935,15.151,3.717,22.417,5.441s14.792,3.51,22.443,5.448c.242.061.539.109.857.161,1.229.2,2.76.454,3.353,1.58.735,1.394-.106,2.722-.662,3.6l-.121.192a5.818,5.818,0,0,0,2.361.507,5.143,5.143,0,0,0,3.935-1.757c1.964-2.247,2.481-5.5,2.712-8.082.09-1,.3-3.357,2.193-3.994a3.083,3.083,0,0,1,2.94.729,7.17,7.17,0,0,1,1.471,2.07q2.356,4.379,4.688,8.772a9.5,9.5,0,0,0,1.2.08,20.66,20.66,0,0,0,6.96-1.751,20.182,20.182,0,0,1,7.057-1.689,9.422,9.422,0,0,1,2.164.245,7.162,7.162,0,0,1,4.615,3.635,4.928,4.928,0,0,1,.248,4.193,13.939,13.939,0,0,1-2.214,2.978c-.471.541-.91,1.039-1.16,1.4-.453.657,1.253,2.229,2.623,3.493a29.647,29.647,0,0,1,2.468,2.459c2.021,2.371,5.519,4.186,8.072,5.51a22.584,22.584,0,0,1,2.615,1.478c4.138,3.055,4.343,9.105,4.1,12.44-.323,4.363-1.87,8.447-3.367,12.4-.836,2.207-1.751,4.278-3.735,5.365A4.728,4.728,0,0,1,1403.627,281.379Zm-16.814-16.039a7.923,7.923,0,0,1,2.835.51c2.83,1.08,4.582,3.8,5.653,5.744a26.309,26.309,0,0,0,4.46,5.975,6.091,6.091,0,0,0,3.865,2.033,2.932,2.932,0,0,0,1.441-.379c1.452-.8,2.213-2.552,2.927-4.436,1.452-3.831,2.953-7.793,3.257-11.9.219-2.969.072-8.331-3.38-10.879a22.675,22.675,0,0,0-2.378-1.331c-2.684-1.392-6.36-3.3-8.607-5.935a28.351,28.351,0,0,0-2.32-2.305c-2.07-1.909-4.211-3.882-2.881-5.809.278-.4.76-.96,1.283-1.56a14.1,14.1,0,0,0,1.916-2.5,3.18,3.18,0,0,0-.194-2.7,5.415,5.415,0,0,0-3.44-2.711,7.646,7.646,0,0,0-1.755-.2,18.758,18.758,0,0,0-6.428,1.574c-2.763,1.046-5.972,2.249-9.159,1.746l-.616.085-.337-.515q-2.453-4.625-4.934-9.236a5.74,5.74,0,0,0-1.086-1.583,1.327,1.327,0,0,0-1.195-.373c-.71.239-.9,1.523-.99,2.468-.255,2.851-.843,6.46-3.144,9.093a6.9,6.9,0,0,1-5.273,2.364,7.656,7.656,0,0,1-3.93-1.1l-.354-.212-.067-.407a2.526,2.526,0,0,1,.609-1.708c.48-.757.828-1.372.592-1.821-.181-.344-1.457-.554-2.07-.655-.373-.061-.721-.12-1-.192-7.638-1.935-15.152-3.717-22.417-5.441s-14.792-3.51-22.443-5.448a7.9,7.9,0,0,0-1.876-.318,2.374,2.374,0,0,0-.822.131,3.115,3.115,0,0,0-1.674,2.656,12.021,12.021,0,0,0,.217,3c.055.358.11.715.155,1.072a20.606,20.606,0,0,1-3.941,14.856l-.545.715c-1.59,2.068-3.233,4.205-2.409,6.156.669,1.584,2.725,2.231,4.847,2.693,6.563,1.43,12.973,3,19.173,4.513s12.584,3.077,19.123,4.5a15.767,15.767,0,0,0,2.919.352,3.016,3.016,0,0,0,.829-.082c1.109-.335,1.333-1.309,1.634-3,.277-1.56.591-3.328,2.231-4.3a5.739,5.739,0,0,1,2.924-.7c2.823,0,6.24,1.479,7.069,3.955a18.069,18.069,0,0,1,.67,4.994,19.287,19.287,0,0,0,.424,3.958,12.728,12.728,0,0,0,8.342,8.457,15.871,15.871,0,0,0,5.012.783,20.3,20.3,0,0,0,7.37-1.456c.755-.3,1.518-.637,2.287-.978C1381.673,266.47,1384.222,265.34,1386.813,265.34Z" transform="translate(2252.205 -72.754)" fill="#eee"/>
      <path id="パス_1079" data-name="パス 1079" d="M1313.922,431.288c-2.307-1.991-2.876-5.92-4.8-7.583s-4.441-.952-6.6.393c-1.179.735-1.955,1.966-3.017,2.86-2.739,2.305-6.75,1.994-10.3,1.557l-31.281-3.852c-2.387-.294-5.141-.829-6.255-2.961-.841-1.608-.414-3.558.031-5.317l6.33-25.02c.366-1.447.849-3.052,2.154-3.776a5.561,5.561,0,0,1,3.779-.136l34.158,6.85c2.57.515,6.383.721,8.444,1.877,1.092.613.674,3.486.489,5.148,1.8,2.358,8.159,3.369,10.336,2.438,3.682-1.574.56-7.752,3.361-10.614,2.577-2.632,9.289-1.5,12.806-.411,4.526,1.406,8.808,4.125,10.094,8.687.823,2.922-.715,7.531-.2,10.522.521,3.01,3.207,3.418,5.736,5.131a36.508,36.508,0,0,0,8.233,4.389c3.509,1.214,9.036,1.189,11.662,3.814,3.2,3.2,2.347,12.326,2.542,18.508.091,2.866-.155,6.974-1.553,8.266-2.956,2.731-7.588-.016-10.292-3a52.773,52.773,0,0,0-8.212-7.709c-3.71-2.728-6.318-4.727-8-4.635-6.536,1.932-13.432.816-18,.217A22.03,22.03,0,0,1,1313.922,431.288Z" transform="translate(2284.234 -207.86)" fill="#a5adbe"/>
      <path id="パス_1079_-_アウトライン" data-name="パス 1079 - アウトライン" d="M1364.062,450.957c-2.986,0-6.117-2.278-8.051-4.41a52.233,52.233,0,0,0-8.08-7.59l-.608-.448c-3.048-2.245-5.456-4.018-6.758-4.018a29.14,29.14,0,0,1-8.341,1.088,66.629,66.629,0,0,1-8.981-.756l-.9-.12c-4.28-.561-8.126-2.421-12.1-5.854a12.513,12.513,0,0,1-2.859-4.406,9.786,9.786,0,0,0-1.943-3.177,3,3,0,0,0-2.039-.752,6.981,6.981,0,0,0-3.512,1.227,8.285,8.285,0,0,0-1.624,1.5,14.091,14.091,0,0,1-1.291,1.291,10.173,10.173,0,0,1-6.815,2.073,34.319,34.319,0,0,1-4.168-.314l-31.281-3.852c-2.853-.351-5.668-1.01-6.933-3.431-1.043-2-.441-4.374-.043-5.947l6.33-25.02c.413-1.633.988-3.449,2.584-4.335a4.346,4.346,0,0,1,2.162-.51,11.357,11.357,0,0,1,2.223.28l34.158,6.85c.729.146,1.56.266,2.422.392,2.3.334,4.673.679,6.282,1.582,1.525.856,1.228,3.5.982,5.636,1.306,1.314,4.634,2.18,7.137,2.18a5.046,5.046,0,0,0,1.923-.272c1.367-.585,1.452-2.075,1.477-4.458.022-2.05.046-4.374,1.6-5.96,1.222-1.249,3.246-1.882,6.016-1.882a28.127,28.127,0,0,1,7.689,1.244c5.7,1.771,9.5,5.072,10.685,9.294a16.467,16.467,0,0,1-.005,6,18,18,0,0,0-.172,4.615c.306,1.767,1.536,2.417,3.237,3.317a22.192,22.192,0,0,1,2.121,1.229,34.917,34.917,0,0,0,8.026,4.285,29.358,29.358,0,0,0,3.914.919c3.023.576,6.15,1.171,8.086,3.107,2.807,2.807,2.788,9.306,2.771,15.039,0,1.429-.009,2.81.031,4.069.083,2.63-.045,7.29-1.838,8.947A5.005,5.005,0,0,1,1364.062,450.957Zm-23.5-18.243c1.885,0,4.243,1.736,7.811,4.364l.607.447a53.745,53.745,0,0,1,8.344,7.828c1.6,1.766,4.327,3.828,6.735,3.827a3.239,3.239,0,0,0,2.3-.886c.877-.81,1.386-3.858,1.268-7.585-.041-1.278-.036-2.68-.032-4.13.016-5.387.034-11.493-2.25-13.778-1.549-1.549-4.4-2.092-7.162-2.618a30.551,30.551,0,0,1-4.162-.985,36.594,36.594,0,0,1-8.441-4.493,20.47,20.47,0,0,0-1.956-1.13c-1.82-.963-3.7-1.958-4.157-4.585a19.1,19.1,0,0,1,.158-5.123,15.392,15.392,0,0,0,.06-5.309c-1.377-4.889-6.544-7.16-9.5-8.079a26.241,26.241,0,0,0-7.162-1.164c-2.242,0-3.883.466-4.746,1.348-1.053,1.076-1.072,2.854-1.092,4.736-.025,2.345-.052,5-2.555,6.073a6.833,6.833,0,0,1-2.622.415c-3.1,0-7.221-1.1-8.77-3.131a.889.889,0,0,1-.176-.637l.042-.365c.273-2.366.245-3.682-.084-3.911a18.878,18.878,0,0,0-5.667-1.372c-.9-.13-1.758-.256-2.516-.408l-34.158-6.85a9.883,9.883,0,0,0-1.873-.245,2.629,2.629,0,0,0-1.3.287c-.977.542-1.387,1.887-1.724,3.217l-6.33,25.02c-.439,1.736-.778,3.4-.1,4.688.886,1.694,3.2,2.2,5.576,2.491l31.281,3.852a32.742,32.742,0,0,0,3.951.3,8.394,8.394,0,0,0,5.67-1.656,12.342,12.342,0,0,0,1.125-1.131,9.728,9.728,0,0,1,1.995-1.8,8.585,8.585,0,0,1,4.451-1.5,4.767,4.767,0,0,1,3.2,1.184,10.893,10.893,0,0,1,2.393,3.772,11.244,11.244,0,0,0,2.409,3.811c3.7,3.2,7.254,4.923,11.174,5.437l.908.121a65.174,65.174,0,0,0,8.745.74,27.854,27.854,0,0,0,7.976-1.049A1.838,1.838,0,0,1,1340.565,432.714Z" transform="translate(2287.34 -204.749)" fill="#eee"/>
      <path id="パス_1080" data-name="パス 1080" d="M1276.3,610.4c-.78-.053-1.489.773-1.66,1.536-.676,3.018.1,5.632-2.348,7-2.948,1.654-7.309,1.456-10.686,1.326l-34-1.311c-3.194-.123-7.1-.739-8.187-3.746-.739-2.051.253-4.271,1.083-6.287a45.249,45.249,0,0,0,2.522-25.839c-.568-2.863-.969-6.727,2.25-7.515a4.468,4.468,0,0,1,1.464-.091l46.966,3.979c1.4.126,3.635.337,4.5,1.444.743.95.718,2.655-1.074,5.444,1.437,1.227,3.313,1.035,5.586,1.417s3.686-.44,5.2-2.178c2.008-2.306,4.138-4.973,6.974-6.118a8.329,8.329,0,0,1,4.615-.023l11.419,2.118a13.856,13.856,0,0,1,5.67,1.938,3.806,3.806,0,0,1,1.507,4.737c-.865,2.253-4.951,5.757-5.191,8.158,1.727.241,2.174.673,5.095,1.813,4.6,1.795,5.828,3.042,8.623,5.837,2.554.672,11.214.263,13.83.628,2.227.311,4.13,1.079,5.015,4.4s.662,9.552.662,13.383c0,4.632-1.351,10.1-5.6,11.941-3.259,1.413-7.075-.082-9.915-2.215s-5.212-4.915-8.339-6.6c-4.014-2.161-8.785-2.264-13.342-2.173s-9.264.3-13.516-1.342c-3.412-1.318-6.466-4.206-7.33-7.642a4.1,4.1,0,0,0-3.375-3.094c-2.666-.383-5.406-.726-8.408-.93" transform="translate(2309.151 -354.312)" fill="#a5adbe"/>
      <path id="パス_1080_-_アウトライン" data-name="パス 1080 - アウトライン" d="M1334.655,632.729a13.278,13.278,0,0,1-7.7-2.946c-1.1-.824-2.128-1.744-3.125-2.634a27.371,27.371,0,0,0-5.1-3.893c-3.417-1.84-7.474-2.088-10.992-2.088-.64,0-1.277.009-1.911.022l-.805.017c-1.034.022-2.073.045-3.112.045a27.479,27.479,0,0,1-9.937-1.463c-3.9-1.507-6.989-4.747-7.871-8.254a3.211,3.211,0,0,0-2.64-2.431c-2.33-.335-5.142-.706-8.342-.922h0c-.244,0-.635.409-.733.844a17.821,17.821,0,0,0-.324,2.454c-.163,1.936-.331,3.937-2.457,5.13-2.434,1.365-5.677,1.523-7.9,1.523-1.069,0-2.116-.04-3.088-.078l-34.168-1.317c-1.863-.072-7.531-.29-8.989-4.332-.822-2.282.137-4.6.984-6.654l.113-.273a44.526,44.526,0,0,0,2.472-25.328c-.366-1.849-1.482-7.475,2.91-8.551a5.444,5.444,0,0,1,1.756-.113l46.961,3.978c1.5.135,4.014.361,5.125,1.782,1.039,1.328.846,3.251-.572,5.724a8.287,8.287,0,0,0,2.748.58c.565.06,1.159.123,1.783.228,1.756.295,2.881-.161,4.382-1.885l.521-.6c1.875-2.17,4-4.631,6.79-5.757a6.015,6.015,0,0,1,2.288-.409,15.542,15.542,0,0,1,2.821.336l11.419,2.118a14.608,14.608,0,0,1,6.026,2.09,4.671,4.671,0,0,1,1.818,5.778,15.891,15.891,0,0,1-2.464,3.634,18.772,18.772,0,0,0-2.444,3.511,13.148,13.148,0,0,1,2.146.789c.548.235,1.225.526,2.159.891a20.542,20.542,0,0,1,8.749,5.858,55.773,55.773,0,0,0,7.774.359,56.784,56.784,0,0,1,5.73.2,6.158,6.158,0,0,1,5.75,5.048c.776,2.911.736,7.754.7,11.647l-.011,1.966c0,3.036-.6,10.355-6.136,12.756A7.752,7.752,0,0,1,1334.655,632.729Zm-26.917-13.338c3.739,0,8.07.273,11.834,2.3a29.12,29.12,0,0,1,5.442,4.132c.97.865,1.973,1.76,3.01,2.539a11.521,11.521,0,0,0,6.631,2.59,5.986,5.986,0,0,0,2.4-.48c4.7-2.038,5.066-9.031,5.066-11.126l.011-1.98c.03-3.585.071-8.5-.643-11.174-.729-2.736-2.122-3.445-4.28-3.747-1.044-.146-3.207-.162-5.5-.18-3.367-.026-6.85-.052-8.436-.469l-.232-.061-.17-.17c-2.79-2.79-3.922-3.922-8.318-5.638-.958-.374-1.653-.672-2.215-.914a8.879,8.879,0,0,0-2.68-.847l-.846-.118.085-.85c.164-1.636,1.634-3.464,3.056-5.231a15.4,15.4,0,0,0,2.19-3.158,2.95,2.95,0,0,0-1.195-3.7,13.272,13.272,0,0,0-5.315-1.787l-11.419-2.118a13.892,13.892,0,0,0-2.5-.306,4.281,4.281,0,0,0-1.623.279c-2.392.965-4.282,3.154-6.11,5.271l-.526.607a6.258,6.258,0,0,1-4.83,2.575,7.157,7.157,0,0,1-1.187-.1c-.586-.1-1.145-.157-1.676-.213a7.367,7.367,0,0,1-4.34-1.4l-.59-.5.419-.653c1.312-2.041,1.721-3.65,1.122-4.416-.637-.814-2.828-1.011-3.88-1.106l-46.961-3.978a3.641,3.641,0,0,0-1.178.069c-1.9.464-2.386,2.462-1.59,6.479a46.321,46.321,0,0,1-2.572,26.35l-.114.275c-.759,1.837-1.544,3.737-.955,5.373.707,1.961,3.123,2.995,7.386,3.159l34,1.311c1.113.043,2.138.083,3.183.083,2.028,0,4.964-.134,7.035-1.3,1.246-.7,1.39-1.759,1.555-3.729a19.5,19.5,0,0,1,.361-2.694,2.773,2.773,0,0,1,2.456-2.233c3.389.225,6.244.6,8.606.941a4.981,4.981,0,0,1,4.111,3.757,11,11,0,0,0,6.789,7.03,25.875,25.875,0,0,0,9.3,1.344c1.025,0,2.052-.022,3.073-.044l.808-.017C1306.436,619.4,1307.086,619.391,1307.737,619.391Z" transform="translate(2312.268 -351.204)" fill="#eee"/>
      <path id="パス_1082" data-name="パス 1082" d="M1265.778,796.874c-1.537.137-2.917.631-2.844,2.172.177,3.77-.721,9.047-3.831,11.077-3.691,2.41-8.625,1.832-13.018,2.2l-28.538,2.367c-3,.249-6.659.187-8.213-2.4-.868-1.442-.763-3.246-.63-4.924q1.2-15.2,2.4-30.4c.156-1.971.405-4.141,1.868-5.471,1.48-1.347,3.7-1.374,5.7-1.324,8.869.22,14.71-.234,23.579-.014,5.819.144,14-.683,17.226-.05,2.7.53,3.043,4.517,4.517,4.944,3.857,1.116,10.785.648,13.125-.877,2.205-1.437.78-6.722,2.56-8.661,2.062-2.245,8.565-2.161,12.975-1.669s9.591,2.027,11.764,5.9c1.428,2.543-.026,6.417-.954,8.566,2.9.9,11.228,3.717,15.859,7.963,4.694.344,8.537,1.309,10.41,2.548,5.542,3.665,3.693,8.793,4.282,15.411.29,3.262.281,7.029-2.174,9.2-2.7,2.388-6.982,1.534-10.123-.237s-5.922-4.337-9.416-5.227c-9.489-2.416-17.38,3.266-26.745.408-9.862-3.01-11.307-10.22-12.522-10.694a17.846,17.846,0,0,0-7.259-.8" transform="translate(2317.346 -500.633)" fill="#a5adbe"/>
      <path id="パス_1082_-_アウトライン" data-name="パス 1082 - アウトライン" d="M1324.512,812.666a13.274,13.274,0,0,1-6.343-1.819c-1.039-.586-2.04-1.257-3.039-1.927a20.433,20.433,0,0,0-6.16-3.213,19.507,19.507,0,0,0-4.873-.587,45.515,45.515,0,0,0-7.855.915,46.378,46.378,0,0,1-8.052.932,20.281,20.281,0,0,1-6.006-.863,19.385,19.385,0,0,1-11.926-9.611,7.531,7.531,0,0,0-.744-1.15,16.383,16.383,0,0,0-5.194-.764c-.52,0-1.05.021-1.58.069-2.086.186-2.052.9-2.036,1.246.191,4.073-.8,9.623-4.232,11.863-3.012,1.967-6.685,2.078-10.237,2.186-1.079.033-2.151.065-3.193.151L1214.5,812.46c-.694.057-1.422.1-2.151.1-3.457,0-5.713-.956-6.9-2.921-1.049-1.742-.879-3.887-.755-5.453l2.4-30.4c.177-2.234.489-4.543,2.155-6.059,1.519-1.382,3.583-1.569,5.4-1.569.309,0,.615.006.918.013,4.421.109,8.086.051,11.753-.007,3.689-.059,7.377-.117,11.825-.007,2.363.058,5.12-.045,7.771-.144,2.016-.075,3.972-.148,5.655-.148a21.676,21.676,0,0,1,3.95.258c1.989.391,2.933,2.2,3.622,3.514.286.548.719,1.375.971,1.448a18.881,18.881,0,0,0,5,.58c3.138,0,6.18-.554,7.4-1.348.806-.525.938-2.188,1.065-3.8.14-1.763.284-3.587,1.326-4.721,1.366-1.487,4.3-2.241,8.717-2.241a46.438,46.438,0,0,1,5.011.29c4.32.482,9.985,1.973,12.44,6.344,1.5,2.667.276,6.431-.534,8.451,3.678,1.206,10.759,3.867,15.035,7.651,4.694.372,8.521,1.341,10.53,2.67,4.564,3.019,4.554,6.948,4.542,11.5,0,1.461-.008,2.973.135,4.577.317,3.557.271,7.521-2.47,9.942A7.021,7.021,0,0,1,1324.512,812.666Zm-20.415-9.323a21.254,21.254,0,0,1,5.312.642,22.068,22.068,0,0,1,6.712,3.459c.961.645,1.922,1.291,2.922,1.855a11.647,11.647,0,0,0,5.47,1.59,5.3,5.3,0,0,0,3.628-1.245c2.148-1.9,2.154-5.338,1.877-8.453-.15-1.685-.146-3.238-.142-4.739.011-4.366.02-7.52-3.745-10.01-1.753-1.16-5.579-2.081-9.984-2.4l-.308-.023-.228-.209c-4.37-4.006-12.312-6.768-15.524-7.769l-.942-.294.391-.906c1.547-3.583,1.881-6.2.995-7.779-2.2-3.909-7.889-5.091-11.088-5.448a44.615,44.615,0,0,0-4.814-.279c-3.79,0-6.421.592-7.408,1.667-.627.683-.747,2.2-.863,3.659-.161,2.037-.328,4.143-1.866,5.145-1.853,1.208-5.666,1.637-8.368,1.637a20.668,20.668,0,0,1-5.49-.65c-.981-.284-1.5-1.279-2.052-2.332-.609-1.164-1.238-2.368-2.39-2.594a20.455,20.455,0,0,0-3.608-.225c-1.663,0-3.6.072-5.589.147-2.689.1-5.484.2-7.881.145-4.421-.109-8.086-.051-11.753.007-3.689.059-7.378.117-11.826.007l-.874-.013c-1.478,0-3.134.131-4.2,1.106-1.187,1.08-1.425,2.927-1.58,4.884l-2.4,30.4c-.136,1.719-.192,3.237.506,4.4.835,1.387,2.593,2.061,5.374,2.061.68,0,1.358-.039,2-.093l28.538-2.366c1.072-.089,2.176-.123,3.286-.157,3.307-.1,6.726-.2,9.32-1.9,2.622-1.712,3.612-6.4,3.429-10.292-.059-1.26.526-2.821,3.653-3.1.583-.052,1.165-.076,1.737-.076a17.738,17.738,0,0,1,5.923.93c.6.233.956.847,1.55,1.865a17.529,17.529,0,0,0,10.91,8.806,18.532,18.532,0,0,0,5.487.786,44.361,44.361,0,0,0,7.743-.905A46.858,46.858,0,0,1,1304.1,803.343Z" transform="translate(2320.462 -497.522)" fill="#eee"/>
      <path id="パス_1085" data-name="パス 1085" d="M1278.821,978.436c-.945.394-1.138,1.087-1.31,2.1a8.61,8.61,0,0,0,.148,4.519c.722,2.37,2.631,6.771,1.162,8.766-1.646,2.236-4.744,2.116-7.674,2.9l-39.541,10.607c-2.228.6-4.828,1.13-6.662-.27-1.61-1.229-1.967-3.467-2.2-5.479l-4.415-37.919c-.2-1.74-.359-3.666.674-5.08,1.118-1.531,3.21-1.9,5.089-2.148l32.7-4.32c4.061-.537,9.026-1.971,13.086-1.971,1.74,0,2.1,3.208,3.235,3.574a14.9,14.9,0,0,0,4.47-.077c1.389-.31,2.406-3.661,2.91-5.949a14.606,14.606,0,0,1,13.109-11.113c6.145-.323,12.479,2.829,14.427,8.667.672,2.013-.1,5.559-.246,7.37,3.546.828,7.94,3.333,11.164,3.592s8.575,1.423,11.8,1.19c4.875-.353,9.158-1.133,12.438,2.491,3.043,3.361,1.909,9.827,2.211,14.352.345,5.164,1.484,9.943-2.521,13.222-3.578,2.928-9.889,1.2-14.229-.4s-9.28-3.8-13.893-4.107c-8.343-.547-16.243,5.355-24.159,2.665-2.318-.788-5.455-2.442-8.443-7.271C1281.358,977.07,1279.772,978.039,1278.821,978.436Z" transform="translate(2309.906 -635.206)" fill="#a5adbe"/>
      <path id="パス_1085_-_アウトライン" data-name="パス 1085 - アウトライン" d="M1224.8,1005.72a5.625,5.625,0,0,1-3.5-1.069c-1.86-1.42-2.289-3.884-2.545-6.082l-4.415-37.919c-.232-1.99-.358-4.069.839-5.707,1.307-1.79,3.622-2.231,5.69-2.5l32.7-4.32c1.452-.192,3.008-.5,4.656-.822a46.538,46.538,0,0,1,8.547-1.157c1.544,0,2.289,1.455,2.834,2.517a4.251,4.251,0,0,0,.692,1.108,5.085,5.085,0,0,0,1.256.095,17.852,17.852,0,0,0,2.728-.2c.437-.1,1.43-1.616,2.236-5.273a15.515,15.515,0,0,1,13.93-11.809q.454-.024.91-.024c6.762,0,12.552,3.736,14.407,9.3.577,1.729.244,4.221-.024,6.224-.036.267-.07.522-.1.761,1.371.389,2.825.965,4.239,1.525a24.063,24.063,0,0,0,6.031,1.849c1.155.093,2.58.3,4.083.519a52.1,52.1,0,0,0,6.725.7c.3,0,.587-.009.857-.028l1.425-.112c1.332-.109,2.59-.213,3.823-.213a9.948,9.948,0,0,1,7.913,3.105c2.5,2.765,2.447,7.253,2.4,11.212-.017,1.317-.032,2.561.042,3.676.049.726.113,1.444.177,2.152.4,4.477.78,8.705-3.021,11.816a8.879,8.879,0,0,1-5.778,1.785,27.832,27.832,0,0,1-9.32-2.036c-.78-.286-1.579-.592-2.392-.9-3.736-1.431-7.6-2.911-11.253-3.15-.353-.023-.707-.034-1.059-.034a35.644,35.644,0,0,0-9.278,1.7,35.731,35.731,0,0,1-9.317,1.706,14.481,14.481,0,0,1-4.733-.753c-2.273-.772-5.671-2.405-8.912-7.645a.373.373,0,0,0-.376-.217,4.2,4.2,0,0,0-1.425.469l-.428.19c-.478.2-.609.439-.776,1.425a7.761,7.761,0,0,0,.122,4.111c.115.379.262.81.42,1.276.891,2.63,2.112,6.232.608,8.275-1.422,1.931-3.7,2.351-5.91,2.757-.742.137-1.5.276-2.25.476l-39.541,10.607A15.415,15.415,0,0,1,1224.8,1005.72Zm41.968-57.8a45.32,45.32,0,0,0-8.2,1.123c-1.676.33-3.259.641-4.766.84l-32.7,4.32c-1.781.235-3.594.567-4.488,1.791-.818,1.12-.707,2.745-.509,4.453l4.415,37.92c.224,1.92.551,3.878,1.858,4.876a3.851,3.851,0,0,0,2.422.7,13.865,13.865,0,0,0,3.47-.587l39.541-10.607c.794-.213,1.6-.363,2.388-.508,2.037-.375,3.8-.7,4.8-2.063.954-1.3-.138-4.519-.86-6.651-.164-.485-.316-.935-.437-1.329a9.463,9.463,0,0,1-.174-4.926,3.124,3.124,0,0,1,1.843-2.767l.375-.167a5.4,5.4,0,0,1,2.163-.629,2.127,2.127,0,0,1,1.888,1.059c2.941,4.754,5.959,6.213,7.973,6.9a12.736,12.736,0,0,0,4.162.659,33.912,33.912,0,0,0,8.844-1.642c3.516-.969,7.171-1.974,10.925-1.728,3.922.257,8.093,1.855,11.772,3.264.805.308,1.6.612,2.369.9a26.165,26.165,0,0,0,8.708,1.928,7.172,7.172,0,0,0,4.653-1.383c3.073-2.515,2.75-6.115,2.377-10.283-.065-.721-.13-1.452-.179-2.192-.079-1.186-.063-2.464-.046-3.817.046-3.633.1-7.75-1.937-10-1.621-1.791-3.532-2.521-6.6-2.521-1.161,0-2.383.1-3.678.207l-1.442.114a42.425,42.425,0,0,1-7.967-.685c-1.462-.213-2.847-.415-3.97-.506a25.118,25.118,0,0,1-6.542-1.968,36.4,36.4,0,0,0-4.753-1.645.888.888,0,0,1-.683-.939c.037-.444.109-.989.19-1.59.231-1.725.546-4.087.1-5.425-1.863-5.583-7.732-8.082-12.722-8.082q-.408,0-.816.021a13.686,13.686,0,0,0-12.288,10.417c-.9,4.064-2.1,6.293-3.584,6.624a18.934,18.934,0,0,1-3.116.244,6.361,6.361,0,0,1-1.821-.188c-.832-.268-1.278-1.139-1.709-1.981C1267.648,948.739,1267.226,947.915,1266.768,947.915Z" transform="translate(2313.011 -632.095)" fill="#eee"/>
      <path id="パス_1087" data-name="パス 1087" d="M1321.572,1199.047l-41.78,19.414c-2.376,1.1-4.842,2.548-7.376,1.882-1.363-.358-2.313-.758-3.06-5.193-1.856-11.027-6.556-19.189-12.606-29.709-1.331-2.314-2.531-5.751-1.351-8.145,1.056-2.143,3.964-2.682,6.215-3.482,15.043-5.347,28.949-9.522,43.977-15.681,2.614-1.071,2.678-.094,3.576.581,1.278.962,4.287-.817,5.041-2.367.928-1.908.609-4.155.348-6.261s-.394-4.42.812-6.166c1.619-2.345,4.89-2.682,7.738-2.8,4.595-.186,10.313.3,12.084,4.544.732,1.755.566,4.989.141,7.452,2.5.664,4.9,2.16,7.627,2.587a41.723,41.723,0,0,0,9.141.738c5.162-.465,11.258-2,15.308-1.542,4.633,2.324,6.735,12.007,7.312,17.8.514,5.158-4.09,7.762-9.095,6.411-3.5-.945-8.171-2.868-11.456-3.478-6.937-1.291-9.87,6.339-14.656,11.524C1335.612,1191.384,1328.266,1195.936,1321.572,1199.047Z" transform="translate(2281.328 -794.317)" fill="#a5adbe"/>
      <path id="パス_1087_-_アウトライン" data-name="パス 1087 - アウトライン" d="M1270.636,1218.289a6.126,6.126,0,0,1-1.555-.2c-1.965-.517-2.967-1.492-3.71-5.9-1.828-10.856-6.528-19.028-12.478-29.375-.756-1.313-3.022-5.729-1.4-9.02,1.037-2.1,3.409-2.859,5.5-3.526.415-.132.824-.262,1.213-.4,4.956-1.762,9.789-3.4,14.58-5.016,9.927-3.357,19.3-6.529,29.359-10.65a5.9,5.9,0,0,1,2.175-.542,2.485,2.485,0,0,1,1.905.9,3.415,3.415,0,0,0,.366.336.687.687,0,0,0,.389.093,4.721,4.721,0,0,0,3.319-2.14c.783-1.608.533-3.614.292-5.554-.32-2.581-.407-5.043.936-6.989,1.772-2.567,5.1-3.045,8.433-3.18.519-.021,1.052-.033,1.592-.033,6.2,0,9.91,1.676,11.348,5.123.737,1.766.663,4.726.319,7.164.84.273,1.666.614,2.471.945a19.408,19.408,0,0,0,4.3,1.394,52.513,52.513,0,0,0,7.528.788c.485,0,.953-.017,1.4-.057,1.807-.163,3.77-.465,5.668-.758a56.91,56.91,0,0,1,8.071-.873,15.524,15.524,0,0,1,1.749.091.886.886,0,0,1,.3.089c5.965,2.992,7.542,15.942,7.8,18.508a6.81,6.81,0,0,1-1.621,5.406,7.626,7.626,0,0,1-5.774,2.334,10.813,10.813,0,0,1-2.815-.384c-1.456-.393-3.132-.959-4.752-1.507a54.309,54.309,0,0,0-6.635-1.956c-4.612-.858-7.248,2.7-10.361,6.9a52.277,52.277,0,0,1-3.479,4.357c-4.321,4.68-12.244,9.314-18.218,12.09l-41.781,19.414-.86.408A13.169,13.169,0,0,1,1270.636,1218.289Zm33.684-62.856a4.481,4.481,0,0,0-1.5.41c-10.107,4.142-19.509,7.322-29.463,10.689-4.782,1.617-9.606,3.249-14.554,5.007-.406.145-.834.281-1.268.419-1.841.587-3.745,1.193-4.448,2.618-.98,1.988.042,5.08,1.325,7.31,6.062,10.54,10.832,18.834,12.712,30,.678,4.026,1.4,4.217,2.41,4.481a4.285,4.285,0,0,0,1.1.14,11.913,11.913,0,0,0,4.793-1.551l.88-.418,41.78-19.414c5.82-2.7,13.516-7.194,17.661-11.684a50.917,50.917,0,0,0,3.358-4.21c2.823-3.807,5.743-7.744,10.436-7.744a9.194,9.194,0,0,1,1.678.16,55.387,55.387,0,0,1,6.878,2.019c1.668.564,3.244,1.1,4.646,1.475a9.039,9.039,0,0,0,2.352.323,5.882,5.882,0,0,0,4.457-1.75,5.083,5.083,0,0,0,1.17-4.038c-.7-7.075-3.042-15.029-6.69-17.024-.439-.043-.9-.062-1.387-.062a54.865,54.865,0,0,0-7.8.852c-1.926.3-3.917.6-5.779.771-.493.045-1.015.065-1.555.065a53.875,53.875,0,0,1-7.8-.81,20.751,20.751,0,0,1-4.7-1.507,24.794,24.794,0,0,0-3.019-1.1.888.888,0,0,1-.647-1.01c.38-2.2.586-5.35-.085-6.959-1.132-2.712-4.307-4.03-9.708-4.03-.516,0-1.025.012-1.52.032-2.676.108-5.648.393-7.042,2.414-1.055,1.529-.895,3.667-.661,5.552.286,2.3.582,4.677-.431,6.759a6.4,6.4,0,0,1-4.917,3.139,2.364,2.364,0,0,1-1.457-.45,5.145,5.145,0,0,1-.556-.5C1304.656,1155.5,1304.581,1155.433,1304.32,1155.433Z" transform="translate(2284.437 -791.205)" fill="#eee"/>
      <path id="パス_1089" data-name="パス 1089" d="M1450.5,1356.979a26.337,26.337,0,0,0-6.739-10.514c-2.523-2.244-6.447-3.295-9.818-3.474a7.866,7.866,0,0,0-7.983,5.538c-2.116-1.24-4.9.223-6.29,2.246s-1.924,4.511-3.141,6.64c-2,3.5-5.614,5.708-9.078,7.767l-24.521,14.579a15.328,15.328,0,0,0-4.511,3.515,5.209,5.209,0,0,0-.845,5.385c.837,1.63,3.356,2.987,5.061,3.66,5.711,2.253,12.9,2.729,16.576,6.761-2.22,7.6-1.028,16.439,2.5,19.016,5.967,4.358,14.5,4.575,23.974,9.674,8.879,4.778,18.116,8.828,26.8,13.959,6.47,3.825,13.766,6.885,18.431,12.778,5.076,6.413,6.731,15.564,7.223,23.728s-.73,16.328-1.76,24.252a31.931,31.931,0,0,0-5.165,17.792c-2.612,2.13-4.086,5.315-5.474,8.386l-7.939,17.567c7.4-3.783,13.369-9.944,18.067-16.8s8.223-14.428,11.727-21.963a4.29,4.29,0,0,0,.566-3.126,1.87,1.87,0,0,0-2.817-.739,20.827,20.827,0,0,1,5.974-12.2c2.048,1.589,5.2.812,7.048-1.008s2.706-4.388,3.5-6.854l5.745-17.735c1.508-4.657,2.879-10.215-.136-14.071-1.441-1.844-4.191-2.177-5.111-4.329-4.22-9.864,4.583-8.664.912-18.468-2.959-7.9-7.066-2.72-9.485-11.046-.766-2.637,1.388-5.068,2.635-7.515,2.238-4.391.548-9.868-2.4-13.82s-7-6.929-10.277-10.608-5.856-8.573-4.885-13.734a4.958,4.958,0,0,0,4.915-3.992c.294-2.254-.619-4.2-1.741-6.173a12.281,12.281,0,0,0-5-4.952c-1.963-1.016-4.287-.951-6.5-.862C1463.89,1356.509,1457.237,1356.776,1450.5,1356.979Z" transform="translate(2186.251 -951.367)" fill="#a5adbe"/>
      <path id="パス_1089_-_アウトライン" data-name="パス 1089 - アウトライン" d="M1430.43,1338.981c.148,0,.3,0,.444.012,4.132.22,8.006,1.6,10.362,3.7a26.34,26.34,0,0,1,6.746,10.27c6.524-.2,12.968-.459,19.412-.718.6-.024,1.215-.047,1.826-.047a11.065,11.065,0,0,1,5.114,1.007,13.07,13.07,0,0,1,5.364,5.3c1.073,1.89,2.19,4.124,1.85,6.727a5.673,5.673,0,0,1-5.024,4.689c-.67,5.292,2.668,9.965,4.776,12.33,1.334,1.5,2.838,2.912,4.292,4.28a50.2,50.2,0,0,1,6.035,6.389c2.869,3.851,5.026,9.749,2.476,14.754-.3.584-.644,1.167-.993,1.752-1.06,1.778-2.061,3.457-1.58,5.112,1.121,3.859,2.529,4.464,4.158,5.166,1.747.752,3.728,1.6,5.305,5.817,1.952,5.214.562,7.682-.664,9.859-1.2,2.128-2.233,3.966-.263,8.571a4.972,4.972,0,0,0,2.343,2.069,8.69,8.69,0,0,1,2.651,2.063c3.172,4.057,2.01,9.555.281,14.892l-5.745,17.735c-.789,2.437-1.684,5.2-3.726,7.213a7.353,7.353,0,0,1-5.028,2.123,5.292,5.292,0,0,1-2.508-.6,20.059,20.059,0,0,0-5.021,9.787,2.786,2.786,0,0,1,2.567,1.715,5.146,5.146,0,0,1-.6,3.795c-3.465,7.452-7.047,15.158-11.8,22.09-5.379,7.847-11.568,13.6-18.4,17.086a.888.888,0,0,1-1.214-1.157l7.939-17.567c1.3-2.883,2.772-6.135,5.393-8.431a32.9,32.9,0,0,1,5.2-17.7l.24-1.826c.95-7.212,1.933-14.669,1.488-22.052-.63-10.448-2.93-18.046-7.033-23.23-3.519-4.446-8.732-7.31-13.774-10.081-1.486-.817-2.97-1.632-4.412-2.484-5.179-3.062-10.663-5.789-15.967-8.427-3.556-1.768-7.232-3.6-10.8-5.515a66.438,66.438,0,0,0-12.722-4.92c-4.372-1.329-8.148-2.476-11.355-4.819-3.791-2.768-5.112-11.6-2.97-19.484-2.331-2.277-6.03-3.277-9.934-4.332a56.782,56.782,0,0,1-5.975-1.852c-1.009-.4-4.39-1.869-5.525-4.08a6.034,6.034,0,0,1,.932-6.333,16.142,16.142,0,0,1,4.76-3.736l24.521-14.579c3.2-1.9,6.825-4.058,8.761-7.445a22.721,22.721,0,0,0,1.3-2.857,19.341,19.341,0,0,1,1.883-3.844,6.893,6.893,0,0,1,5.306-3.089,4.36,4.36,0,0,1,1.178.158A8.869,8.869,0,0,1,1430.43,1338.981Zm16.954,15.775a.888.888,0,0,1-.828-.568c-1.766-4.565-3.832-7.8-6.5-10.17-2.065-1.836-5.532-3.052-9.275-3.251l-.349-.009a6.938,6.938,0,0,0-6.727,4.887.888.888,0,0,1-1.308.54,2.474,2.474,0,0,0-1.268-.335,5.133,5.133,0,0,0-3.84,2.316,17.757,17.757,0,0,0-1.7,3.5,24.4,24.4,0,0,1-1.4,3.079c-2.168,3.794-6.175,6.176-9.4,8.091l-24.521,14.579a14.578,14.578,0,0,0-4.262,3.294,4.373,4.373,0,0,0-.758,4.436c.677,1.32,2.9,2.57,4.6,3.239a55.494,55.494,0,0,0,5.786,1.789c4.164,1.125,8.471,2.289,11.121,5.2a.888.888,0,0,1,.2.847c-2.073,7.1-1.038,15.706,2.172,18.05,2.964,2.165,6.606,3.272,10.823,4.553a67.9,67.9,0,0,1,13.048,5.056c3.54,1.905,7.2,3.727,10.746,5.489,5.332,2.652,10.846,5.393,16.08,8.488,1.427.843,2.894,1.649,4.363,2.457,5.2,2.855,10.57,5.807,14.312,10.535,4.336,5.479,6.761,13.4,7.413,24.226.455,7.554-.539,15.1-1.5,22.391l-.266,2.029a.891.891,0,0,1-.143.381,31.056,31.056,0,0,0-5.015,17.286.889.889,0,0,1-.327.7c-2.5,2.042-3.95,5.241-5.226,8.064l-6.832,15.116a51.2,51.2,0,0,0,15.417-15.215c4.669-6.811,8.22-14.448,11.654-21.835a3.642,3.642,0,0,0,.533-2.458,1.057,1.057,0,0,0-.946-.526.622.622,0,0,0-.418.135.888.888,0,0,1-1.5-.739,21.708,21.708,0,0,1,6.224-12.726.888.888,0,0,1,1.177-.078,3.338,3.338,0,0,0,2.1.673,5.617,5.617,0,0,0,3.78-1.612c1.733-1.709,2.557-4.252,3.283-6.495l5.745-17.735c1.577-4.87,2.67-9.846.009-13.25a7.253,7.253,0,0,0-2.147-1.623,6.531,6.531,0,0,1-3.081-2.9c-2.315-5.411-.9-7.924.349-10.141,1.137-2.019,2.21-3.925.548-8.364-1.312-3.5-2.784-4.137-4.344-4.807-1.784-.768-3.807-1.638-5.162-6.3-.7-2.4.609-4.586,1.761-6.518.328-.551.656-1.1.936-1.648,2.181-4.28.233-9.463-2.317-12.886a48.893,48.893,0,0,0-5.828-6.156c-1.482-1.394-3.014-2.836-4.4-4.391-4.164-4.671-5.974-9.817-5.094-14.489a.889.889,0,0,1,.824-.723,4.107,4.107,0,0,0,4.082-3.22c.269-2.059-.659-3.905-1.633-5.62a11.323,11.323,0,0,0-4.635-4.6,9.438,9.438,0,0,0-4.3-.809c-.587,0-1.175.022-1.755.045-6.655.267-13.311.534-20.054.737Z" transform="translate(2189.364 -948.255)" fill="#eee"/>
    </g>
    <g id="グループ_295" data-name="グループ 295" transform="translate(39 -262)">
      <text id="小切口_6_8mm_" data-name="小切口（6～8mm）" transform="translate(617 3951)" fill="#fff" font-size="18" font-family="NotoSansCJKjp-Regular, Noto Sans CJK JP" letter-spacing="0.05em"><tspan x="0" y="0">小切口（6～8mm）</tspan></text>
      <line id="線_19" data-name="線 19" y1="47" x2="25" transform="translate(578.5 3994.5)" fill="none" stroke="#fff" stroke-width="1"/>
      <line id="線_20" data-name="線 20" y2="52" transform="translate(603.5 3942.5)" fill="none" stroke="#fff" stroke-width="1"/>
      <circle id="楕円形_31" data-name="楕円形 31" cx="3.5" cy="3.5" r="3.5" transform="translate(600 3939)" fill="#fff"/>
    </g>
    <g id="グループ_299" data-name="グループ 299" transform="translate(28 -334)">
      <text id="移除壓迫神經的椎間盤_骨頭或韌帶等組織" data-name="移除壓迫神經的椎間盤、骨頭或韌帶等組織" transform="translate(649 4332)" fill="#fff" font-size="18" font-family="NotoSansCJKjp-Regular, Noto Sans CJK JP" letter-spacing="0.05em"><tspan x="0" y="21">移除壓迫神經的椎間盤、骨頭或韌</tspan><tspan x="0" y="46.6">帶等組織</tspan></text>
      <g id="グループ_298" data-name="グループ 298" transform="translate(24 96)">
        <g id="グループ_297" data-name="グループ 297" transform="translate(-74 -108)">
          <circle id="楕円形_33" data-name="楕円形 33" cx="103.5" cy="103.5" r="103.5" transform="translate(699 4117)" fill="#eee" opacity="0.5"/>
          <g id="マスクグループ_31" data-name="マスクグループ 31" transform="translate(699 4117)" clip-path="url(#clip-path-2)">
            <g id="グループ_296" data-name="グループ 296" transform="translate(31.419 3.965)">
              <path id="パス_1102" data-name="パス 1102" d="M812.425,1190.6c2.543-.869,5.623-2.494,6.227-5.2a7.484,7.484,0,0,0-2.637-7.388,12.1,12.1,0,0,0-5.459-1.968,56.776,56.776,0,0,0-28.722,2.657c-7.955,2.9-15.288,6.917-23.633,8.167a7.438,7.438,0,0,0-3.968,2.105c-1.081,1.158-1.089,2.973-.944,4.579a46.012,46.012,0,0,0,1.1,6.66,4.432,4.432,0,0,0,1.581,2.873c.861.535,2.053,1.467,3.043,1.306,22.5-3.652,33.507-6.987,53.413-13.789" transform="translate(-743.55 -1031.85)" fill="#11244f"/>
              <path id="パス_1103" data-name="パス 1103" d="M736.857,676.954c.274-.05,9.118.18,10.609-.979,1.544-1.2-4.678-1.656-4.145-2.138.6-.542,8.031.208,8.273-.567.414-1.325-7.376-2.4-7.031-3.153.132-.289,9.253-.913,9.253-2.193,0-1.649-9.334-1.841-8.62-2.527,1.315-1.264,4.723-.948,4.176-2.164-.516-1.145-4.211-1.668-4.7-2.023-1.233-.894.928-3.1.386-4.021-.369-.628-7.3,1.784-8.818,1.351a85.678,85.678,0,0,0-27.774-2.657,266.438,266.438,0,0,0-28.382,3.042,7.613,7.613,0,0,0-4.592,2.473c-1.765,1.881-1.64,4.86-1.4,7.471.273,2.923.711,6.172,2.92,8.014,1.96,1.634,4.71,1.517,7.224,1.622,18.411.764,31.84,2.226,52.617-1.551" transform="translate(-673.955 -575.712)" fill="#11244f"/>
              <path id="パス_1104" data-name="パス 1104" d="M748.449,151.911c1.639.03,2.838-.154,3.979-1.933a9.814,9.814,0,0,0,.871-2.5c.429-2.584,1-5.563-.54-7.66-1.343-1.833-3.39-2.663-5.32-3.7a49.631,49.631,0,0,0-14.08-4.772c-12.011-2.247-24.547,1.689-36.519.5-1.375-.136-4.336-.78-6.228.287-1.8,1.016-2.461,2.287-3.008,4.338a19.526,19.526,0,0,0-.266,6.343c.177,2.622.968,5.789,3.274,6.919,2.085,1.022,2.958.593,4.064.641,18.257.8,35.673,1.2,53.772,1.535" transform="translate(-685.593 -114.697)" fill="#11244f"/>
              <path id="パス_1108" data-name="パス 1108" d="M852.433,1341.834a56.126,56.126,0,0,1-6.54-30.608,20.925,20.925,0,0,0,.037-5.141,5.666,5.666,0,0,0-2.717-4.164c-2.141-1.095-4.679-.06-6.934.773-14.128,5.221-28.255,9.181-43,10.573a21.516,21.516,0,0,0-6.02,1.112,6.652,6.652,0,0,0-4.145,4.225,9.769,9.769,0,0,0,.383,4.742c1.708,6.819,3.417,13.637,5,20.494Z" transform="translate(-769.644 -1142.627)" fill="#a5adbe" stroke="#eee" stroke-width="2"/>
              <path id="パス_1109" data-name="パス 1109" d="M778,36.481c-.293,3.12.272,5.829.388,8.766s-.127,6.947-3.058,7.164c-2.524.186-4.834-1.642-6.855-2.456a56.449,56.449,0,0,0-22.885-3.442c-7.764.457-15.319,1.342-23.087.971-1.972-.094-4.925-.1-6.343-1.47-1.459-1.414-1.141-3.513-.686-5.493a29.8,29.8,0,0,1,2.465-5.656Z" transform="translate(-710.069 -30.611)" fill="#a5adbe" stroke="#eee" stroke-width="2"/>
              <path id="パス_1110" data-name="パス 1110" d="M739.8,295.825a3.88,3.88,0,0,1,3.661,3.138,13.043,13.043,0,0,1-.334,5.3,85.921,85.921,0,0,0-.373,30.222c.308,1.852.615,3.965-.565,5.426-1.63,2.017-4.416.932-6.929.292-16.717-4.263-34.629-.058-51.8,1.57-1.891.179-4.179.15-5.2-1.452-.865-1.357-.335-3.128.155-4.662a57.637,57.637,0,0,0,1.54-29.043,23.876,23.876,0,0,1-.824-6.021,6.336,6.336,0,0,1,2.709-5.188,9.162,9.162,0,0,1,5.013-.806c18.031.526,36.018,1.436,52.948,1.228" transform="translate(-677.328 -258.628)" fill="#a5adbe" stroke="#eee" stroke-width="2"/>
              <path id="パス_1112" data-name="パス 1112" d="M744.917,833.4c6.764-.387,13.793-1.27,20.507-2.18a4.193,4.193,0,0,1,2.224.1c1.642.709,1.681,2.98,1.517,4.761a75.012,75.012,0,0,0,3.281,29.743c.848,2.634,1.8,5.93-.159,7.887-1.36,1.36-5.348-.145-8.373-.5a53.773,53.773,0,0,0-22.4,2.111,219.191,219.191,0,0,0-20.947,7.862,17.058,17.058,0,0,1-5.249,1.5c-1.824.124-3.688-.024-4.906-1.386-1.892-2.117-1.431-5.346-1.14-8.17,1.182-11.467-2.382-22.81-5.005-34.035-.587-2.512-.971-5.57.95-7.293,1.419-1.273,3.539-1.257,5.443-1.17,11.938.549,23.526,1.382,34.256.768" transform="translate(-700.15 -729.699)" fill="#a5adbe" stroke="#eee" stroke-width="2"/>
              <path id="パス_1134" data-name="パス 1134" d="M1540.508,1355.545a10.371,10.371,0,0,1-7.037-6.205,74.043,74.043,0,0,1-5.055-20.008c-.228-2.117-.326-4.42.788-6.2,2.219-3.555,7.328-2.737,11.21-1.5,11.819,3.772,26.826,2.985,38.646,6.757,5.416,1.728,8.868,7.79,11.38,13.054a39.738,39.738,0,0,1,3.894,13.133c.277,2.14.426,4.665-1.122,6.094-1.169,1.079-2.887,1.107-4.445,1.064a223.17,223.17,0,0,1-48.258-6.188" transform="translate(-1420.508 -1161.752)" fill="#a5adbe" stroke="#eee" stroke-width="2"/>
              <path id="パス_1136" data-name="パス 1136" d="M1478.912,944.855c-4.711-3.031-9.018-4.068-11.221-7.451a27.953,27.953,0,0,1-4.437-10.223c-1.043-5.816-.02-8.212,5.512-10.289,3.307-1.242,6.987-.574,10.453.108,10.383,2.044,21.412,1.986,31.148,6.131,4.939,2.1,8.48,7.663,8.883,21.4.125,4.251-1.585,9.247-5.12,11.612-2.3,1.537-5.279,1.436-8.039,1.278-11.11-.635-17.87-6.574-27.179-12.563" transform="translate(-1368.591 -808.624)" fill="#a5adbe" stroke="#eee" stroke-width="2"/>
              <path id="パス_1138" data-name="パス 1138" d="M1427.951,471.591c-5.5-12.141-3.036-16.391,1.713-19.076,4.433-2.507,9.891-1.958,14.946-1.335,7.707.95,14.861,3.1,22.4,4.953,4.252,1.045,9.637,2.991,12.68,5.618,5.84,5.04,5.692,14.141,5.313,16.957a15.921,15.921,0,0,1-4.284,8.409c-4.758,4.456-7.03,4.432-14.413,4.432-7.5,0-12.969-2.834-18.751-5.563-3.634-1.715-16.418-7.363-19.606-14.395" transform="translate(-1335.377 -399.678)" fill="#a5adbe" stroke="#eee" stroke-width="2"/>
              <path id="パス_1140" data-name="パス 1140" d="M1420.67,57.507c-1.511,2.928-1.4,6.678.878,12.065,1.655,3.921,3.481,5.272,6.623,6.945,4.694,2.5,16.187,7.694,32.883,14.072,5.142,1.965,12.454,1.375,17.016-1.705,5.332-3.6,4.8-7.5,4.8-14.738,0-4.136-2.826-9.042-5.7-12.018-5.043-5.224-11.352-4.31-15.731-3.436a39.408,39.408,0,0,1-19.852-1.181c-3.669-1.2-7.193-2.948-11.01-3.524s-8.239.283-9.909,3.519" transform="translate(-1325.364 -44.773)" fill="#a5adbe" stroke="#eee" stroke-width="2"/>
              <path id="パス_1142" data-name="パス 1142" d="M1258.434,201.667c-3.4,0-8.143-.6-8.959-2.5-6.9-16-9.149-32.817-11.741-49.471-2.044-13.139-3.734-40.624-.7-47.186,1.521-3.288,3.932-8.26,3.651-10.488-.413-3.271-4.382-2.551-7.745-8.182-5.921-9.913-5.926-19.559-5.059-31.844,1.149-16.28,2.917-32.116,5.384-48.274.346-2.263,5.235-3.9,9.363-3.708s8.247,2.458,7.9,4.721C1248.093,20.7,1245.806,35.5,1244.707,52c-1.01,15.164-2.59,26.193,3.318,37.383.676,1.28,1.626,9.769,1.421,11.1-1.917,12.388,3.38,35.462,5.694,47.3,2.391,12.241,7.061,31.019,12.467,48.823.7,2.3-3.41,4.425-7.441,4.947a13.53,13.53,0,0,1-1.732.111" transform="translate(-1159.922 -0.003)" fill="url(#linear-gradient)"/>
            </g>
            <rect id="長方形_379" data-name="長方形 379" width="140.751" height="10.147" transform="matrix(0.966, 0.259, -0.259, 0.966, 126.266, 91.841)" fill="#11244f"/>
          </g>
        </g>
        <text id="使用內視鏡" transform="translate(829 4047)" fill="#fff" font-size="18" font-family="NotoSansCJKjp-Regular, Noto Sans CJK JP" letter-spacing="0.05em"><tspan x="0" y="0">使用內視鏡</tspan></text>
        <line id="線_21" data-name="線 21" y1="47" x2="25" transform="translate(796.5 4071.5)" fill="none" stroke="#fff" stroke-width="1"/>
        <line id="線_22" data-name="線 22" y2="29" transform="translate(821.5 4042.5)" fill="none" stroke="#fff" stroke-width="1"/>
        <circle id="楕円形_40" data-name="楕円形 40" cx="3.5" cy="3.5" r="3.5" transform="translate(818 4037)" fill="#fff"/>
      </g>
    </g>
    <circle id="楕円形_30" data-name="楕円形 30" cx="53.884" cy="53.884" r="53.884" transform="translate(564 3728.615)" fill="url(#radial-gradient)"/>
  </g>
</svg>
