<svg xmlns="http://www.w3.org/2000/svg" xmlns:xlink="http://www.w3.org/1999/xlink" width="202.896" height="92.411" viewBox="0 0 202.896 92.411">
  <defs>
    <clipPath id="clip-path">
      <rect id="長方形_492" data-name="長方形 492" width="96" height="62" transform="translate(80.067 2.729)" fill="#fff" stroke="#707070" stroke-width="1"/>
    </clipPath>
  </defs>
  <g id="footer_logo_ja" transform="translate(-55.8 -16.828)">
    <g id="マスクグループ_67" data-name="マスクグループ 67" transform="translate(29.933 14.1)" clip-path="url(#clip-path)">
      <g id="logo" transform="translate(80 5.575)">
        <path id="パス_23" data-name="パス 23" d="M78.937,56.795H15.32a43.119,43.119,0,0,0,8.292-19.439C25.68,24.467,23.581,10.381,15.32,0H48.708L70.729,17.424c.556,1.186-.4,3.642-.514,5.049-1.05,12.039.913,24.75,8.733,34.312Z" transform="translate(0.76)" fill="#fff"/>
        <path id="パス_24" data-name="パス 24" d="M92.582,18.26c-3.285,6.371-3.1,12.417,0,18.82H73.006a32.3,32.3,0,0,1,0-18.82Z" transform="translate(3.553 0.906)" fill="#fff"/>
        <path id="パス_25" data-name="パス 25" d="M0,37.07c.745-2.991,2.477-6.056,2.477-9.237S.7,21.294,0,18.25H19.051a25.512,25.512,0,0,1,0,18.82Z" transform="translate(0 0.906)" fill="#fff"/>
        <path id="パス_26" data-name="パス 26" d="M77.021,0a45.675,45.675,0,0,0-6.644,12.889L53.95,0Z" transform="translate(2.677)" fill="#fff"/>
      </g>
    </g>
    <path id="パス_2544" data-name="パス 2544" d="M9.648-5.778v-4.77h5.166v4.77Zm-6.534,0v-4.77H8.262v4.77Zm6.534-6.084v-3.2H8.262v3.2H1.8v8.514H3.114V-4.464H8.262V1.368H9.648V-4.464h5.166v1.026h1.368v-8.424Zm13.536,8.19A15.154,15.154,0,0,1,19.908-.018c.27.2.738.594.99.828a19.091,19.091,0,0,0,3.564-4.032Zm.468-5.22h8.6v2.88h-8.6Zm9.99,4.068v-5.238h-11.3v5.238H27.27V-.2c0,.252-.072.342-.414.342-.324.018-1.44.018-2.664-.018a6.024,6.024,0,0,1,.45,1.278,11.324,11.324,0,0,0,3.222-.2c.612-.216.792-.576.792-1.368V-4.824Zm-2.448,1.8A28.144,28.144,0,0,1,34.488.882L35.658.09a37.556,37.556,0,0,0-3.366-3.78Zm-2.142-9.792a17.272,17.272,0,0,0-1.4-2.358l-1.26.4a21.465,21.465,0,0,1,1.1,1.962H20.124V-11.5H35.712v-1.314Zm23.148.774-.918-.7a4.929,4.929,0,0,1-1.35.144H42.984c-.54,0-1.566-.072-1.818-.108v1.638c.2-.018,1.188-.09,1.818-.09H50a15.839,15.839,0,0,1-2.988,5A20.583,20.583,0,0,1,39.6-.81L40.752.4a22.819,22.819,0,0,0,7.02-5.256A41.56,41.56,0,0,1,52.722.486l1.26-1.08a49.932,49.932,0,0,0-5.256-5.382A22.781,22.781,0,0,0,51.75-11.25,5.163,5.163,0,0,1,52.2-12.042Zm18.594-.5a1.191,1.191,0,0,1,1.188-1.206,1.2,1.2,0,0,1,1.188,1.206,1.2,1.2,0,0,1-1.188,1.188A1.187,1.187,0,0,1,70.794-12.546Zm-.828,0a2.013,2.013,0,0,0,2.016,2.016A2.024,2.024,0,0,0,74-12.546a2.04,2.04,0,0,0-2.016-2.034A2.028,2.028,0,0,0,69.966-12.546ZM60.624-5.418a23.643,23.643,0,0,1-2.772,4.9l1.53.648a26.1,26.1,0,0,0,2.646-4.95,39.469,39.469,0,0,0,1.638-5.634c.072-.378.216-.9.324-1.3l-1.6-.342A27.437,27.437,0,0,1,60.624-5.418ZM69.48-6.1A53.94,53.94,0,0,1,71.514.09l1.6-.522c-.468-1.62-1.422-4.374-2.16-6.156a58.189,58.189,0,0,0-2.628-5.688l-1.458.486A46.031,46.031,0,0,1,69.48-6.1Zm7.668-.4.72,1.4a35.555,35.555,0,0,0,6.858-2.934v6.66A16.7,16.7,0,0,1,84.618.558h1.764a13.583,13.583,0,0,1-.108-1.926v-7.6a29.448,29.448,0,0,0,4.86-4.014l-1.206-1.116a21.447,21.447,0,0,1-4.914,4.23A29.755,29.755,0,0,1,77.148-6.5Zm21.438-6.7L97.56-12.1a37.383,37.383,0,0,1,4.482,3.762l1.134-1.134A39.416,39.416,0,0,0,98.586-13.194ZM97.038-1.134,97.992.342a19.73,19.73,0,0,0,7.074-2.79,17.984,17.984,0,0,0,6.048-6.408l-.864-1.53a16.956,16.956,0,0,1-6.012,6.624A18.586,18.586,0,0,1,97.038-1.134Zm26.028-12.852-1.674-.54a6.164,6.164,0,0,1-.558,1.422,14.838,14.838,0,0,1-5.652,6.084l1.242.936A18.248,18.248,0,0,0,121-10.512h6.084A14.8,14.8,0,0,1,124.2-4.9a14.562,14.562,0,0,1-7.182,4.518l1.3,1.17a15.782,15.782,0,0,0,7.164-4.9,17.459,17.459,0,0,0,3.2-6.192,5.655,5.655,0,0,1,.414-.954l-1.206-.738a3.012,3.012,0,0,1-1.17.18h-4.878a8.09,8.09,0,0,0,.432-.756A13.611,13.611,0,0,1,123.066-13.986Zm23.2.324h-1.692a12.913,12.913,0,0,1,.09,1.566v2.844c0,3.4-.216,4.86-1.494,6.354A8.252,8.252,0,0,1,138.87-.5L140.04.738a9.614,9.614,0,0,0,4.284-2.628c1.3-1.548,1.89-2.97,1.89-7.29V-12.1C146.214-12.708,146.232-13.212,146.268-13.662Zm-8.352.144h-1.638c.036.342.072.972.072,1.3v5.994a11.8,11.8,0,0,1-.09,1.386h1.656c-.036-.324-.072-.918-.072-1.368v-6.012C137.844-12.654,137.88-13.176,137.916-13.518Zm16.488,1.8v1.62c.558-.018,1.152-.054,1.782-.054h7.7c.594,0,1.278.018,1.782.054v-1.62a17.687,17.687,0,0,1-1.782.072h-7.7C155.592-11.646,154.98-11.682,154.4-11.718Zm-1.548,8.91V-1.08c.612-.036,1.242-.09,1.89-.09h10.782c.486,0,1.1.036,1.638.09V-2.808a16.348,16.348,0,0,1-1.638.09H154.746C154.1-2.718,153.468-2.772,152.856-2.808Zm25.938-7.56-1.314.45a33.931,33.931,0,0,1,1.4,3.906l1.332-.468C179.982-7.272,179.1-9.648,178.794-10.368ZM185.31-9.36l-1.548-.486a12.343,12.343,0,0,1-2.484,6.156,12.12,12.12,0,0,1-5.85,3.834l1.188,1.206a13.717,13.717,0,0,0,5.868-4.284A14.108,14.108,0,0,0,185.04-8.46C185.112-8.694,185.184-8.982,185.31-9.36Zm-10.692-.108-1.332.522a32.2,32.2,0,0,1,1.6,4.05l1.368-.5C175.914-6.336,174.978-8.694,174.618-9.468Zm24.048-4.518-1.674-.54a6.165,6.165,0,0,1-.558,1.422,14.838,14.838,0,0,1-5.652,6.084l1.242.936a18.248,18.248,0,0,0,4.572-4.428h6.084A14.8,14.8,0,0,1,199.8-4.9a14.562,14.562,0,0,1-7.182,4.518l1.3,1.17a15.782,15.782,0,0,0,7.164-4.9,17.459,17.459,0,0,0,3.2-6.192,5.656,5.656,0,0,1,.414-.954l-1.206-.738a3.013,3.013,0,0,1-1.17.18h-4.878a8.09,8.09,0,0,0,.432-.756A13.608,13.608,0,0,1,198.666-13.986Z" transform="translate(54 107.828)" fill="#fff"/>
  </g>
</svg>
