<svg xmlns="http://www.w3.org/2000/svg" xmlns:xlink="http://www.w3.org/1999/xlink" width="32" height="32" viewBox="0 0 32 32">
  <defs>
    <clipPath id="clip-path">
      <path id="パス_2527" data-name="パス 2527" d="M0,0H32V32H0Z" transform="translate(0 -0.114)" fill="#fff"/>
    </clipPath>
  </defs>
  <g id="マスクグループ_79" data-name="マスクグループ 79" transform="translate(0 0.114)" clip-path="url(#clip-path)">
    <path id="パス_2529" data-name="パス 2529" d="M8.969-17.094a6.933,6.933,0,0,1,5.094-2.094,6.933,6.933,0,0,1,5.094,2.094A6.933,6.933,0,0,1,21.25-12a6.933,6.933,0,0,1-2.094,5.094,6.933,6.933,0,0,1-5.094,2.094A6.933,6.933,0,0,1,8.969-6.906,6.933,6.933,0,0,1,6.875-12,6.933,6.933,0,0,1,8.969-17.094ZM10.75-8.687a4.515,4.515,0,0,0,3.313,1.375,4.515,4.515,0,0,0,3.313-1.375A4.515,4.515,0,0,0,18.75-12a4.515,4.515,0,0,0-1.375-3.312,4.515,4.515,0,0,0-3.312-1.375,4.515,4.515,0,0,0-3.312,1.375A4.515,4.515,0,0,0,9.375-12,4.515,4.515,0,0,0,10.75-8.687ZM22.719-20.656a1.571,1.571,0,0,1,.469,1.156,1.677,1.677,0,0,1-.469,1.188,1.522,1.522,0,0,1-1.156.5,1.622,1.622,0,0,1-1.187-.5,1.622,1.622,0,0,1-.5-1.187,1.522,1.522,0,0,1,.5-1.156,1.677,1.677,0,0,1,1.188-.469A1.571,1.571,0,0,1,22.719-20.656ZM28-17.75q.062,1.688.063,5.75T28-6.25A8.619,8.619,0,0,1,25.719-.344a8.4,8.4,0,0,1-5.906,2.219Q18.125,2,14.063,2t-5.75-.125A8.7,8.7,0,0,1,2.406-.375,8.282,8.282,0,0,1,.188-6.25Q.062-7.937.063-12t.125-5.812a8.493,8.493,0,0,1,2.25-5.812,8.421,8.421,0,0,1,5.875-2.312Q10-26,14.063-26t5.75.063a8.619,8.619,0,0,1,5.906,2.281A8.619,8.619,0,0,1,28-17.75Zm-3,14a6.779,6.779,0,0,0,.313-1.281q.125-.781.188-1.875t.063-1.781v-6.625q0-.687-.062-1.781t-.187-1.875A6.779,6.779,0,0,0,25-20.25a4.511,4.511,0,0,0-2.687-2.687,6.779,6.779,0,0,0-1.281-.312q-.781-.125-1.875-.187t-1.75-.062H10.75q-.688,0-1.781.063t-1.875.188a6.779,6.779,0,0,0-1.281.313A4.511,4.511,0,0,0,3.125-20.25a6.779,6.779,0,0,0-.312,1.281q-.125.781-.187,1.875t-.062,1.75v6.656q0,.688.063,1.781t.188,1.875A6.779,6.779,0,0,0,3.125-3.75,4.738,4.738,0,0,0,5.813-1.062,6.779,6.779,0,0,0,7.094-.75q.781.125,1.875.188t1.75.063h6.656q.687,0,1.781-.062T21.031-.75a6.779,6.779,0,0,0,1.281-.312A4.738,4.738,0,0,0,25-3.75Z" transform="translate(2 27.887)" fill="#fff"/>
  </g>
</svg>
