<svg xmlns="http://www.w3.org/2000/svg" width="20" height="20.005" viewBox="0 0 20 20.005">
  <path id="パス_2493" data-name="パス 2493" d="M13.75-7.5q0,1.289-.117,2.5H6.367Q6.25-6.211,6.211-7.5q.039-1.289.156-2.5h7.266Q13.75-8.789,13.75-7.5ZM19.688-10A9.965,9.965,0,0,1,20-7.5,9.964,9.964,0,0,1,19.688-5h-4.8Q15-6.25,15-7.5q0-1.289-.117-2.5Zm-.43-1.25H14.727a13.63,13.63,0,0,0-2.187-5.937A10.576,10.576,0,0,1,16.641-15,10.276,10.276,0,0,1,19.258-11.25Zm-5.82,0H6.563a14.94,14.94,0,0,1,1.055-3.711,6.41,6.41,0,0,1,1.289-1.992A1.642,1.642,0,0,1,10-17.5a1.642,1.642,0,0,1,1.094.547,6.41,6.41,0,0,1,1.289,1.992A14.94,14.94,0,0,1,13.438-11.25Zm-12.7,0A10.276,10.276,0,0,1,3.359-15a10.576,10.576,0,0,1,4.1-2.187A13.63,13.63,0,0,0,5.273-11.25ZM5.117-10Q5-8.789,4.961-7.5,5-6.25,5.117-5H.313A9.965,9.965,0,0,1,0-7.5,9.965,9.965,0,0,1,.313-10Zm2.5,9.961A14.94,14.94,0,0,1,6.563-3.75h6.875A14.94,14.94,0,0,1,12.383-.039a6.41,6.41,0,0,1-1.289,1.992A1.666,1.666,0,0,1,9.961,2.5a1.622,1.622,0,0,1-1.055-.547A6.41,6.41,0,0,1,7.617-.039ZM7.461,2.188A10.576,10.576,0,0,1,3.359,0,10.276,10.276,0,0,1,.742-3.75H5.273A13.63,13.63,0,0,0,7.461,2.188Zm5.078,0A13.63,13.63,0,0,0,14.727-3.75h4.531A10.276,10.276,0,0,1,16.641,0,10.576,10.576,0,0,1,12.539,2.188Z" transform="translate(0 17.502)" fill="#fff"/>
</svg>
