<svg xmlns="http://www.w3.org/2000/svg" xmlns:xlink="http://www.w3.org/1999/xlink" width="1072" height="747" viewBox="0 0 1072 747">
  <defs>
    <clipPath id="clip-path">
      <rect id="長方形_485" data-name="長方形 485" width="1072" height="747" transform="translate(0 0.197)" fill="#fff" stroke="#707070" stroke-width="1"/>
    </clipPath>
    <clipPath id="clip-path-2">
      <rect id="長方形_486" data-name="長方形 486" width="40" height="40" transform="translate(64.541 0.254)" fill="#333f69" stroke="#707070" stroke-width="1"/>
    </clipPath>
    <clipPath id="clip-path-3">
      <rect id="長方形_403" data-name="長方形 403" width="49" height="49" transform="translate(0.141 0.173)" fill="#333f69" stroke="#707070" stroke-width="1"/>
    </clipPath>
    <clipPath id="clip-path-4">
      <rect id="長方形_403-2" data-name="長方形 403" width="49" height="49" transform="translate(-0.006 -0.044)" fill="#333f69" stroke="#707070" stroke-width="1"/>
    </clipPath>
    <clipPath id="clip-path-5">
      <rect id="長方形_403-3" data-name="長方形 403" width="48" height="48" transform="translate(0.368 0.345)" fill="#333f69" stroke="#707070" stroke-width="1"/>
    </clipPath>
    <clipPath id="clip-path-6">
      <rect id="長方形_403-4" data-name="長方形 403" width="49" height="49" transform="translate(-0.405 -0.273)" fill="#333f69" stroke="#707070" stroke-width="1"/>
    </clipPath>
    <clipPath id="clip-path-7">
      <rect id="長方形_403-5" data-name="長方形 403" width="49" height="49" transform="translate(-0.134 0.167)" fill="#333f69" stroke="#707070" stroke-width="1"/>
    </clipPath>
    <clipPath id="clip-path-8">
      <rect id="長方形_403-6" data-name="長方形 403" width="49" height="49" transform="translate(-0.144 0.282)" fill="#333f69" stroke="#707070" stroke-width="1"/>
    </clipPath>
    <clipPath id="clip-path-9">
      <rect id="長方形_403-7" data-name="長方形 403" width="49" height="49" transform="translate(0.186 0.173)" fill="#333f69" stroke="#707070" stroke-width="1"/>
    </clipPath>
  </defs>
  <g id="map_illust_en" transform="translate(0 -0.197)" clip-path="url(#clip-path)">
    <g id="グループ_420" data-name="グループ 420" transform="translate(-2.051 -10.854)">
      <g id="map" transform="translate(1.651 10.453)">
        <path id="back_" data-name="back " d="M-13774.355-2.952V-134.66h174.071l85.158-12.363,74.807-138.2,11.747,7.6v17.542l37.594,32.915,29.449-13.387,50.394,31.2,93.151,101.253,289.243-146.755-.008-.019,100.358-89.859,44.836,39.034,76.624,77.676V-2.952Zm473.034-218.275-59.1-36.588-27.908,12.683-24.979-21.87v-18.921L-13445.886-307l-79.012,145.977-76.487,11.1h-172.971v-920.456h274.058l42.905,76.273,161.963,62.372,114.067,151.453-75.619,80.1-41.839,66.681,110.314,96.139,125.8,194.306.54.834,73.089,66.39,40.31,14.022-265.812,134.866Zm533.935-89.816,60.456-62.629v123.913Zm-213.737,21.822-69.312-62.96-125.841-194.375-.585-.9-102.1-88.983,34.108-54.361,77.475-82.061,153.577-7.286,9.478-89.377-36.465-24.723-27.171-99.069,55.732-77.062h305.3v674.733l-71.555,74.123-50.046-43.57-103.725,92.868ZM-13285.867-944.4l-160.921-61.97-36-64.006h451.727l-53.549,74.044,30.6,111.556,33.55,22.746-7.133,67.264-140.548,6.667Z" transform="translate(13775.138 1071.16)" fill="#333f69"/>
        <path id="line" d="M-12090.818,640.188l-1.321-.762,2.2-3.809,1.32.762Zm-7.928,0-1.32-.762,10.126-17.54,1.32.762Zm-7.921,0-1.32-.762,18.047-31.259,1.32.762Zm-7.921,0-1.32-.762,25.968-44.978,1.32.762Zm-7.923,0-1.32-.762,33.891-58.7,1.32.762Zm-7.928,0-1.321-.762,41.819-72.433,1.32.762Zm-7.924,0-1.32-.762,49.742-86.157,1.32.762Zm-7.92,0-1.321-.762,57.663-99.876,1.32.762Zm-7.928,0-1.321-.762,65.591-113.607,1.32.762Zm-7.924,0-1.321-.762,73.515-127.331,1.32.762Zm-7.923,0-1.321-.762,81.438-141.054,1.32.762Zm-7.921,0-1.321-.762,89.358-154.773,1.32.762Zm-7.926,0-1.32-.762,97.283-168.5,1.32.762Zm-7.923,0-1.321-.762L-12089.94,457.2l1.32.762Zm-7.924,0-1.321-.762,113.131-195.948,1.32.762Zm-7.923,0-1.321-.762,121.054-209.671,1.32.762Zm-7.926,0-1.32-.762,128.979-223.4,1.32.762Zm-7.923,0-1.32-.762,136.9-237.121,1.32.762Zm-7.924,0-1.32-.762,144.825-250.845,1.32.762Zm-7.921,0-1.32-.762,152.746-264.564,1.32.762Zm-7.923,0-1.32-.762,160.669-278.288,1.32.762Zm-7.925,0-1.321-.762,168.595-292.015,1.32.762Zm-7.924,0-1.32-.762,176.518-305.738,1.32.762Zm-7.923,0-1.321-.762,184.441-319.462,1.32.762Zm-7.924,0-1.321-.762,192.365-333.186,1.32.762Zm-7.925,0-1.321-.762,200.29-346.912,1.32.762Zm-7.924,0-1.321-.762,208.214-360.636,1.32.762Zm-7.923,0-1.321-.762,216.137-374.36,1.32.762Zm-7.921,0-1.321-.762,224.058-388.079,1.32.762Zm-7.928,0-1.321-.762,231.985-401.81,1.32.762Zm-7.924,0-1.321-.762,239.909-415.534,1.32.762Zm-7.921,0-1.32-.762,247.829-429.253,1.32.762Zm-7.928,0-1.32-.762,255.757-442.984,1.32.762Zm-7.921,0-1.32-.762,263.678-456.7,1.32.762Zm-7.923,0-1.32-.762L-12089.94,169l1.32.762Zm-7.923,0-1.321-.762,279.524-484.148,1.32.762Zm-7.925,0-1.321-.762,287.449-497.877,1.32.762Zm-7.924,0-1.321-.762,295.373-511.6,1.32.762Zm-7.924,0-1.32-.762,303.3-525.325,1.32.762Zm-7.925,0-1.321-.762,311.222-539.051,1.32.762Zm-7.923,0-1.321-.762L-12089.94,86.65l1.32.762Zm-7.924,0-1.321-.762,327.068-566.5,1.32.762Zm-7.921,0-1.321-.762,334.989-580.218,1.32.762Zm-7.926,0-1.321-.762,342.915-593.946,1.32.762Zm-7.923,0-1.32-.762,350.837-607.668,1.32.762Zm-7.924,0-1.32-.762,358.761-621.392,1.32.762Zm-7.923,0-1.321-.762L-12089.94,4.309l1.32.762Zm-7.924,0-1.32-.762,374.607-648.84,1.32.762Zm-7.925,0-1.32-.762,382.532-662.566,1.32.762Zm-7.924,0-1.32-.762,390.456-676.29,1.32.762Zm-7.923,0-1.32-.762,398.379-690.014,1.32.762Zm-7.921,0-1.32-.762,406.3-703.733,1.32.762Zm-7.925,0-1.321-.762,414.226-717.459,1.32.762Zm-7.923,0-1.321-.762,422.148-731.183,1.32.762Zm-7.924,0-1.321-.762,430.072-744.907,1.32.762Zm-7.924,0-1.32-.762,438-758.631,1.32.762Zm-7.925,0-1.321-.762,445.921-772.357,1.32.762Zm-7.923,0-1.321-.762,453.844-786.081,1.32.762Zm-7.928,0-1.321-.762,461.771-799.812,1.32.762Zm-7.917,0-1.321-.762L-12089.94-174.1l1.32.762Zm-7.928,0-1.32-.762,477.615-827.255,1.32.762Zm-7.923,0-1.321-.762,485.539-840.979,1.32.762Zm-7.921,0-1.32-.762,493.459-854.7,1.32.762Zm-7.928,0-1.321-.762L-12089.94-229l1.32.762Zm-7.924,0-1.32-.762,509.311-882.153,1.32.762Zm-7.924,0-1.32-.762,517.234-895.876,1.32.762Zm-7.921,0-1.32-.762,525.155-909.6,1.32.762Zm-7.924,0-1.321-.762,533.08-923.322,1.32.762Zm-7.924,0-1.321-.762,541-937.046,1.32.762Zm-7.923,0-1.321-.762,548.927-950.769,1.32.762Zm-7.924,0-1.321-.762,556.851-964.493,1.32.762Zm-7.925,0-1.321-.762,564.775-978.22,1.32.762Zm-7.924,0-1.321-.762,572.7-991.944,1.32.762Zm-7.923,0-1.321-.762,580.622-1005.667,1.32.762Zm-7.923,0-1.321-.762,588.545-1019.387,1.32.762Zm-7.926,0-1.32-.762,596.47-1033.117,1.32.762Zm-7.921,0-1.32-.762,604.391-1046.837,1.32.762Zm-7.924,0-1.32-.762,612.314-1060.56,1.32.762Zm-7.923,0-1.321-.762L-12093.9-428l1.321.762Zm-7.924,0-1.32-.762L-12101.824-428l1.321.762Zm-7.925,0-1.32-.762L-12109.749-428l1.32.762Zm-7.924,0-1.32-.762L-12117.672-428l1.32.762Zm-7.923,0-1.32-.762L-12125.6-428l1.32.762Zm-7.924,0-1.32-.762L-12133.52-428l1.321.762Zm-7.925,0-1.321-.762L-12141.444-428l1.32.762Zm-7.92,0-1.321-.762L-12149.365-428l1.321.762Zm-7.924,0-1.321-.762L-12157.288-428l1.32.762Zm-7.928,0-1.321-.762L-12165.216-428l1.321.762Zm-7.924,0-1.321-.762L-12173.14-428l1.321.762Zm-7.923,0-1.321-.762L-12181.063-428l1.321.762Zm-7.921,0-1.321-.762L-12188.983-428l1.321.762Zm-7.926,0-1.32-.762L-12196.909-428l1.321.762Zm-7.923,0-1.32-.762L-12204.832-428l1.32.762Zm-7.921,0-1.32-.762L-12212.753-428l1.32.762Zm-7.924,0-1.32-.762L-12220.677-428l1.321.762Zm-7.927,0-1.321-.762L-12228.6-428l1.32.762Zm-7.924,0-1.32-.762L-12236.527-428l1.32.762Zm-7.924,0-1.32-.762L-12244.45-428l1.32.762Zm-7.921,0-1.32-.762L-12252.371-428l1.32.762Zm-7.924,0-1.321-.762L-12260.3-428l1.321.762Zm-7.924,0-1.321-.762L-12268.22-428l1.321.762Zm-7.923,0-1.321-.762L-12276.144-428l1.321.762Zm-7.924,0-1.321-.762L-12284.066-428l1.32.762Zm-7.925,0-1.321-.762L-12291.992-428l1.321.762Zm-7.924,0-1.321-.762L-12299.915-428l1.321.762Zm-7.923,0-1.321-.762L-12307.839-428l1.321.762Zm-7.924,0-1.321-.762L-12315.762-428l1.321.762Zm-7.923,0-1.32-.762L-12323.684-428l1.32.762Zm-7.924,0-1.32-.762L-12331.607-428l1.32.762Zm-7.923,0-1.32-.762L-12339.531-428l1.321.762Zm-7.924,0-1.32-.762L-12347.455-428l1.321.762Zm-7.924,0-1.321-.762L-12355.38-428l1.321.762Zm-7.924,0-1.321-.762L-12363.3-428l1.32.762Zm-7.924,0-1.32-.762L-12371.227-428l1.32.762Zm-7.92,0-1.321-.762L-12379.147-428l1.32.762Zm-7.927,0-1.32-.762L-12387.073-428l1.32.762Zm-7.925,0-1.321-.762L-12395-428l1.32.762Zm-7.921,0-1.321-.762L-12402.919-428l1.321.762Zm-7.928,0-1.32-.762L-12410.847-428l1.321.762Zm-7.923,0-1.321-.762L-12418.771-428l1.321.762Zm-7.924,0-1.321-.762L-12426.693-428l1.321.762Zm-7.921,0-1.321-.762L-12434.614-428l1.321.762Zm-7.928,0-1.32-.762L-12442.539-428l1.32.762Zm-7.923,0-1.32-.762L-12450.466-428l1.321.762Zm-7.921,0-1.32-.762L-12458.386-428l1.32.762Zm-7.924,0-1.32-.762L-12466.31-428l1.321.762Zm-7.925,0-1.321-.762L-12474.234-428l1.32.762Zm-7.923,0-1.321-.762L-12482.157-428l1.32.762Zm-7.924,0-1.321-.762L-12490.081-428l1.32.762Zm-7.924,0-1.32-.762L-12498-428l1.32.762Zm-7.925,0-1.321-.762L-12505.93-428l1.321.762Zm-7.923,0-1.321-.762L-12513.854-428l1.321.762Zm-7.921,0-1.321-.762L-12521.773-428l1.321.762Zm-7.924,0-1.321-.762L-12529.7-428l1.321.762Zm-7.925,0-1.32-.762L-12537.623-428l1.321.762Zm-3.465-7.722-1.321-.762L-12545.546-428l1.321.762Zm0-13.724-1.321-.762L-12553.47-428l1.321.762Zm0-13.724-1.321-.762L-12561.393-428l1.321.762Zm0-13.724-1.321-.762L-12569.316-428l1.321.762Zm0-13.722-1.321-.762L-12577.238-428l1.32.762Zm0-13.728-1.321-.762,572.2-991.081,1.32.762Zm0-13.719-1.321-.762L-12593.085-428l1.32.762Zm0-13.724-1.321-.762L-12601.009-428l1.321.762Zm0-13.726-1.321-.762L-12608.934-428l1.321.762Zm0-13.724-1.321-.762L-12616.856-428l1.32.762Zm0-13.724-1.321-.762L-12624.78-428l1.32.762Zm0-13.726-1.321-.762L-12632.705-428l1.321.762Zm0-13.724-1.321-.762L-12640.629-428l1.321.762Zm0-13.719-1.321-.762L-12648.55-428l1.321.762Zm0-13.731-1.321-.762L-12656.478-428l1.321.762Zm0-13.724-1.321-.762L-12664.4-428l1.321.762Zm0-13.724-1.321-.762L-12672.324-428l1.321.762Zm0-13.719-1.321-.762,477.12-826.4,1.321.762Zm0-13.731-1.321-.762L-12688.172-428l1.32.762Zm0-13.724-1.321-.762L-12696.1-428l1.32.762Zm0-13.719-1.321-.762L-12704.017-428l1.32.762Zm0-13.724-1.321-.762,445.426-771.5,1.32.762Zm0-13.724-1.321-.762,437.5-757.775,1.32.762Zm0-13.726-1.321-.762L-12727.788-428l1.32.762Zm0-13.724-1.321-.762L-12735.712-428l1.32.762Zm0-13.724-1.321-.762,413.73-716.6,1.32.762Zm0-13.724-1.321-.762L-12751.559-428l1.32.762Zm0-13.726-1.321-.762L-12759.483-428l1.321.762Zm0-13.719-1.321-.762L-12767.4-428l1.321.762Zm0-13.724-1.321-.762L-12775.328-428l1.321.762Zm0-13.724-1.321-.762L-12783.251-428l1.321.762Zm0-13.726-1.321-.762L-12791.177-428l1.321.762Zm0-13.724-1.321-.762L-12799.1-428l1.321.762Zm0-13.724-1.321-.762L-12807.023-428l1.321.762Zm0-13.724-1.321-.762L-12814.946-428l1.321.762Zm0-13.726-1.321-.762L-12822.871-428l1.32.762Zm0-13.724-1.321-.762L-12830.795-428l1.321.762Zm0-13.719-1.321-.762L-12838.715-428l1.32.762Zm0-13.724-1.321-.762L-12846.639-428l1.32.762Zm0-13.731-1.321-.762,302.8-524.462,1.32.762Zm0-13.724-1.321-.762L-12862.49-428l1.32.762Zm0-13.719-1.321-.762L-12870.411-428l1.321.762Zm0-13.731-1.321-.762L-12878.339-428l1.321.762Zm0-13.724-1.321-.762,271.1-469.564,1.321.762Zm0-13.724-1.321-.762L-12894.186-428l1.321.762Zm0-13.719-1.321-.762L-12902.106-428l1.321.762Zm0-13.726-1.321-.762,247.334-428.4,1.321.762Zm0-13.724-1.321-.762L-12917.955-428l1.321.762Zm0-13.724-1.321-.762L-12925.878-428l1.321.762Zm0-13.724-1.321-.762L-12933.8-428l1.321.762Zm0-13.726-1.321-.762,215.64-373.5,1.32.762Zm0-13.724-1.321-.762L-12949.649-428l1.32.762Zm0-13.719-1.321-.762L-12957.57-428l1.32.762Zm0-13.728-1.321-.762L-12965.5-428l1.321.762Zm0-13.722-1.321-.762,183.946-318.6,1.321.762Zm0-13.724-1.321-.762L-12981.342-428l1.32.762Zm0-13.724-1.321-.762,168.1-291.157,1.32.762Zm0-13.724-1.321-.762L-12997.188-428l1.32.762Zm0-13.724-1.321-.762L-13005.112-428l1.32.762Zm0-13.726-1.321-.762L-13013.038-428l1.321.762Zm0-13.724-1.321-.762,136.4-236.259,1.321.762Zm0-13.719-1.321-.762L-13028.882-428l1.321.762Zm0-13.724-1.321-.762L-13036.806-428l1.321.762Zm0-13.726-1.321-.762L-13044.73-428l1.321.762Zm0-13.724-1.321-.762L-13052.653-428l1.32.762Zm0-13.724-1.321-.762L-13060.577-428l1.321.762Zm0-13.724-1.321-.762L-13068.5-428l1.321.762Zm0-13.731-1.321-.762L-13076.428-428l1.32.762Zm0-13.724-1.321-.762L-13084.352-428l1.321.762Zm0-13.715-1.321-.762,65.1-112.749,1.32.762Zm0-13.731-1.321-.762L-13100.2-428l1.321.762Zm0-13.724-1.321-.762L-13108.12-428l1.32.762Zm0-13.719-1.321-.762,41.324-71.575,1.32.762Zm0-13.731-1.321-.762,33.4-57.844,1.321.762Zm0-13.724-1.321-.762,25.473-44.12,1.321.762Zm0-13.724-1.321-.762,17.55-30.4,1.321.762Zm0-13.724-1.321-.762,9.626-16.672,1.321.762Zm0-13.719-1.321-.762,1.705-2.953,1.321.762Z" transform="translate(13157.365 427.999)" fill="#0b143f"/>
        <path id="パス_2508" data-name="パス 2508" d="M-88.692,0h3.552V-14.808h5.04V-17.76H-93.684v2.952h4.992Zm16.224.336a8.478,8.478,0,0,0,4.7-1.488l-1.2-2.16a5.54,5.54,0,0,1-3.024.936,3.531,3.531,0,0,1-3.72-3.36h8.28a6.556,6.556,0,0,0,.168-1.608c0-3.72-1.92-6.432-5.616-6.432-3.216,0-6.264,2.712-6.264,7.08C-79.14-2.28-76.212.336-72.468.336Zm-3.288-8.4c.264-1.968,1.512-2.976,2.928-2.976,1.728,0,2.544,1.152,2.544,2.976ZM-63.156,0h3.5V-9.24a3.922,3.922,0,0,1,2.592-1.512c1.272,0,1.872.744,1.872,2.808V0h3.528V-9.24a3.922,3.922,0,0,1,2.592-1.512c1.272,0,1.872.744,1.872,2.808V0h3.528V-8.376c0-3.384-1.32-5.4-4.176-5.4-1.752,0-3.048,1.056-4.272,2.352a3.658,3.658,0,0,0-3.7-2.352A5.659,5.659,0,0,0-59.94-11.64h-.1l-.24-1.8h-2.88ZM-38.82,5.16h3.5V1.08l-.1-2.208A5,5,0,0,0-32.076.336c2.952,0,5.712-2.664,5.712-7.272,0-4.128-1.968-6.84-5.28-6.84a6.38,6.38,0,0,0-3.96,1.728h-.1l-.24-1.392h-2.88Zm5.952-7.728a3.761,3.761,0,0,1-2.448-1.008v-5.9a3.789,3.789,0,0,1,2.664-1.392c1.848,0,2.664,1.416,2.664,3.984C-29.988-3.96-31.236-2.568-32.868-2.568Zm13.68,2.9A6.32,6.32,0,0,0-15.132-1.44h.072L-14.8,0h2.88V-7.848c0-3.888-1.752-5.928-5.16-5.928A10.737,10.737,0,0,0-22.692-12l1.272,2.328a7.594,7.594,0,0,1,3.7-1.272c1.656,0,2.232,1.008,2.28,2.328-5.4.576-7.728,2.088-7.728,4.968A3.818,3.818,0,0,0-19.188.336Zm1.152-2.76c-1.032,0-1.776-.456-1.776-1.512,0-1.2,1.1-2.088,4.368-2.52v2.712A3.563,3.563,0,0,1-18.036-2.424ZM-7.116,0h3.432V-3.36L-1.74-5.568,1.524,0H5.34L.252-7.944l4.656-5.5H1.068L-3.588-7.632h-.1v-11.52H-7.116ZM12.132.336a5.4,5.4,0,0,0,4.3-2.256h.1L16.788,0h2.88V-13.44H16.14v9.072c-.912,1.2-1.632,1.68-2.736,1.68-1.3,0-1.872-.72-1.872-2.808V-13.44H8v8.4C8-1.68,9.252.336,12.132.336ZM33.252,0H37.6L39.54-8.784c.288-1.392.528-2.76.768-4.1h.1c.216,1.344.48,2.712.768,4.1L43.164,0H47.58l3.288-17.76H47.484L46.092-9.1c-.264,1.848-.528,3.744-.792,5.664h-.12c-.384-1.92-.744-3.84-1.128-5.664L41.988-17.76H38.964L36.9-9.1c-.384,1.848-.768,3.768-1.128,5.664h-.1c-.264-1.9-.552-3.792-.816-5.664L33.444-17.76H29.82ZM57.4.336A6.32,6.32,0,0,0,61.452-1.44h.072L61.788,0h2.88V-7.848c0-3.888-1.752-5.928-5.16-5.928A10.737,10.737,0,0,0,53.892-12l1.272,2.328a7.594,7.594,0,0,1,3.7-1.272c1.656,0,2.232,1.008,2.28,2.328-5.4.576-7.728,2.088-7.728,4.968A3.818,3.818,0,0,0,57.4.336Zm1.152-2.76c-1.032,0-1.776-.456-1.776-1.512,0-1.2,1.1-2.088,4.368-2.52v2.712A3.563,3.563,0,0,1,58.548-2.424ZM69.468,0h3.5V-8.016c.768-1.944,2.04-2.64,3.1-2.64a4.236,4.236,0,0,1,1.392.216l.624-3.048a3.8,3.8,0,0,0-1.584-.288,4.656,4.656,0,0,0-3.816,2.712h-.1l-.24-2.376h-2.88Zm16.1.336a5.575,5.575,0,0,0,3.72-1.728h.072L89.652,0h2.856V-19.152H88.98v4.728l.144,2.112a4.626,4.626,0,0,0-3.408-1.464c-2.9,0-5.64,2.688-5.64,7.08S82.236.336,85.572.336Zm.912-2.9c-1.776,0-2.784-1.392-2.784-4.176,0-2.688,1.272-4.128,2.784-4.128a3.571,3.571,0,0,1,2.5,1.008v5.9A2.99,2.99,0,0,1,86.484-2.568Z" transform="translate(235.401 633.598)" fill="#fff"/>
        <text id="Midori_Ward" data-name="Midori Ward" transform="translate(826.4 986.598)" fill="#fff" font-size="24" font-family="NotoSansCJKjp-Bold, Noto Sans CJK JP" font-weight="700" letter-spacing="0.05em"><tspan x="-77.448" y="0">Midori Ward</tspan></text>
        <path id="パス_2497" data-name="パス 2497" d="M-74.136,0h3.36V-7.128c0-2.04-.264-4.272-.432-6.192h.12l1.8,3.816L-64.152,0h3.6V-17.76h-3.36v7.08c0,2.016.264,4.368.456,6.216h-.12L-65.352-8.3l-5.16-9.456h-3.624Zm18.888,0h3.5V-13.44h-3.5Zm1.776-15.6a1.954,1.954,0,0,0,2.088-1.92,1.926,1.926,0,0,0-2.088-1.92,1.933,1.933,0,0,0-2.112,1.92A1.961,1.961,0,0,0-53.472-15.6ZM-42.912.336c3.5,0,5.352-1.9,5.352-4.248,0-2.5-1.968-3.384-3.744-4.056C-42.72-8.5-44.04-8.856-44.04-9.84c0-.768.576-1.3,1.776-1.3a5.174,5.174,0,0,1,2.9,1.152l1.584-2.136a7.523,7.523,0,0,0-4.584-1.656c-3.024,0-4.992,1.7-4.992,4.128,0,2.232,1.968,3.264,3.672,3.912,1.416.552,2.808,1.008,2.808,2.016,0,.84-.6,1.416-1.944,1.416a5.835,5.835,0,0,1-3.6-1.464L-48.024-1.56A8.468,8.468,0,0,0-42.912.336Zm13.08,0c3.5,0,5.352-1.9,5.352-4.248,0-2.5-1.968-3.384-3.744-4.056C-29.64-8.5-30.96-8.856-30.96-9.84c0-.768.576-1.3,1.776-1.3a5.174,5.174,0,0,1,2.9,1.152L-24.7-12.12a7.523,7.523,0,0,0-4.584-1.656c-3.024,0-4.992,1.7-4.992,4.128,0,2.232,1.968,3.264,3.672,3.912,1.416.552,2.808,1.008,2.808,2.016,0,.84-.6,1.416-1.944,1.416a5.835,5.835,0,0,1-3.6-1.464L-34.944-1.56A8.468,8.468,0,0,0-29.832.336ZM-20.592,0h3.5V-9.24c1.008-.984,1.7-1.512,2.808-1.512,1.32,0,1.9.744,1.9,2.808V0h3.528V-8.376c0-3.384-1.248-5.4-4.152-5.4a6.116,6.116,0,0,0-4.224,1.968l.144-2.52v-4.824h-3.5Zm16.56,0h3.5V-13.44h-3.5Zm1.776-15.6A1.954,1.954,0,0,0-.168-17.52a1.926,1.926,0,0,0-2.088-1.92,1.933,1.933,0,0,0-2.112,1.92A1.961,1.961,0,0,0-2.256-15.6ZM4.464,0h3.5V-9.24c1.008-.984,1.7-1.512,2.808-1.512,1.32,0,1.9.744,1.9,2.808V0H16.2V-8.376c0-3.384-1.248-5.4-4.152-5.4A6.194,6.194,0,0,0,7.68-11.664h-.1l-.24-1.776H4.464ZM35.232.336A7.188,7.188,0,0,0,40.9-2.28L39.024-4.488a4.938,4.938,0,0,1-3.672,1.752c-2.808,0-4.632-2.328-4.632-6.192,0-3.816,2.016-6.12,4.7-6.12a4.58,4.58,0,0,1,3.264,1.488l1.872-2.256a7.245,7.245,0,0,0-5.208-2.28c-4.488,0-8.256,3.432-8.256,9.288C27.1-2.88,30.744.336,35.232.336ZM44.664,0h3.5V-13.44h-3.5ZM46.44-15.6a1.954,1.954,0,0,0,2.088-1.92,1.926,1.926,0,0,0-2.088-1.92,1.933,1.933,0,0,0-2.112,1.92A1.961,1.961,0,0,0,46.44-15.6ZM58.08.336a8.685,8.685,0,0,0,2.832-.5l-.576-2.568a3.927,3.927,0,0,1-1.32.288c-1.2,0-1.824-.72-1.824-2.256v-5.952H60.5V-13.44H57.192v-3.6H54.24l-.408,3.6-2.064.168v2.616h1.9V-4.7C53.664-1.68,54.888.336,58.08.336ZM65.616,5.4c3,0,4.44-1.824,5.616-4.992L76.008-13.44H72.624L70.776-7.2c-.312,1.248-.648,2.544-.96,3.792H69.7C69.312-4.7,68.976-6,68.568-7.2l-2.136-6.24H62.88L68.112-.24l-.24.792a2.573,2.573,0,0,1-2.52,2.04,3.614,3.614,0,0,1-.936-.168l-.648,2.712A5.691,5.691,0,0,0,65.616,5.4Z" transform="translate(956.4 177.599)" fill="#fff"/>
        <path id="パス_2498" data-name="パス 2498" d="M-69.84,0h3.192V-7.416c0-1.68-.288-4.152-.456-5.832h.1l1.416,4.176,2.76,7.464h2.04l2.736-7.464,1.44-4.176h.1c-.168,1.68-.432,4.152-.432,5.832V0h3.24V-17.76h-3.936l-2.952,8.3c-.384,1.1-.7,2.28-1.08,3.432h-.12c-.36-1.152-.7-2.328-1.08-3.432l-3.024-8.3H-69.84ZM-42.6.336a8.478,8.478,0,0,0,4.7-1.488l-1.2-2.16a5.54,5.54,0,0,1-3.024.936,3.531,3.531,0,0,1-3.72-3.36h8.28a6.556,6.556,0,0,0,.168-1.608c0-3.72-1.92-6.432-5.616-6.432-3.216,0-6.264,2.712-6.264,7.08C-49.272-2.28-46.344.336-42.6.336Zm-3.288-8.4c.264-1.968,1.512-2.976,2.928-2.976,1.728,0,2.544,1.152,2.544,2.976ZM-33.288,0h3.5V-13.44h-3.5Zm1.776-15.6a1.954,1.954,0,0,0,2.088-1.92,1.926,1.926,0,0,0-2.088-1.92,1.933,1.933,0,0,0-2.112,1.92A1.961,1.961,0,0,0-31.512-15.6ZM-19.872.336a8.685,8.685,0,0,0,2.832-.5l-.576-2.568a3.927,3.927,0,0,1-1.32.288c-1.2,0-1.824-.72-1.824-2.256v-5.952h3.312V-13.44H-20.76v-3.6h-2.952l-.408,3.6-2.064.168v2.616h1.9V-4.7C-24.288-1.68-23.064.336-19.872.336Zm11.52,0C-4.992.336-1.9-2.256-1.9-6.7c0-4.488-3.1-7.08-6.456-7.08s-6.456,2.592-6.456,7.08C-14.808-2.256-11.712.336-8.352.336Zm0-2.88c-1.824,0-2.856-1.632-2.856-4.152,0-2.544,1.032-4.2,2.856-4.2S-5.5-9.24-5.5-6.7C-5.5-4.176-6.528-2.544-8.352-2.544ZM10.872,0h4.344L17.16-8.784c.288-1.392.528-2.76.768-4.1h.1c.216,1.344.48,2.712.768,4.1L20.784,0H25.2l3.288-17.76H25.1L23.712-9.1c-.264,1.848-.528,3.744-.792,5.664H22.8c-.384-1.92-.744-3.84-1.128-5.664L19.608-17.76H16.584L14.52-9.1c-.384,1.848-.768,3.768-1.128,5.664h-.1c-.264-1.9-.552-3.792-.816-5.664L11.064-17.76H7.44ZM35.016.336A6.32,6.32,0,0,0,39.072-1.44h.072L39.408,0h2.88V-7.848c0-3.888-1.752-5.928-5.16-5.928A10.737,10.737,0,0,0,31.512-12l1.272,2.328a7.594,7.594,0,0,1,3.7-1.272c1.656,0,2.232,1.008,2.28,2.328-5.4.576-7.728,2.088-7.728,4.968A3.818,3.818,0,0,0,35.016.336Zm1.152-2.76c-1.032,0-1.776-.456-1.776-1.512,0-1.2,1.1-2.088,4.368-2.52v2.712A3.563,3.563,0,0,1,36.168-2.424ZM47.088,0h3.5V-8.016c.768-1.944,2.04-2.64,3.1-2.64a4.236,4.236,0,0,1,1.392.216l.624-3.048a3.8,3.8,0,0,0-1.584-.288A4.656,4.656,0,0,0,50.3-11.064h-.1l-.24-2.376h-2.88Zm16.1.336a5.575,5.575,0,0,0,3.72-1.728h.072L67.272,0h2.856V-19.152H66.6v4.728l.144,2.112a4.626,4.626,0,0,0-3.408-1.464c-2.9,0-5.64,2.688-5.64,7.08S59.856.336,63.192.336Zm.912-2.9c-1.776,0-2.784-1.392-2.784-4.176,0-2.688,1.272-4.128,2.784-4.128a3.571,3.571,0,0,1,2.5,1.008v5.9A2.99,2.99,0,0,1,64.1-2.568Z" transform="translate(601.401 155.599)" fill="#fff"/>
      </g>
      <path id="合体_7" data-name="合体 7" d="M304.16,1078.673,471.284,663.436V340.224L327.742,253.369,209.182,456.9,0,369.863l4.1-9.857,200.557,83.449L323.983,238.616l147.3,89.131V139.956C333.021,91.611,105.093,11.724,101.273,9.18l2.959-4.441L106.679,0C114.668,3.7,347.5,85.364,473.7,129.493L527.061,8.7l9.765,4.314L481.958,137.218V334.206l1.009.61H589.8l1.571,1.627,482.707,498.563-7.671,7.427L585.273,345.491H481.958V665.5l-.385.96-167.511,416.2Z" fill="#a5adbe"/>
      <g id="higasiyama" transform="translate(1.479 885.38)">
        <path id="パス_2386" data-name="パス 2386" d="M738.941,533.566l-24.717-31.458L598.548,447.314l-74.83-70.295-64.2,5.972-126.678-9.876-51.445,9.835-1.145-5.991L332.5,366.97l126.975,9.944,66.419-6.223,76.135,71.521,116.108,55,25.6,32.587Z" transform="translate(-280.249 -337.258)" fill="#a4945e"/>
        <g id="station" transform="translate(114.177)">
          <circle id="楕円形_57" data-name="楕円形 57" cx="17" cy="17" r="17" transform="translate(7.396 25.671)" fill="#bfb592"/>
          <text id="Aioiyama" transform="translate(23.396 16.672)" fill="#bfb592" font-size="15" font-family="NotoSansCJKjp-Regular, Noto Sans CJK JP" letter-spacing="0.05em"><tspan x="-34.995" y="0">Aioiyama</tspan></text>
        </g>
        <g id="station-2" data-name="station" transform="translate(306.314 69.383)">
          <circle id="楕円形_57-2" data-name="楕円形 57" cx="16.5" cy="16.5" r="16.5" transform="translate(0.259 26.288)" fill="#bfb592"/>
          <text id="Kamisawa" transform="translate(7.259 -19.71)" fill="#bfb592" font-size="15" font-family="NotoSansCJKjp-Regular, Noto Sans CJK JP" letter-spacing="0.05em"><tspan x="-38.61" y="0">Kamisawa</tspan></text>
        </g>
        <g id="station-3" data-name="station" transform="translate(420.681 120.467)">
          <ellipse id="楕円形_57-3" data-name="楕円形 57" cx="17" cy="16.5" rx="17" ry="16.5" transform="translate(-0.108 26.204)" fill="#bfb592"/>
          <text id="Tokushige" transform="translate(19.892 16.206)" fill="#bfb592" font-size="15" font-family="NotoSansCJKjp-Regular, Noto Sans CJK JP" letter-spacing="0.05em"><tspan x="-38.452" y="0">Tokushige</tspan></text>
        </g>
      </g>
      <g id="meigyousen" transform="translate(0.991 338.187)">
        <path id="パス_2387" data-name="パス 2387" d="M1066.377,760.735,868.414,740.484l-50.128-51.413h-81.9l-53.536,20.892-88.819-43.1L303.118,561.323l-99.256-64.359-58.588-7.642L-1.39,435.039.73,429.32l146,54.119,59.293,7.656,99.8,64.8L596.407,661.249l86.713,42.063,52.124-20.341h85.615l50.378,51.67L1067,754.667Z" transform="translate(1.39 -429.32)" fill="#a4945e"/>
        <g id="station-4" data-name="station" transform="translate(139.063 15.005)">
          <ellipse id="楕円形_57-4" data-name="楕円形 57" cx="16.5" cy="17" rx="16.5" ry="17" transform="translate(7.997 25.859)" fill="#bfb592"/>
          <path id="パス_2501" data-name="パス 2501" d="M-54.278.2c2.295,0,3.735-1.38,3.735-3.12,0-1.635-.99-2.385-2.265-2.94l-1.575-.675c-.855-.36-1.815-.765-1.815-1.83,0-.99.81-1.62,2.055-1.62a3.562,3.562,0,0,1,2.505,1.035l.735-.885a4.509,4.509,0,0,0-3.24-1.365c-1.995,0-3.465,1.23-3.465,2.925a3.106,3.106,0,0,0,2.235,2.82l1.59.69c1.035.465,1.83.825,1.83,1.95,0,1.08-.87,1.8-2.31,1.8a4.32,4.32,0,0,1-3.045-1.365l-.825.945A5.254,5.254,0,0,0-54.278.2Zm6.525-.2h1.365V-5.91a3.1,3.1,0,0,1,2.235-1.245c1.08,0,1.545.645,1.545,2.175V0h1.365V-5.16c0-2.085-.78-3.2-2.49-3.2a3.824,3.824,0,0,0-2.7,1.365l.045-1.68v-3.27h-1.365ZM-37.9,0h1.365V-8.145H-37.9Zm.69-9.825a.892.892,0,0,0,.945-.885.867.867,0,0,0-.945-.885.867.867,0,0,0-.945.885A.892.892,0,0,0-37.208-9.825ZM-29.858.2c2,0,3.78-1.56,3.78-4.26s-1.785-4.29-3.78-4.29-3.78,1.575-3.78,4.29S-31.853.2-29.858.2Zm0-1.14c-1.41,0-2.355-1.245-2.355-3.12s.945-3.15,2.355-3.15,2.37,1.275,2.37,3.15S-28.448-.945-29.858-.945Zm9.42,4.695c2.52,0,4.11-1.305,4.11-2.82C-16.327-.405-17.272-1-19.163-1h-1.59c-1.095,0-1.425-.36-1.425-.885a1.213,1.213,0,0,1,.525-.975,2.833,2.833,0,0,0,1.215.285,2.793,2.793,0,0,0,2.97-2.835,2.326,2.326,0,0,0-.66-1.68h1.665v-1.05H-19.3a3.36,3.36,0,0,0-1.14-.21,2.9,2.9,0,0,0-3.06,2.91,2.859,2.859,0,0,0,1.065,2.19v.06a1.987,1.987,0,0,0-.915,1.515A1.473,1.473,0,0,0-22.6-.345v.06A2.305,2.305,0,0,0-23.812,1.56C-23.812,2.97-22.432,3.75-20.437,3.75Zm0-7.26a1.785,1.785,0,0,1-1.74-1.935,1.742,1.742,0,0,1,1.74-1.905,1.739,1.739,0,0,1,1.725,1.905A1.783,1.783,0,0,1-20.437-3.51Zm.195,6.33c-1.485,0-2.37-.57-2.37-1.44A1.718,1.718,0,0,1-21.772,0a4.581,4.581,0,0,0,1.05.135h1.41c1.08,0,1.665.255,1.665,1.005C-17.647,2-18.682,2.82-20.243,2.82ZM-12.383.2a4.364,4.364,0,0,0,2.7-1.17h.045l.12.975h1.125V-5.01c0-2.01-.84-3.345-2.82-3.345a6.127,6.127,0,0,0-3.21,1.065l.54.945a4.488,4.488,0,0,1,2.445-.87c1.335,0,1.68,1.005,1.68,2.055-3.465.39-5.01,1.275-5.01,3.045A2.208,2.208,0,0,0-12.383.2Zm.39-1.1c-.81,0-1.44-.375-1.44-1.3,0-1.05.93-1.725,3.675-2.055v2.28A3.329,3.329,0,0,1-11.993-.9Zm6.945.9h1.365V-5.91A3.008,3.008,0,0,1-1.628-7.155c1.035,0,1.515.645,1.515,2.175V0H1.252V-5.91A3.008,3.008,0,0,1,3.307-7.155c1.035,0,1.515.645,1.515,2.175V0H6.187V-5.16c0-2.085-.8-3.2-2.475-3.2A3.85,3.85,0,0,0,1.027-6.8a2.148,2.148,0,0,0-2.25-1.56,3.579,3.579,0,0,0-2.535,1.4H-3.8l-.12-1.185H-5.048ZM11.468.2a4.364,4.364,0,0,0,2.7-1.17h.045l.12.975h1.125V-5.01c0-2.01-.84-3.345-2.82-3.345A6.127,6.127,0,0,0,9.428-7.29l.54.945a4.488,4.488,0,0,1,2.445-.87c1.335,0,1.68,1.005,1.68,2.055-3.465.39-5.01,1.275-5.01,3.045A2.208,2.208,0,0,0,11.468.2Zm.39-1.1c-.81,0-1.44-.375-1.44-1.3,0-1.05.93-1.725,3.675-2.055v2.28A3.329,3.329,0,0,1,11.858-.9Zm9.69,4.65c2.52,0,4.11-1.305,4.11-2.82C25.658-.405,24.713-1,22.823-1h-1.59c-1.095,0-1.425-.36-1.425-.885a1.213,1.213,0,0,1,.525-.975,2.833,2.833,0,0,0,1.215.285,2.793,2.793,0,0,0,2.97-2.835,2.326,2.326,0,0,0-.66-1.68h1.665v-1.05H22.688a3.36,3.36,0,0,0-1.14-.21,2.9,2.9,0,0,0-3.06,2.91,2.859,2.859,0,0,0,1.065,2.19v.06a1.987,1.987,0,0,0-.915,1.515,1.473,1.473,0,0,0,.75,1.335v.06A2.305,2.305,0,0,0,18.173,1.56C18.173,2.97,19.553,3.75,21.548,3.75Zm0-7.26a1.785,1.785,0,0,1-1.74-1.935,1.742,1.742,0,0,1,1.74-1.905,1.739,1.739,0,0,1,1.725,1.905A1.783,1.783,0,0,1,21.548-3.51Zm.195,6.33c-1.485,0-2.37-.57-2.37-1.44A1.718,1.718,0,0,1,20.213,0a4.581,4.581,0,0,0,1.05.135h1.41c1.08,0,1.665.255,1.665,1.005C24.338,2,23.3,2.82,21.743,2.82ZM30.368.2a3.494,3.494,0,0,0,2.7-1.47h.045L33.217,0h1.14V-8.145H32.993V-2.37c-.78.975-1.365,1.38-2.2,1.38-1.08,0-1.53-.645-1.53-2.16v-5H27.892v5.16C27.892-.915,28.658.2,30.368.2ZM41.062.2A3.884,3.884,0,0,0,43.687-.84L43.1-1.755a2.872,2.872,0,0,1-1.92.81c-1.5,0-2.52-1.245-2.52-3.12s1.08-3.15,2.55-3.15a2.364,2.364,0,0,1,1.635.735l.705-.915a3.482,3.482,0,0,0-2.385-.96,3.966,3.966,0,0,0-3.93,4.29C37.237-1.365,38.9.2,41.062.2ZM46.237,0H47.6V-5.91a3.1,3.1,0,0,1,2.235-1.245c1.08,0,1.545.645,1.545,2.175V0h1.365V-5.16c0-2.085-.78-3.2-2.49-3.2a3.824,3.824,0,0,0-2.7,1.365L47.6-8.67v-3.27H46.237Zm9.855,0h1.365V-8.145H56.093Zm.69-9.825a.892.892,0,0,0,.945-.885.867.867,0,0,0-.945-.885.867.867,0,0,0-.945.885A.892.892,0,0,0,56.783-9.825Z" transform="translate(22.997 16.86)" fill="#bfb592"/>
        </g>
        <g id="station-5" data-name="station" transform="translate(290.027 87.437)">
          <circle id="楕円形_57-5" data-name="楕円形 57" cx="17" cy="17" r="17" transform="translate(0.033 25.427)" fill="#bfb592"/>
          <path id="パス_2502" data-name="パス 2502" d="M-14.167.2c2.25,0,3.96-1.2,3.96-4.74V-11h-1.335v6.5c0,2.655-1.155,3.48-2.625,3.48-1.425,0-2.55-.825-2.55-3.48V-11h-1.4v6.45C-18.112-1-16.4.2-14.167.2Zm10.83,0a4.848,4.848,0,0,0,2.7-.84l-.495-.9A3.511,3.511,0,0,1-3.172-.9a2.7,2.7,0,0,1-2.7-2.85h5.49a5.329,5.329,0,0,0,.06-.78c0-2.325-1.17-3.825-3.24-3.825-1.89,0-3.675,1.65-3.675,4.29C-7.237-1.38-5.5.2-3.337.2Zm-2.55-4.92A2.506,2.506,0,0,1-3.547-7.26c1.275,0,2.025.885,2.025,2.535ZM5.213.2A3.633,3.633,0,0,0,7.688-.96h.03L7.853,0h1.11V-11.94H7.6v3.135L7.673-7.4a3.314,3.314,0,0,0-2.3-.96c-1.86,0-3.525,1.65-3.525,4.29C1.853-1.35,3.173.2,5.213.2Zm.3-1.14c-1.44,0-2.25-1.17-2.25-3.135C3.263-5.94,4.3-7.2,5.618-7.2a2.859,2.859,0,0,1,1.98.855V-2.07A2.8,2.8,0,0,1,5.513-.945ZM14.363.2a4.364,4.364,0,0,0,2.7-1.17h.045l.12.975h1.125V-5.01c0-2.01-.84-3.345-2.82-3.345a6.127,6.127,0,0,0-3.21,1.065l.54.945a4.488,4.488,0,0,1,2.445-.87c1.335,0,1.68,1.005,1.68,2.055-3.465.39-5.01,1.275-5.01,3.045A2.208,2.208,0,0,0,14.363.2Zm.39-1.1c-.81,0-1.44-.375-1.44-1.3,0-1.05.93-1.725,3.675-2.055v2.28A3.329,3.329,0,0,1,14.753-.9Z" transform="translate(16.033 17.426)" fill="#bfb592"/>
        </g>
        <g id="station-6" data-name="station" transform="translate(566.033 185.793)">
          <ellipse id="楕円形_57-6" data-name="楕円形 57" cx="17" cy="16.5" rx="17" ry="16.5" transform="translate(0.027 26.071)" fill="#bfb592"/>
          <path id="パス_2504" data-name="パス 2504" d="M-29.3,0h1.4V-5.19h5.13V0h1.38V-11h-1.38V-6.39h-5.13V-11h-1.4Zm11.55,0h1.365V-8.145h-1.365Zm.69-9.825a.892.892,0,0,0,.945-.885.867.867,0,0,0-.945-.885.867.867,0,0,0-.945.885A.892.892,0,0,0-17.062-9.825ZM-12.877,0h1.365V-5.235c.54-1.4,1.38-1.875,2.055-1.875a1.927,1.927,0,0,1,.8.135l.255-1.2a1.736,1.736,0,0,0-.87-.18,2.812,2.812,0,0,0-2.31,1.7h-.045l-.12-1.485h-1.125Zm8.04.2a4.364,4.364,0,0,0,2.7-1.17h.045l.12.975H-.847V-5.01c0-2.01-.84-3.345-2.82-3.345A6.127,6.127,0,0,0-6.877-7.29l.54.945a4.488,4.488,0,0,1,2.445-.87c1.335,0,1.68,1.005,1.68,2.055-3.465.39-5.01,1.275-5.01,3.045A2.208,2.208,0,0,0-4.837.2Zm.39-1.1c-.81,0-1.44-.375-1.44-1.3,0-1.05.93-1.725,3.675-2.055v2.28A3.329,3.329,0,0,1-4.447-.9ZM6.083.2c1.875,0,3.54-1.605,3.54-4.41,0-2.49-1.14-4.14-3.255-4.14A4.1,4.1,0,0,0,3.818-7.2l.045-1.47v-3.27H2.5V0h1.1l.12-.84h.045A3.608,3.608,0,0,0,6.083.2ZM5.858-.945a3.126,3.126,0,0,1-2-.855V-6.075A3.364,3.364,0,0,1,6.053-7.2C7.6-7.2,8.2-5.985,8.2-4.185,8.2-2.16,7.208-.945,5.858-.945ZM14.152.2a4.364,4.364,0,0,0,2.7-1.17H16.9l.12.975h1.125V-5.01c0-2.01-.84-3.345-2.82-3.345a6.127,6.127,0,0,0-3.21,1.065l.54.945a4.488,4.488,0,0,1,2.445-.87c1.335,0,1.68,1.005,1.68,2.055-3.465.39-5.01,1.275-5.01,3.045A2.208,2.208,0,0,0,14.152.2Zm.39-1.1c-.81,0-1.44-.375-1.44-1.3,0-1.05.93-1.725,3.675-2.055v2.28A3.329,3.329,0,0,1,14.542-.9Zm6.945.9h1.365V-5.235c.54-1.4,1.38-1.875,2.055-1.875a1.927,1.927,0,0,1,.8.135l.255-1.2a1.736,1.736,0,0,0-.87-.18,2.812,2.812,0,0,0-2.31,1.7h-.045l-.12-1.485H21.487Zm6.57,0h1.365V-8.145H28.057Zm.69-9.825a.892.892,0,0,0,.945-.885.867.867,0,0,0-.945-.885.867.867,0,0,0-.945.885A.892.892,0,0,0,28.747-9.825Z" transform="translate(16.027 17.071)" fill="#bfb592"/>
        </g>
        <g id="station-7" data-name="station" transform="translate(736.059 215.528)">
          <ellipse id="楕円形_57-7" data-name="楕円形 57" cx="17" cy="16.5" rx="17" ry="16.5" transform="translate(0.001 26.335)" fill="#bfb592"/>
          <path id="パス_2505" data-name="パス 2505" d="M-22.058-4.47l.54-1.68c.39-1.245.75-2.43,1.095-3.72h.06c.36,1.275.7,2.475,1.11,3.72l.525,1.68ZM-17.333,0h1.47L-19.6-11h-1.545L-24.878,0h1.41L-22.4-3.36h4.02Zm3.645,0h1.35V-2.145l1.53-1.785L-8.423,0h1.485l-3.09-4.875,2.73-3.27H-8.812l-3.5,4.305h-.03v-8.1h-1.35Zm10.74.2a4.364,4.364,0,0,0,2.7-1.17H-.2L-.083,0H1.042V-5.01c0-2.01-.84-3.345-2.82-3.345A6.127,6.127,0,0,0-4.988-7.29l.54.945A4.488,4.488,0,0,1-2-7.215c1.335,0,1.68,1.005,1.68,2.055-3.465.39-5.01,1.275-5.01,3.045A2.208,2.208,0,0,0-2.948.2Zm.39-1.1C-3.368-.9-4-1.275-4-2.2c0-1.05.93-1.725,3.675-2.055v2.28A3.329,3.329,0,0,1-2.558-.9ZM4.387,0H5.752V-8.145H4.387Zm.69-9.825a.892.892,0,0,0,.945-.885.867.867,0,0,0-.945-.885.867.867,0,0,0-.945.885A.892.892,0,0,0,5.077-9.825ZM9.262,0h1.35V-2.145l1.53-1.785L14.528,0h1.485l-3.09-4.875,2.73-3.27H14.138l-3.5,4.305h-.03v-8.1H9.262ZM21.278.2a4.848,4.848,0,0,0,2.7-.84l-.495-.9a3.511,3.511,0,0,1-2.04.645,2.7,2.7,0,0,1-2.7-2.85h5.49a5.329,5.329,0,0,0,.06-.78c0-2.325-1.17-3.825-3.24-3.825-1.89,0-3.675,1.65-3.675,4.29C17.377-1.38,19.118.2,21.278.2Zm-2.55-4.92a2.506,2.506,0,0,1,2.34-2.535c1.275,0,2.025.885,2.025,2.535Z" transform="translate(16.001 17.336)" fill="#bfb592"/>
        </g>
        <g id="マスクグループ_63" data-name="マスクグループ 63" transform="translate(705.519 272.609)" clip-path="url(#clip-path-2)">
          <g id="楕円形_71" data-name="楕円形 71" transform="translate(64.541 0.254)" fill="#fff" stroke="red" stroke-width="4">
            <circle cx="20" cy="20" r="20" stroke="none"/>
            <circle cx="20" cy="20" r="18" fill="none"/>
          </g>
        </g>
      </g>
      <g id="グループ_419" data-name="グループ 419" transform="translate(32.549 40.589)">
        <g id="spot" transform="translate(878.339 309.553)">
          <g id="マスクグループ_43" data-name="マスクグループ 43" transform="translate(32.023 29.735)" clip-path="url(#clip-path-3)">
            <path id="パス_1429" data-name="パス 1429" d="M73.884,0A19.207,19.207,0,0,0,54.7,19.185C54.7,35.89,73.884,48.8,73.884,48.8S93.069,35.89,93.069,19.185A19.207,19.207,0,0,0,73.884,0Zm0,26.925a7.74,7.74,0,1,1,7.74-7.74A7.74,7.74,0,0,1,73.884,26.925Z" transform="translate(-49.362 0)" fill="#b66363"/>
          </g>
          <path id="パス_2496" data-name="パス 2496" d="M-63.352,0h1.995V-4.635c0-1.05-.18-2.6-.285-3.645h.06l.885,2.61L-58.972-1H-57.7l1.71-4.665.9-2.61h.06c-.105,1.05-.27,2.6-.27,3.645V0h2.025V-11.1h-2.46l-1.845,5.19c-.24.69-.435,1.425-.675,2.145h-.075c-.225-.72-.435-1.455-.675-2.145l-1.89-5.19h-2.46ZM-47.9.21A3.95,3.95,0,0,0-45.368-.9h.045l.165.9h1.8V-4.905c0-2.43-1.095-3.7-3.225-3.7a6.711,6.711,0,0,0-3.51,1.11l.8,1.455a4.746,4.746,0,0,1,2.31-.8c1.035,0,1.4.63,1.425,1.455-3.375.36-4.83,1.3-4.83,3.105A2.386,2.386,0,0,0-47.9.21Zm.72-1.725c-.645,0-1.11-.285-1.11-.945,0-.75.69-1.305,2.73-1.575v1.7A2.227,2.227,0,0,1-47.183-1.515ZM-37.958.21c2.19,0,3.345-1.185,3.345-2.655,0-1.56-1.23-2.115-2.34-2.535-.885-.33-1.71-.555-1.71-1.17,0-.48.36-.81,1.11-.81a3.234,3.234,0,0,1,1.815.72l.99-1.335A4.7,4.7,0,0,0-37.612-8.61c-1.89,0-3.12,1.065-3.12,2.58,0,1.395,1.23,2.04,2.295,2.445.885.345,1.755.63,1.755,1.26,0,.525-.375.885-1.215.885a3.647,3.647,0,0,1-2.25-.915l-1.005,1.38A5.293,5.293,0,0,0-37.958.21Zm5.775,3.015h2.19V.675l-.06-1.38A3.122,3.122,0,0,0-27.968.21c1.845,0,3.57-1.665,3.57-4.545,0-2.58-1.23-4.275-3.3-4.275a3.988,3.988,0,0,0-2.475,1.08h-.06l-.15-.87h-1.8Zm3.72-4.83a2.35,2.35,0,0,1-1.53-.63v-3.69a2.368,2.368,0,0,1,1.665-.87c1.155,0,1.665.885,1.665,2.49C-26.663-2.475-27.443-1.605-28.462-1.605ZM-21.773,0h2.19V-5.01c.48-1.215,1.275-1.65,1.935-1.65a2.647,2.647,0,0,1,.87.135l.39-1.9a2.376,2.376,0,0,0-.99-.18,2.91,2.91,0,0,0-2.385,1.695h-.06l-.15-1.485h-1.8Zm10.62.21a4.093,4.093,0,0,0,4.035-4.4A4.1,4.1,0,0,0-11.153-8.61a4.1,4.1,0,0,0-4.035,4.425A4.093,4.093,0,0,0-11.153.21Zm0-1.8c-1.14,0-1.785-1.02-1.785-2.6s.645-2.625,1.785-2.625,1.785,1.035,1.785,2.625S-10.012-1.59-11.153-1.59ZM-.188,0h2V-4.635c0-1.05-.18-2.6-.285-3.645h.06l.885,2.61L4.192-1H5.467L7.177-5.67l.9-2.61h.06c-.1,1.05-.27,2.6-.27,3.645V0H9.892V-11.1H7.432L5.587-5.91c-.24.69-.435,1.425-.675,2.145H4.837C4.612-4.485,4.4-5.22,4.162-5.91L2.272-11.1H-.188Zm15.87.21A3.376,3.376,0,0,0,18.368-1.2h.06L18.592,0h1.8V-8.4h-2.2v5.67a2.024,2.024,0,0,1-1.71,1.05c-.81,0-1.17-.45-1.17-1.755V-8.4H13.1v5.25C13.1-1.05,13.882.21,15.682.21ZM25.9.21c2.19,0,3.345-1.185,3.345-2.655,0-1.56-1.23-2.115-2.34-2.535-.885-.33-1.71-.555-1.71-1.17,0-.48.36-.81,1.11-.81a3.234,3.234,0,0,1,1.815.72l.99-1.335A4.7,4.7,0,0,0,26.243-8.61c-1.89,0-3.12,1.065-3.12,2.58,0,1.395,1.23,2.04,2.3,2.445.885.345,1.755.63,1.755,1.26,0,.525-.375.885-1.215.885a3.647,3.647,0,0,1-2.25-.915L22.7-.975A5.293,5.293,0,0,0,25.9.21Zm9.42,0a5.3,5.3,0,0,0,2.94-.93l-.75-1.35a3.462,3.462,0,0,1-1.89.585,2.207,2.207,0,0,1-2.325-2.1h5.175a4.1,4.1,0,0,0,.1-1.005c0-2.325-1.2-4.02-3.51-4.02a4.112,4.112,0,0,0-3.915,4.425A4.07,4.07,0,0,0,35.318.21ZM33.263-5.04a1.894,1.894,0,0,1,1.83-1.86c1.08,0,1.59.72,1.59,1.86ZM43.627.21A3.376,3.376,0,0,0,46.313-1.2h.06L46.537,0h1.8V-8.4H46.132v5.67a2.024,2.024,0,0,1-1.71,1.05c-.81,0-1.17-.45-1.17-1.755V-8.4h-2.2v5.25C41.048-1.05,41.827.21,43.627.21ZM51.443,0h2.19V-5.775a2.451,2.451,0,0,1,1.62-.945c.8,0,1.17.465,1.17,1.755V0h2.205V-5.775a2.451,2.451,0,0,1,1.62-.945c.8,0,1.17.465,1.17,1.755V0h2.205V-5.235c0-2.115-.825-3.375-2.61-3.375a3.725,3.725,0,0,0-2.67,1.47,2.286,2.286,0,0,0-2.31-1.47,3.537,3.537,0,0,0-2.58,1.335h-.06L53.243-8.4h-1.8Z" transform="translate(55.164 16.909)" fill="#fff"/>
        </g>
        <g id="spot-2" data-name="spot" transform="translate(741.861 414.771)">
          <g id="マスクグループ_43-2" data-name="マスクグループ 43" transform="translate(39.647 29.735)" clip-path="url(#clip-path-4)">
            <path id="パス_1429-2" data-name="パス 1429" d="M73.884,0A19.207,19.207,0,0,0,54.7,19.185C54.7,35.89,73.884,48.8,73.884,48.8S93.069,35.89,93.069,19.185A19.207,19.207,0,0,0,73.884,0Zm0,26.925a7.74,7.74,0,1,1,7.74-7.74A7.74,7.74,0,0,1,73.884,26.925Z" transform="translate(-49.362 0)" fill="#b66363"/>
          </g>
          <path id="パス_2503" data-name="パス 2503" d="M-76.417-9.345h1.44c1.425,0,2.205.4,2.205,1.6s-.78,1.785-2.205,1.785h-1.44ZM-70.117,0l-2.6-4.545A3.177,3.177,0,0,0-70.6-7.74c0-2.55-1.845-3.36-4.17-3.36h-3.87V0h2.22V-4.2h1.545l2.28,4.2Zm5.745.21a5.3,5.3,0,0,0,2.94-.93l-.75-1.35a3.462,3.462,0,0,1-1.89.585,2.207,2.207,0,0,1-2.325-2.1h5.175a4.1,4.1,0,0,0,.1-1.005c0-2.325-1.2-4.02-3.51-4.02a4.112,4.112,0,0,0-3.915,4.425A4.07,4.07,0,0,0-64.372.21Zm-2.055-5.25A1.894,1.894,0,0,1-64.6-6.9c1.08,0,1.59.72,1.59,1.86ZM-55.657.21a5.428,5.428,0,0,0,1.77-.315l-.36-1.605a2.454,2.454,0,0,1-.825.18c-.75,0-1.14-.45-1.14-1.41V-6.66h2.07V-8.4h-2.07v-2.25h-1.845l-.255,2.25-1.29.1V-6.66h1.185v3.72C-58.417-1.05-57.652.21-55.657.21ZM-51.682,0h2.19V-5.01c.48-1.215,1.275-1.65,1.935-1.65a2.647,2.647,0,0,1,.87.135l.39-1.9a2.376,2.376,0,0,0-.99-.18,2.91,2.91,0,0,0-2.385,1.695h-.06l-.15-1.485h-1.8Zm10.62.21a4.093,4.093,0,0,0,4.035-4.4A4.1,4.1,0,0,0-41.062-8.61,4.1,4.1,0,0,0-45.1-4.185,4.093,4.093,0,0,0-41.062.21Zm0-1.8c-1.14,0-1.785-1.02-1.785-2.6S-42.2-6.81-41.062-6.81s1.785,1.035,1.785,2.625S-39.922-1.59-41.062-1.59ZM-27.892,0h2.22V-9.255h3.15V-11.1h-8.49v1.845h3.12Zm7,0h2.19V-5.01c.48-1.215,1.275-1.65,1.935-1.65a2.647,2.647,0,0,1,.87.135l.39-1.9a2.376,2.376,0,0,0-.99-.18,2.91,2.91,0,0,0-2.385,1.695h-.06l-.15-1.485h-1.8Zm8.9.21A3.95,3.95,0,0,0-9.457-.9h.045l.165.9h1.8V-4.905c0-2.43-1.1-3.7-3.225-3.7a6.711,6.711,0,0,0-3.51,1.11l.8,1.455a4.746,4.746,0,0,1,2.31-.8c1.035,0,1.4.63,1.425,1.455-3.375.36-4.83,1.3-4.83,3.105A2.386,2.386,0,0,0-11.992.21Zm.72-1.725c-.645,0-1.11-.285-1.11-.945,0-.75.69-1.305,2.73-1.575v1.7A2.227,2.227,0,0,1-11.272-1.515ZM-4.447,0h2.19V-5.775A2.451,2.451,0,0,1-.637-6.72c.8,0,1.17.465,1.17,1.755V0H2.738V-5.775a2.451,2.451,0,0,1,1.62-.945c.8,0,1.17.465,1.17,1.755V0H7.733V-5.235c0-2.115-.825-3.375-2.61-3.375a3.725,3.725,0,0,0-2.67,1.47A2.286,2.286,0,0,0,.143-8.61a3.537,3.537,0,0,0-2.58,1.335H-2.5L-2.647-8.4h-1.8ZM15.1,0h2V-4.635c0-1.05-.18-2.6-.285-3.645h.06l.885,2.61L19.477-1h1.275l1.71-4.665.9-2.61h.06c-.1,1.05-.27,2.6-.27,3.645V0h2.025V-11.1h-2.46L20.872-5.91c-.24.69-.435,1.425-.675,2.145h-.075c-.225-.72-.435-1.455-.675-2.145l-1.89-5.19H15.1Zm15.87.21A3.376,3.376,0,0,0,33.652-1.2h.06L33.877,0h1.8V-8.4H33.472v5.67a2.024,2.024,0,0,1-1.71,1.05c-.81,0-1.17-.45-1.17-1.755V-8.4h-2.2v5.25C28.387-1.05,29.167.21,30.967.21Zm10.215,0c2.19,0,3.345-1.185,3.345-2.655,0-1.56-1.23-2.115-2.34-2.535-.885-.33-1.71-.555-1.71-1.17,0-.48.36-.81,1.11-.81a3.234,3.234,0,0,1,1.815.72l.99-1.335A4.7,4.7,0,0,0,41.527-8.61c-1.89,0-3.12,1.065-3.12,2.58,0,1.395,1.23,2.04,2.295,2.445.885.345,1.755.63,1.755,1.26,0,.525-.375.885-1.215.885a3.647,3.647,0,0,1-2.25-.915L37.987-.975A5.293,5.293,0,0,0,41.182.21Zm9.42,0a5.3,5.3,0,0,0,2.94-.93l-.75-1.35a3.462,3.462,0,0,1-1.89.585,2.207,2.207,0,0,1-2.325-2.1h5.175a4.1,4.1,0,0,0,.1-1.005c0-2.325-1.2-4.02-3.51-4.02a4.112,4.112,0,0,0-3.915,4.425A4.07,4.07,0,0,0,50.6.21ZM48.548-5.04a1.894,1.894,0,0,1,1.83-1.86c1.08,0,1.59.72,1.59,1.86ZM58.912.21A3.376,3.376,0,0,0,61.6-1.2h.06L61.822,0h1.8V-8.4H61.417v5.67a2.024,2.024,0,0,1-1.71,1.05c-.81,0-1.17-.45-1.17-1.755V-8.4h-2.2v5.25C56.332-1.05,57.112.21,58.912.21ZM66.727,0h2.19V-5.775a2.451,2.451,0,0,1,1.62-.945c.795,0,1.17.465,1.17,1.755V0h2.205V-5.775a2.451,2.451,0,0,1,1.62-.945c.8,0,1.17.465,1.17,1.755V0h2.205V-5.235c0-2.115-.825-3.375-2.61-3.375a3.725,3.725,0,0,0-2.67,1.47,2.286,2.286,0,0,0-2.31-1.47,3.537,3.537,0,0,0-2.58,1.335h-.06L68.527-8.4h-1.8Z" transform="translate(62.642 16.692)" fill="#fff"/>
        </g>
        <g id="spot-3" data-name="spot" transform="translate(534.475 605.383)">
          <g id="マスクグループ_43-3" data-name="マスクグループ 43" transform="translate(55.659 29.735)" clip-path="url(#clip-path-5)">
            <path id="パス_1429-3" data-name="パス 1429" d="M73.884,0A19.207,19.207,0,0,0,54.7,19.185C54.7,35.89,73.884,48.8,73.884,48.8S93.069,35.89,93.069,19.185A19.207,19.207,0,0,0,73.884,0Zm0,26.925a7.74,7.74,0,1,1,7.74-7.74A7.74,7.74,0,0,1,73.884,26.925Z" transform="translate(-49.362 0)" fill="#b66363"/>
          </g>
          <path id="パス_2507" data-name="パス 2507" d="M-72.075,0h2.1V-4.455c0-1.275-.165-2.67-.27-3.87h.075l1.125,2.385L-65.835,0h2.25V-11.1h-2.1v4.425c0,1.26.165,2.73.285,3.885h-.075l-1.11-2.4L-69.81-11.1h-2.265ZM-58.2.21A3.95,3.95,0,0,0-55.665-.9h.045l.165.9h1.8V-4.905c0-2.43-1.095-3.7-3.225-3.7A6.711,6.711,0,0,0-60.39-7.5l.8,1.455a4.746,4.746,0,0,1,2.31-.8c1.035,0,1.4.63,1.425,1.455-3.375.36-4.83,1.3-4.83,3.105A2.386,2.386,0,0,0-58.2.21Zm.72-1.725c-.645,0-1.11-.285-1.11-.945,0-.75.69-1.305,2.73-1.575v1.7A2.227,2.227,0,0,1-57.48-1.515Zm9.78,5.16c2.805,0,4.56-1.29,4.56-2.985,0-1.47-1.1-2.1-3.12-2.1h-1.425c-.99,0-1.32-.24-1.32-.69a.837.837,0,0,1,.36-.72,3.577,3.577,0,0,0,1.08.2c1.8,0,3.24-.96,3.24-2.85a2.113,2.113,0,0,0-.39-1.275h1.44V-8.4H-46.3a3.951,3.951,0,0,0-1.26-.21,3.1,3.1,0,0,0-3.39,3.045,2.776,2.776,0,0,0,1.11,2.19v.06a2.084,2.084,0,0,0-.93,1.575A1.592,1.592,0,0,0-50.01-.33v.075a2.039,2.039,0,0,0-1.2,1.74C-51.21,2.97-49.68,3.645-47.7,3.645Zm.135-7.665a1.363,1.363,0,0,1-1.32-1.545c0-.99.57-1.545,1.32-1.545s1.305.555,1.305,1.545S-46.83-4.02-47.565-4.02Zm.195,6.27c-1.23,0-2.01-.4-2.01-1.11a1.26,1.26,0,0,1,.555-.975,4.741,4.741,0,0,0,1.17.12h1.02c.9,0,1.395.15,1.395.75C-45.24,1.7-46.11,2.25-47.37,2.25ZM-37.725.21a4.093,4.093,0,0,0,4.035-4.4A4.1,4.1,0,0,0-37.725-8.61,4.1,4.1,0,0,0-41.76-4.185,4.093,4.093,0,0,0-37.725.21Zm0-1.8c-1.14,0-1.785-1.02-1.785-2.6s.645-2.625,1.785-2.625,1.785,1.035,1.785,2.625S-36.585-1.59-37.725-1.59Zm7.245,4.965c1.875,0,2.775-1.14,3.51-3.12L-23.985-8.4H-26.1l-1.155,3.9c-.195.78-.405,1.59-.6,2.37h-.075c-.24-.81-.45-1.62-.705-2.37L-29.97-8.4h-2.22l3.27,8.25-.15.5A1.608,1.608,0,0,1-30.645,1.62a2.259,2.259,0,0,1-.585-.1l-.405,1.7A3.557,3.557,0,0,0-30.48,3.375ZM-20.13.21A3.95,3.95,0,0,0-17.595-.9h.045l.165.9h1.8V-4.905c0-2.43-1.1-3.7-3.225-3.7A6.711,6.711,0,0,0-22.32-7.5l.8,1.455a4.746,4.746,0,0,1,2.31-.8c1.035,0,1.4.63,1.425,1.455-3.375.36-4.83,1.3-4.83,3.105A2.386,2.386,0,0,0-20.13.21Zm.72-1.725c-.645,0-1.11-.285-1.11-.945,0-.75.69-1.305,2.73-1.575v1.7A2.227,2.227,0,0,1-19.41-1.515Zm13.245-3.06.33-1.215c.33-1.155.66-2.415.945-3.63h.06c.33,1.2.63,2.475.975,3.63l.33,1.215ZM-2.265,0H.06L-3.51-11.1H-6.12L-9.675,0h2.25l.78-2.85h3.6ZM4.89,3.645C7.7,3.645,9.45,2.355,9.45.66c0-1.47-1.1-2.1-3.12-2.1H4.905c-.99,0-1.32-.24-1.32-.69a.837.837,0,0,1,.36-.72,3.577,3.577,0,0,0,1.08.2c1.8,0,3.24-.96,3.24-2.85a2.113,2.113,0,0,0-.39-1.275h1.44V-8.4H6.285a3.951,3.951,0,0,0-1.26-.21,3.1,3.1,0,0,0-3.39,3.045,2.776,2.776,0,0,0,1.11,2.19v.06a2.084,2.084,0,0,0-.93,1.575A1.592,1.592,0,0,0,2.58-.33v.075a2.039,2.039,0,0,0-1.2,1.74C1.38,2.97,2.91,3.645,4.89,3.645ZM5.025-4.02a1.363,1.363,0,0,1-1.32-1.545c0-.99.57-1.545,1.32-1.545s1.3.555,1.3,1.545S5.76-4.02,5.025-4.02ZM5.22,2.25c-1.23,0-2.01-.4-2.01-1.11A1.26,1.26,0,0,1,3.765.165a4.741,4.741,0,0,0,1.17.12h1.02c.9,0,1.4.15,1.4.75C7.35,1.7,6.48,2.25,5.22,2.25ZM12.885.21a1.381,1.381,0,0,0,1.38-1.44,1.381,1.381,0,0,0-1.38-1.44A1.379,1.379,0,0,0,11.52-1.23,1.379,1.379,0,0,0,12.885.21ZM26.13.21a4.492,4.492,0,0,0,3.54-1.635L28.5-2.805A3.086,3.086,0,0,1,26.205-1.71c-1.755,0-2.9-1.455-2.9-3.87,0-2.385,1.26-3.825,2.94-3.825a2.863,2.863,0,0,1,2.04.93l1.17-1.41a4.528,4.528,0,0,0-3.255-1.425c-2.805,0-5.16,2.145-5.16,5.805C21.045-1.8,23.325.21,26.13.21Zm9.54,0a5.3,5.3,0,0,0,2.94-.93l-.75-1.35a3.462,3.462,0,0,1-1.89.585,2.207,2.207,0,0,1-2.325-2.1H38.82a4.1,4.1,0,0,0,.1-1.005c0-2.325-1.2-4.02-3.51-4.02A4.112,4.112,0,0,0,31.5-4.185,4.07,4.07,0,0,0,35.67.21ZM33.615-5.04a1.894,1.894,0,0,1,1.83-1.86c1.08,0,1.59.72,1.59,1.86ZM41.49,0h2.19V-5.775a2.413,2.413,0,0,1,1.755-.945c.825,0,1.185.465,1.185,1.755V0h2.2V-5.235c0-2.115-.78-3.375-2.6-3.375A3.872,3.872,0,0,0,43.5-7.29h-.06L43.29-8.4h-1.8ZM54.93.21A5.428,5.428,0,0,0,56.7-.105L56.34-1.71a2.454,2.454,0,0,1-.825.18c-.75,0-1.14-.45-1.14-1.41V-6.66h2.07V-8.4h-2.07v-2.25H52.53L52.275-8.4l-1.29.1V-6.66H52.17v3.72C52.17-1.05,52.935.21,54.93.21Zm7.335,0a5.3,5.3,0,0,0,2.94-.93l-.75-1.35a3.462,3.462,0,0,1-1.89.585,2.207,2.207,0,0,1-2.325-2.1h5.175a4.1,4.1,0,0,0,.1-1.005c0-2.325-1.2-4.02-3.51-4.02A4.112,4.112,0,0,0,58.1-4.185,4.07,4.07,0,0,0,62.265.21ZM60.21-5.04A1.894,1.894,0,0,1,62.04-6.9c1.08,0,1.59.72,1.59,1.86ZM68.085,0h2.19V-5.01c.48-1.215,1.275-1.65,1.935-1.65a2.647,2.647,0,0,1,.87.135l.39-1.9a2.376,2.376,0,0,0-.99-.18A2.91,2.91,0,0,0,70.1-6.915h-.06L69.885-8.4h-1.8Z" transform="translate(78.027 17.081)" fill="#fff"/>
        </g>
        <g id="spot-4" data-name="spot" transform="translate(47.272)">
          <g id="マスクグループ_43-4" data-name="マスクグループ 43" transform="translate(23.636 29.735)" clip-path="url(#clip-path-6)">
            <path id="パス_1429-4" data-name="パス 1429" d="M73.884,0A19.207,19.207,0,0,0,54.7,19.185C54.7,35.89,73.884,48.8,73.884,48.8S93.069,35.89,93.069,19.185A19.207,19.207,0,0,0,73.884,0Zm0,26.925a7.74,7.74,0,1,1,7.74-7.74A7.74,7.74,0,0,1,73.884,26.925Z" transform="translate(-49.362 0)" fill="#b66363"/>
          </g>
          <path id="パス_2499" data-name="パス 2499" d="M-110.565,0h2.22V-4.8h4.2V0h2.2V-11.1h-2.2v4.365h-4.2V-11.1h-2.22ZM-98.64,0h2.19V-8.4h-2.19Zm1.11-9.75a1.221,1.221,0,0,0,1.305-1.2,1.2,1.2,0,0,0-1.305-1.2,1.208,1.208,0,0,0-1.32,1.2A1.226,1.226,0,0,0-97.53-9.75Zm7.155,13.4c2.805,0,4.56-1.29,4.56-2.985,0-1.47-1.1-2.1-3.12-2.1H-90.36c-.99,0-1.32-.24-1.32-.69a.837.837,0,0,1,.36-.72,3.577,3.577,0,0,0,1.08.2c1.8,0,3.24-.96,3.24-2.85a2.113,2.113,0,0,0-.39-1.275h1.44V-8.4h-3.03a3.951,3.951,0,0,0-1.26-.21,3.1,3.1,0,0,0-3.39,3.045,2.776,2.776,0,0,0,1.11,2.19v.06a2.084,2.084,0,0,0-.93,1.575,1.592,1.592,0,0,0,.765,1.41v.075a2.039,2.039,0,0,0-1.2,1.74C-93.885,2.97-92.355,3.645-90.375,3.645Zm.135-7.665a1.363,1.363,0,0,1-1.32-1.545c0-.99.57-1.545,1.32-1.545s1.305.555,1.305,1.545S-89.505-4.02-90.24-4.02Zm.195,6.27c-1.23,0-2.01-.4-2.01-1.11A1.26,1.26,0,0,1-91.5.165a4.741,4.741,0,0,0,1.17.12h1.02c.9,0,1.395.15,1.395.75C-87.915,1.7-88.785,2.25-90.045,2.25ZM-81.87.21A3.95,3.95,0,0,0-79.335-.9h.045l.165.9h1.8V-4.905c0-2.43-1.1-3.7-3.225-3.7A6.71,6.71,0,0,0-84.06-7.5l.795,1.455a4.746,4.746,0,0,1,2.31-.8c1.035,0,1.4.63,1.425,1.455-3.375.36-4.83,1.3-4.83,3.105A2.386,2.386,0,0,0-81.87.21Zm.72-1.725c-.645,0-1.11-.285-1.11-.945,0-.75.69-1.305,2.73-1.575v1.7A2.227,2.227,0,0,1-81.15-1.515ZM-71.925.21c2.19,0,3.345-1.185,3.345-2.655,0-1.56-1.23-2.115-2.34-2.535-.885-.33-1.71-.555-1.71-1.17,0-.48.36-.81,1.11-.81a3.234,3.234,0,0,1,1.815.72l.99-1.335A4.7,4.7,0,0,0-71.58-8.61c-1.89,0-3.12,1.065-3.12,2.58,0,1.395,1.23,2.04,2.3,2.445.885.345,1.755.63,1.755,1.26,0,.525-.375.885-1.215.885a3.647,3.647,0,0,1-2.25-.915l-1,1.38A5.293,5.293,0,0,0-71.925.21ZM-66.15,0h2.19V-5.775a2.413,2.413,0,0,1,1.755-.945c.825,0,1.185.465,1.185,1.755V0h2.2V-5.235c0-2.115-.78-3.375-2.6-3.375a3.823,3.823,0,0,0-2.64,1.23l.09-1.575V-11.97h-2.19ZM-55.8,0h2.19V-8.4H-55.8Zm1.11-9.75a1.221,1.221,0,0,0,1.3-1.2,1.2,1.2,0,0,0-1.3-1.2,1.208,1.208,0,0,0-1.32,1.2A1.226,1.226,0,0,0-54.69-9.75Zm4.935,13.125c1.875,0,2.775-1.14,3.51-3.12L-43.26-8.4h-2.115L-46.53-4.5c-.195.78-.4,1.59-.6,2.37h-.075c-.24-.81-.45-1.62-.705-2.37l-1.335-3.9h-2.22L-48.2-.15l-.15.5A1.608,1.608,0,0,1-49.92,1.62a2.259,2.259,0,0,1-.585-.1l-.4,1.7A3.557,3.557,0,0,0-49.755,3.375ZM-39.405.21A3.95,3.95,0,0,0-36.87-.9h.045l.165.9h1.8V-4.905c0-2.43-1.095-3.7-3.225-3.7A6.711,6.711,0,0,0-41.6-7.5l.8,1.455a4.746,4.746,0,0,1,2.31-.8c1.035,0,1.4.63,1.425,1.455-3.375.36-4.83,1.3-4.83,3.105A2.386,2.386,0,0,0-39.405.21Zm.72-1.725c-.645,0-1.11-.285-1.11-.945,0-.75.69-1.305,2.73-1.575v1.7A2.227,2.227,0,0,1-38.685-1.515ZM-31.86,0h2.19V-5.775a2.451,2.451,0,0,1,1.62-.945c.8,0,1.17.465,1.17,1.755V0h2.2V-5.775a2.451,2.451,0,0,1,1.62-.945c.8,0,1.17.465,1.17,1.755V0h2.205V-5.235c0-2.115-.825-3.375-2.61-3.375a3.725,3.725,0,0,0-2.67,1.47,2.286,2.286,0,0,0-2.31-1.47,3.537,3.537,0,0,0-2.58,1.335h-.06L-30.06-8.4h-1.8Zm17.28.21A3.95,3.95,0,0,0-12.045-.9H-12l.165.9h1.8V-4.905c0-2.43-1.1-3.7-3.225-3.7A6.711,6.711,0,0,0-16.77-7.5l.8,1.455a4.746,4.746,0,0,1,2.31-.8c1.035,0,1.4.63,1.425,1.455-3.375.36-4.83,1.3-4.83,3.105A2.386,2.386,0,0,0-14.58.21Zm.72-1.725c-.645,0-1.11-.285-1.11-.945,0-.75.69-1.305,2.73-1.575v1.7A2.227,2.227,0,0,1-13.86-1.515ZM-3.42,0H4.53V-1.86H-.69L4.47-9.78V-11.1H-2.925v1.845h4.68L-3.42-1.335ZM10.3.21a4.093,4.093,0,0,0,4.035-4.4A4.1,4.1,0,0,0,10.3-8.61,4.1,4.1,0,0,0,6.27-4.185,4.093,4.093,0,0,0,10.3.21Zm0-1.8c-1.14,0-1.785-1.02-1.785-2.6S9.165-6.81,10.3-6.81,12.09-5.775,12.09-4.185,11.445-1.59,10.3-1.59ZM20.445.21a4.093,4.093,0,0,0,4.035-4.4A4.1,4.1,0,0,0,20.445-8.61,4.1,4.1,0,0,0,16.41-4.185,4.093,4.093,0,0,0,20.445.21Zm0-1.8c-1.14,0-1.785-1.02-1.785-2.6S19.3-6.81,20.445-6.81,22.23-5.775,22.23-4.185,21.585-1.59,20.445-1.59Zm12.15-1.485a2.134,2.134,0,0,1,.915-1.56,15.713,15.713,0,0,0,2.505,2.6,3.008,3.008,0,0,1-1.62.555A1.623,1.623,0,0,1,32.595-3.075ZM33.7-8.49c0-.825.465-1.35,1.11-1.35.585,0,.84.4.84.96,0,.81-.675,1.35-1.545,1.875A3.461,3.461,0,0,1,33.7-8.49Zm7.125,6.9a6.74,6.74,0,0,1-1.965-.8A12.2,12.2,0,0,0,40.74-6.2H38.745a8.371,8.371,0,0,1-1.365,2.82,14.052,14.052,0,0,1-2.4-2.31c1.185-.825,2.385-1.74,2.385-3.21a2.346,2.346,0,0,0-2.58-2.415,2.766,2.766,0,0,0-2.91,2.82,5.238,5.238,0,0,0,.7,2.4,3.683,3.683,0,0,0-2.085,3.15c0,1.725,1.305,3.15,3.63,3.15a5.371,5.371,0,0,0,3.4-1.17A8.964,8.964,0,0,0,40.29.21ZM52.17.21a5.227,5.227,0,0,0,3.6-1.335v-5.01H51.825V-4.32H53.79v2.19a2.238,2.238,0,0,1-1.4.42c-2.175,0-3.285-1.455-3.285-3.87,0-2.385,1.29-3.825,3.135-3.825a2.915,2.915,0,0,1,2.175.93L55.6-9.885A4.671,4.671,0,0,0,52.17-11.31c-2.955,0-5.325,2.145-5.325,5.805C46.845-1.8,49.14.21,52.17.21Zm8.625,0A3.95,3.95,0,0,0,63.33-.9h.045l.165.9h1.8V-4.905c0-2.43-1.1-3.7-3.225-3.7A6.711,6.711,0,0,0,58.6-7.5l.8,1.455a4.746,4.746,0,0,1,2.31-.8c1.035,0,1.4.63,1.425,1.455-3.375.36-4.83,1.3-4.83,3.105A2.386,2.386,0,0,0,60.795.21Zm.72-1.725c-.645,0-1.11-.285-1.11-.945,0-.75.69-1.305,2.73-1.575v1.7A2.227,2.227,0,0,1,61.515-1.515ZM68.34,0h2.19V-5.01c.48-1.215,1.275-1.65,1.935-1.65a2.647,2.647,0,0,1,.87.135l.39-1.9a2.376,2.376,0,0,0-.99-.18A2.91,2.91,0,0,0,70.35-6.915h-.06L70.14-8.4h-1.8ZM78.4.21A3.484,3.484,0,0,0,80.73-.87h.045l.18.87H82.74V-11.97H80.535v2.955l.09,1.32A2.891,2.891,0,0,0,78.5-8.61c-1.815,0-3.525,1.68-3.525,4.425S76.32.21,78.4.21Zm.57-1.815c-1.11,0-1.74-.87-1.74-2.61,0-1.68.795-2.58,1.74-2.58a2.232,2.232,0,0,1,1.56.63v3.69A1.869,1.869,0,0,1,78.975-1.605ZM89.505.21a5.3,5.3,0,0,0,2.94-.93L91.7-2.07a3.462,3.462,0,0,1-1.89.585,2.207,2.207,0,0,1-2.325-2.1h5.175a4.1,4.1,0,0,0,.1-1.005c0-2.325-1.2-4.02-3.51-4.02a4.112,4.112,0,0,0-3.915,4.425A4.07,4.07,0,0,0,89.505.21ZM87.45-5.04A1.894,1.894,0,0,1,89.28-6.9c1.08,0,1.59.72,1.59,1.86ZM95.325,0h2.19V-5.775A2.413,2.413,0,0,1,99.27-6.72c.825,0,1.185.465,1.185,1.755V0h2.205V-5.235c0-2.115-.78-3.375-2.6-3.375a3.872,3.872,0,0,0-2.73,1.32h-.06l-.15-1.11h-1.8ZM108.09.21c2.19,0,3.345-1.185,3.345-2.655,0-1.56-1.23-2.115-2.34-2.535-.885-.33-1.71-.555-1.71-1.17,0-.48.36-.81,1.11-.81a3.234,3.234,0,0,1,1.815.72l.99-1.335a4.7,4.7,0,0,0-2.865-1.035c-1.89,0-3.12,1.065-3.12,2.58,0,1.395,1.23,2.04,2.3,2.445.885.345,1.755.63,1.755,1.26,0,.525-.375.885-1.215.885a3.647,3.647,0,0,1-2.25-.915l-1,1.38A5.293,5.293,0,0,0,108.09.21Z" transform="translate(47.23 17.461)" fill="#fff"/>
        </g>
        <g id="spot-5" data-name="spot" transform="translate(0 585.559)">
          <g id="マスクグループ_43-5" data-name="マスクグループ 43" transform="translate(23.636 29.735)" clip-path="url(#clip-path-7)">
            <path id="パス_1429-5" data-name="パス 1429" d="M73.884,0A19.207,19.207,0,0,0,54.7,19.185C54.7,35.89,73.884,48.8,73.884,48.8S93.069,35.89,93.069,19.185A19.207,19.207,0,0,0,73.884,0Zm0,26.925a7.74,7.74,0,1,1,7.74-7.74A7.74,7.74,0,0,1,73.884,26.925Z" transform="translate(-49.362 0)" fill="#b66363"/>
          </g>
          <path id="パス_2509" data-name="パス 2509" d="M-43.132.21C-40.193.21-38.167-2-38.167-5.6s-2.025-5.715-4.965-5.715S-48.1-9.21-48.1-5.6-46.073.21-43.132.21Zm0-1.92c-1.65,0-2.7-1.515-2.7-3.885s1.05-3.81,2.7-3.81,2.7,1.425,2.7,3.81S-41.483-1.71-43.132-1.71Zm9.78,1.92A3.95,3.95,0,0,0-30.818-.9h.045l.165.9h1.8V-4.905c0-2.43-1.1-3.7-3.225-3.7a6.711,6.711,0,0,0-3.51,1.11l.8,1.455a4.746,4.746,0,0,1,2.31-.8c1.035,0,1.395.63,1.425,1.455-3.375.36-4.83,1.3-4.83,3.105A2.386,2.386,0,0,0-33.353.21Zm.72-1.725c-.645,0-1.11-.285-1.11-.945,0-.75.69-1.305,2.73-1.575v1.7A2.227,2.227,0,0,1-32.633-1.515ZM-23.408.21c2.19,0,3.345-1.185,3.345-2.655,0-1.56-1.23-2.115-2.34-2.535-.885-.33-1.71-.555-1.71-1.17,0-.48.36-.81,1.11-.81a3.234,3.234,0,0,1,1.815.72l.99-1.335A4.7,4.7,0,0,0-23.062-8.61c-1.89,0-3.12,1.065-3.12,2.58,0,1.395,1.23,2.04,2.3,2.445.885.345,1.755.63,1.755,1.26,0,.525-.375.885-1.215.885a3.647,3.647,0,0,1-2.25-.915L-26.6-.975A5.293,5.293,0,0,0-23.408.21ZM-17.633,0h2.19V-8.4h-2.19Zm1.11-9.75a1.221,1.221,0,0,0,1.305-1.2,1.2,1.2,0,0,0-1.305-1.2,1.208,1.208,0,0,0-1.32,1.2A1.226,1.226,0,0,0-16.523-9.75Zm6.6,9.96c2.19,0,3.345-1.185,3.345-2.655,0-1.56-1.23-2.115-2.34-2.535-.885-.33-1.71-.555-1.71-1.17,0-.48.36-.81,1.11-.81A3.234,3.234,0,0,1-7.7-6.24l.99-1.335A4.7,4.7,0,0,0-9.577-8.61c-1.89,0-3.12,1.065-3.12,2.58,0,1.395,1.23,2.04,2.3,2.445.885.345,1.755.63,1.755,1.26,0,.525-.375.885-1.215.885a3.647,3.647,0,0,1-2.25-.915l-1.005,1.38A5.293,5.293,0,0,0-9.922.21ZM.187,0h2.22V-4.5H6.352V-6.36H2.407v-2.9h4.62V-11.1H.187Zm12.57.21a4.093,4.093,0,0,0,4.035-4.4A4.1,4.1,0,0,0,12.757-8.61,4.1,4.1,0,0,0,8.722-4.185,4.093,4.093,0,0,0,12.757.21Zm0-1.8c-1.14,0-1.785-1.02-1.785-2.6s.645-2.625,1.785-2.625,1.785,1.035,1.785,2.625S13.9-1.59,12.757-1.59ZM19.387,0h2.19V-5.01c.48-1.215,1.275-1.65,1.935-1.65a2.647,2.647,0,0,1,.87.135l.39-1.9a2.376,2.376,0,0,0-.99-.18A2.91,2.91,0,0,0,21.4-6.915h-.06L21.188-8.4h-1.8ZM30.142.21a5.3,5.3,0,0,0,2.94-.93l-.75-1.35a3.462,3.462,0,0,1-1.89.585,2.207,2.207,0,0,1-2.325-2.1h5.175a4.1,4.1,0,0,0,.1-1.005c0-2.325-1.2-4.02-3.51-4.02a4.112,4.112,0,0,0-3.915,4.425A4.07,4.07,0,0,0,30.142.21ZM28.087-5.04a1.894,1.894,0,0,1,1.83-1.86c1.08,0,1.59.72,1.59,1.86ZM38.362.21c2.19,0,3.345-1.185,3.345-2.655,0-1.56-1.23-2.115-2.34-2.535-.885-.33-1.71-.555-1.71-1.17,0-.48.36-.81,1.11-.81a3.234,3.234,0,0,1,1.815.72l.99-1.335A4.7,4.7,0,0,0,38.707-8.61c-1.89,0-3.12,1.065-3.12,2.58,0,1.395,1.23,2.04,2.295,2.445.885.345,1.755.63,1.755,1.26,0,.525-.375.885-1.215.885a3.647,3.647,0,0,1-2.25-.915L35.167-.975A5.293,5.293,0,0,0,38.362.21Zm8.505,0a5.428,5.428,0,0,0,1.77-.315l-.36-1.605a2.454,2.454,0,0,1-.825.18c-.75,0-1.14-.45-1.14-1.41V-6.66h2.07V-8.4h-2.07v-2.25H44.467L44.212-8.4l-1.29.1V-6.66h1.185v3.72C44.107-1.05,44.872.21,46.868.21Z" transform="translate(46.502 16.903)" fill="#fff"/>
        </g>
        <g id="spot-6" data-name="spot" transform="translate(734.999 624.444)">
          <g id="マスクグループ_43-6" data-name="マスクグループ 43" transform="translate(39.647 29.735)" clip-path="url(#clip-path-8)">
            <path id="パス_2386-2" data-name="パス 2386" d="M-2645.459-16889.562a19.208,19.208,0,0,1,19.185-19.186,19.212,19.212,0,0,1,19.185,19.186c0,16.709-19.185,29.611-19.185,29.611S-2645.459-16872.854-2645.459-16889.562Z" transform="translate(2650.796 16908.748)" fill="#63b67c"/>
            <path id="パス_2387-2" data-name="パス 2387" d="M1.025,6.173V-10.021H4.3v6.374H10.7v-6.374h3.27V6.173H10.7V-.908H4.3V6.173Z" transform="translate(17.731 23.439)" fill="#fff"/>
          </g>
          <path id="パス_2506" data-name="パス 2506" d="M-56.152,0h2.715l1.215-5.49c.18-.87.33-1.725.48-2.565h.06c.135.84.3,1.695.48,2.565L-49.957,0h2.76l2.055-11.1h-2.115l-.87,5.415c-.165,1.155-.33,2.34-.495,3.54H-48.7c-.24-1.2-.465-2.4-.7-3.54l-1.29-5.415h-1.89l-1.29,5.415c-.24,1.155-.48,2.355-.7,3.54h-.06c-.165-1.185-.345-2.37-.51-3.54l-.885-5.415H-58.3ZM-39.4.21a4.093,4.093,0,0,0,4.035-4.4A4.1,4.1,0,0,0-39.4-8.61a4.1,4.1,0,0,0-4.035,4.425A4.093,4.093,0,0,0-39.4.21Zm0-1.8c-1.14,0-1.785-1.02-1.785-2.6S-40.537-6.81-39.4-6.81s1.785,1.035,1.785,2.625S-38.257-1.59-39.4-1.59ZM-32.767,0h2.19V-5.775a2.413,2.413,0,0,1,1.755-.945c.825,0,1.185.465,1.185,1.755V0h2.2V-5.235c0-2.115-.78-3.375-2.6-3.375a3.872,3.872,0,0,0-2.73,1.32h-.06l-.15-1.11h-1.8Zm13.32.21A3.484,3.484,0,0,0-17.122-.87h.045l.18.87h1.785V-11.97h-2.2v2.955l.09,1.32a2.891,2.891,0,0,0-2.13-.915c-1.815,0-3.525,1.68-3.525,4.425S-21.532.21-19.447.21Zm.57-1.815c-1.11,0-1.74-.87-1.74-2.61,0-1.68.795-2.58,1.74-2.58a2.232,2.232,0,0,1,1.56.63v3.69A1.869,1.869,0,0,1-18.877-1.605ZM-8.347.21a5.3,5.3,0,0,0,2.94-.93l-.75-1.35a3.462,3.462,0,0,1-1.89.585,2.207,2.207,0,0,1-2.325-2.1H-5.2A4.1,4.1,0,0,0-5.092-4.59c0-2.325-1.2-4.02-3.51-4.02a4.112,4.112,0,0,0-3.915,4.425A4.07,4.07,0,0,0-8.347.21ZM-10.4-5.04A1.894,1.894,0,0,1-8.572-6.9c1.08,0,1.59.72,1.59,1.86ZM-2.527,0h2.19V-5.01C.143-6.225.938-6.66,1.6-6.66a2.647,2.647,0,0,1,.87.135l.39-1.9a2.376,2.376,0,0,0-.99-.18A2.91,2.91,0,0,0-.517-6.915h-.06L-.727-8.4h-1.8Zm9.57.21c2.19,0,3.345-1.185,3.345-2.655,0-1.56-1.23-2.115-2.34-2.535-.885-.33-1.71-.555-1.71-1.17,0-.48.36-.81,1.11-.81a3.234,3.234,0,0,1,1.815.72l.99-1.335A4.7,4.7,0,0,0,7.388-8.61c-1.89,0-3.12,1.065-3.12,2.58,0,1.395,1.23,2.04,2.3,2.445.885.345,1.755.63,1.755,1.26,0,.525-.375.885-1.215.885a3.647,3.647,0,0,1-2.25-.915l-1,1.38A5.293,5.293,0,0,0,7.043.21ZM17.153,0h2.22V-4.8h4.2V0h2.2V-11.1h-2.2v4.365h-4.2V-11.1h-2.22ZM32.587.21a4.093,4.093,0,0,0,4.035-4.4A4.1,4.1,0,0,0,32.587-8.61a4.1,4.1,0,0,0-4.035,4.425A4.093,4.093,0,0,0,32.587.21Zm0-1.8c-1.14,0-1.785-1.02-1.785-2.6s.645-2.625,1.785-2.625,1.785,1.035,1.785,2.625S33.727-1.59,32.587-1.59ZM41.872.21a5.428,5.428,0,0,0,1.77-.315l-.36-1.605a2.454,2.454,0,0,1-.825.18c-.75,0-1.14-.45-1.14-1.41V-6.66h2.07V-8.4h-2.07v-2.25H39.472L39.217-8.4l-1.29.1V-6.66h1.185v3.72C39.112-1.05,39.877.21,41.872.21Zm7.335,0a5.3,5.3,0,0,0,2.94-.93L51.4-2.07a3.462,3.462,0,0,1-1.89.585,2.207,2.207,0,0,1-2.325-2.1h5.175a4.1,4.1,0,0,0,.105-1.005c0-2.325-1.2-4.02-3.51-4.02a4.112,4.112,0,0,0-3.915,4.425A4.07,4.07,0,0,0,49.208.21ZM47.153-5.04a1.894,1.894,0,0,1,1.83-1.86c1.08,0,1.59.72,1.59,1.86ZM57.1.21a3,3,0,0,0,1.14-.2l-.27-1.635a1.243,1.243,0,0,1-.3.03c-.21,0-.45-.165-.45-.66v-9.72h-2.19v9.615C55.027-.8,55.567.21,57.1.21Z" transform="translate(61.504 17.018)" fill="#fff"/>
        </g>
        <g id="spot-7" data-name="spot" transform="translate(294.304 309.553)">
          <g id="マスクグループ_43-7" data-name="マスクグループ 43" transform="translate(16.011 29.735)" clip-path="url(#clip-path-9)">
            <path id="パス_1429-6" data-name="パス 1429" d="M73.884,0A19.207,19.207,0,0,0,54.7,19.185C54.7,35.89,73.884,48.8,73.884,48.8S93.069,35.89,93.069,19.185A19.207,19.207,0,0,0,73.884,0Zm0,26.925a7.74,7.74,0,1,1,7.74-7.74A7.74,7.74,0,0,1,73.884,26.925Z" transform="translate(-49.362 0)" fill="#b66363"/>
          </g>
          <path id="パス_2500" data-name="パス 2500" d="M-63.247,0h2.22V-11.1h-2.22Zm5.52,0h2.19V-5.775a2.413,2.413,0,0,1,1.755-.945c.825,0,1.185.465,1.185,1.755V0h2.205V-5.235c0-2.115-.78-3.375-2.6-3.375a3.872,3.872,0,0,0-2.73,1.32h-.06l-.15-1.11h-1.8Zm12.435.21A3.95,3.95,0,0,0-42.757-.9h.045l.165.9h1.8V-4.905c0-2.43-1.095-3.7-3.225-3.7a6.711,6.711,0,0,0-3.51,1.11l.8,1.455a4.746,4.746,0,0,1,2.31-.8c1.035,0,1.395.63,1.425,1.455-3.375.36-4.83,1.3-4.83,3.105A2.386,2.386,0,0,0-45.292.21Zm.72-1.725c-.645,0-1.11-.285-1.11-.945,0-.75.69-1.305,2.73-1.575v1.7A2.227,2.227,0,0,1-44.572-1.515ZM-33.532.21c1.845,0,3.57-1.665,3.57-4.56,0-2.565-1.245-4.26-3.315-4.26a3.584,3.584,0,0,0-2.325,1l.045-1.35V-11.97h-2.19V0h1.725l.195-.885h.045A3.268,3.268,0,0,0-33.532.21Zm-.5-1.815a2.322,2.322,0,0,1-1.53-.63v-3.69a2.368,2.368,0,0,1,1.665-.87c1.155,0,1.665.885,1.665,2.49C-32.227-2.475-33.007-1.605-34.027-1.605ZM-25.477.21A3.95,3.95,0,0,0-22.942-.9h.045l.165.9h1.8V-4.905c0-2.43-1.1-3.7-3.225-3.7a6.711,6.711,0,0,0-3.51,1.11l.8,1.455a4.746,4.746,0,0,1,2.31-.8c1.035,0,1.4.63,1.425,1.455-3.375.36-4.83,1.3-4.83,3.105A2.386,2.386,0,0,0-25.477.21Zm.72-1.725c-.645,0-1.11-.285-1.11-.945,0-.75.69-1.305,2.73-1.575v1.7A2.227,2.227,0,0,1-24.757-1.515Zm7.56,4.89c1.875,0,2.775-1.14,3.51-3.12L-10.7-8.4h-2.115l-1.155,3.9c-.195.78-.405,1.59-.6,2.37h-.075c-.24-.81-.45-1.62-.7-2.37l-1.335-3.9h-2.22l3.27,8.25-.15.5A1.608,1.608,0,0,1-17.362,1.62a2.259,2.259,0,0,1-.585-.1l-.405,1.7A3.557,3.557,0,0,0-17.2,3.375ZM-6.848.21A3.95,3.95,0,0,0-4.313-.9h.045L-4.1,0h1.8V-4.905c0-2.43-1.1-3.7-3.225-3.7A6.711,6.711,0,0,0-9.038-7.5l.8,1.455a4.746,4.746,0,0,1,2.31-.8c1.035,0,1.395.63,1.425,1.455-3.375.36-4.83,1.3-4.83,3.105A2.386,2.386,0,0,0-6.848.21Zm.72-1.725c-.645,0-1.11-.285-1.11-.945,0-.75.69-1.305,2.73-1.575v1.7A2.227,2.227,0,0,1-6.128-1.515ZM.7,0h2.19V-5.775a2.451,2.451,0,0,1,1.62-.945c.8,0,1.17.465,1.17,1.755V0H7.882V-5.775A2.451,2.451,0,0,1,9.5-6.72c.8,0,1.17.465,1.17,1.755V0h2.205V-5.235c0-2.115-.825-3.375-2.61-3.375A3.725,3.725,0,0,0,7.6-7.14a2.286,2.286,0,0,0-2.31-1.47,3.537,3.537,0,0,0-2.58,1.335h-.06L2.5-8.4H.7Zm17.28.21A3.95,3.95,0,0,0,20.512-.9h.045l.165.9h1.8V-4.905c0-2.43-1.1-3.7-3.225-3.7a6.711,6.711,0,0,0-3.51,1.11l.8,1.455a4.746,4.746,0,0,1,2.31-.8c1.035,0,1.4.63,1.425,1.455-3.375.36-4.83,1.3-4.83,3.105A2.386,2.386,0,0,0,17.977.21Zm.72-1.725c-.645,0-1.11-.285-1.11-.945,0-.75.69-1.305,2.73-1.575v1.7A2.227,2.227,0,0,1,18.7-1.515ZM29.857,0h2.22V-3.945h1.485c2.385,0,4.29-1.14,4.29-3.675,0-2.625-1.89-3.48-4.35-3.48H29.857Zm2.22-5.7V-9.345h1.26c1.53,0,2.34.435,2.34,1.725,0,1.275-.735,1.92-2.265,1.92ZM41.887.21A3.95,3.95,0,0,0,44.422-.9h.045l.165.9h1.8V-4.905c0-2.43-1.095-3.7-3.225-3.7A6.711,6.711,0,0,0,39.7-7.5l.8,1.455a4.746,4.746,0,0,1,2.31-.8c1.035,0,1.4.63,1.425,1.455-3.375.36-4.83,1.3-4.83,3.105A2.386,2.386,0,0,0,41.887.21Zm.72-1.725c-.645,0-1.11-.285-1.11-.945,0-.75.69-1.305,2.73-1.575v1.7A2.227,2.227,0,0,1,42.607-1.515ZM49.432,0h2.19V-5.01c.48-1.215,1.275-1.65,1.935-1.65a2.647,2.647,0,0,1,.87.135l.39-1.9a2.376,2.376,0,0,0-.99-.18,2.91,2.91,0,0,0-2.385,1.695h-.06L51.232-8.4h-1.8Zm7.29,0h2.145V-2.1l1.215-1.38L62.122,0h2.385l-3.18-4.965L64.237-8.4h-2.4l-2.91,3.63h-.06v-7.2H56.722Z" transform="translate(39.198 16.909)" fill="#fff"/>
        </g>
      </g>
    </g>
  </g>
</svg>
