<svg xmlns="http://www.w3.org/2000/svg" xmlns:xlink="http://www.w3.org/1999/xlink" width="50" height="50" viewBox="0 0 50 50">
  <defs>
    <clipPath id="clip-path">
      <rect id="長方形_314" data-name="長方形 314" width="50" height="50" transform="translate(-5327.935 1038.85)" fill="#fff" stroke="#707070" stroke-width="1"/>
    </clipPath>
  </defs>
  <g id="nerve_icon_06" transform="translate(5327.935 -1038.85)" clip-path="url(#clip-path)">
    <path id="パス_719" data-name="パス 719" d="M1754.118,1710.591a.591.591,0,0,0,.418-1.009l-5.75-5.75h4.254a.591.591,0,0,0,.418-1.009l-6.384-6.384a.591.591,0,1,0-.836.835l5.375,5.375h-4.253a.591.591,0,0,0-.418,1.009l6.759,6.758a.588.588,0,0,0,.418.173" transform="translate(-7068.166 -649.686)" fill="#fff"/>
    <path id="パス_720" data-name="パス 720" d="M1764.179,1734.118a.591.591,0,0,0-.783-.885c-4.543,4.021-10.764,9.527-9.429,22.263a.591.591,0,0,0,.587.529c.021,0,.042,0,.063,0a.591.591,0,0,0,.526-.649c-1.272-12.131,4.686-17.4,9.037-21.255" transform="translate(-7073.129 -673.361)" fill="#fff"/>
    <path id="パス_721" data-name="パス 721" d="M1796,1687.778l-1.284-1.832a2.81,2.81,0,0,1-.513-1.614,9.764,9.764,0,0,0-9.855-9.727c-8.908,0-11.674,7.279-9.4,12.426.359.812.8,1.6,1.2,2.39a6.114,6.114,0,0,1-1.213,7.117c-4.745,4.583-11.619,8.371-10.3,20.955.249,2.372.872,4.713.9,7.112H1773l1.1-15.541c.608-8.35,5.487-8.3,5.694-8.286a.591.591,0,0,1,.572.609.581.581,0,0,1-.605.572c-.156.007-3.962.034-4.483,7.19l-1.09,15.457h13.2s1.7-12.434,1.3-18.438c-.172-2.637-.391-5.706-1.922-7.859L1788.1,1695a12.132,12.132,0,0,0,5.3.263,1.44,1.44,0,0,0,1.22-1.424v-3.676a2.815,2.815,0,0,0,1.343-.89,1.25,1.25,0,0,0,.035-1.5" transform="translate(-7079.998 -635.756)" fill="#fff"/>
  </g>
</svg>
