<svg xmlns="http://www.w3.org/2000/svg" xmlns:xlink="http://www.w3.org/1999/xlink" width="50" height="50" viewBox="0 0 50 50">
  <defs>
    <clipPath id="clip-path">
      <rect id="長方形_314" data-name="長方形 314" width="50" height="50" transform="translate(-5327.935 1038.85)" fill="#fff" stroke="#707070" stroke-width="1"/>
    </clipPath>
  </defs>
  <g id="nerve_icon_03" transform="translate(5327.935 -1038.85)" clip-path="url(#clip-path)">
    <path id="パス_1785" data-name="パス 1785" d="M-8480.031-9890.946c.032,0,8.274-2.018,11.327-3.159a1.6,1.6,0,0,1,2.135,1.206l.077.434a2.1,2.1,0,0,0,2.442,1.689l1.482-.27a2.543,2.543,0,0,1,2.963,1.9,2.472,2.472,0,0,1-1.974,2.95l-1.587.289a2.1,2.1,0,0,0-1.687,2.441l.132.73a1.6,1.6,0,0,1-1.009,1.781,54.79,54.79,0,0,1-10.028,2.808C-8478.539-9882.6-8480.031-9890.946-8480.031-9890.946Zm-.486-4.163a103.682,103.682,0,0,0,11.637-.763,2.787,2.787,0,0,0,1.684-.962,2.489,2.489,0,0,1,.406.877,2.442,2.442,0,0,1,.03.93,2.764,2.764,0,0,0-1.378-.366,2.81,2.81,0,0,0-.979.177c-2.828,1.057-10.38,2.92-11.115,3.1C-8480.4-9893.3-8480.479-9894.357-8480.518-9895.109Zm-5.441-3.143a1.752,1.752,0,0,0-2.19-1.407l-2.5.678,1.507-2.1a1.756,1.756,0,0,0-.553-2.546l-2.245-1.286,2.552-.418a1.758,1.758,0,0,0,1.41-2.193l-.678-2.5,2.1,1.508a1.754,1.754,0,0,0,2.547-.554l1.285-2.245.419,2.554a1.754,1.754,0,0,0,2.192,1.408l2.5-.675-1.508,2.1a1.755,1.755,0,0,0,.554,2.547l2.242,1.286-2.552.421a1.754,1.754,0,0,0-1.41,2.189l.678,2.5-2.1-1.508a1.754,1.754,0,0,0-2.546.554l-1.286,2.245Zm6.822-1.544a.555.555,0,0,1,.072-.456.561.561,0,0,1,.386-.255l5.846-.959-5.141-2.947a.545.545,0,0,1-.271-.371.55.55,0,0,1,.093-.454l3.129-4.36c2.444-.391,4.961-.81,5.679-.922a1.6,1.6,0,0,1,1.847,1.609l-.011.441a2.1,2.1,0,0,0,2.054,2.147l1.5.033a2.54,2.54,0,0,1,2.521,2.454,2.476,2.476,0,0,1-2.529,2.494l-1.609-.038a2.1,2.1,0,0,0-2.146,2.054l-.018.74a1.6,1.6,0,0,1-1.346,1.542,88.079,88.079,0,0,1-9.126.69Zm-.025-13.906a1.1,1.1,0,0,0,.21.035,56.507,56.507,0,0,0,10.367,1.188h.06a2.8,2.8,0,0,0,1.882-.73,2.2,2.2,0,0,1,.162,1.124,2.448,2.448,0,0,1-.556,1.271c-.022-.022-.043-.05-.065-.072a2.8,2.8,0,0,0-1.99-.84,2.86,2.86,0,0,0-.437.035c-.326.05-1.021.164-1.913.312-2.455.4-6.872,1.124-8.422,1.318C-8479.647-9911.365-8479.363-9912.753-8479.162-9913.7Zm10.6.037a54.864,54.864,0,0,1-10.251-1.186.184.184,0,0,0-.04,0c-.029,0-.057,0-.052-.02a94.552,94.552,0,0,1,2.815-13.278l.095.022a54.976,54.976,0,0,0,9.667,1.169,1.6,1.6,0,0,1,1.518,1.926l-.092.431a2.1,2.1,0,0,0,1.619,2.489l1.473.314a2.544,2.544,0,0,1,2.023,2.88,2.473,2.473,0,0,1-2.948,1.979l-1.577-.334a2.1,2.1,0,0,0-2.486,1.617l-.154.728a1.6,1.6,0,0,1-1.572,1.267Z" transform="translate(3172.807 10966.999)" fill="#fff" stroke="rgba(0,0,0,0)" stroke-width="1"/>
  </g>
</svg>
