<svg xmlns="http://www.w3.org/2000/svg" xmlns:xlink="http://www.w3.org/1999/xlink" width="50" height="50" viewBox="0 0 50 50">
  <defs>
    <clipPath id="clip-path">
      <rect id="長方形_314" data-name="長方形 314" width="50" height="50" transform="translate(-5327.935 1038.85)" fill="#fff" stroke="#707070" stroke-width="1"/>
    </clipPath>
  </defs>
  <g id="nerve_icon_01" transform="translate(5327.935 -1038.85)" clip-path="url(#clip-path)">
    <g id="グループ_323" data-name="グループ 323" transform="translate(-1088.166 12.244)">
      <path id="パス_1888" data-name="パス 1888" d="M-6980.723-9892.194a4.4,4.4,0,0,0-.63-1.253,34.1,34.1,0,0,1-2.875-5.632c-1.024-2.264-1.752-3.877-1.845-5.765-.017-.345-.06-1.646-.068-3.158-.005-.448-.005-.835,0-1.136a4.951,4.951,0,0,1-.578-.86c-.02.1-.04.205-.057.313-.8,4.5-.976,7.214-.558,8.814,0,.014,0,.028,0,.042s.014.025.014.042a4.5,4.5,0,0,0,.517,1.425c.624,1.323,1.118,2.331,1.259,2.619a10.844,10.844,0,0,1,.908,4.285.706.706,0,0,1-.651.76.349.349,0,0,1-.054,0,.708.708,0,0,1-.706-.652,9.473,9.473,0,0,0-.736-3.715c-.172-.345-.669-1.363-1.3-2.7a5.74,5.74,0,0,1-.641-1.844c-.451-1.833-.288-4.632.55-9.331.051-.293.111-.577.17-.86.1-.5.2-.993.268-1.543a15.328,15.328,0,0,0,.063-2.6.705.705,0,0,1,.6-.738.71.71,0,0,1,.793.539,17.412,17.412,0,0,1,.387,2.41l.039.5a4.055,4.055,0,0,0,.167,1.078,3.489,3.489,0,0,0,.767,1.269.719.719,0,0,1,.189.488c0,.319-.006.8,0,1.383.008,1.487.048,2.763.064,3.1.082,1.617.728,3.051,1.707,5.218a33.461,33.461,0,0,0,2.757,5.429,5.923,5.923,0,0,1,.83,1.653.713.713,0,0,1-.468.886.8.8,0,0,1-.211.031A.707.707,0,0,1-6980.723-9892.194Zm-29.522.5a.705.705,0,0,1-.652-.76,10.874,10.874,0,0,1,.875-4.224l.054-.106c.164-.338.644-1.312,1.236-2.574a4.52,4.52,0,0,0,.517-1.425l0,0h0a30.254,30.254,0,0,0-.534-8.871c-.025-.107-.048-.218-.07-.327a5.088,5.088,0,0,1-.57.85c0,.3,0,.688,0,1.136-.008,1.513-.051,2.813-.067,3.158-.1,1.888-.824,3.5-1.832,5.73a34.427,34.427,0,0,1-2.889,5.663,4.394,4.394,0,0,0-.632,1.256.705.705,0,0,1-.675.5.76.76,0,0,1-.209-.031.712.712,0,0,1-.468-.886,5.844,5.844,0,0,1,.827-1.653,33.266,33.266,0,0,0,2.746-5.4c.991-2.192,1.64-3.626,1.718-5.245.017-.34.059-1.614.068-3.1,0-.584,0-1.063,0-1.385a.7.7,0,0,1,.189-.482,3.54,3.54,0,0,0,.765-1.272,3.959,3.959,0,0,0,.167-1.078l.039-.5a17.036,17.036,0,0,1,.39-2.413.7.7,0,0,1,.79-.536.7.7,0,0,1,.6.738,15.063,15.063,0,0,0,.065,2.6,22.249,22.249,0,0,0,.429,2.367,32.017,32.017,0,0,1,.556,9.367v.006a5.813,5.813,0,0,1-.638,1.838c-.6,1.272-1.08,2.254-1.247,2.592l-.051.1a9.551,9.551,0,0,0-.739,3.719.706.706,0,0,1-.7.652A.313.313,0,0,1-7010.245-9891.7Zm34.178-.548a9.433,9.433,0,0,1-1.066-3.185l-.073-.291c-.336-1.341-.505-2-.6-2.354-.108-.423-.111-.443-.139-.587a13.629,13.629,0,0,1-.209-2.094c-.022-.49-.045-1.069-.146-2a16.5,16.5,0,0,0-.553-3.338,10.422,10.422,0,0,0-1.944-3.532c-.2-.243-.373-.436-.5-.57a.712.712,0,0,1-.192-.567c.093-.824.152-1.623.184-2.437a19.932,19.932,0,0,0-.11-3.944,9.665,9.665,0,0,0-.3-1.4,6.751,6.751,0,0,1-.288-1.671,7.525,7.525,0,0,1,.036-1.31c.025-.3.063-.683.083-1.314a20.892,20.892,0,0,0-.113-3.245,8.539,8.539,0,0,0-.866-3.468,6.332,6.332,0,0,0-2.873-2.63,17.322,17.322,0,0,0-2.9-.728l-.387-.079a10.035,10.035,0,0,1-1.817-.488,5.176,5.176,0,0,1-2.2-1.394,3.7,3.7,0,0,1-.776-1.423,3.208,3.208,0,0,1-.087-1.013l-.034-2.372a.7.7,0,0,1,.7-.714.665.665,0,0,1,.717.7l.031,2.426a2.062,2.062,0,0,0,.048.629,2.385,2.385,0,0,0,.485.858,3.9,3.9,0,0,0,1.62.981,8.5,8.5,0,0,0,1.594.426l.4.079a17.774,17.774,0,0,1,3.155.81,7.642,7.642,0,0,1,3.56,3.24,9.711,9.711,0,0,1,1.039,3.979,22.42,22.42,0,0,1,.124,3.47c-.022.678-.059,1.078-.087,1.4a6,6,0,0,0-.031,1.1,5.339,5.339,0,0,0,.234,1.365,11.089,11.089,0,0,1,.341,1.575,21.287,21.287,0,0,1,.124,4.2c-.028.751-.079,1.481-.155,2.229.1.116.22.251.344.4a11.863,11.863,0,0,1,2.2,4.01,17.584,17.584,0,0,1,.61,3.608c.107.976.129,1.58.152,2.1a12.44,12.44,0,0,0,.191,1.908,4.822,4.822,0,0,0,.113.48c.09.352.262,1.015.6,2.361l.074.29a8.426,8.426,0,0,0,.883,2.757.707.707,0,0,1-.209.977.7.7,0,0,1-.384.115A.717.717,0,0,1-6976.067-9892.246Zm-44.38.207a.7.7,0,0,1-.206-.977,8.544,8.544,0,0,0,.88-2.757l.073-.294c.336-1.343.505-2.006.6-2.357s.1-.361.116-.478a12.393,12.393,0,0,0,.192-1.913c.02-.517.045-1.118.149-2.094a17.8,17.8,0,0,1,.612-3.608,11.857,11.857,0,0,1,2.2-4.01c.125-.152.24-.285.344-.4-.076-.738-.127-1.484-.155-2.223a21.408,21.408,0,0,1,.125-4.2,11.159,11.159,0,0,1,.341-1.575,5.32,5.32,0,0,0,.234-1.365,6.2,6.2,0,0,0-.028-1.1c-.031-.325-.07-.726-.09-1.4a22.65,22.65,0,0,1,.125-3.462,9.748,9.748,0,0,1,1.038-3.986,7.622,7.622,0,0,1,3.558-3.24,17.9,17.9,0,0,1,3.158-.81l.4-.079a9.017,9.017,0,0,0,1.591-.426,3.927,3.927,0,0,0,1.619-.981,2.356,2.356,0,0,0,.486-.86,1.847,1.847,0,0,0,.048-.57l.031-2.482a.711.711,0,0,1,.708-.7h.008a.708.708,0,0,1,.7.717l-.031,2.429a3.183,3.183,0,0,1-.09.954,3.734,3.734,0,0,1-.773,1.425,5.223,5.223,0,0,1-2.2,1.394,10.2,10.2,0,0,1-1.817.488l-.386.079a17.322,17.322,0,0,0-2.9.728,6.273,6.273,0,0,0-2.869,2.63,8.489,8.489,0,0,0-.87,3.463,21.181,21.181,0,0,0-.112,3.25c.019.632.053,1.01.082,1.314a7.533,7.533,0,0,1,.034,1.307,6.8,6.8,0,0,1-.285,1.674,9.612,9.612,0,0,0-.3,1.4,19.817,19.817,0,0,0-.11,3.936c.028.815.09,1.64.181,2.446a.706.706,0,0,1-.189.567c-.127.135-.305.327-.5.566a10.52,10.52,0,0,0-1.944,3.536,16.4,16.4,0,0,0-.553,3.33c-.1.938-.124,1.514-.147,2.008a13.034,13.034,0,0,1-.211,2.1,5.338,5.338,0,0,1-.135.584c-.09.355-.26,1.017-.6,2.354l-.074.291a9.482,9.482,0,0,1-1.067,3.182.707.707,0,0,1-.592.325A.7.7,0,0,1-7020.448-9892.039Zm22.222-.584a.607.607,0,0,1-.146-.227.586.586,0,0,1-.056-.271.584.584,0,0,1,.056-.271.6.6,0,0,1,.146-.226,1.008,1.008,0,0,1,.226-.161.779.779,0,0,1,.544,0,.853.853,0,0,1,.237.161.751.751,0,0,1,.147.226.773.773,0,0,1,.056.271.777.777,0,0,1-.056.271.768.768,0,0,1-.147.227.709.709,0,0,1-.51.214A.7.7,0,0,1-6998.226-9892.623Zm-.516-2.049h0a.71.71,0,0,1-.22-.152l-.012-.006,0-.009a.627.627,0,0,1-.138-.211l-.006-.006v0a.123.123,0,0,0-.017-.031l.011-.006a.63.63,0,0,1-.051-.233.555.555,0,0,1,.06-.269.56.56,0,0,1,.144-.229.986.986,0,0,1,.229-.158.752.752,0,0,1,.542,0,.929.929,0,0,1,.24.158.746.746,0,0,1,.144.229.775.775,0,0,1,.02.082v0l.011-.006c.009.033,0,.067.009.1s.017.059.017.088a.186.186,0,0,1-.008.039.608.608,0,0,1-.037.186.323.323,0,0,1-.011.049c0,.006-.005.008-.008.014a.607.607,0,0,1-.116.178.324.324,0,0,0-.02.034l-.014.009a.724.724,0,0,1-.2.133c-.011,0-.02.014-.034.02s-.031.02-.048.027a.77.77,0,0,1-.211.031A.689.689,0,0,1-6998.742-9894.672Zm.94-.844.011,0-.011,0Zm-1.947-1.891a.675.675,0,0,1,.494-.838.731.731,0,0,1,.88.516.5.5,0,0,1,.019.091.7.7,0,0,1-.581.813.822.822,0,0,1-.116.012A.707.707,0,0,1-6999.749-9897.406Zm-.324-1.983c-.008-.015-.017-.023-.025-.036a.718.718,0,0,1-.051-.147.438.438,0,0,1-.028-.076l.011,0a.519.519,0,0,1-.02-.1.664.664,0,0,1,.6-.753.732.732,0,0,1,.8.626l0,0v.009l0,.006a.7.7,0,0,1,.008.11.665.665,0,0,1-.022.113.4.4,0,0,1-.011.062.7.7,0,0,1-.671.533A.7.7,0,0,1-7000.073-9899.39Zm1.287-.488h0Zm-1.665-2.158a.664.664,0,0,1,.6-.753.737.737,0,0,1,.8.643.762.762,0,0,1,.008.11.706.706,0,0,1-.708.708A.706.706,0,0,1-7000.452-9902.036Zm-.1-2.283a.713.713,0,0,1,.708-.711.7.7,0,0,1,.705.7v.011a.706.706,0,0,1-.705.708A.708.708,0,0,1-7000.55-9904.319Zm.087-2.279a.752.752,0,0,1,.8-.655.661.661,0,0,1,.609.715.707.707,0,0,1-.705.648A.706.706,0,0,1-7000.463-9906.6Zm.878-1.566a.707.707,0,0,1-.582-.815.71.71,0,0,1,.807-.587.7.7,0,0,1,.592.793l-.006.028a.705.705,0,0,1-.694.59A.8.8,0,0,1-6999.585-9908.165Zm.471-2.234a.708.708,0,0,1-.581-.812.75.75,0,0,1,.883-.53.668.668,0,0,1,.5.81.7.7,0,0,1-.685.544A.636.636,0,0,1-6999.114-9910.4Zm.505-2.227a.707.707,0,0,1-.446-.895.711.711,0,0,1,.88-.456.7.7,0,0,1,.475.862l-.015.043a.7.7,0,0,1-.668.481A.7.7,0,0,1-6998.609-9912.626Zm.674-2.181a.708.708,0,0,1-.446-.895.714.714,0,0,1,.88-.457.7.7,0,0,1,.475.866l-.012.039a.708.708,0,0,1-.671.483A.713.713,0,0,1-6997.935-9914.807Zm.759-2.161a.708.708,0,0,1-.581-.816.747.747,0,0,1,.883-.526.667.667,0,0,1,.5.806.708.708,0,0,1-.688.545A.928.928,0,0,1-6997.176-9916.968Zm.423-2.249a.7.7,0,0,1-.468-.818.71.71,0,0,1,.793-.562.7.7,0,0,1,.6.8,1.09,1.09,0,0,1-.031.136.708.708,0,0,1-.671.482A.682.682,0,0,1-6996.752-9919.217Zm-.133-2.924a.757.757,0,0,1,.8-.657.665.665,0,0,1,.61.717.709.709,0,0,1-.705.646A.705.705,0,0,1-6996.885-9922.141Zm.13-2.279a.714.714,0,0,1,.708-.714.7.7,0,0,1,.705.7v.011a.708.708,0,0,1-.705.708A.709.709,0,0,1-6996.755-9924.42Zm-.073-2.184a.751.751,0,0,1,.7-.759.656.656,0,0,1,.7.617.706.706,0,0,1-.6.742.589.589,0,0,1-.1.009A.71.71,0,0,1-6996.829-9926.6Zm-.226-2.374a.669.669,0,0,1,.6-.755.747.747,0,0,1,.8.646c0,.031.009.076.009.109a.709.709,0,0,1-.708.706A.708.708,0,0,1-6997.054-9928.978Zm.24-1.579c-.025-.006-.054-.009-.082-.015a.773.773,0,0,1-.125-.065.522.522,0,0,1-.076-.042.645.645,0,0,1-.093-.093.33.33,0,0,1-.064-.076.6.6,0,0,1-.059-.11.365.365,0,0,1-.032-.062.676.676,0,0,1-.02-.082s-.006-.011-.009-.02h0c0-.011-.005-.025-.005-.034a.706.706,0,0,1,.6-.8.716.716,0,0,1,.793.564c0,.017,0,.03,0,.045v0l.006,0a.387.387,0,0,1-.006.084.633.633,0,0,1-.005.164.63.63,0,0,1-.037.1.645.645,0,0,1-.065.133.508.508,0,0,1-.076.093.661.661,0,0,1-.1.09.658.658,0,0,1-.127.071c-.022.011-.039.025-.062.036s-.039,0-.056.009-.037.017-.059.021a.838.838,0,0,1-.11.008A.716.716,0,0,1-6996.814-9930.557Zm.832-.79.006,0-.006,0Zm-1.8-1.91a.578.578,0,0,1-.034-.133.711.711,0,0,1,.6-.8.717.717,0,0,1,.793.561.709.709,0,0,1-.468.821.683.683,0,0,1-.223.034A.7.7,0,0,1-6997.782-9933.257Zm-.364-1.93a.092.092,0,0,1-.028-.021c-.008,0-.011-.017-.019-.025a.709.709,0,0,1-.1-.157.228.228,0,0,1-.025-.04l-.006-.017c0-.009-.008-.018-.011-.025l.006,0a.807.807,0,0,1-.045-.229.767.767,0,0,1,.2-.508.816.816,0,0,1,.238-.146.709.709,0,0,1,.77.146.643.643,0,0,1,.147.237c.008.022.005.051.015.076v0l.014,0a.48.48,0,0,1,.008.113.378.378,0,0,1,.02.081c0,.015-.008.025-.008.037a.677.677,0,0,1-.033.166c-.009.023-.006.046-.015.071a.046.046,0,0,0-.014.02.638.638,0,0,1-.087.136.542.542,0,0,1-.045.067.152.152,0,0,1-.022.017.713.713,0,0,1-.192.122l-.022.011a.342.342,0,0,1-.056.031.7.7,0,0,1-.212.034A.706.706,0,0,1-6998.146-9935.187Zm1.141-.712.014,0-.014,0Zm-1.6-1.332a.629.629,0,0,1-.237-.146,1.032,1.032,0,0,1-.149-.226.82.82,0,0,1-.054-.271.753.753,0,0,1,.2-.512.842.842,0,0,1,.237-.146.711.711,0,0,1,.767.146.7.7,0,0,1,.15.238.706.706,0,0,1,.056.273.777.777,0,0,1-.056.271.746.746,0,0,1-.15.226.747.747,0,0,1-.5.2A.523.523,0,0,1-6998.609-9937.23Z" transform="translate(2783.128 10967.783)" fill="#fff" stroke="rgba(0,0,0,0)" stroke-width="1"/>
    </g>
  </g>
</svg>
