<svg id="number_image_02" xmlns="http://www.w3.org/2000/svg" xmlns:xlink="http://www.w3.org/1999/xlink" width="658" height="370" viewBox="0 0 658 370">
  <defs>
    <clipPath id="clip-path">
      <rect id="長方形_13" data-name="長方形 13" width="658" height="370" transform="translate(0 837.763)" fill="#333f69"/>
    </clipPath>
    <clipPath id="clip-path-2">
      <rect id="長方形_380" data-name="長方形 380" width="342.842" height="2180.438" fill="none"/>
    </clipPath>
    <radialGradient id="radial-gradient" cx="0.5" cy="0.5" r="0.5" gradientUnits="objectBoundingBox">
      <stop offset="0" stop-color="red"/>
      <stop offset="1" stop-color="red" stop-opacity="0"/>
    </radialGradient>
  </defs>
  <g id="マスクグループ_35" data-name="マスクグループ 35" transform="translate(0 -837.763)" clip-path="url(#clip-path)">
    <g id="グループ_301" data-name="グループ 301" transform="translate(158 141)">
      <g id="グループ_300" data-name="グループ 300" clip-path="url(#clip-path-2)">
        <path id="パス_1143" data-name="パス 1143" d="M340.325,2139.565a3.116,3.116,0,0,0-1.008-1.559l.018-.016s-4.649-3.4-21.669-1.74l-.01,0-.029,0c-2.357-1.2-4.329-5.6-16.873-7.41-11.363-1.638-13.07-2.78-18.057-4.833a133.7,133.7,0,0,0-32.114-15.813c-1.2-.386-2.415-.764-3.646-1.144-23.375-7.187-58.471-36.933-83.537-49.454-25.974-12.991-30.494-40.364-32.069-54.318-2.257-19.892,3.349-122.651,11.875-168.811,1.851-10.106,3.8-20.488,5.717-30.019,10.77-53.155,23.535-149.4,30.736-171.144,7.912-23.758,39.261-26.782,39.261-92.524,0-16.217,5.161-29.455,8.069-41.548a113.21,113.21,0,0,1,3.334-10.865c7.9-22.446,29.6-72.207,39.275-143.979,3-22.286,6.184-59.6,7.463-97.63,1.341-39.836,1.391-91.4,2.562-127.15l1.247,46.771c10.959-20.144,8.948-65.059,7.072-80.211,1.68-12.237,3.538-26.911,7.253-42.705,7.148-30.489,8.783-64.091,8.4-83.374-.194-9.9-1.378-18.466-1.36-24.044.039-11.694-1.885-26.911-3.9-44.779-1.465-12.954-.625-25.648.541-37.8.365-3.783.722-7.644.929-11.576.509-9.594,1.6-13.429,2.134-22.036.877-14.159,4.544-32.964,5.008-50.575,1.709-9.7,3.449-21.267,5.058-30.132,1.84-9.14-2.948-41.317-3.89-49.6,9.5-28.077,8.229-55.618,8.51-74.352,2.53-1.328,5.171-4.767,5.171-7.581,0-6.234-6.053-6.394-6.242-6.562-2.693-9.967-7.1-26.25-9.56-32.224-.15-.357-17.346-38.44-24.034-51.155-24.291-46.173-67.9-94.811-69.585-105.809-1.585-10.277-9.038-17.569-10.558-19.178a9.614,9.614,0,0,1-2.273-2.677c-1.583-2.218-3.41-7.392-3.764-17.758a61.75,61.75,0,0,1,.336-7.2c.69-7.906,1.583-16.506,3.615-24.118,1.851-6.943,8.077-45.091,10.715-46.619,7.237-1.543,24.194,6.174,39.487,6.184a18.154,18.154,0,0,0,3.021-.226c10.418-1.785,17.238-10.731,19.364-15.936,2.263-5.547.977-13.456.748-17.886a35.954,35.954,0,0,1-.1-5.6c.656-4.777,6.305-7.366,7.405-9.027,1.354-2.824-1.512-7.384-2.016-8.938,1.129-1.911,4.473-1.809,4.473-2.772a10.335,10.335,0,0,0,2.32-3.216,7.612,7.612,0,0,0,.11-5.074c-.053-.226-2.239-11.747-2.066-13.542.192-1.948,1.5-2.835,2.964-3.51,1.746-.8,9.5-1.5,13.883-5.84,4.725-4.675,2.063-9.542-2.927-18.089-.627-1.071-13.736-29.31-16.44-36.529-2.5-6.7,1.559-15.944,2.793-25.551.136-1.055.244-2.124.318-3.195,1.929-27.26-15.338-62.167-15.356-62.193C252.043,36.93,224.126.567,156.959.567S37.122,40.834,32.641,105.919s35.009,95.021,41.3,115.193c4.378,14.054,8.051,74.105-.215,100.058C63.668,342.548,20.485,377.51,15.542,467.315c-6.6,33.408-17.8,51.163-6.767,136.474,7.835,60.5,29.882,111.154,38.238,132.809s21.1,81.027,20.824,121.619c-.6,91.49-68.942,97.659-67.238,217.837.612,47.073,28.454,85.639,41.193,116.283,0,0,.36,6.347.354,9.069,2.809,46.244,5.421,139.054,9.24,181.361,3.3,36.576,5.069,78.6,5.974,107.219.294,9.371.281,18.766-.147,27.578,1.218,36.678-9.791,87.1-17.519,131.689-2.937,26.9-27.142,60.46-24.843,127.25,2.677,72.861,25.675,127.754,25.11,237.22.008.583.016-.084.026.512-.315,12.156-1.664,25.625-3.4,39.907-.068.3-.144-.667-.215-.37-5.841,35.935-30.4,85.615-6.843,101.457,18.845,12.755,41.543,6.326,79.946,3.363,37.728-2.906,80.985,12.91,106.442,15.109.874.076,1.74.139,2.591.189a154.36,154.36,0,0,0,35.875-2.638c4.168,1.929,12.012,7.366,19.679,6.725,7.812-.654,11.426-6.137,10.621-8.153a18.162,18.162,0,0,0,8.224,1.446c5.662-.514,9.022-3.943,10.035-6.531a15.369,15.369,0,0,0,5.72.63,13.636,13.636,0,0,0,9.426-5.318,17.2,17.2,0,0,0,4.99.32c5.171-.5,8.985-4.315,10.607-7.426,5.925-4.733,7.142-11.041,6.644-13.379" transform="translate(0.921 0.921)" fill="#eee" opacity="0.5"/>
        <path id="パス_1144" data-name="パス 1144" d="M34.256,813.155a1.488,1.488,0,0,1-.8-.234c-15.595-9.927-14.757-17.2-13.595-27.265a79.507,79.507,0,0,0,.688-9.484,1.49,1.49,0,0,1,2.979,0,82.61,82.61,0,0,1-.711,9.823c-1.113,9.66-1.785,15.49,12.24,24.415a1.49,1.49,0,0,1-.8,2.746" transform="translate(31.368 1258.825)" fill="#1a1311"/>
        <path id="パス_1145" data-name="パス 1145" d="M100.832,138.49a1.5,1.5,0,0,1-.811-.241c-5.4-3.52-24.929-16.981-30.8-22.488-6.211-5.833-11.6-20.829-11.093-25.9a1.515,1.515,0,0,1,1.63-1.331,1.487,1.487,0,0,1,1.333,1.63c-.4,3.985,4.462,18.07,10.164,23.425,5.736,5.384,25.039,18.677,30.389,22.165a1.488,1.488,0,0,1-.816,2.735" transform="translate(94.407 143.85)" fill="#1a1311"/>
        <path id="パス_1146" data-name="パス 1146" d="M107.45,92.682a1.493,1.493,0,0,1-.472-.076c-2.9-.969-4.452-4.767-4.452-7.135,0-4.289,1.473-8.161,3.932-10.358a1.489,1.489,0,0,1,1.984,2.221c-1.811,1.617-2.937,4.735-2.937,8.137,0,1.578,1.116,3.877,2.418,4.313a1.487,1.487,0,0,1-.472,2.9" transform="translate(166.6 121.441)" fill="#1a1311"/>
        <path id="パス_1147" data-name="パス 1147" d="M107.174,84.611a1.489,1.489,0,0,1-1.488-1.488c0-1.037.861-1.953,2.36-2.515,8.059-2.525,10.124-1.856,11.093-.871a2.081,2.081,0,0,1,.528,2.082,1.487,1.487,0,0,1-2.814.039c-.677-.079-2.664-.055-7.838,1.562a2.111,2.111,0,0,0-.446.231,1.489,1.489,0,0,1-1.394.961m9.662-3.72v0Z" transform="translate(171.735 128.136)" fill="#1a1311"/>
        <path id="パス_1148" data-name="パス 1148" d="M85.353,138.925c-5.967,0-11.781-3.8-15.2-6.536-3.208-2.567-6.544-6.555-10.773-11.6-3.452-4.119-7.363-8.791-12.049-13.671-10.55-10.972-9.959-32.363-4.917-42.27,5.006-9.841,17.676-11.9,27.008-10.678,9.744,1.278,14.083,8.014,19.11,15.813a1.489,1.489,0,0,1-2.5,1.614c-5.344-8.295-9.027-13.432-17-14.477-9.011-1.184-19.939,1.16-23.968,9.08-4.649,9.135-5.242,28.814,4.415,38.857,4.754,4.951,8.7,9.662,12.185,13.82,3.956,4.728,7.376,8.807,10.35,11.19,3.195,2.562,11.311,8.161,17.781,4.833a1.489,1.489,0,0,1,1.36,2.649,12.567,12.567,0,0,1-5.806,1.378" transform="translate(63.235 87.506)" fill="#1a1311"/>
        <path id="パス_1149" data-name="パス 1149" d="M136.636,60.981a1.489,1.489,0,0,1-1.449-1.16c-1.68-7.434-6.471-10.9-15.067-10.9-10.972,0-29.67,7.6-29.856,7.681a1.487,1.487,0,0,1-1.129-2.751c.787-.323,19.427-7.906,30.985-7.906,9.941,0,15.986,4.449,17.97,13.219a1.488,1.488,0,0,1-1.123,1.78,1.42,1.42,0,0,1-.331.037" transform="translate(143.339 74.658)" fill="#1a1311"/>
        <path id="パス_1150" data-name="パス 1150" d="M66.321,115.26a1.486,1.486,0,0,1-1.021-.4c-.092-.087-9.145-8.61-14.07-12.642-5.743-4.709-8.479-19.375-8.665-26.181-.213-7.741,4.523-14.406,12.663-17.829,8.972-3.772,16.637,2.5,19.154,4.567,2.932,2.4,1.953,5.56,1.089,8.347a16.1,16.1,0,0,0-1,5.184A12.449,12.449,0,0,1,72.2,84.674c-.514.866-1.126,1.9-1.835,3.271a1.489,1.489,0,0,1-2.646-1.368c.743-1.436,1.383-2.515,1.921-3.423,1.425-2.4,1.956-3.3,1.864-6.767a18.567,18.567,0,0,1,1.126-6.15c.908-2.924,1.131-4.126-.131-5.163-3.775-3.092-9.552-6.883-16.115-4.126-7.072,2.974-11.022,8.442-10.844,15,.2,7.4,3.26,20.42,7.578,23.961,5,4.095,13.849,12.424,14.225,12.778a1.487,1.487,0,0,1-1.021,2.57" transform="translate(69.155 92.657)" fill="#1a1311"/>
        <path id="パス_1151" data-name="パス 1151" d="M52.793,83.854a5.416,5.416,0,0,1-2.725-.751,7.163,7.163,0,0,1-3.436-5.822c-.1-3.68.963-4.649,4.119-7.526l.68-.622c2.116-1.937,4.712-2.473,7-2.948,2.1-.433,4.084-.845,5.594-2.226a1.488,1.488,0,0,1,2.011,2.194c-2.113,1.935-4.709,2.473-7,2.945-2.1.436-4.084.845-5.594,2.229l-.688.625c-2.966,2.709-3.208,2.929-3.147,5.25a4.148,4.148,0,0,0,1.953,3.326,2.282,2.282,0,0,0,2.352.055,1.489,1.489,0,0,1,1.415,2.62,5.336,5.336,0,0,1-2.533.651" transform="translate(75.764 103.297)" fill="#1a1311"/>
        <path id="パス_1152" data-name="パス 1152" d="M69.889,90.756c-3.4,0-6.142-3.63-8.25-6.41a19.7,19.7,0,0,0-2.5-2.95,6.489,6.489,0,0,0-3.979-1.869c-.672-.121-1.475-.265-2.53-.52-1.541-.367-3.168-.948-3.554-2.444-.454-1.743,1.176-3.234,2.9-4.812a1.488,1.488,0,1,1,2.008,2.2,20.324,20.324,0,0,0-1.811,1.811,7.538,7.538,0,0,0,1.15.354c.984.236,1.738.37,2.36.48a9.259,9.259,0,0,1,5.342,2.5,21.058,21.058,0,0,1,2.99,3.457c2.6,3.426,4.749,5.961,6.825,4.993a2.386,2.386,0,0,0,1.234-.955c.158-.462-.346-1.444-.79-2.31a9.163,9.163,0,0,1-1.273-3.851A6.563,6.563,0,0,1,71.2,76.356a3.629,3.629,0,0,0,.751-2.42A1.487,1.487,0,0,1,73.4,72.408a1.469,1.469,0,0,1,1.528,1.446,6.6,6.6,0,0,1-1.192,4.071,3.672,3.672,0,0,0-.753,2.42,7.041,7.041,0,0,0,.953,2.578c.711,1.394,1.52,2.974.95,4.63A4.833,4.833,0,0,1,72.1,90.242a5.23,5.23,0,0,1-2.21.514" transform="translate(79.621 115.959)" fill="#1a1311"/>
        <path id="パス_1153" data-name="パス 1153" d="M63.514,85.051a1.517,1.517,0,0,1-.454-.071c-5.263-1.685-7.883-4.859-8.014-9.71a2.594,2.594,0,0,1,1.05-2.221c1.9-1.412,5.875-.312,7.494.226a1.488,1.488,0,1,1-.937,2.824,11.872,11.872,0,0,0-4.625-.719c.1,2.344.934,5.163,5.94,6.765a1.488,1.488,0,0,1-.454,2.906" transform="translate(89.445 117.577)" fill="#1a1311"/>
        <path id="パス_1154" data-name="パス 1154" d="M51.587,66.651a1.488,1.488,0,0,1-1.005-2.588c2.916-2.659,10.744-2.95,11.623-2.977a1.531,1.531,0,0,1,1.528,1.446,1.487,1.487,0,0,1-1.444,1.53c-2.908.081-8.116.753-9.7,2.2a1.488,1.488,0,0,1-1,.388" transform="translate(81.406 99.262)" fill="#1a1311"/>
        <path id="パス_1155" data-name="パス 1155" d="M46.415,77.288a1.431,1.431,0,0,1-.391-.052,1.489,1.489,0,0,1-1.045-1.827c.189-.7.4-1.491.617-2.341,1.557-6.043,3.029-11.209,5.239-13.232a1.488,1.488,0,1,1,2.011,2.194C51.106,63.623,49.46,70,48.475,73.81c-.223.866-.43,1.675-.625,2.383a1.492,1.492,0,0,1-1.436,1.095" transform="translate(73.002 96.594)" fill="#1a1311"/>
        <path id="パス_1156" data-name="パス 1156" d="M127.251,253.675a9.326,9.326,0,0,1-6.528-2.651c-2.633-2.5-4.216-6.623-4.234-11.027-.034-7.772,4.856-10.741,8.429-12.907a1.547,1.547,0,0,1,2.105.462,1.425,1.425,0,0,1-.438,2.005c-3.575,2.171-7.145,4.336-7.119,10.426.016,3.609,1.252,6.93,3.307,8.88a6.262,6.262,0,0,0,4.814,1.827,1.439,1.439,0,0,1,1.559,1.415,1.494,1.494,0,0,1-1.415,1.559c-.163.005-.32.01-.48.01" transform="translate(189.289 368.638)" fill="#1a1311"/>
        <path id="パス_1157" data-name="パス 1157" d="M83.388,185.226a1.478,1.478,0,0,1-1.053-.436C76.792,179.247,60.95,127.026,60.95,120.9a1.49,1.49,0,0,1,2.979,0c0,5.455,15.695,56.969,20.511,61.786a1.488,1.488,0,0,1,0,2.105,1.472,1.472,0,0,1-1.05.436" transform="translate(99.041 194.037)" fill="#1a1311"/>
        <path id="パス_1158" data-name="パス 1158" d="M102.055,200.758a1.48,1.48,0,0,1-1.039-.425c-1.037-1.013-2.129-3.171-3.785-6.439C91.2,181.984,78.659,157.2,50.422,157.2a1.488,1.488,0,0,1,0-2.977c30.066,0,43.167,25.882,49.465,38.319a32.76,32.76,0,0,0,3.208,5.659,1.487,1.487,0,0,1-1.039,2.551" transform="translate(79.515 250.613)" fill="#1a1311"/>
        <path id="パス_1159" data-name="パス 1159" d="M117.54,95.97a17.028,17.028,0,0,1-4.457-.945c-1.554.081-8.662.394-12.29-.171a1.488,1.488,0,1,1,.457-2.94c3.688.575,11.875.126,11.962.123a1.6,1.6,0,0,1,.577.084,15.327,15.327,0,0,0,3.751.871,1.488,1.488,0,1,1,0,2.977" transform="translate(161.734 149.324)" fill="#1a1311"/>
        <path id="パス_1160" data-name="パス 1160" d="M103.662,66.066c-1.919,0-3.315-2.2-3.315-5.224s1.4-5.226,3.315-5.226,3.3,2.2,3.3,5.226-1.391,5.224-3.3,5.224m0-7.108a5.487,5.487,0,0,0,0,3.767,5.569,5.569,0,0,0,0-3.767" transform="translate(163.059 90.373)" fill="#1a1311"/>
        <path id="パス_1161" data-name="パス 1161" d="M104.624,72.636a1.452,1.452,0,0,1-.5-.087c-.717-.252-1.515-.6-2.376-.99a1.483,1.483,0,0,1-.462-.323c-1.777-1.84-2.885-5.389-2.885-9.263a20.671,20.671,0,0,1,.126-2.171,1.5,1.5,0,0,1,.9-1.215,41.932,41.932,0,0,0,4.334-2.076,32.8,32.8,0,0,1,3.452-1.735,1.494,1.494,0,0,1,1.956.827,17.527,17.527,0,0,1,1.11,6.371c0,5.759-2.3,10.237-5.468,10.649a1.6,1.6,0,0,1-.192.013m-1.365-3.662c.509.228.995.438,1.446.614,1.165-.528,2.6-3.412,2.6-7.615a16.194,16.194,0,0,0-.425-3.759c-.5.255-1.05.549-1.648.887a42.288,42.288,0,0,1-3.814,1.874c-.021.325-.032.659-.032,1,0,3.307.916,5.841,1.874,7" transform="translate(159.903 88.825)" fill="#1a1311"/>
        <path id="パス_1162" data-name="パス 1162" d="M95.052,66.172a1.489,1.489,0,0,1-.375-2.929c.108-.026,10.689-2.793,16.955-6.326,4.749-2.677,6.948-3.145,8.108-1.7a1.488,1.488,0,0,1-1.95,2.194c-.386.05-1.6.357-4.7,2.1-6.61,3.725-17.22,6.5-17.666,6.615a1.549,1.549,0,0,1-.375.047" transform="translate(152.037 88.417)" fill="#1a1311"/>
        <path id="パス_1163" data-name="パス 1163" d="M113.36,67.751c-1.6,0-3.51-.879-5.785-1.927-1.11-.509-2.313-1.066-3.588-1.567L95.193,60.8a1.487,1.487,0,0,1,1.092-2.767l8.788,3.454c1.331.522,2.588,1.1,3.746,1.633,1.735.8,4.121,1.893,4.759,1.625a.52.52,0,0,0,.155-.257,1.487,1.487,0,1,1,2.785,1.045,3.264,3.264,0,0,1-1.806,1.966,3.478,3.478,0,0,1-1.352.252" transform="translate(153.154 94.135)" fill="#1a1311"/>
        <path id="パス_1164" data-name="パス 1164" d="M139.474,822.681c-2.982,0-8.185-.457-17.361-1.966a1.493,1.493,0,0,1-1.134-.9c-.034,0-.068-.005-.1-.01a1.475,1.475,0,0,1-1.286-1.638,5.448,5.448,0,0,1,4.531-4.266c17.1-1.664,22.176,1.643,22.7,2.021a1.486,1.486,0,0,1,.163,2.268c-.024.024-2.383,2.331-3.355,3.588-.22.289-.693.906-4.153.906m1.8-2.73-.008.01.008-.01m-18.356-2.121c6.526,1.058,16.535,2.234,18.572,1.85.52-.633,1.223-1.394,1.858-2.053-2.523-.785-8.153-1.814-18.931-.766a2.435,2.435,0,0,0-1.5.969" transform="translate(194.315 1321.79)" fill="#1a1311"/>
        <path id="パス_1165" data-name="パス 1165" d="M131.2,825.56c-2.187,0-4.363-1.045-6.625-3.168a3.213,3.213,0,0,1-1.255-3.15,3.133,3.133,0,0,1,2.255-2.042,1.615,1.615,0,0,1,.6-.029,27.9,27.9,0,0,1,9.366,3.638,1.492,1.492,0,0,1,.669,1.024,2.531,2.531,0,0,1-.494,1.916A5.3,5.3,0,0,1,132.1,825.5a7.049,7.049,0,0,1-.906.06m-4.507-5.266c1.845,1.714,3.465,2.475,5.024,2.252a4.346,4.346,0,0,0,.63-.121,24.583,24.583,0,0,0-5.654-2.131" transform="translate(200.254 1327.838)" fill="#1a1311"/>
        <path id="パス_1166" data-name="パス 1166" d="M125.864,828.1c-.134,0-.273-.005-.409-.01-2.47-.123-4.7-1.583-6.633-4.339a3.111,3.111,0,0,1-.58-3.242,3.161,3.161,0,0,1,2.6-1.588,1.465,1.465,0,0,1,.63.092,26.648,26.648,0,0,1,8.221,5.134,1.484,1.484,0,0,1,.454,1.168c-.11,1.7-1.811,2.785-4.279,2.785m-4.507-5.922c1.365,1.9,2.756,2.864,4.239,2.937a4,4,0,0,0,.619-.008,24.26,24.26,0,0,0-4.859-2.929" transform="translate(191.758 1330.697)" fill="#1a1311"/>
        <path id="パス_1167" data-name="パス 1167" d="M119.728,830.833a8.349,8.349,0,0,1-1.221-.095c-2.423-.375-4.441-1.995-6.006-4.809a3,3,0,0,1-.207-3.161,3.129,3.129,0,0,1,2.782-1.3,1.465,1.465,0,0,1,.74.226,46.274,46.274,0,0,1,7.232,5.528,1.493,1.493,0,0,1,.42,1.352c-.278,1.42-1.725,2.263-3.741,2.263m-4.352-5.885c1.045,1.7,2.218,2.638,3.583,2.848.1.016.194.029.291.037-.961-.793-2.281-1.819-3.874-2.885" transform="translate(181.905 1334.829)" fill="#1a1311"/>
        <path id="パス_1168" data-name="パス 1168" d="M112.809,833.326a9.07,9.07,0,0,1-1.244-.089c-2.473-.339-4.552-1.859-6.174-4.512a2.828,2.828,0,0,1-.291-3.048,3.224,3.224,0,0,1,2.872-1.336,1.444,1.444,0,0,1,.688.192,47.32,47.32,0,0,1,7.5,5.195,1.488,1.488,0,0,1,.465,1.433c-.3,1.37-1.751,2.166-3.814,2.166m-4.476-5.536a5.358,5.358,0,0,0,3.636,2.5l.131.016c-.974-.717-2.252-1.6-3.767-2.515" transform="translate(170.271 1339.505)" fill="#1a1311"/>
        <path id="パス_1169" data-name="パス 1169" d="M68.979,641.517a1.487,1.487,0,0,1-1.029-.415c-4.218-4.037-13.508-29.436-13.508-47.073a1.49,1.49,0,0,1,2.979,0c0,17.246,9.061,41.548,12.587,44.924a1.491,1.491,0,0,1-1.029,2.565" transform="translate(88.466 962.851)" fill="#1a1311"/>
        <path id="パス_1170" data-name="パス 1170" d="M126.213,1053.678c-.3,0-.609-.013-.921-.042a10.583,10.583,0,0,1-3.538-.945c-5.237-2.423-7.793-8.728-7.951-13.561-.068-2.158.189-9.875.512-19.643l.031-.916c.4-11.978.961-28.378.911-36.264-.018-2.929.533-8.114,1.226-14.238-1.858,8.481-4.9,24.9-7.182,37.18l-.173.913c-2.053,11.048-3.538,19.031-4.074,21.06-1.68,6.418-7.51,12.256-14.424,10.9a10.673,10.673,0,0,1-2.391-.769c-5.384-2.491-7.751-9.245-7.316-14.629.165-2.053,1.344-9.744,3.268-22.168,2.221-14.332,4.985-32.169,5.8-39.789.244-2.3.759-5.969,1.307-9.862l.008-.058c-2.31,6.011-7.082,19.37-10.571,29.856-3.179,9.565-5.158,15.482-5.817,17.046-2.2,5.253-7.573,9.536-13.545,7.581a9.961,9.961,0,0,1-1.142-.441c-5.426-2.515-6.8-8.783-5.778-13.539.36-1.659,2.121-7.591,4.969-17.136,3.3-11.077,6.715-25.454,8.027-31.121.5-2.126,1.286-5.108,2.2-8.544,2.706-10.193,6.77-25.5,6.62-32.208-2.024-16.479,3.176-39.122,15.044-65.332,4.1-9.027,6.4-16.456,7.481-24.081l-.016-4.838c.8-10.783-.142-22.981-7.305-50.777-12.03-46.672-26.3-112.671-30.287-157.938l-.176-1.99c-.685-7.752-1.3-14.7-1.722-20.624-1.486-20.622-1.625-38.453-1.753-54.187-.053-6.515-.1-12.791-.239-18.939a85.714,85.714,0,0,0-.913-10.222c-1.063-7.282-4.229-22.042-8.234-40.724C36.424,398.044,16.8,306.572,19.939,261.578a1.5,1.5,0,0,1,1.585-1.381,1.488,1.488,0,0,1,1.383,1.588C19.8,306.36,39.367,397.572,51.056,452.071c4.019,18.737,7.195,33.539,8.269,40.918a88.5,88.5,0,0,1,.945,10.586c.139,6.161.189,12.453.241,18.984.126,15.687.268,33.468,1.746,54,.425,5.909,1.037,12.841,1.719,20.574l.173,1.99c3.969,45.089,18.2,110.9,30.2,157.455,7.271,28.195,8.219,40.661,7.4,51.635l.005,4.932c-1.134,8.127-3.515,15.8-7.733,25.1-11.644,25.714-16.76,47.808-14.792,63.889.171,7.276-3.956,22.832-6.688,33.127-.924,3.46-1.709,6.413-2.2,8.515-1.638,7.069-4.872,20.54-8.077,31.3-2.446,8.2-4.56,15.28-4.909,16.907-.78,3.638.176,8.384,4.124,10.216a6.585,6.585,0,0,0,.8.307c4.481,1.457,8.263-2.032,9.888-5.9.614-1.462,2.672-7.615,5.736-16.831,3.523-10.6,8.358-24.123,10.663-30.106.525-1.367,1.142-3.213,1.811-5.213.719-2.174,1.811-5.47,2.861-8.156a1.489,1.489,0,0,1,2.866.7c-.465,4.413-1.341,10.621-1.866,14.33-.543,3.848-1.053,7.486-1.3,9.762-.819,7.689-3.588,25.564-5.812,39.926-1.583,10.214-3.079,19.858-3.242,21.953-.354,4.357,1.454,9.77,5.589,11.686a7.51,7.51,0,0,0,1.719.551c5.184,1.016,9.641-3.649,10.978-8.739.507-1.924,2.061-10.274,4.027-20.85l.168-.911c2.646-14.256,5.94-32,7.72-39.558.685-2.908,1.333-6.544,1.958-10.061.709-3.959,1.748-9.76,2.772-13.324a1.489,1.489,0,0,1,2.919.4c.045,5.641-1.194,16.519-2.016,23.722-.814,7.156-1.509,13.272-1.488,16.409.047,7.946-.509,24.381-.919,36.379l-.029.916c-.323,9.712-.575,17.388-.512,19.448.131,3.948,2.134,9.059,6.226,10.954a7.644,7.644,0,0,0,2.546.682c5.365.425,9.345-4.777,10.114-10.117.294-2.037.814-9.694,1.475-19.388.832-12.324,1.966-29.042,2.922-37.093.4-3.334.871-9.153,1.331-14.781.633-7.709,1.588-19.354,2.457-25.024a1.488,1.488,0,0,1,2.919-.115c.979,4.163,1.814,11.993,2.362,17.175.291,2.67.559,5.174.84,7.421,1.016,8.129,1.89,26.995,2.588,42.151.452,9.739.874,18.936,1.179,20.984.551,3.633,2.811,8.087,6.615,9.849a8.132,8.132,0,0,0,3.444.722c5.342-.16,8.678-5.851,8.817-11.261.047-2.1-.412-11.655-.95-22.721-.719-14.907-1.617-33.46-1.627-41.4l1.034-36.342c.383-2.672.546-5.987.7-9.192a71.379,71.379,0,0,1,.871-9.6,1.487,1.487,0,0,1,2.583-.635c2.118,2.481,3.139,6.631,4.431,11.883.843,3.428,1.887,7.691,3.486,12.542,1.5,6.426,3.6,14.23,5.1,19.671,2.386,8.6,7.282,12.442,10.967,14.143,4.638,2.145,9.274,1.83,11.279.446,2.139-1.483.814-5.625-1.528-12.258-1.73-4.906-3.67-10.416-4.045-15.443l-.037-.16c-1.1-2.832-1.328-6.079-1.638-10.568a129.4,129.4,0,0,0-5.749-31.919c-.7-2.331-1.593-5.9-2.454-9.337-2.462-9.77-5.484-21.769-8.9-28.192a90.032,90.032,0,0,0-7.765-11.119c-5.667-7.381-12-15.624-14.361-24.081a1.538,1.538,0,0,1-.05-.292l-.3-4.09-.709-99.858c-.543-22.793,1.8-70.519,3.51-105.368.36-7.295.693-14.078.969-20.031.774-16.611-2.911-35.891-6.478-54.541-3.8-19.866-7.384-38.631-4.827-51.418,7.6-56.507,2.281-101.321-2-137.33-3.09-26.018-5.762-48.488-3.113-69.16a1.432,1.432,0,0,1,.066-.278c.2-.606,19.85-60.9,6.085-95.273a1.489,1.489,0,0,1,2.764-1.108c13.973,34.894-4.662,93.154-5.98,97.178-2.57,20.267.076,42.524,3.134,68.288,4.3,36.177,9.647,81.2,1.977,138.172-2.46,12.308,1.076,30.8,4.819,50.37,3.6,18.816,7.316,38.274,6.526,55.237-.278,5.953-.612,12.742-.969,20.036-1.711,34.8-4.048,82.468-3.507,105.179l.7,99.782.286,3.843c2.239,7.856,8.342,15.8,13.729,22.819a92.721,92.721,0,0,1,8.119,11.647c3.58,6.738,6.652,18.931,9.119,28.73.887,3.541,1.769,7.069,2.452,9.332a132.219,132.219,0,0,1,5.867,32.57c.294,4.234.5,7.287,1.446,9.71l.11.289a1.417,1.417,0,0,1,.092.4l.024.3c.349,4.649,2.221,9.962,3.869,14.647,2.549,7.219,4.549,12.883.433,15.737-2.667,1.843-8.261,2.572-14.222-.189-4.255-1.969-9.9-6.347-12.587-16.054-1.515-5.468-3.628-13.316-5.1-19.661-1.6-4.833-2.659-9.159-3.512-12.634-.614-2.5-1.163-4.725-1.774-6.565-.108,1.517-.184,3.082-.247,4.357-.16,3.276-.326,6.662-.717,9.305l-1.016,36.119c.013,7.825.906,26.341,1.625,41.217.559,11.581,1,20.729.95,22.937-.176,6.8-4.6,13.949-11.707,14.159a10.54,10.54,0,0,1-4.78-.992c-4.806-2.223-7.636-7.683-8.305-12.109-.31-2.095-.661-9.452-1.21-21.286-.7-15.107-1.564-33.906-2.567-41.92-.283-2.265-.554-4.785-.835-7.374-.178-1.688-.4-3.748-.648-5.888-.438,4.688-.85,9.71-1.173,13.673-.465,5.659-.94,11.505-1.347,14.894-.945,7.974-2.074,24.651-2.9,36.825-.672,9.875-1.2,17.579-1.5,19.729-.927,6.41-5.767,12.7-12.4,12.7" transform="matrix(0.995, -0.105, 0.105, 0.995, 17.642, 309.88)" fill="#fff"/>
        <path id="パス_1171" data-name="パス 1171" d="M41.4,510.307a6.982,6.982,0,0,1-2.625-.575,7.591,7.591,0,0,1-3.247-1.908c-2.709-2.832.433-13.387,2.05-16.112,1.223-2.047,5.305-1.688,6.8-1.2,1.7.564,4.93,2.882,4.8,5.119-.181,3.247-2.987,13.886-6.875,14.595a4.916,4.916,0,0,1-.906.081m.64-1.544h0Zm-.368-15.66a3.711,3.711,0,0,0-1.646.262c-1.83,3.139-3.216,11.222-2.334,12.419a4.615,4.615,0,0,0,1.9,1.079c.034.01.26.094.289.108a3.8,3.8,0,0,0,1.861.333c1.431-.627,4.258-8.119,4.465-11.841a6.643,6.643,0,0,0-2.764-2.124,5.987,5.987,0,0,0-1.772-.236" transform="translate(56.007 796.444)" fill="#1a1311"/>
        <path id="パス_1172" data-name="パス 1172" d="M100.411,501.016a5.362,5.362,0,0,1-3.268-1.278c-4.99-3.872-9.547-16.4-9.8-18.467a3.017,3.017,0,0,1,.911-2.612c1.953-1.845,6.45-1.213,7.778-.984a1.49,1.49,0,0,1-.517,2.935c-2.467-.433-4.88-.228-5.232.228.226,1.751,4.581,13.377,8.686,16.55a2.316,2.316,0,0,0,1.575.64,1.506,1.506,0,0,1,1.669,1.284,1.487,1.487,0,0,1-1.281,1.669,3.929,3.929,0,0,1-.525.034" transform="translate(141.893 775.726)" fill="#1a1311"/>
        <path id="パス_1173" data-name="パス 1173" d="M46.23,489.794a13.37,13.37,0,0,1-8.1-2.927,1.489,1.489,0,1,1,1.948-2.252,10.35,10.35,0,0,0,6.783,2.179,1.528,1.528,0,0,1,1.593,1.378,1.489,1.489,0,0,1-1.378,1.591c-.284.021-.57.031-.845.031" transform="translate(61.123 786.886)" fill="#1a1311"/>
        <path id="パス_1174" data-name="パス 1174" d="M47.9,484.168l-.066,0c-5.169-.234-7.121-2.365-8.547-3.922a1.488,1.488,0,1,1,2.194-2.011c1.31,1.431,2.546,2.782,6.484,2.958a1.489,1.489,0,0,1-.066,2.977" transform="translate(63.205 776.321)" fill="#1a1311"/>
        <path id="パス_1175" data-name="パス 1175" d="M49.115,482.76a1.479,1.479,0,0,1-1.1-.486,9.7,9.7,0,0,0-7-3.137,1.488,1.488,0,0,1-1.425-1.549,1.529,1.529,0,0,1,1.549-1.425,12.571,12.571,0,0,1,9.074,4.1,1.488,1.488,0,0,1-1.1,2.494" transform="translate(64.328 773.742)" fill="#1a1311"/>
        <path id="パス_1176" data-name="パス 1176" d="M52.163,523.659a5.372,5.372,0,0,1-.966-.071,8.723,8.723,0,0,1-3.982-1.908c-3.447-2.979-2.2-13.316-.4-17.724,1.032-2.53,5.562-2.992,7.82-2.538,1.37.283,6.484,1.969,6.665,5.04.328,5.024-1.284,15.164-5.523,16.611a11.673,11.673,0,0,1-3.609.591m.764-19.427c-1.5,0-3.1.462-3.37.871-1.9,4.649-2.129,12.828-.4,14.324a5.783,5.783,0,0,0,2.612,1.241,8.68,8.68,0,0,0,3.04-.415h0c1.887-.648,3.856-8.279,3.515-13.613-.168-.549-2.315-1.9-4.289-2.31a5.893,5.893,0,0,0-1.113-.1" transform="translate(73.179 814.529)" fill="#1a1311"/>
        <path id="パス_1177" data-name="パス 1177" d="M78.683,527.18a6.1,6.1,0,0,1-2.94-.7c-4.079-2.223-5.221-12.771-4.486-17.771.4-2.717,4.982-4.7,7.311-4.738.029,0,.058,0,.084,0,2.278,0,6.909,1.105,7.7,3.741,1.473,4.851,2.255,15.6-1.575,17.994a9.662,9.662,0,0,1-4.47,1.344,11.694,11.694,0,0,1-1.627.134m0-20.236h-.068c-1.641.031-4.2,1.525-4.415,2.221-.764,5.192.927,13.584,2.966,14.7a4.15,4.15,0,0,0,2.544.263,4.914,4.914,0,0,1,.554-.052,6.683,6.683,0,0,0,2.937-.89H83.2c1.572-.984,2.011-8.993.3-14.611-.273-.572-2.843-1.627-4.827-1.627" transform="translate(115.451 818.924)" fill="#1a1311"/>
        <path id="パス_1178" data-name="パス 1178" d="M64.049,530.262a6.14,6.14,0,0,1-3.6-1.011c-3.759-2.62-3.541-13.75-2.176-18.7.69-2.494,5.331-4.179,7.835-3.945,1.764.176,6.772,1.562,7.295,4.462.916,5.205.105,16.351-3.916,18.238h0a10.638,10.638,0,0,1-4.56.927c-.255.01-.551.026-.874.026m4.8-2.3h0Zm-3.334-18.406c-1.63,0-4.108,1.166-4.384,1.806-1.433,5.19-.848,14.149,1.013,15.445a3.687,3.687,0,0,0,2.378.462,4.852,4.852,0,0,1,.7.005,7.8,7.8,0,0,0,2.987-.661c1.722-.808,3.26-9.329,2.255-15.02-.218-.562-2.656-1.822-4.662-2.021a2.583,2.583,0,0,0-.291-.016" transform="translate(93.215 823.18)" fill="#1a1311"/>
        <path id="パス_1179" data-name="パス 1179" d="M78.071,502.145a13.6,13.6,0,0,1-5.977-1.4,1.488,1.488,0,1,1,1.42-2.615,10.406,10.406,0,0,0,7.1.677,1.489,1.489,0,1,1,.845,2.856,11.912,11.912,0,0,1-3.384.483" transform="translate(115.884 809.137)" fill="#1a1311"/>
        <path id="パス_1180" data-name="パス 1180" d="M65.491,492.018a10.256,10.256,0,0,1-5.323-1.572,1.486,1.486,0,1,1,1.415-2.614c1.709.921,3.326,1.8,7.1.68a1.489,1.489,0,1,1,.845,2.856,14.2,14.2,0,0,1-4.037.651" transform="translate(96.5 792.408)" fill="#1a1311"/>
        <path id="パス_1181" data-name="パス 1181" d="M65.488,504.285a13.613,13.613,0,0,1-5.988-1.407,1.488,1.488,0,1,1,1.42-2.614,10.439,10.439,0,0,0,7.09.688,1.489,1.489,0,0,1,.84,2.856,11.826,11.826,0,0,1-3.363.478" transform="translate(95.419 812.609)" fill="#1a1311"/>
        <path id="パス_1182" data-name="パス 1182" d="M55.633,501.169a13.392,13.392,0,0,1-7.9-2.746,1.488,1.488,0,1,1,1.893-2.3,10.51,10.51,0,0,0,6.83,2.026,1.487,1.487,0,1,1,.286,2.961q-.567.055-1.11.055" transform="translate(76.686 805.627)" fill="#1a1311"/>
        <path id="パス_1183" data-name="パス 1183" d="M69.786,490.039a1.475,1.475,0,0,1-.709-.181,9.575,9.575,0,0,0-7.639-.682,1.487,1.487,0,0,1-.851-2.851,12.55,12.55,0,0,1,9.909.919,1.488,1.488,0,0,1-.711,2.8" transform="translate(96.725 789.265)" fill="#1a1311"/>
        <path id="パス_1184" data-name="パス 1184" d="M76.089,491.524a10.968,10.968,0,0,1-4.3-.979,1.489,1.489,0,0,1,1.1-2.769c1.8.716,3.5,1.394,7.116-.179a1.488,1.488,0,1,1,1.189,2.727,12.707,12.707,0,0,1-5.1,1.2" transform="translate(115.123 792.12)" fill="#1a1311"/>
        <path id="パス_1185" data-name="パス 1185" d="M72.262,489.445a1.489,1.489,0,0,1-.591-2.856,12.626,12.626,0,0,1,9.943-.284,1.487,1.487,0,1,1-1.089,2.767,9.628,9.628,0,0,0-7.673.249,1.528,1.528,0,0,1-.591.123" transform="translate(115.002 788.784)" fill="#1a1311"/>
        <path id="パス_1186" data-name="パス 1186" d="M55.287,490.456a10.212,10.212,0,0,1-7.017-2.567,1.487,1.487,0,0,1,1.827-2.347c1.528,1.189,2.966,2.3,6.885,1.824a1.488,1.488,0,0,1,.37,2.953,16.926,16.926,0,0,1-2.066.137" transform="translate(77.502 788.471)" fill="#1a1311"/>
        <path id="パス_1187" data-name="パス 1187" d="M58.129,488.809a1.478,1.478,0,0,1-.913-.315,9.626,9.626,0,0,0-7.436-1.919,1.488,1.488,0,1,1-.362-2.953,12.62,12.62,0,0,1,9.626,2.523,1.49,1.49,0,0,1-.913,2.664" transform="translate(78.174 785.671)" fill="#1a1311"/>
        <path id="パス_1188" data-name="パス 1188" d="M69.472,479.91a1.486,1.486,0,0,1-1.315-.8,5.7,5.7,0,0,0-1.89-2.268,1.489,1.489,0,0,1,1.549-2.544,8.466,8.466,0,0,1,2.971,3.423,1.487,1.487,0,0,1-.619,2.011,1.467,1.467,0,0,1-.7.173" transform="translate(106.521 770.371)" fill="#1a1311"/>
        <path id="パス_1189" data-name="パス 1189" d="M60.472,483.229A1.489,1.489,0,0,1,59,481.906c-.436-3.88-1.265-6.5-2.47-7.775a1.488,1.488,0,1,1,2.168-2.04c1.68,1.782,2.743,4.885,3.258,9.481a1.486,1.486,0,0,1-1.312,1.646c-.055.005-.113.01-.168.01" transform="translate(91.196 766.367)" fill="#1a1311"/>
        <path id="パス_1190" data-name="パス 1190" d="M50.241,484.114h-.013a1.492,1.492,0,0,1-1.475-1.5c.047-5.7-.512-10.067-1.711-13.337a1.489,1.489,0,0,1,2.8-1.026c1.326,3.612,1.942,8.319,1.893,14.39a1.489,1.489,0,0,1-1.488,1.475" transform="translate(76.292 759.297)" fill="#1a1311"/>
        <path id="パス_1191" data-name="パス 1191" d="M164.456,842.492a1.491,1.491,0,0,1-.929-2.654c5.644-4.507,6.457-10.3,6.116-11.9a1.821,1.821,0,0,0-.446-.68.676.676,0,0,1-.094-.079c-.864-.457-6.053-2.78-20.427-1.4a1.575,1.575,0,0,1-.543-.008,1.463,1.463,0,0,1-.4-.136,10.62,10.62,0,0,1-2.024-1.483c-2.071-1.774-5.2-4.46-14.393-5.78-10.219-1.473-12.826-2.575-16.771-4.242a92.563,92.563,0,0,0-8.8-3.284,1.489,1.489,0,0,1,.908-2.835,95.79,95.79,0,0,1,9.053,3.376c3.864,1.633,6.2,2.62,16.036,4.037,10.048,1.446,13.715,4.589,15.907,6.468a13.653,13.653,0,0,0,1.1.89c16.718-1.554,21.719,1.69,22.236,2.066a1.6,1.6,0,0,1,.289.275,4.645,4.645,0,0,1,1.278,2.192c.69,3.234-1.076,9.983-7.169,14.852a1.5,1.5,0,0,1-.929.325" transform="translate(170.147 1312.862)" fill="#1a1311"/>
        <path id="パス_1192" data-name="パス 1192" d="M161.245,837.209a1.515,1.515,0,0,1-.69-.168,1.5,1.5,0,0,1-.63-2.011,5.537,5.537,0,0,0,.7-2.063l-8.211-3.1a1.506,1.506,0,0,1-.48-.291c-3.252-2.974-12.508-7.059-19.569-9.387-1.339-.441-2.444-.829-3.454-1.184-4.436-1.549-7.114-2.489-20.987-4.864a1.487,1.487,0,1,1,.5-2.932c14.12,2.417,16.886,3.386,21.467,4.987,1,.349,2.087.73,3.407,1.165,7.387,2.439,16.668,6.56,20.422,9.82l8.444,3.184a1.451,1.451,0,0,1,.284.142c1.494.969,1.538,3.174.118,5.9a1.491,1.491,0,0,1-1.32.8" transform="translate(173.358 1318.144)" fill="#1a1311"/>
        <path id="パス_1193" data-name="パス 1193" d="M126.072,830.435a20.108,20.108,0,0,1-3.914-.415,1.488,1.488,0,0,1,.58-2.919,15.626,15.626,0,0,0,4.56.3,12.617,12.617,0,0,0,9.431-6.636,1.489,1.489,0,1,1,2.638,1.381c-1.8,3.439-5.961,7.657-11.783,8.219q-.74.071-1.512.071" transform="translate(196.555 1332.411)" fill="#1a1311"/>
        <path id="パス_1194" data-name="パス 1194" d="M122.449,826.691a1.488,1.488,0,0,1-1.184-2.391,9.254,9.254,0,0,0,.921-1.446,1.487,1.487,0,1,1,2.654,1.344,12.214,12.214,0,0,1-1.207,1.906,1.479,1.479,0,0,1-1.184.588" transform="translate(196.554 1335.769)" fill="#1a1311"/>
        <path id="パス_1195" data-name="パス 1195" d="M151.026,840.212a1.489,1.489,0,0,1-1.326-2.163,4.173,4.173,0,0,0,.533-1.659l-7.3-4.428a1.453,1.453,0,0,1-.53-.554c-2.318-4.2-7.269-7.88-13.238-9.849-1.312-.431-2.394-.811-3.386-1.16-4.336-1.517-6.953-2.436-20.514-4.759a1.489,1.489,0,0,1,.5-2.935c13.8,2.368,16.511,3.315,20.994,4.888.976.341,2.042.711,3.334,1.139,6.5,2.144,11.967,6.2,14.71,10.888l7.342,4.449a1.582,1.582,0,0,1,.268.207c1.079,1.058,1.058,2.924-.063,5.119a1.483,1.483,0,0,1-1.326.816" transform="translate(169.04 1320.573)" fill="#1a1311"/>
        <path id="パス_1196" data-name="パス 1196" d="M121.185,831.028a17.815,17.815,0,0,1-4.914-.746,1.488,1.488,0,0,1,.819-2.861,13.869,13.869,0,0,0,5.163.58,12.146,12.146,0,0,0,8.384-4.738,1.487,1.487,0,0,1,2.368,1.8,15.131,15.131,0,0,1-10.463,5.9c-.446.042-.9.063-1.357.063" transform="translate(187.182 1336.807)" fill="#1a1311"/>
        <path id="パス_1197" data-name="パス 1197" d="M115.976,826.586a1.487,1.487,0,0,1-1.239-.661,21.823,21.823,0,0,0-3.4-3.945,1.488,1.488,0,0,1,2.011-2.195,24.636,24.636,0,0,1,3.859,4.483,1.485,1.485,0,0,1-.41,2.063,1.457,1.457,0,0,1-.824.255" transform="translate(180.139 1331.477)" fill="#1a1311"/>
        <path id="パス_1198" data-name="パス 1198" d="M116.725,834.025a20.63,20.63,0,0,1-7.544-1.6,1.487,1.487,0,0,1,1.087-2.769A16.356,16.356,0,0,0,117.809,831c4.7-.431,7.849-3.2,8.791-5.594a1.486,1.486,0,1,1,2.767,1.087c-1.3,3.323-5.3,6.927-11.285,7.471-.446.039-.9.061-1.357.061" transform="translate(175.878 1339.709)" fill="#1a1311"/>
        <path id="パス_1199" data-name="パス 1199" d="M121.478,833.066a1.518,1.518,0,0,1-.541-.1,1.488,1.488,0,0,1-.845-1.927,3.01,3.01,0,0,0,.244-1.042l-6.644-4.946a1.5,1.5,0,0,1-.4-.446c-.241-.415-.509-.848-.8-1.286a1.487,1.487,0,0,1,2.47-1.656q.406.6.751,1.179l6.7,5a1.622,1.622,0,0,1,.249.236c.782.927.851,2.363.2,4.048a1.492,1.492,0,0,1-1.386.948" transform="translate(182.384 1334.085)" fill="#1a1311"/>
        <path id="パス_1200" data-name="パス 1200" d="M131.9,829.612a1.493,1.493,0,0,1-1.005-.391,21.528,21.528,0,0,0-8.158-4.654c-2.215-.7-3.7-1.286-5.127-1.856-3.223-1.281-6.266-2.491-17.592-4.827a1.489,1.489,0,0,1,.6-2.917c11.581,2.391,14.744,3.649,18.091,4.977,1.381.551,2.809,1.118,4.919,1.782a24.507,24.507,0,0,1,9.277,5.3,1.489,1.489,0,0,1-1.005,2.586" transform="translate(160.589 1324.235)" fill="#1a1311"/>
        <path id="パス_1201" data-name="パス 1201" d="M120.2,828.937a1.488,1.488,0,0,1-.622-.139,24.822,24.822,0,0,0-3.6-1.357c-2.292-.656-3.825-1.208-5.308-1.743-3.347-1.208-6.507-2.352-18.27-4.557a1.49,1.49,0,0,1-1.189-1.738,1.513,1.513,0,0,1,1.738-1.189c12,2.252,15.269,3.433,18.732,4.683,1.436.517,2.919,1.055,5.113,1.682a26.935,26.935,0,0,1,4.027,1.517,1.488,1.488,0,0,1-.622,2.84" transform="translate(148.168 1329.525)" fill="#1a1311"/>
        <path id="パス_1202" data-name="パス 1202" d="M120.4,837.907a1.5,1.5,0,0,1-1.378-.914l-6.83-4.62a1.52,1.52,0,0,1-.423-.436,21.5,21.5,0,0,0-9.24-7.946,1.487,1.487,0,0,1,1.247-2.7,24.5,24.5,0,0,1,10.334,8.786l6.953,4.7a1.765,1.765,0,0,1,.262.223,2,2,0,0,1,.452.866,1.486,1.486,0,0,1-1.378,2.037" transform="translate(165.207 1334.33)" fill="#1a1311"/>
        <path id="パス_1203" data-name="パス 1203" d="M124.733,837.777c-6.085,0-12.1-3.234-16.17-5.426a33.283,33.283,0,0,0-3.775-1.864c-2.916-1.026-9.263-1.262-11.6-1.231h0a1.49,1.49,0,0,1,0-2.979c.247.021,8.6,0,12.6,1.4a35.047,35.047,0,0,1,4.192,2.053c4.313,2.315,10.2,5.512,15.884,5.021,5.544-.462,8.017-3.42,8.644-4.315a2.915,2.915,0,0,0,.719-1.811,1.487,1.487,0,1,1,2.767-1.092,4.743,4.743,0,0,1-.766,4.179c-1.6,2.588-5.36,5.525-11.119,6.009-.454.034-.911.055-1.368.055" transform="translate(149 1342.661)" fill="#1a1311"/>
        <path id="パス_1204" data-name="パス 1204" d="M226.03,2176.482c-2.31,0-4.546-.061-6.691-.184-.869-.055-1.748-.115-2.633-.2-9.158-.788-20.787-3.368-33.1-6.1-22.981-5.092-49.024-10.867-73.1-9.009-8.219.632-15.868,1.441-22.619,2.157-25.908,2.738-43.026,4.549-58.274-5.772-17.894-12.036-9.576-41.991-1.528-70.963,3.011-10.844,6.127-22.06,7.736-31.964a1.553,1.553,0,0,1,.36-.761c1.969-16.338,2.979-28.313,3.242-38.579a1.442,1.442,0,0,0,.953,1.166,1.923,1.923,0,0,1-.979-1.617c.328-63.852-7.478-109.733-14.366-150.213-4.951-29.1-9.626-56.581-10.744-86.975-1.543-44.8,8.98-75.365,16.666-97.682,3.874-11.258,7.224-20.981,8.185-29.78,1.449-8.379,3-16.863,4.56-25.423,6.851-37.537,13.941-76.349,12.954-106.056.4-8.518.454-17.755.144-27.581-.908-28.785-2.685-70.737-5.969-107.132-2.32-25.7-4.158-69.141-5.935-111.154-1.131-26.78-2.2-52.074-3.307-70.252,0-2.425-.273-7.618-.339-8.822-3.276-7.835-7.557-16.241-12.088-25.137C15.718,1142.091.488,1112.2.032,1076.995-.89,1011.883,18.315,980.5,36.889,950.152c15.485-25.294,30.106-49.186,30.384-91.02.262-39.789-12.3-99.223-20.729-121.073-.9-2.334-1.958-5-3.139-7.983C33.56,705.257,15.233,659.063,8.219,604.9-.876,534.54,4.988,510.356,11.2,484.75c1.294-5.344,2.635-10.87,3.806-16.8,3.8-69.333,30.893-106.857,47.079-129.274,5.006-6.935,8.962-12.416,11.222-17.217,8.177-25.719,4.486-85.035.142-98.982-1.7-5.455-6.135-11.957-11.264-19.482-13.282-19.49-33.355-48.945-30.1-96.257C36.471,42.894,87.031,0,157.881,0c65.038,0,94.412,33.941,112.734,63.508.136.192,17.548,35.2,15.574,63.083-.076,1.1-.186,2.192-.323,3.276-.412,3.218-1.126,6.352-1.816,9.384-1.331,5.848-2.588,11.374-1.058,15.461,2.772,7.413,15.8,35.358,16.332,36.3,4.846,8.295,8.347,14.293,2.683,19.892-3.559,3.531-8.988,4.809-12.235,5.575a17.625,17.625,0,0,0-2.074.559c-1.467.677-2,1.257-2.1,2.3-.134,1.37,1.782,11.881,2.037,13.07a8.827,8.827,0,0,1-.221,6.051,12.01,12.01,0,0,1-2.336,3.349c-.4.9-1.5,1.268-2.339,1.549a7.191,7.191,0,0,0-1.732.746c.071.152.147.318.228.491,1.1,2.373,2.759,5.953,1.4,8.786a10.057,10.057,0,0,1-2.4,2.32c-1.9,1.488-4.5,3.528-4.877,6.268a27.528,27.528,0,0,0,.055,4.255l.055,1.063c.042.811.121,1.743.2,2.756.388,4.612.916,10.928-1.058,15.771-2.029,4.959-8.92,14.857-20.493,16.839a19.506,19.506,0,0,1-3.271.247c-8.061-.005-16.406-2.061-23.766-3.877-6.324-1.557-11.8-2.908-15.051-2.407-1.465,2.315-5.108,21.291-7.079,31.56-1.215,6.326-2.263,11.791-2.866,14.054-2.037,7.625-2.914,16.317-3.575,23.863a62.637,62.637,0,0,0-.331,7.022c.394,11.432,2.57,15.66,3.491,16.947a1.716,1.716,0,0,1,.147.263,9.607,9.607,0,0,0,1.929,2.189l.344.357c6.035,6.287,9.626,12.912,10.668,19.685.7,4.575,10.474,17.873,21.792,33.269,15.238,20.729,34.2,46.525,47.638,72.073,6.691,12.715,23.987,51.021,24.092,51.281,2.46,5.966,6.717,21.635,9.389,31.531,5.68,1.341,6.534,5.434,6.534,7.822,0,3.237-2.565,6.7-5.187,8.434-.029,2.16-.037,4.434-.047,6.807-.074,17.85-.173,42.267-8.421,66.852.165,1.415.423,3.425.738,5.84,1.63,12.61,4.665,36.088,3.09,43.889-.85,4.693-1.746,10.182-2.651,15.745-.8,4.88-1.6,9.82-2.4,14.351-.249,10.09-1.58,20.566-2.869,30.7-.9,7.114-1.756,13.831-2.124,19.716-.252,4.09-.638,7.171-1.011,10.153-.42,3.36-.853,6.835-1.118,11.867-.2,3.874-.543,7.565-.937,11.639-1.139,11.883-1.995,24.648-.543,37.5l.717,6.316c1.732,15.162,3.229,28.255,3.192,38.634-.005,2.559.247,5.8.541,9.544.336,4.3.717,9.174.822,14.466.425,21.275-1.57,54.447-8.439,83.741-3.384,14.393-5.195,27.683-6.793,39.411l-.407,2.966c2.221,18.131,3.342,61.421-7.266,80.914a1.489,1.489,0,0,1-2.614-1.425c10.3-18.923,9.1-61.61,6.9-79.316a1.461,1.461,0,0,1,0-.386l.431-3.155c1.609-11.794,3.431-25.16,6.848-39.689,6.8-29.027,8.78-61.907,8.36-83-.1-5.2-.483-10.033-.814-14.29-.3-3.814-.554-7.108-.549-9.786.034-10.206-1.452-23.22-3.174-38.288l-.719-6.321c-1.48-13.119-.617-26.071.538-38.114.391-4.042.73-7.7.927-11.51.27-5.142.711-8.67,1.139-12.08.386-3.071.748-5.974.995-9.972.37-5.98,1.229-12.742,2.139-19.9,1.278-10.056,2.6-20.459,2.869-30.617.816-4.738,1.62-9.665,2.41-14.532.911-5.583,1.809-11.091,2.67-15.826,1.483-7.35-1.512-30.507-3.121-42.949-.339-2.625-.617-4.777-.78-6.213a1.537,1.537,0,0,1,.068-.646c8.2-24.234,8.3-48.5,8.371-66.228.01-2.691.021-5.253.06-7.667a1.481,1.481,0,0,1,.8-1.294c2.024-1.066,4.376-4.035,4.376-6.266,0-3.712-2.5-4.633-4.678-5.019a1.938,1.938,0,0,1-1.068-.433,1.488,1.488,0,0,1-.446-.722c-2.462-9.114-7.043-26.076-9.5-32.045-.126-.294-17.214-38.183-23.976-51.029-13.335-25.352-32.224-51.047-47.4-71.7-12.5-17-21.525-29.284-22.338-34.578-.948-6.158-4.271-12.24-9.875-18.078l-.291-.307a11.161,11.161,0,0,1-2.486-2.951c-1.344-1.956-3.562-6.893-3.958-18.456a65.167,65.167,0,0,1,.341-7.384c.672-7.67,1.562-16.516,3.662-24.37.575-2.16,1.614-7.578,2.819-13.849,4.927-25.654,6.688-32.576,8.584-33.673a1.472,1.472,0,0,1,.436-.168c3.84-.814,9.817.654,16.747,2.36,7.2,1.774,15.356,3.785,23.055,3.79a16.344,16.344,0,0,0,2.769-.2c9.542-1.633,16.133-9.883,18.238-15.03,1.7-4.179,1.21-10.085.848-14.4-.089-1.05-.168-2.013-.213-2.853l-.055-1.055a28.191,28.191,0,0,1-.029-4.819c.541-3.935,3.817-6.5,5.985-8.206a11.05,11.05,0,0,0,1.656-1.446c.648-1.386-.706-4.315-1.517-6.066a16.776,16.776,0,0,1-.677-1.585,1.481,1.481,0,0,1,.134-1.218,6.471,6.471,0,0,1,3.8-2.509c.207-.068.467-.155.648-.226a1.5,1.5,0,0,1,.289-.368,8.943,8.943,0,0,0,2-2.777,6.247,6.247,0,0,0,.005-4.069c-.026-.1-2.315-11.891-2.105-14.041.265-2.746,2.184-3.964,3.822-4.72a15.686,15.686,0,0,1,2.635-.751c2.937-.7,7.857-1.856,10.823-4.8,3.693-3.651,2.16-7.166-3.16-16.277-.772-1.315-13.849-29.539-16.55-36.76-1.843-4.922-.491-10.867.942-17.165.675-2.961,1.373-6.024,1.767-9.1.131-1.026.236-2.063.307-3.108,1.885-26.6-15.025-61.075-15.2-61.416-18.965-30.6-46.942-61.991-110.143-61.991-69.189,0-118.553,41.781-122.835,103.967-3.181,46.283,15.763,74.079,29.6,94.375,5.263,7.723,9.809,14.4,11.642,20.275,4.426,14.2,8.179,74.58-.218,100.95-2.446,5.234-6.476,10.812-11.573,17.876-17.028,23.588-42.763,59.232-46.54,127.9-1.213,6.2-2.559,11.757-3.864,17.13-6.142,25.331-11.944,49.255-2.916,119.068,6.967,53.791,25.2,99.761,35,124.457,1.186,2.992,2.247,5.67,3.153,8.009,8.507,22.063,21.191,82.04,20.923,122.165-.281,42.661-15.112,66.9-30.817,92.556-18.354,29.987-37.335,61-36.421,125.25.449,34.51,15.508,64.073,28.8,90.154,4.6,9.035,8.951,17.572,12.282,25.578a1.574,1.574,0,0,1,.113.488c.011.26.36,6.421.354,9.156,1.1,18.11,2.171,43.419,3.307,70.212,1.774,41.978,3.612,85.385,5.925,111.014,3.292,36.463,5.071,78.478,5.98,107.306.312,9.9.262,19.22-.144,27.693.995,29.906-6.119,68.879-13,106.568-1.559,8.552-3.105,17.028-4.541,25.3-.984,9.038-4.381,18.908-8.316,30.334-8.032,23.328-18.028,52.363-16.506,96.609,1.11,30.192,5.77,57.584,10.7,86.579,6.909,40.6,14.736,86.621,14.408,150.7l-.024,0a2.581,2.581,0,0,1,.047.475c-.27,10.642-1.326,22.992-3.415,40.115a1.537,1.537,0,0,1-.425.885c-1.662,9.688-4.68,20.564-7.6,31.087-7.765,27.956-15.794,56.859.323,67.7,14.351,9.717,31.037,7.951,56.3,5.281,6.77-.717,14.445-1.528,22.7-2.166,24.533-1.879,50.8,3.935,73.979,9.072,12.211,2.706,23.745,5.263,32.712,6.04.861.073,1.709.134,2.551.184a152.707,152.707,0,0,0,35.508-2.612,1.5,1.5,0,0,1,1.74,1.187,1.484,1.484,0,0,1-1.186,1.738,164.122,164.122,0,0,1-29.549,2.845m90.443-1574.51h0ZM282.261,241.018v0Z" transform="translate(0)" fill="#fff"/>
        <path id="パス_1205" data-name="パス 1205" d="M200.9,1432.319a1.472,1.472,0,0,1-.8-.236,129.593,129.593,0,0,0-29.665-14.274c-1.2-.386-2.412-.761-3.638-1.139-13.847-4.258-31.688-16.275-48.945-27.9-12.579-8.471-24.459-16.471-34.817-21.648-28.21-14.109-31.728-45.249-32.885-55.484-2.373-20.926,3.423-123.389,11.894-169.247,2.184-11.925,4.053-21.753,5.72-30.042,4.672-23.047,9.681-53.987,14.526-83.907,6.245-38.569,12.143-75,16.256-87.411,2.659-7.99,7.925-13.784,13.5-19.918,11.445-12.587,25.685-28.252,25.685-72.139,0-12.463,3.029-23.3,5.7-32.862.866-3.1,1.706-6.1,2.412-9.038a114.444,114.444,0,0,1,3.376-11.009c1.176-3.334,2.654-7.274,4.355-11.8,9.962-26.525,26.633-70.921,34.849-131.886,2.567-19.041,6.058-56,7.455-97.48.7-20.679,1.042-44.574,1.378-67.684.315-21.74.617-42.272,1.181-59.466a1.4,1.4,0,0,1,1.533-1.439,1.486,1.486,0,0,1,1.439,1.536c-.562,17.165-.861,37.684-1.176,59.413-.336,23.121-.685,47.034-1.381,67.739-1.152,34.232-4.087,72.614-7.481,97.78-8.258,61.3-25.005,105.888-35.014,132.534-1.688,4.5-3.16,8.421-4.329,11.739a111.3,111.3,0,0,0-3.292,10.72c-.714,2.966-1.562,6-2.439,9.14-2.62,9.376-5.589,20-5.589,32.058,0,45.039-14.671,61.175-26.46,74.142-5.591,6.148-10.418,11.461-12.878,18.85-4.035,12.193-9.917,48.506-16.141,86.951-4.851,29.948-9.867,60.917-14.547,84.02-1.662,8.269-3.531,18.081-5.712,29.993-8.237,44.59-14.159,148.121-11.862,168.375,1.11,9.836,4.491,39.771,31.255,53.155,10.531,5.26,22.493,13.317,35.153,21.842,17.075,11.5,34.733,23.393,48.157,27.52,1.234.383,2.457.761,3.662,1.15a132.671,132.671,0,0,1,30.371,14.6,1.489,1.489,0,0,1-.806,2.743" transform="translate(80.621 692.727)" fill="#1a1311"/>
      </g>
    </g>
    <circle id="楕円形_36" data-name="楕円形 36" cx="53.884" cy="53.884" r="53.884" transform="translate(209 960.378)" fill="url(#radial-gradient)"/>
  </g>
</svg>
