<svg id="number_image_03" xmlns="http://www.w3.org/2000/svg" xmlns:xlink="http://www.w3.org/1999/xlink" width="658" height="370" viewBox="0 0 658 370">
  <defs>
    <clipPath id="clip-path">
      <rect id="長方形_13" data-name="長方形 13" width="658" height="370" transform="translate(6 243.343)" fill="#333f69"/>
    </clipPath>
    <clipPath id="clip-path-2">
      <rect id="長方形_384" data-name="長方形 384" width="640.006" height="1442.698" fill="none"/>
    </clipPath>
    <radialGradient id="radial-gradient" cx="0.5" cy="0.5" r="0.5" gradientUnits="objectBoundingBox">
      <stop offset="0" stop-color="red"/>
      <stop offset="1" stop-color="red" stop-opacity="0"/>
    </radialGradient>
  </defs>
  <g id="マスクグループ_34" data-name="マスクグループ 34" transform="translate(-6 -243.343)" clip-path="url(#clip-path)">
    <g id="グループ_306" data-name="グループ 306" transform="translate(15)">
      <g id="グループ_304" data-name="グループ 304" clip-path="url(#clip-path-2)">
        <path id="パス_1269" data-name="パス 1269" d="M634.123,746.747a39.312,39.312,0,0,1-6.225-7.529l-.092-.165-.135-.132a22.442,22.442,0,0,1-3.552-5.367,81.96,81.96,0,0,0-11.8-16.835c-.967-1.087-2.292-2.727-3.83-4.632-3.97-4.911-8.911-11.029-12.652-13.867a57.386,57.386,0,0,0-7.549-4.407c-5.019-2.635-10.715-5.615-14.172-9.675l.443-.506-17.074-51.616c-.575-1.867-3.414-9.382-4.158-11.745-3.76-12.039-9-29.6-11.969-45.39-2.434-12.935-4.178-24-5.367-32.794a140.844,140.844,0,0,0-5.966-26.8c-6.793-20.122-19.267-30.376-18.233-46.538,1.637-25.6-10.674-77.439-15.16-104.959-.634-3.89-1.171-7.167-1.523-9.671-.351-1.862-.677-5.4-.677-5.4,0-1.209,1.019-16.57,1.708-22.87.682-8.119.678-23.28-4.3-38.294-6.867-20.743-23.881-41.928-44.486-45.377-4.84-.807-27.136-10.383-35.243-14.21-1.732-.99-3.61-2.039-5.469-3.088-8.953-5.065-28.114-12.878-36.623-22.1a30.37,30.37,0,0,1-7.57-17.3c-.245-2.434-.529-4.944-.736-7.494-.53-2.534-.492-11.748-.491-18.4h0c5.64-7.005,10.655-14.337,12.013-18.8a174.483,174.483,0,0,0,4.222-17.685l-.837,7.022a8.488,8.488,0,0,0,2.936-1.345c2.679-2.026,2.552-4.377,4.562-8.43s6.732-6.931,6.732-13.859,1.34-9.8,2.231-13.515a6.319,6.319,0,0,0-4.687-7.606c-1.762-.473-4.3.445-6.7,2.184l-.835,7.014c.749-10.49,5.08-49.512-11.107-70.085C354.207,4.714,333.625.567,319.631.567S285.055,4.714,269.5,24.485c-16.189,20.575-11.857,59.6-11.107,70.088l-.835-7.017c-2.4-1.739-4.942-2.656-6.7-2.184a6.322,6.322,0,0,0-4.687,7.606c.893,3.715,2.233,6.587,2.233,13.515s4.721,9.8,6.732,13.859,1.881,6.4,4.56,8.43a8.51,8.51,0,0,0,2.938,1.345l-.835-7.009a173.852,173.852,0,0,0,4.221,17.672c1.357,4.459,6.371,11.791,12.013,18.8,0,6.651.041,15.865-.489,18.4-.211,2.551-.491,5.061-.736,7.494a30.372,30.372,0,0,1-7.572,17.3c-8.51,9.222-27.667,17.034-36.621,22.1-1.859,1.049-3.737,2.1-5.469,3.088-8.107,3.827-30.4,13.4-35.242,14.21-20.6,3.448-37.619,24.634-44.488,45.377-4.973,15.014-4.977,30.175-4.3,38.294.687,6.3,1.709,21.662,1.709,22.87,0,0-.326,3.536-.677,5.4-.352,2.5-.891,5.782-1.523,9.671-4.487,27.519-16.8,79.363-15.16,104.959,1.031,16.161-11.44,26.416-18.231,46.538a140.719,140.719,0,0,0-5.965,26.8c-1.191,8.794-2.933,19.858-5.368,32.794-2.971,15.786-8.207,33.35-11.967,45.39-.744,2.363-3.585,9.877-4.158,11.745L64.7,683.633l.445.506c-3.457,4.059-9.151,7.04-14.174,9.675a57.274,57.274,0,0,0-7.549,4.407c-3.741,2.839-8.682,8.957-12.652,13.867-1.536,1.905-2.864,3.546-3.83,4.632a82.029,82.029,0,0,0-11.8,16.835,22.444,22.444,0,0,1-3.55,5.367l-.135.132-.092.165a39.368,39.368,0,0,1-6.225,7.529C1.971,750-.32,752.354.913,754.447c.929,1.579,3.748,3.182,7.338,3.182h0c2.747,0,6.829-.955,10.683-5.5,2.277-2.686,5.536-6.584,8.056-9.826,2.187-2.338,3.86-4.428,5.336-6.274,2.086-2.609,3.659-4.578,5.314-5.337a45.437,45.437,0,0,1-1.986,5.543c-.766,1.894-1.556,3.852-2.012,5.4L24.67,762.579c-2.08,4.479-7.473,14.8-11.809,23.1C9.5,792.114,6.845,797.2,6.31,798.431c-1.522,3.519-1,8.2,2.5,9.938a5.709,5.709,0,0,0,2.562.6c2.979,0,5.732-2.156,7.14-4.288.726-1.1,3.162-5.79,6.246-11.72C29.142,784.524,34.6,774.025,37.3,769.7c.764-1.225,1.591-2.605,2.439-4.021,1.67-2.788,4.2-7,5.8-9.06-.981,3.4-3.425,10.065-5.173,14.831-1.284,3.5-2.5,6.809-3.145,8.8-1.533,4.711-5.154,14.174-8.063,21.782-2.2,5.747-3.934,10.286-4.315,11.562-1.089,3.654-.015,8.234,3.672,9.566a5.7,5.7,0,0,0,1.946.341c3.226,0,6.026-2.651,7.262-5.115.614-1.219,2.585-5.885,5.08-11.794,3.106-7.353,6.971-16.5,9.046-20.919.863-1.839,2.091-5.545,3.511-9.836,1.416-4.273,3.572-10.786,5.061-13.937-.352,2.274-1.283,5.82-1.914,8.226-.6,2.3-1.172,4.473-1.543,6.291C56,781.126,53.2,792.107,50.954,800.93c-1.747,6.854-3.127,12.267-3.356,13.563-.659,3.676.9,8.025,4.644,8.939a5.683,5.683,0,0,0,1.349.163c3.289,0,6.08-2.913,7.137-5.792.458-1.238,2-6.614,3.954-13.416,2.513-8.758,5.642-19.658,7.191-24.226.464-1.364,1.135-3.582,1.843-5.93.759-2.51,1.835-6.067,2.7-8.621-.1,1.741-.338,3.812-.5,5.217-.156,1.383-.3,2.664-.362,3.623-.25,3.8-1.046,12.733-1.853,19.906C73,800.617,72.568,804.5,72.533,805.52c-.11,3.088,1.441,6.523,4.891,6.928a5.925,5.925,0,0,0,.655.038c3.2,0,5.352-2.814,5.948-5.457.232-1.042.868-5.433,1.671-10.99,1.039-7.188,2.851-16.133,3.631-19.893.277-1.336.609-3.229.993-5.416,1.148-6.543,2.88-16.43,4.794-20.331,5.446-8.787,8.4-22.88,8.543-40.764a54.852,54.852,0,0,1,2.121-15.939l-.912,5.232c1.186-4.776,6.23-17.2,6.941-19.462,5.8-10.431,22.5-51.842,26.9-61.831,10.2-20.423,29.446-63.127,34.007-83.473,4.237-18.9,14.385-37.578,17.505-57.457,1.388-9.067,11.254-36.273,12.382-62.874.007.071.061.3.069.367,3.038,29.76,8.507,40.384,8.166,60.82-.224,13.355-4.217,33.914-1.889,55.918,1.769,16.66-6.819,35.994-9.8,63.468-1.62,14.94-15.294,40.641-18.34,90.755-.781,12.824-1.281,27.8-1.4,43.865-.188,23.849.514,52.435,3.524,73.68.823,5.838,1.744,12.01,2.77,18.182,4.357,26.2,8.408,52.227,16.275,80.514.739,20.469,6.044,40.659,10.469,61.97,1.421,6.846.56,17.388-.543,30.681-1.049,12.637,0,23.409-.911,40.359-.743,14.129-2.429,30.468-2.091,47.611.12,6.06.512,13.019,1.294,20.547,2.2,21.146,7.572,47.787,12.886,74.055,3.9,19.285,9.074,44.519,11.005,56.657.543,2.893-1.373,12.227-.981,14.5-.023,5.429.321,10.035.351,12.812.048,1.446-1.65,7.3-1.683,8.654-.611,3.832-.935,7.167-1.6,10.126-.756,3.341-1.212,7.246-2.862,11.707-3.15,8.5-5.026,21.164-5.611,26.3a68.15,68.15,0,0,1-1.826,7.69c-2.07,5.642-3.873,10.478-4.934,13.194-.678,1.726-1.255,3.29-1.7,4.543-1.981,5.558-4.879,13.937-7.261,21.283-.283.878-.534,1.747-.749,2.6a30.268,30.268,0,0,0-.375,12.977l-.115-.2c.751,2.875-4.349,18.259-4.754,20.646a32.177,32.177,0,0,0,.147,6.614c.257,1.663.591,3.445,3.735,3.908,3.562.519,4.958.054,5.685-.628a10.248,10.248,0,0,0,.31,3.728c.3,1.914-.858,5.252,4.6,5.983,3.015.443,4.833-.112,6.108-1.275a17.631,17.631,0,0,0-.128,4.838c.295,1.917,1.48,3.473,5.11,4.007a6.422,6.422,0,0,0,5.971-1.946,10.743,10.743,0,0,0,.1,1.879c.362,2.345,1.625,6.553,6.062,7.2s6.765-.456,8.354-2.511c1.3-1.688,2.208-5.591,2.923-7.61a44.191,44.191,0,0,0-.051,6.628c.193,3.83,2.3,9.347,8.738,10.3a15.507,15.507,0,0,0,14.416-5.443c2.307-2.964,3.475-7.188,4.237-10.552.935-4.1-1.243-9.986,1.283-17.232a11.888,11.888,0,0,0,4.4-5.894c4.107-10.32,4.539-30.671-.93-49.207-5.764-19.552,1.161-37.734,4.179-45.784,3.144-8.379,6.126-8.855,6.806-18.7.417-5.991-6.086-12.982-7.187-17.551-.991-4.11-4.427-11.987-5.606-15.259-3.822-10.61-1.6-27.267-.492-44.761.978-15.607,11.71-54.324,15.154-82.059a148.3,148.3,0,0,0,1.079-21.013c-.413-24.222-6.834-37.741-8.13-54.6a72.863,72.863,0,0,1,.743-15.462c2.03-14.238,13.9-39.967,15.01-67.895.287-7.178.283-15.618.145-24.841-.374-26.253-.151-52.527.331-80.481.641-37.164,9.029-89.186,11.682-131.465.122-.835,4.758-27.027,4.87-27.834.112.807,4.748,27,4.87,27.834,2.653,42.279,11.04,94.3,11.682,131.465.483,27.954.7,54.228.331,80.481-.138,9.223-.142,17.663.145,24.841,1.112,27.927,12.98,53.657,15.01,67.895a72.843,72.843,0,0,1,.741,15.462c-1.294,16.856-7.717,30.375-8.128,54.6a148.3,148.3,0,0,0,1.079,21.013c3.442,27.735,14.175,66.452,15.154,82.059,1.107,17.494,3.33,34.151-.494,44.761-1.179,3.272-4.613,11.149-5.6,15.259-1.1,4.57-7.6,11.56-7.188,17.551.682,9.849,3.664,10.325,6.808,18.7,3.017,8.049,9.943,26.231,4.178,45.784-5.467,18.536-5.036,38.887-.929,49.207a11.871,11.871,0,0,0,4.4,5.892c2.528,7.247.349,13.133,1.281,17.234.766,3.364,1.933,7.588,4.24,10.552a15.507,15.507,0,0,0,14.416,5.443c6.442-.949,8.545-6.465,8.736-10.3a43.977,43.977,0,0,0-.049-6.628c.715,2.019,1.624,5.922,2.923,7.61,1.589,2.055,3.918,3.165,8.354,2.511s5.7-4.86,6.062-7.2a10.749,10.749,0,0,0,.1-1.879,6.422,6.422,0,0,0,5.971,1.946c3.63-.534,4.814-2.09,5.11-4.007a17.685,17.685,0,0,0-.128-4.837c1.275,1.161,3.093,1.716,6.108,1.273,5.462-.731,4.306-4.069,4.6-5.983.25-1.667.558-2.271.291-3.86-.023-.135-.063-.291-.1-.45a7.7,7.7,0,0,0,5.8,1.209c3.144-.463,3.478-2.245,3.733-3.908a32.067,32.067,0,0,0,.148-6.614c-.407-2.386-5.505-17.77-4.754-20.646l-.115.2a30.254,30.254,0,0,0-.377-12.973c-.214-.851-.466-1.721-.749-2.6-2.38-7.346-5.28-15.725-7.259-21.283-.448-1.253-1.023-2.818-1.7-4.543-1.064-2.716-2.864-7.552-4.934-13.194a67.394,67.394,0,0,1-1.826-7.69c-.586-5.133-2.464-17.8-5.611-26.3-1.652-4.461-2.106-8.366-2.862-11.707-.669-2.959-.995-6.294-1.606-10.126-.031-1.354-1.729-7.208-1.681-8.654.028-2.776.372-7.382.351-12.812.392-2.271-1.525-11.6-.982-14.5,1.932-12.138,7.1-37.372,11.005-56.657,5.314-26.268,10.691-52.909,12.886-74.055.782-7.527,1.174-14.487,1.293-20.547.338-17.143-1.347-33.482-2.091-47.611-.911-16.95.14-27.722-.909-40.359-1.1-13.293-1.966-23.835-.543-30.681,4.425-21.311,9.729-41.5,10.467-61.97,7.867-28.286,11.919-54.314,16.277-80.514,1.026-6.172,1.946-12.344,2.77-18.182,3.01-21.245,3.712-49.831,3.524-73.68-.125-16.066-.624-31.042-1.4-43.865-3.048-50.114-16.72-75.816-18.34-90.755-2.982-27.475-11.569-46.808-9.8-63.468,2.329-22-1.665-42.562-1.889-55.918-.341-20.436,5.128-31.06,8.166-60.82.007-.071.059-.3.067-.367,1.13,26.6,11,53.807,12.384,62.874,3.119,19.88,13.268,38.561,17.5,57.457,4.563,20.346,23.807,63.05,34.009,83.473,4.4,9.989,21.09,51.4,26.9,61.831.711,2.264,5.759,14.691,6.943,19.463l-.912-5.233a54.743,54.743,0,0,1,2.119,15.939c.147,17.884,3.1,31.977,8.547,40.764,1.914,3.9,3.644,13.788,4.794,20.331.38,2.187.716,4.081.991,5.416.781,3.76,2.594,12.7,3.633,19.893.8,5.558,1.438,9.948,1.672,10.99.6,2.643,2.743,5.457,5.948,5.457a5.872,5.872,0,0,0,.654-.038c3.452-.405,5-3.84,4.893-6.928-.035-1.016-.468-4.9-1.172-11.163-.807-7.173-1.6-16.1-1.853-19.906-.063-.958-.206-2.24-.364-3.623-.158-1.4-.389-3.476-.5-5.217.869,2.554,1.943,6.111,2.7,8.621.708,2.348,1.377,4.566,1.843,5.93,1.548,4.568,4.677,15.468,7.191,24.226,1.953,6.8,3.5,12.178,3.954,13.416,1.057,2.878,3.847,5.792,7.137,5.792a5.7,5.7,0,0,0,1.349-.163c3.741-.914,5.3-5.263,4.644-8.939-.229-1.3-1.609-6.709-3.356-13.563-2.25-8.823-5.046-19.8-6.011-24.512-.374-1.818-.942-3.992-1.546-6.291-.631-2.406-1.56-5.951-1.912-8.226,1.487,3.15,3.644,9.663,5.059,13.937,1.423,4.291,2.648,8,3.513,9.836,2.075,4.417,5.938,13.566,9.044,20.919,2.5,5.909,4.468,10.576,5.079,11.794,1.238,2.464,4.041,5.115,7.266,5.115a5.7,5.7,0,0,0,1.946-.341c3.685-1.332,4.761-5.912,3.672-9.566-.382-1.276-2.116-5.815-4.315-11.562-2.911-7.608-6.529-17.07-8.064-21.782-.649-1.991-1.861-5.3-3.145-8.8-1.747-4.766-4.191-11.434-5.169-14.831,1.607,2.057,4.133,6.273,5.8,9.06.848,1.416,1.675,2.8,2.437,4.021,2.7,4.323,8.155,14.821,12.54,23.254,3.083,5.93,5.52,10.617,6.244,11.72,1.41,2.133,4.161,4.288,7.141,4.288a5.723,5.723,0,0,0,2.566-.6c3.5-1.742,4.016-6.419,2.5-9.938-.537-1.235-3.19-6.317-6.553-12.749-4.334-8.3-9.729-18.623-11.807-23.1l-8.973-20.939c-.455-1.551-1.247-3.509-2.012-5.4a45.75,45.75,0,0,1-1.988-5.543c1.657.759,3.231,2.729,5.316,5.337,1.474,1.846,3.149,3.936,5.335,6.274,2.518,3.242,5.78,7.14,8.056,9.826,3.85,4.542,7.934,5.5,10.681,5.5h0c3.59,0,6.409-1.6,7.341-3.182,1.23-2.093-1.06-4.445-4.231-7.7m-409.24,653.72-.115-.058c.033,0,.069.012.1.016a.4.4,0,0,0,.013.041m-11.391-5.759c.008-.059.007-.123.015-.181l-1.6-2.745c.835.741,1.64,1.388,2.333,1.892a15.883,15.883,0,0,0,3.272,3.068Zm10.279,13.257c-.171-2.643-.458-5.645,1.131-7.43.357,1.609-.255,4.458-1.131,7.43m12.957-1.4.227.1a23.4,23.4,0,0,1-1.579,5.834,14.589,14.589,0,0,1,1.352-5.932m12.707,14.712c-.031.13-.041.259-.071.389-.143-2.93-1.439-6.935,2.5-14.908l-1.121-.3a13.438,13.438,0,0,1,4.236.443s.044.025.059.035c-.647,5.2-4.5,9.77-5.607,14.347m164.957-20.855.1-.016-.114.058c0-.015.01-.026.013-.041m-24.494,21.24c-.028-.129-.038-.257-.069-.385-1.1-4.576-4.96-9.146-5.609-14.347l.061-.035a13.438,13.438,0,0,1,4.236-.443l-1.123.3c3.942,7.972,2.65,11.975,2.5,14.905m12.408-15c.076-.033.151-.064.229-.1a14.556,14.556,0,0,1,1.35,5.932,23.551,23.551,0,0,1-1.579-5.836m13.184,1.3c-.874-2.972-1.489-5.823-1.131-7.432,1.589,1.785,1.3,4.789,1.131,7.432m9.531-14.292c.649-.473,1.4-1.072,2.177-1.754l-1.533,2.607c.01.072.008.151.017.225l-3.929,1.986a15.881,15.881,0,0,0,3.269-3.064" transform="translate(0.371 0.367)" fill="#eee" opacity="0.5"/>
        <path id="パス_1270" data-name="パス 1270" d="M166.614,98.17a.915.915,0,0,1-.239-.031,9.338,9.338,0,0,1-3.262-1.5c-1.984-1.5-2.6-3.157-3.369-5.252a33.272,33.272,0,0,0-1.464-3.506,21.29,21.29,0,0,0-2.38-3.493c-2.085-2.681-4.45-5.719-4.45-10.781a35.178,35.178,0,0,0-1.574-10.92c-.221-.786-.438-1.563-.632-2.378a7.242,7.242,0,0,1,5.35-8.726c1.979-.534,4.715.313,7.5,2.33a.934.934,0,0,1-1.1,1.512c-2.251-1.635-4.519-2.409-5.912-2.039a5.4,5.4,0,0,0-4.023,6.487c.191.794.4,1.546.616,2.31A36.8,36.8,0,0,1,153.32,73.6c0,4.422,2.062,7.071,4.056,9.635a22.827,22.827,0,0,1,2.577,3.809,35.415,35.415,0,0,1,1.543,3.689c.72,1.95,1.194,3.239,2.745,4.412a7.515,7.515,0,0,0,2.613,1.186.934.934,0,0,1-.24,1.836" transform="translate(96.386 33.259)" fill="#1a1311"/>
        <path id="パス_1271" data-name="パス 1271" d="M159.571,79.593a.921.921,0,0,1-.529-.166c-2.455-1.7-2.938-3.476-3.549-5.729a29.7,29.7,0,0,0-1.154-3.578c-1.2-2.972-.285-5.168.6-7.289a10.8,10.8,0,0,0,1.126-4.263.935.935,0,0,1,1.869,0,12.589,12.589,0,0,1-1.273,4.983c-.81,1.937-1.508,3.608-.594,5.869A31.619,31.619,0,0,1,157.3,73.21c.59,2.174.914,3.371,2.806,4.682a.933.933,0,0,1-.532,1.7" transform="translate(99.45 37.275)" fill="#1a1311"/>
        <path id="パス_1272" data-name="パス 1272" d="M229.3,98.169a.934.934,0,0,1-.24-1.836,7.492,7.492,0,0,0,2.612-1.186c1.553-1.173,2.027-2.462,2.747-4.412a35.423,35.423,0,0,1,1.543-3.689,22.825,22.825,0,0,1,2.577-3.809c1.994-2.564,4.056-5.214,4.056-9.635a36.855,36.855,0,0,1,1.642-11.419c.214-.766.426-1.52.616-2.315a5.4,5.4,0,0,0-4.023-6.487c-1.395-.379-3.662.408-5.909,2.039a.934.934,0,0,1-1.1-1.512c2.778-2.016,5.507-2.862,7.493-2.33a7.24,7.24,0,0,1,5.352,8.726c-.194.817-.413,1.594-.634,2.383A35.269,35.269,0,0,0,244.464,73.6c0,5.062-2.365,8.1-4.45,10.781a21.291,21.291,0,0,0-2.38,3.493,33.271,33.271,0,0,0-1.464,3.506c-.774,2.095-1.385,3.751-3.371,5.253a9.342,9.342,0,0,1-3.261,1.5.914.914,0,0,1-.239.031" transform="translate(147.701 33.259)" fill="#1a1311"/>
        <path id="パス_1273" data-name="パス 1273" d="M231.718,79.593a.933.933,0,0,1-.532-1.7c1.89-1.311,2.215-2.506,2.8-4.68a31.47,31.47,0,0,1,1.229-3.793c.914-2.261.214-3.932-.595-5.867a12.578,12.578,0,0,1-1.275-4.985.935.935,0,0,1,1.869,0,10.772,10.772,0,0,0,1.128,4.263c.888,2.121,1.8,4.316.6,7.289a29.864,29.864,0,0,0-1.156,3.582c-.609,2.251-1.092,4.028-3.547,5.726a.921.921,0,0,1-.529.166" transform="translate(149.264 37.275)" fill="#1a1311"/>
        <path id="パス_1274" data-name="パス 1274" d="M260.765,160.887a.934.934,0,0,1-.726-1.518c6.357-7.895,10.674-14.632,11.847-18.483a202.3,202.3,0,0,0,7.491-44.42c.03-.868.137-2.217.275-3.957,1.047-13.161,3.827-48.12-11.091-67.08-15.318-19.475-35.318-23.562-49.4-23.562s-34.077,4.087-49.4,23.562c-14.916,18.959-12.137,53.919-11.089,67.08.138,1.741.244,3.089.275,3.957a202.078,202.078,0,0,0,7.491,44.42c1.171,3.85,5.489,10.587,11.847,18.483a.933.933,0,0,1-1.454,1.171c-3.822-4.746-10.487-13.54-12.178-19.111a200.978,200.978,0,0,1-7.572-44.9c-.031-.848-.135-2.169-.272-3.873-1.062-13.36-3.885-48.848,11.486-68.382C184.085,4.212,204.672,0,219.165,0s35.081,4.211,50.864,24.273C285.4,43.808,282.575,79.3,281.515,92.657c-.137,1.7-.242,3.025-.272,3.875a201.257,201.257,0,0,1-7.57,44.9c-1.7,5.576-8.359,14.366-12.181,19.111a.93.93,0,0,1-.726.347" transform="translate(100.836 0.001)" fill="#1a1311"/>
        <path id="パス_1275" data-name="パス 1275" d="M64.119,427.41c-.028,0-.056,0-.084,0a.933.933,0,0,1-.85-.937,7.752,7.752,0,0,1,.282-1.681.934.934,0,0,1,1.826.384l-.255,1.464a.934.934,0,0,1-.919.774" transform="translate(40.866 274.281)" fill="#1a1311"/>
        <path id="パス_1276" data-name="パス 1276" d="M325.357,427.409a.935.935,0,0,1-.919-.772l-.255-1.462a.934.934,0,0,1,1.826-.387,7.815,7.815,0,0,1,.283,1.678.934.934,0,0,1-.848.94c-.03,0-.058,0-.087,0" transform="translate(209.663 274.282)" fill="#1a1311"/>
        <path id="パス_1277" data-name="パス 1277" d="M238.681,847.1a.933.933,0,0,1-.93-.886c-.064-1.192-1.413-29.3,8.624-37.831a.933.933,0,1,1,1.209,1.421c-9.34,7.944-7.982,36.03-7.969,36.313a.933.933,0,0,1-.884.981l-.049,0" transform="translate(153.709 522.696)" fill="#1a1311"/>
        <path id="パス_1278" data-name="パス 1278" d="M153.986,847.1l-.049,0a.935.935,0,0,1-.884-.981c.013-.283,1.367-28.372-7.969-36.313a.933.933,0,1,1,1.209-1.421c10.037,8.535,8.687,36.639,8.624,37.831a.933.933,0,0,1-.93.886" transform="translate(93.623 522.697)" fill="#1a1311"/>
        <path id="パス_1279" data-name="パス 1279" d="M156.363,864.118a.933.933,0,0,1-.865-.585,5,5,0,0,0-3.132-2.953,10.093,10.093,0,0,0-7.386.692.933.933,0,1,1-.927-1.62,11.964,11.964,0,0,1,8.926-.837,6.874,6.874,0,0,1,4.249,4.02.935.935,0,0,1-.865,1.283" transform="translate(92.865 555.125)" fill="#1a1311"/>
        <path id="パス_1280" data-name="パス 1280" d="M146.383,863.787h0a.934.934,0,0,1-.93-.935,3.95,3.95,0,0,0-1.22-3.247c-1.489-1.205-4.119-.868-5.551-.558a.933.933,0,0,1-.4-1.823c2.152-.468,5.13-.682,7.121.929a5.7,5.7,0,0,1,1.912,4.7.933.933,0,0,1-.932.932" transform="translate(88.962 554.207)" fill="#1a1311"/>
        <path id="パス_1281" data-name="パス 1281" d="M138.477,857.829a.91.91,0,0,1-.161-.015.934.934,0,0,1-.762-1.067,1.783,1.783,0,0,0-.609-.865,4.925,4.925,0,0,0-3.32-1.342.934.934,0,0,1-.091-1.866,6.9,6.9,0,0,1,5.046,2.215,2.656,2.656,0,0,1,.817,2.164.933.933,0,0,1-.919.776" transform="translate(85.79 551.482)" fill="#1a1311"/>
        <path id="パス_1282" data-name="パス 1282" d="M169.28,864.66a.931.931,0,0,1-.823-.494c-.777-1.023-7.541-2.658-9.755-1.386a.934.934,0,0,1-.929-1.62c1.965-1.127,5.979-.71,8.876.155,1.918.571,3.083,1.242,3.465,1.989a.935.935,0,0,1-.41,1.255.949.949,0,0,1-.423.1" transform="translate(101.739 556.53)" fill="#1a1311"/>
        <path id="パス_1283" data-name="パス 1283" d="M132.415,852.265a.907.907,0,0,1-.161-.015.931.931,0,0,1-.771-.99c-.31-.733-3.251-2.408-5.25-2.287a.974.974,0,0,1-.977-.889.936.936,0,0,1,.889-.977,10.07,10.07,0,0,1,6.585,2.717,1.992,1.992,0,0,1,.6,1.665.936.936,0,0,1-.919.776" transform="translate(81.011 547.882)" fill="#1a1311"/>
        <path id="パス_1284" data-name="パス 1284" d="M237.664,864.118a.97.97,0,0,1-.349-.067.935.935,0,0,1-.517-1.215,6.877,6.877,0,0,1,4.25-4.02,11.981,11.981,0,0,1,8.926.837.934.934,0,1,1-.93,1.62,10.092,10.092,0,0,0-7.384-.692,4.993,4.993,0,0,0-3.129,2.953.935.935,0,0,1-.866.584" transform="translate(153.11 555.125)" fill="#1a1311"/>
        <path id="パス_1285" data-name="パス 1285" d="M246.1,863.787a.936.936,0,0,1-.934-.932,5.7,5.7,0,0,1,1.912-4.7c1.994-1.609,4.973-1.392,7.119-.927a.933.933,0,1,1-.4,1.823c-1.433-.308-4.058-.647-5.55.558a3.944,3.944,0,0,0-1.219,3.247.935.935,0,0,1-.932.935Z" transform="translate(158.564 554.208)" fill="#1a1311"/>
        <path id="パス_1286" data-name="パス 1286" d="M252.828,857.836a.942.942,0,0,1-.922-.782,2.656,2.656,0,0,1,.82-2.165,6.849,6.849,0,0,1,5.044-2.214.934.934,0,0,1-.091,1.866,4.917,4.917,0,0,0-3.32,1.342,1.787,1.787,0,0,0-.611.869.928.928,0,0,1-.762,1.07.865.865,0,0,1-.158.013" transform="translate(162.909 551.482)" fill="#1a1311"/>
        <path id="パス_1287" data-name="パス 1287" d="M224.433,864.673a.938.938,0,0,1-.833-1.372c.38-.748,1.546-1.416,3.463-1.989,2.9-.863,6.91-1.28,8.878-.155a.935.935,0,0,1-.929,1.622c-2.22-1.275-9.008.37-9.76,1.391a.914.914,0,0,1-.818.5" transform="translate(144.552 556.529)" fill="#1a1311"/>
        <path id="パス_1288" data-name="パス 1288" d="M259.427,852.322a1,1,0,0,1-.937-.833,1.985,1.985,0,0,1,.6-1.665,10.155,10.155,0,0,1,6.585-2.717.935.935,0,0,1,.889.976.965.965,0,0,1-.977.889c-2-.092-5.029,1.6-5.26,2.318a.874.874,0,0,1-.759,1.019.834.834,0,0,1-.142.012" transform="translate(167.169 547.882)" fill="#1a1311"/>
        <path id="パス_1289" data-name="パス 1289" d="M146.715,280.13a.934.934,0,0,1-.216-1.843c.308-.072,31-7.6,45.792-30.263,8.861-13.578,9.336-62.88,9.339-63.376a.935.935,0,0,1,.934-.927h.007a.935.935,0,0,1,.927.94c-.015,2.05-.483,50.35-9.643,64.384-15.2,23.3-46.609,30.984-46.923,31.06a.974.974,0,0,1-.216.025" transform="translate(94.287 118.825)" fill="#fff"/>
        <path id="パス_1290" data-name="パス 1290" d="M183.483,495.145c-24.762,0-38.385-6.332-39.012-6.63a.933.933,0,0,1,.8-1.686c.166.079,17.123,7.941,46.964,6.189,17.059-1,33.737-18.5,33.737-30.832V399.461a31.163,31.163,0,0,0-8.746-21.984.933.933,0,1,1,1.321-1.319,33.035,33.035,0,0,1,9.293,23.3v62.724c0,13.37-17.214,31.628-35.495,32.7q-4.641.269-8.863.262" transform="translate(93.094 243.11)" fill="#1a1311"/>
        <path id="パス_1291" data-name="パス 1291" d="M194.687,387.41a.933.933,0,0,1-.934-.934V209.04a.934.934,0,0,1,1.867,0V386.476a.934.934,0,0,1-.934.934" transform="translate(125.314 134.597)" fill="#fff"/>
        <path id="パス_1292" data-name="パス 1292" d="M49.242,497.656a5.221,5.221,0,0,1-.71-.049,4.086,4.086,0,0,1-2.215-.657c-2.019-1.426-.82-8.217-.068-10.118.517-1.3,2.964-1.777,4.079-1.65.99.119,3.4,1,3.56,2.47.2,1.983-.794,8.827-3.083,9.723a4.255,4.255,0,0,1-1.564.282m-1.833-2.221a2.258,2.258,0,0,0,1.149.3c.02,0,.147.01.166.01a2.853,2.853,0,0,0,1.4-.114c.812-.441,2.152-5.411,1.91-7.793a4.5,4.5,0,0,0-1.917-.807,3.8,3.8,0,0,0-2.167.553c-.823,2.106-1.186,7.116-.538,7.845" transform="translate(29.237 313.789)" fill="#1a1311"/>
        <path id="パス_1293" data-name="パス 1293" d="M2.381,463.979a2.771,2.771,0,0,1-1.507-.408.934.934,0,0,1,1-1.579,1.525,1.525,0,0,0,1.064.049c3.173-.725,8.718-6.2,9.281-7.1-.051-.392-1.37-1.143-2.892-1.546a.932.932,0,0,1,.476-1.8c.82.214,3.544,1.039,4.171,2.607a1.883,1.883,0,0,1-.168,1.724c-.688,1.112-6.585,7.05-10.444,7.939a4.413,4.413,0,0,1-.981.119" transform="translate(0.285 292.055)" fill="#1a1311"/>
        <path id="パス_1294" data-name="パス 1294" d="M51.276,482a7.868,7.868,0,0,1-3.822-.949.934.934,0,1,1,.906-1.634,6.469,6.469,0,0,0,4.438.543.934.934,0,0,1,.514,1.8,8.091,8.091,0,0,1-2.035.244" transform="translate(30.381 309.997)" fill="#1a1311"/>
        <path id="パス_1295" data-name="パス 1295" d="M52.2,475.717a8.149,8.149,0,0,1-3.1-.693A.933.933,0,1,1,49.8,473.3a4.876,4.876,0,0,0,4.474.025.934.934,0,0,1,.718,1.724,6.837,6.837,0,0,1-2.8.672" transform="translate(31.378 306.069)" fill="#1a1311"/>
        <path id="パス_1296" data-name="パス 1296" d="M54.808,473.612a.925.925,0,0,1-.354-.071,6.04,6.04,0,0,0-4.817-.059.934.934,0,0,1-.718-1.724,7.911,7.911,0,0,1,6.243.056.934.934,0,0,1-.354,1.8" transform="translate(31.268 304.721)" fill="#1a1311"/>
        <path id="パス_1297" data-name="パス 1297" d="M34.506,504.574a5.6,5.6,0,0,1-1.3-.153,6.677,6.677,0,0,1-2.506-1.507c-2.032-1.94-.282-8.138,1.228-10.918.911-1.7,4.267-1.308,5.113-1.112,1.4.333,3.868,1.787,3.794,3.5-.137,2.991-2.152,9.206-4.9,9.991a5.145,5.145,0,0,1-1.434.2m-2.513-3.01a5.213,5.213,0,0,0,1.632,1.039,3.632,3.632,0,0,0,1.8-.023c1.38-.394,3.4-5.113,3.549-8.28a4.088,4.088,0,0,0-2.357-1.6,4.79,4.79,0,0,0-3.056.2c-1.589,2.931-2.475,7.8-1.569,8.66" transform="translate(19.263 317.372)" fill="#1a1311"/>
        <path id="パス_1298" data-name="パス 1298" d="M9.447,496.464a4.444,4.444,0,0,1-2.416-.817,6.338,6.338,0,0,1-2.3-2.011c-1.548-2.371,1.726-8.288,3.842-10.663,1.191-1.339,4.315-.608,5.418-.076,1.316.634,3.406,2.966,2.916,4.621-.9,3.042-4.324,8.741-7.231,8.937-.076,0-.152.008-.227.008m1.327-12.389a1.527,1.527,0,0,0-.815.147c-2.444,2.745-4.3,7.419-3.667,8.392v0A4.152,4.152,0,0,0,7.738,493.9c.066.031.168.094.3.175a2.7,2.7,0,0,0,1.52.52c1.452-.1,4.624-4.433,5.559-7.6a4.206,4.206,0,0,0-1.937-2.411,6.063,6.063,0,0,0-2.4-.506" transform="translate(2.798 311.882)" fill="#1a1311"/>
        <path id="パス_1299" data-name="パス 1299" d="M21.114,505.15a4.415,4.415,0,0,1-2.09-.6,6.788,6.788,0,0,1-2.488-1.793c-1.795-2.136.678-8.7,2.571-11.417,1.067-1.517,4.28-.986,5.331-.622,1.507.525,3.684,2.711,3.424,4.308C27.336,498.2,24.528,504.6,21.7,505.1a3.451,3.451,0,0,1-.583.051m-3.149-3.6a4.745,4.745,0,0,0,1.564,1.173,2.981,2.981,0,0,1,.366.17,2.281,2.281,0,0,0,1.477.364c1.4-.249,4.094-5.2,4.646-8.54a4.3,4.3,0,0,0-2.193-2.241,4.963,4.963,0,0,0-3.2-.059c-2.06,2.961-3.43,8.219-2.663,9.135" transform="translate(10.293 317.124)" fill="#1a1311"/>
        <path id="パス_1300" data-name="パス 1300" d="M16.43,480.505a8.314,8.314,0,0,1-5.324-1.948.933.933,0,0,1,1.233-1.4,6.466,6.466,0,0,0,4.219,1.48.933.933,0,0,1,.117,1.863c-.02,0-.105.007-.245.007" transform="translate(6.978 308.459)" fill="#1a1311"/>
        <path id="パス_1301" data-name="パス 1301" d="M30.94,476.2a6.713,6.713,0,0,1-4.685-1.978.934.934,0,1,1,1.232-1.4,4.871,4.871,0,0,0,4.219,1.482.91.91,0,0,1,.991.871.933.933,0,0,1-.871.991c-.273.016-.568.036-.886.036" transform="translate(16.775 305.653)" fill="#1a1311"/>
        <path id="パス_1302" data-name="パス 1302" d="M26.959,487.726a8.306,8.306,0,0,1-5.317-1.941.933.933,0,1,1,1.232-1.4,6.531,6.531,0,0,0,4.221,1.474.933.933,0,0,1,.117,1.862c-.021,0-.109.007-.252.007" transform="translate(13.792 313.134)" fill="#1a1311"/>
        <path id="パス_1303" data-name="パス 1303" d="M37.922,488.456a7.918,7.918,0,0,1-4.012-1.042.933.933,0,1,1,.944-1.611,6.389,6.389,0,0,0,4.423.647.934.934,0,0,1,.473,1.808,7.911,7.911,0,0,1-1.828.2" transform="translate(21.633 314.119)" fill="#1a1311"/>
        <path id="パス_1304" data-name="パス 1304" d="M32.49,474.6a.929.929,0,0,1-.616-.234,6.084,6.084,0,0,0-4.532-1.625.933.933,0,1,1-.12-1.862,7.862,7.862,0,0,1,5.884,2.087.934.934,0,0,1-.616,1.635" transform="translate(17.04 304.539)" fill="#1a1311"/>
        <path id="パス_1305" data-name="パス 1305" d="M21.257,471.488a6.638,6.638,0,0,1-5.293-2.6.932.932,0,1,1,1.392-1.242,4.867,4.867,0,0,0,4,1.978Z" transform="translate(10.172 302.257)" fill="#1a1311"/>
        <path id="パス_1306" data-name="パス 1306" d="M22.22,470.021a.931.931,0,0,1-.695-.313,6.055,6.055,0,0,0-4.306-2.162.933.933,0,0,1-.874-.988.945.945,0,0,1,.985-.878,7.933,7.933,0,0,1,5.584,2.785.934.934,0,0,1-.693,1.556" transform="translate(10.57 301.188)" fill="#1a1311"/>
        <path id="パス_1307" data-name="パス 1307" d="M41.783,478.794a7.261,7.261,0,0,1-3.9-1.276.934.934,0,0,1,.988-1.586,4.843,4.843,0,0,0,4.4.772.935.935,0,1,1,.422,1.821,8.154,8.154,0,0,1-1.905.268" transform="translate(24.214 307.729)" fill="#1a1311"/>
        <path id="パス_1308" data-name="パス 1308" d="M43.94,476.958a.926.926,0,0,1-.492-.142,6.006,6.006,0,0,0-4.739-.863.935.935,0,0,1-.422-1.821,7.919,7.919,0,0,1,6.147,1.1.935.935,0,0,1-.494,1.727" transform="translate(24.295 306.519)" fill="#1a1311"/>
        <path id="パス_1309" data-name="パス 1309" d="M28.647,461.573a.935.935,0,0,1-.568-1.676,5.375,5.375,0,0,1,2.589-1.168.934.934,0,0,1,.216,1.856,3.6,3.6,0,0,0-1.67.8.928.928,0,0,1-.566.193" transform="translate(17.924 296.69)" fill="#1a1311"/>
        <path id="パス_1310" data-name="パス 1310" d="M37.165,466.473a.923.923,0,0,1-.483-.135.934.934,0,0,1-.315-1.283c1.5-2.482,2.926-3.969,4.352-4.542a.934.934,0,0,1,.7,1.734c-1.023.41-2.185,1.68-3.453,3.776a.933.933,0,0,1-.8.45" transform="translate(23.434 297.804)" fill="#1a1311"/>
        <path id="パス_1311" data-name="パス 1311" d="M46.845,469.638a.936.936,0,0,1-.85-1.319,25.964,25.964,0,0,1,4.868-7.7.933.933,0,1,1,1.321,1.319,24.3,24.3,0,0,0-4.487,7.145.934.934,0,0,1-.851.55" transform="translate(29.695 297.741)" fill="#1a1311"/>
        <path id="パス_1312" data-name="パス 1312" d="M130.022,293.953a.936.936,0,0,1-.921-.781c-.879-5.3-2.34-24.252-2.34-35.08,0-6.34-2.338-17.731-4.217-26.883-1.416-6.9-2.536-12.346-2.536-14.717,0-3.687-2.549-11.241-4.8-17.907-.97-2.874-1.887-5.589-2.508-7.735a.934.934,0,0,1,1.795-.517c.608,2.1,1.518,4.8,2.482,7.656,2.3,6.8,4.9,14.51,4.9,18.5,0,2.182,1.156,7.817,2.495,14.342,1.9,9.235,4.257,20.728,4.257,27.259,0,10.748,1.444,29.533,2.317,34.773a.936.936,0,0,1-.769,1.074.827.827,0,0,1-.155.013" transform="translate(72.867 122.664)" fill="#fff"/>
        <path id="パス_1313" data-name="パス 1313" d="M149.634,784.659a.937.937,0,0,1-.853-1.316c5.428-12.109,21.443-13.052,26.222-13.052a13.838,13.838,0,0,1,11.574,6.233.934.934,0,0,1-1.522,1.085A11.879,11.879,0,0,0,175,772.16c-4.494,0-19.549.861-24.515,11.946a.936.936,0,0,1-.853.553" transform="translate(96.175 498.201)" fill="#1a1311"/>
        <path id="パス_1314" data-name="パス 1314" d="M264.594,280.13a.973.973,0,0,1-.216-.025c-.315-.076-31.718-7.763-46.923-31.06-9.161-14.034-9.629-62.334-9.643-64.384a.935.935,0,0,1,.927-.94h0a.935.935,0,0,1,.935.927c0,.5.478,49.8,9.339,63.376,14.8,22.679,45.484,30.19,45.792,30.263a.934.934,0,0,1-.216,1.843" transform="translate(134.407 118.825)" fill="#fff"/>
        <path id="パス_1315" data-name="パス 1315" d="M238.113,461.616q-4.217,0-8.863-.262c-18.281-1.07-35.5-19.328-35.5-32.7a.935.935,0,0,1,1.869,0c0,12.336,16.678,29.836,33.737,30.832,29.841,1.749,46.8-6.109,46.964-6.189a.933.933,0,0,1,.8,1.686c-.627.3-14.254,6.63-39.012,6.63" transform="translate(125.314 276.639)" fill="#1a1311"/>
        <path id="パス_1316" data-name="パス 1316" d="M194.689,400.393a.933.933,0,0,1-.934-.934,33.032,33.032,0,0,1,9.294-23.3.934.934,0,0,1,1.321,1.321,31.154,31.154,0,0,0-8.748,21.983.934.934,0,0,1-.934.934" transform="translate(125.315 243.11)" fill="#1a1311"/>
        <path id="パス_1317" data-name="パス 1317" d="M162.553,615.563a.932.932,0,0,1-.866-.588c-1.447-3.61-4.692-21.754-4.692-26.235a.935.935,0,0,1,1.869,0c0,4.237,3.191,22.139,4.553,25.541a.931.931,0,0,1-.517,1.214.964.964,0,0,1-.347.068" transform="translate(101.54 380.176)" fill="#1a1311"/>
        <path id="パス_1318" data-name="パス 1318" d="M144.263,610.382a.935.935,0,0,1-.659-1.6c.884-.967,3.381-10.04,4.581-14.4.367-1.332.695-2.526.96-3.455a.933.933,0,0,1,1.795.512c-.263.926-.591,2.111-.955,3.439-2.559,9.3-4.044,14.212-5.064,15.229a.931.931,0,0,1-.659.273" transform="translate(92.702 381.758)" fill="#1a1311"/>
        <path id="パス_1319" data-name="パス 1319" d="M228.639,615.563a.958.958,0,0,1-.347-.068.933.933,0,0,1-.519-1.214c1.362-3.406,4.555-21.309,4.555-25.541a.935.935,0,0,1,1.869,0c0,4.478-3.246,22.62-4.692,26.235a.933.933,0,0,1-.866.588" transform="translate(147.273 380.176)" fill="#1a1311"/>
        <path id="パス_1320" data-name="パス 1320" d="M247.362,610.374a.9.9,0,0,1-.641-.265c-1.018-1.017-2.5-5.928-5.062-15.229-.366-1.327-.692-2.513-.955-3.438a.933.933,0,0,1,1.795-.512c.265.929.593,2.121.96,3.455,1.2,4.362,3.7,13.436,4.585,14.406a.94.94,0,0,1-.682,1.584" transform="translate(155.657 381.759)" fill="#1a1311"/>
        <path id="パス_1321" data-name="パス 1321" d="M342.827,497.654a4.228,4.228,0,0,1-1.574-.283c-2.289-.894-3.28-7.738-3.078-9.718.155-1.475,2.572-2.353,3.555-2.47,1.1-.128,3.567.344,4.084,1.647.753,1.9,1.951,8.7-.068,10.121a4.012,4.012,0,0,1-2.146.652,6.624,6.624,0,0,1-.774.051m-.667-10.628q-.113,0-.217.01a3.632,3.632,0,0,0-1.937.916c-.216,2.273,1.123,7.241,1.941,7.687a2.88,2.88,0,0,0,1.362.115c.02,0,.176-.013.2-.015a2.279,2.279,0,0,0,1.149-.3c.645-.733.282-5.742-.578-7.918a4.249,4.249,0,0,0-1.919-.492" transform="translate(218.705 313.789)" fill="#1a1311"/>
        <path id="パス_1322" data-name="パス 1322" d="M391.632,463.978a4.4,4.4,0,0,1-.98-.119c-3.852-.884-9.755-6.826-10.445-7.937a1.882,1.882,0,0,1-.168-1.726c.629-1.568,3.351-2.393,4.171-2.607a.932.932,0,0,1,.476,1.8c-1.522.4-2.841,1.154-2.918,1.508.461.736,6.017,6.388,9.308,7.139a1.531,1.531,0,0,0,1.066-.049.934.934,0,0,1,1,1.579,2.766,2.766,0,0,1-1.505.408" transform="translate(245.71 292.056)" fill="#1a1311"/>
        <path id="パス_1323" data-name="パス 1323" d="M340.123,482a8.092,8.092,0,0,1-2.035-.244.934.934,0,1,1,.517-1.8,6.455,6.455,0,0,0,4.433-.543.934.934,0,1,1,.906,1.634,7.866,7.866,0,0,1-3.82.949" transform="translate(218.228 309.997)" fill="#1a1311"/>
        <path id="パス_1324" data-name="パス 1324" d="M339.217,475.718a6.843,6.843,0,0,1-2.8-.672.934.934,0,0,1,.72-1.724,4.859,4.859,0,0,0,4.471-.025.933.933,0,0,1,.708,1.727,8.149,8.149,0,0,1-3.1.693" transform="translate(217.215 306.068)" fill="#1a1311"/>
        <path id="パス_1325" data-name="パス 1325" d="M336.74,473.612a.934.934,0,0,1-.354-1.8,7.911,7.911,0,0,1,6.243-.056.934.934,0,0,1-.716,1.724,6.023,6.023,0,0,0-4.818.059.924.924,0,0,1-.354.071" transform="translate(217.19 304.721)" fill="#1a1311"/>
        <path id="パス_1326" data-name="パス 1326" d="M358.475,504.575a5.168,5.168,0,0,1-1.431-.2c-2.747-.785-4.762-7-4.9-9.989-.074-1.714,2.391-3.168,3.791-3.5.85-.2,4.206-.585,5.121,1.116,1.507,2.776,3.257,8.973,1.228,10.915l0,0a6.747,6.747,0,0,1-2.469,1.5,5.9,5.9,0,0,1-1.34.161m-.786-12.012a5.953,5.953,0,0,0-1.326.138,4.015,4.015,0,0,0-2.353,1.617c.145,3.145,2.169,7.868,3.547,8.262a3.646,3.646,0,0,0,1.811.02A5.246,5.246,0,0,0,361,501.565c.9-.871.016-5.732-1.583-8.677a3.262,3.262,0,0,0-1.724-.324m3.951,9.676h0Z" transform="translate(227.756 317.371)" fill="#1a1311"/>
        <path id="パス_1327" data-name="パス 1327" d="M384.164,496.462c-.074,0-.148,0-.226-.007-2.9-.194-6.333-5.9-7.233-8.935-.486-1.657,1.6-3.989,2.916-4.623,1.1-.53,4.222-1.265,5.419.076,2.114,2.375,5.388,8.292,3.842,10.661a6.055,6.055,0,0,1-2.193,1.943,4.629,4.629,0,0,1-2.526.884m-1.316-12.389a6.091,6.091,0,0,0-2.416.507A4.191,4.191,0,0,0,378.5,487c.935,3.155,4.107,7.49,5.561,7.588a2.7,2.7,0,0,0,1.517-.52,2.744,2.744,0,0,1,.3-.176,4.211,4.211,0,0,0,1.438-1.281l0,0c.636-.973-1.224-5.648-3.676-8.4a1.5,1.5,0,0,0-.8-.142" transform="translate(243.596 311.882)" fill="#1a1311"/>
        <path id="パス_1328" data-name="パス 1328" d="M372.224,505.148a3.371,3.371,0,0,1-.578-.049c-2.832-.506-5.64-6.9-6.164-10.075-.26-1.6,1.917-3.784,3.422-4.31,1.052-.364,4.268-.892,5.329.618,1.9,2.724,4.367,9.286,2.572,11.422a6.4,6.4,0,0,1-2.361,1.728,4.691,4.691,0,0,1-2.22.667m-.769-12.96a6.205,6.205,0,0,0-1.938.292,4.255,4.255,0,0,0-2.19,2.251c.55,3.33,3.242,8.278,4.644,8.529a2.317,2.317,0,0,0,1.48-.366,3.073,3.073,0,0,1,.389-.179,4.8,4.8,0,0,0,1.538-1.163v0c.767-.911-.6-6.171-2.674-9.148a2.418,2.418,0,0,0-1.248-.214" transform="translate(236.369 317.124)" fill="#1a1311"/>
        <path id="パス_1329" data-name="パス 1329" d="M374.867,480.5c-.14,0-.227,0-.245-.007a.933.933,0,1,1,.119-1.862,6.514,6.514,0,0,0,4.219-1.48.933.933,0,1,1,1.232,1.4,8.313,8.313,0,0,1-5.324,1.948" transform="translate(241.728 308.46)" fill="#1a1311"/>
        <path id="パス_1330" data-name="パス 1330" d="M360.359,476.2c-.318,0-.613-.02-.886-.036a.932.932,0,0,1-.871-.991.966.966,0,0,1,.99-.871,4.869,4.869,0,0,0,4.221-1.482.934.934,0,0,1,1.232,1.4,6.713,6.713,0,0,1-4.685,1.978" transform="translate(231.932 305.653)" fill="#1a1311"/>
        <path id="パス_1331" data-name="パス 1331" d="M364.341,487.726c-.145,0-.234,0-.252-.007a.932.932,0,0,1-.873-.99.969.969,0,0,1,.991-.873,6.537,6.537,0,0,0,4.217-1.474.933.933,0,1,1,1.233,1.4,8.311,8.311,0,0,1-5.317,1.941" transform="translate(234.916 313.134)" fill="#1a1311"/>
        <path id="パス_1332" data-name="パス 1332" d="M353.47,488.456a7.871,7.871,0,0,1-1.826-.2.934.934,0,1,1,.473-1.808,6.48,6.48,0,0,0,4.422-.647.933.933,0,1,1,.944,1.611,7.926,7.926,0,0,1-4.012,1.042" transform="translate(226.981 314.119)" fill="#1a1311"/>
        <path id="パス_1333" data-name="パス 1333" d="M358.934,474.6a.934.934,0,0,1-.616-1.635,7.9,7.9,0,0,1,5.884-2.086.933.933,0,0,1-.122,1.862,6.072,6.072,0,0,0-4.53,1.625.926.926,0,0,1-.616.234" transform="translate(231.544 304.539)" fill="#1a1311"/>
        <path id="パス_1334" data-name="パス 1334" d="M369.9,471.488a.934.934,0,0,1-.061-1.866,4.868,4.868,0,0,0,4.01-1.978.933.933,0,1,1,1.393,1.242,6.628,6.628,0,0,1-5.286,2.6c-.018,0-.036,0-.056,0" transform="translate(238.633 302.257)" fill="#1a1311"/>
        <path id="パス_1335" data-name="パス 1335" d="M369.1,470.021a.919.919,0,0,1-.622-.24.931.931,0,0,1-.072-1.316,7.942,7.942,0,0,1,5.584-2.785.951.951,0,0,1,.986.878.935.935,0,0,1-.878.988,6.054,6.054,0,0,0-4.3,2.162.931.931,0,0,1-.7.313" transform="translate(238.118 301.188)" fill="#1a1311"/>
        <path id="パス_1336" data-name="パス 1336" d="M349.6,478.794a8.057,8.057,0,0,1-1.9-.27.933.933,0,1,1,.422-1.818,4.85,4.85,0,0,0,4.4-.774.934.934,0,1,1,.988,1.586,7.266,7.266,0,0,1-3.9,1.276" transform="translate(224.411 307.728)" fill="#1a1311"/>
        <path id="パス_1337" data-name="パス 1337" d="M347.574,476.958a.935.935,0,0,1-.5-1.727,7.923,7.923,0,0,1,6.149-1.1.935.935,0,0,1-.422,1.821,6.03,6.03,0,0,0-4.739.863.934.934,0,0,1-.492.142" transform="translate(224.196 306.519)" fill="#1a1311"/>
        <path id="パス_1338" data-name="パス 1338" d="M361.569,461.574a.936.936,0,0,1-.567-.191,3.6,3.6,0,0,0-1.671-.8.932.932,0,0,1-.82-1.034.95.95,0,0,1,1.034-.822,5.38,5.38,0,0,1,2.59,1.168.934.934,0,0,1-.567,1.676" transform="translate(231.87 296.69)" fill="#1a1311"/>
        <path id="パス_1339" data-name="パス 1339" d="M353.745,466.474a.938.938,0,0,1-.8-.45c-1.268-2.1-2.429-3.366-3.452-3.776a.935.935,0,1,1,.7-1.734c1.424.573,2.847,2.06,4.351,4.542a.934.934,0,0,1-.315,1.283.924.924,0,0,1-.483.135" transform="translate(225.663 297.804)" fill="#1a1311"/>
        <path id="パス_1340" data-name="パス 1340" d="M344.368,469.638a.934.934,0,0,1-.851-.55,24.237,24.237,0,0,0-4.487-7.145.934.934,0,0,1,1.322-1.319,26.021,26.021,0,0,1,4.868,7.7.937.937,0,0,1-.851,1.319" transform="translate(219.098 297.74)" fill="#1a1311"/>
        <path id="パス_1341" data-name="パス 1341" d="M265.8,293.952a.83.83,0,0,1-.155-.013.934.934,0,0,1-.767-1.074c.871-5.243,2.317-24.03,2.317-34.773,0-6.531,2.36-18.024,4.257-27.259,1.34-6.526,2.5-12.16,2.5-14.342,0-3.99,2.6-11.687,4.893-18.48.967-2.864,1.879-5.568,2.488-7.679a.934.934,0,1,1,1.795.517c-.621,2.151-1.541,4.876-2.515,7.76-2.246,6.656-4.792,14.2-4.792,17.882,0,2.371-1.12,7.819-2.536,14.717-1.881,9.153-4.217,20.543-4.217,26.883,0,10.823-1.462,29.779-2.343,35.08a.937.937,0,0,1-.921.781" transform="translate(171.309 122.664)" fill="#fff"/>
        <path id="パス_1342" data-name="パス 1342" d="M253.949,784.659a.936.936,0,0,1-.853-.553c-4.965-11.084-20.02-11.946-24.514-11.946a11.879,11.879,0,0,0-10.052,5.447.933.933,0,0,1-1.522-1.082,13.829,13.829,0,0,1,11.573-6.235c4.779,0,20.794.944,26.22,13.052a.934.934,0,0,1-.471,1.234.955.955,0,0,1-.382.082" transform="translate(140.243 498.201)" fill="#1a1311"/>
        <path id="パス_1343" data-name="パス 1343" d="M169.34,1132.552a.934.934,0,0,1-.509-1.718,11.025,11.025,0,0,0,4.038-5.452c3.821-9.6,4.716-29.37-.957-48.6-5.8-19.7,1.158-38.256,4.128-46.182l.072-.194a46.767,46.767,0,0,1,3.3-6.92,22.587,22.587,0,0,0,3.453-11.521c.234-3.387-2.053-7.34-4.074-10.826A27.449,27.449,0,0,1,175.7,994.7a102.385,102.385,0,0,0-3.984-11.075c-.654-1.635-1.23-3.078-1.592-4.086-3.226-8.953-2.235-22.154-1.187-36.13.222-2.959.448-5.97.642-9.008.484-7.763,3.289-20.845,6.536-35.993,3.224-15.047,6.882-32.1,8.622-46.12a147.366,147.366,0,0,0,1.072-20.883c-.242-14.151-2.5-24.394-4.677-34.3a143.8,143.8,0,0,1-3.453-20.244,74.45,74.45,0,0,1,.751-15.666c.736-5.164,2.734-11.763,5.044-19.406,4.12-13.624,9.247-30.576,9.958-48.394.255-6.412.3-14.291.145-24.791-.331-23.257-.229-48.086.331-80.51.364-21.127,3.285-47.592,6.113-73.186,2.174-19.69,4.422-40.049,5.571-58.322.068-.489,1.1-6.371,2.3-13.181,1.182-6.712,2.52-14.32,2.577-14.724a.934.934,0,0,1,1.849,0c.056.4,1.393,8.012,2.576,14.724,1.2,6.809,2.231,12.692,2.292,13.1,1.156,18.35,3.4,38.711,5.578,58.4,2.826,25.593,5.75,52.056,6.113,73.181.56,32.425.664,57.253.331,80.509-.155,10.5-.11,18.38.145,24.792.71,17.82,5.838,34.772,9.958,48.4,2.31,7.641,4.308,14.24,5.046,19.4a74.484,74.484,0,0,1,.748,15.666,143.619,143.619,0,0,1-3.453,20.247c-2.179,9.9-4.433,20.145-4.675,34.294a147.039,147.039,0,0,0,1.074,20.879c1.739,14.022,5.4,31.081,8.623,46.131,3.247,15.145,6.05,28.223,6.536,35.987.193,3.041.42,6.058.641,9.021,1.047,13.97,2.037,27.164-1.187,36.115-.366,1.011-.944,2.46-1.6,4.1a101.809,101.809,0,0,0-3.977,11.058,27.361,27.361,0,0,1-3.089,6.444c-2.021,3.485-4.31,7.437-4.076,10.824a22.591,22.591,0,0,0,3.453,11.519,46.608,46.608,0,0,1,3.3,6.921l.076.2c2.971,7.924,9.928,26.485,4.124,46.172-5.673,19.229-4.776,39-.957,48.6a11.039,11.039,0,0,0,4.04,5.454.933.933,0,0,1-1.016,1.566,12.8,12.8,0,0,1-4.757-6.332c-3.937-9.889-4.893-30.177.9-49.815,5.629-19.088-.929-36.581-4.081-44.988l-.077-.2a44.72,44.72,0,0,0-3.178-6.668,24.371,24.371,0,0,1-3.684-12.3c-.277-3.96,2.167-8.173,4.319-11.891a26.288,26.288,0,0,0,2.892-5.945,102.766,102.766,0,0,1,4.058-11.313c.647-1.617,1.215-3.045,1.576-4.043,3.089-8.575,2.114-21.576,1.082-35.341-.221-2.971-.448-5.994-.641-9.044-.478-7.626-3.267-20.641-6.5-35.712-3.234-15.088-6.9-32.189-8.65-46.292a148.5,148.5,0,0,1-1.087-21.143c.244-14.335,2.62-25.135,4.718-34.663a142,142,0,0,0,3.414-19.988,72.531,72.531,0,0,0-.734-15.259c-.716-5.023-2.694-11.559-4.983-19.127-4.152-13.724-9.317-30.8-10.037-48.861-.257-6.449-.3-14.36-.143-24.894.329-23.231.226-48.045-.333-80.45-.362-21.038-3.282-47.457-6.1-73.008-2.177-19.712-4.427-40.1-5.576-58.414-.051-.311-1.182-6.748-2.277-12.973-.664-3.778-1.23-6.992-1.662-9.453-.431,2.46-1,5.675-1.662,9.453-1.1,6.225-2.226,12.662-2.284,13.051-1.141,18.24-3.392,38.622-5.569,58.332-2.823,25.551-5.741,51.974-6.1,73.013-.558,32.405-.662,57.219-.331,80.451.158,10.533.112,18.444-.145,24.893-.72,18.057-5.887,35.135-10.037,48.86-2.289,7.57-4.267,14.106-4.983,19.129a72.492,72.492,0,0,0-.736,15.259,142.505,142.505,0,0,0,3.414,19.987c2.1,9.528,4.474,20.328,4.72,34.665a148.827,148.827,0,0,1-1.085,21.146c-1.751,14.1-5.416,31.2-8.649,46.281s-6.024,28.092-6.5,35.718c-.193,3.047-.418,6.065-.641,9.031-1.033,13.77-2.009,26.778,1.08,35.356.359.995.925,2.416,1.571,4.028a102.943,102.943,0,0,1,4.064,11.328,26.376,26.376,0,0,0,2.89,5.945c2.154,3.718,4.6,7.931,4.321,11.891a24.367,24.367,0,0,1-3.685,12.3,45.122,45.122,0,0,0-3.177,6.666l-.074.194c-3.154,8.408-9.716,25.9-4.086,45,5.793,19.636,4.838,39.926.9,49.816a12.8,12.8,0,0,1-4.756,6.33.931.931,0,0,1-.509.152" transform="translate(108.61 276.74)" fill="#1a1311"/>
        <path id="パス_1344" data-name="パス 1344" d="M226.147,858.463a11.451,11.451,0,0,1-6.432-1.675.933.933,0,0,1,1.016-1.566c2.773,1.8,6.144,1.436,9.41,1.085,1.25-.135,2.429-.263,3.569-.272a18.445,18.445,0,0,0,8.583-1.894.933.933,0,1,1,.935,1.614,20.081,20.081,0,0,1-9.505,2.149c-1.046.007-2.18.128-3.381.259a38.834,38.834,0,0,1-4.194.3" transform="translate(141.83 552.352)" fill="#1a1311"/>
        <path id="パス_1345" data-name="パス 1345" d="M273.131,1347.026a.934.934,0,0,1-.109-1.861c2.309-.277,8.066-3.743,9.986-6.375a.894.894,0,0,1,.2-.2,25.7,25.7,0,0,0,7.239-7.86c1.505-2.872,3.5-9.925,1.428-18.149q-.316-1.25-.733-2.541c-2.381-7.348-5.306-15.8-7.251-21.255-.445-1.247-1.016-2.8-1.69-4.517-.988-2.52-2.65-6.964-4.942-13.214a63.8,63.8,0,0,1-1.864-7.822c-.692-6.024-2.625-18.2-5.571-26.161a54.179,54.179,0,0,1-2.322-8.991c-.189-.988-.372-1.932-.576-2.836-.44-1.951-.736-4.072-1.049-6.317-.173-1.23-.351-2.518-.566-3.868a32.043,32.043,0,0,0-.762-3.809,27.164,27.164,0,0,1-.93-5.023c.008-1.019.064-2.315.128-3.814.1-2.483.234-5.574.221-8.963a34.08,34.08,0,0,0-.461-6.256c-.405-3.305-.822-6.724-.5-8.418,1.746-10.972,6.054-32.232,9.858-50.992l1.149-5.676c5.245-25.918,10.668-52.72,12.874-73.968.723-6.982,1.158-13.869,1.288-20.468.242-12.379-.59-24.6-1.324-35.376-.287-4.2-.563-8.272-.769-12.168-.441-8.24-.423-15.155-.405-21.255.02-6.482.036-12.6-.5-19.076-1.107-13.367-1.984-23.926-.525-30.948.863-4.165,1.762-8.286,2.653-12.377,3.705-16.995,7.2-33.047,7.8-49.436a.949.949,0,0,1,.033-.216c7.267-26.133,11.343-50.753,15.285-74.564l.968-5.854c.909-5.462,1.815-11.4,2.767-18.159,3.2-22.615,3.68-52.476,3.516-73.541-.12-15.595-.606-30.745-1.4-43.816-2.04-33.548-8.726-55.69-13.607-71.857-2.34-7.745-4.186-13.862-4.728-18.856a271.593,271.593,0,0,0-5.711-31.442c-2.742-12.14-5.11-22.623-4.091-32.226,1.563-14.765.239-29.112-.825-40.637-.534-5.792-.995-10.793-1.067-15.165-.193-11.481,1.406-19.746,3.43-30.212,1.592-8.24,3.4-17.578,4.741-30.721,0-.046.025-.168.048-.288a1.033,1.033,0,0,1,1.006-.828.871.871,0,0,1,.874.805c.79,18.651,5.943,37.755,9.352,50.4,1.454,5.391,2.6,9.65,3.022,12.375,1.714,10.938,5.635,21.668,9.426,32.046,3.032,8.3,6.166,16.876,8.064,25.347,4.716,21.023,24.9,65.174,33.933,83.262,1.271,2.885,3.56,8.375,6.213,14.73,6.582,15.786,16.532,39.639,20.662,47.063a.861.861,0,0,1,.076.174c.226.715.916,2.525,1.788,4.815,1.014,2.666,2.24,5.874,3.269,8.764a.928.928,0,0,1,.977.66,55.73,55.73,0,0,1,2.161,16.2c.145,17.709,3.05,31.639,8.405,40.278,2,4.079,3.746,13.988,4.9,20.545.4,2.292.731,4.178,1.008,5.505.934,4.5,2.648,13.074,3.641,19.949l.043.3c.777,5.38,1.393,9.632,1.616,10.62.547,2.427,2.6,5.056,5.584,4.7,2.928-.344,4.161-3.333,4.066-5.966-.033-1.018-.534-5.464-1.168-11.093-.781-6.943-1.589-15.921-1.856-19.949-.063-.949-.2-2.212-.359-3.577-.156-1.392-.392-3.49-.5-5.266a.933.933,0,0,1,1.815-.357c.856,2.516,1.9,5.973,2.666,8.5.751,2.493,1.416,4.7,1.877,6.054,1.551,4.575,4.672,15.443,7.18,24.174,1.894,6.6,3.508,12.222,3.959,13.446.945,2.576,3.4,5.181,6.261,5.181a4.675,4.675,0,0,0,1.126-.137c3.213-.784,4.529-4.616,3.949-7.867-.224-1.258-1.589-6.613-3.318-13.4-2.151-8.436-5.062-19.853-6.047-24.655-.369-1.808-.935-3.962-1.533-6.243-.624-2.375-1.568-5.966-1.932-8.318a.934.934,0,0,1,1.767-.542c1.512,3.2,3.671,9.726,5.1,14.044s2.637,7.957,3.47,9.731c2.045,4.352,5.841,13.336,8.891,20.553l.17.4c2.488,5.894,4.455,10.546,5.052,11.74,1.113,2.215,3.6,4.6,6.431,4.6a4.754,4.754,0,0,0,1.629-.283c3.168-1.144,4.061-5.181,3.1-8.421-.385-1.284-2.282-6.245-4.293-11.495-2.9-7.6-6.523-17.047-8.079-21.826-.66-2.026-1.919-5.452-3.134-8.767-1.793-4.893-4.209-11.485-5.191-14.893a.935.935,0,0,1,1.634-.835c1.653,2.114,4.189,6.352,5.867,9.156l.11.185c.809,1.345,1.592,2.655,2.32,3.822,2.7,4.328,8.132,14.773,12.5,23.163l.079.153c2.819,5.426,5.482,10.551,6.2,11.639,1.271,1.922,3.732,3.865,6.36,3.865a4.813,4.813,0,0,0,2.152-.5c3-1.5,3.4-5.614,2.052-8.731-.535-1.237-3.443-6.8-6.523-12.687l-.15-.287c-4.282-8.2-9.614-18.408-11.676-22.857l-8.985-20.963c-.481-1.614-1.263-3.549-2.019-5.423a44.816,44.816,0,0,1-2.035-5.7.934.934,0,0,1,1.3-1.042c1.859.851,3.452,2.844,5.655,5.6,1.38,1.727,3.1,3.878,5.288,6.218,2.024,2.6,4.725,5.9,8.086,9.863,3.621,4.268,7.42,5.164,9.97,5.164,3.2,0,5.76-1.4,6.539-2.721.828-1.41-.925-3.32-4.1-6.574a40,40,0,0,1-6.37-7.728l-.066-.081a23.081,23.081,0,0,1-3.717-5.586,81,81,0,0,0-11.676-16.664c-1-1.133-2.391-2.849-3.858-4.665-3.967-4.911-8.853-10.951-12.489-13.713a56.481,56.481,0,0,0-7.382-4.3c-5.164-2.711-10.925-5.732-14.487-9.915a.939.939,0,0,1,.008-1.222l.092-.1-16.906-51.109c-.28-.907-1.087-3.127-1.94-5.479-.9-2.482-1.836-5.049-2.223-6.281-3.707-11.87-8.982-29.5-12-45.5-2.2-11.686-4.008-22.735-5.375-32.842a139.224,139.224,0,0,0-5.925-26.632c-2.689-7.965-6.35-14.5-9.579-20.259-5.011-8.942-9.339-16.664-8.7-26.636,1.2-18.8-5.245-52.242-10.424-79.114-1.828-9.485-3.554-18.442-4.726-25.635l-.1-.594c-.593-3.636-1.1-6.716-1.431-9.1-.347-1.841-.667-5.3-.68-5.443,0-1.413,1.029-16.827,1.709-23.058.5-6,1.1-21.742-4.255-37.9-6.319-19.083-22.7-41.227-43.753-44.749-4.945-.825-27.354-10.445-35.488-14.286-1.261-.718-2.528-1.431-3.811-2.151l-1.719-.968c-2.292-1.3-5.207-2.75-8.58-4.431-9.732-4.848-21.841-10.883-28.268-17.849a31.38,31.38,0,0,1-7.816-17.836l-.212-2.08c-.186-1.782-.374-3.595-.525-5.431-.5-2.363-.5-10.623-.492-17.261,0-3.266,0-6.085-.059-7.458l.855-13.561a.952.952,0,0,1,.99-.874.933.933,0,0,1,.873.991l-.853,13.461c.066,1.314.064,4.155.063,7.443,0,6.205-.008,14.7.469,16.993.166,1.937.354,3.737.537,5.505l.216,2.086a29.467,29.467,0,0,0,7.33,16.758c6.192,6.712,18.133,12.662,27.727,17.444,3.4,1.691,6.332,3.155,8.667,4.474l1.716.967c1.285.723,2.557,1.438,3.756,2.124,7.771,3.666,30.226,13.314,34.935,14.1,21.811,3.649,38.73,26.406,45.217,46,5.462,16.484,4.856,32.532,4.343,38.666-.692,6.322-1.7,21.727-1.7,22.793,0,0,.323,3.44.657,5.225.343,2.413.843,5.479,1.433,9.1l.1.593c1.168,7.167,2.892,16.114,4.716,25.583,5.2,26.977,11.671,60.55,10.454,79.587-.6,9.423,3.6,16.921,8.466,25.6,3.269,5.833,6.974,12.446,9.719,20.576a141,141,0,0,1,6.006,26.977c1.363,10.075,3.168,21.092,5.362,32.746,2.994,15.9,8.249,33.461,11.941,45.285.375,1.191,1.3,3.738,2.2,6.2.861,2.373,1.676,4.614,1.963,5.546l17.067,51.6a.938.938,0,0,1-.092.782c3.371,3.618,8.642,6.385,13.324,8.84a58.264,58.264,0,0,1,7.725,4.514c3.819,2.9,8.781,9.039,12.769,13.971,1.5,1.854,2.87,3.554,3.847,4.652a82.836,82.836,0,0,1,11.916,17.006,22.035,22.035,0,0,0,3.381,5.144l.14.137a1.031,1.031,0,0,1,.16.206l.092.165a38.521,38.521,0,0,0,6.052,7.31c3.358,3.447,5.988,6.146,4.4,8.853-1.036,1.755-4.025,3.643-8.147,3.643-2.944,0-7.31-1.011-11.4-5.826-3.379-3.989-6.1-7.3-8.079-9.858-2.185-2.33-3.929-4.512-5.331-6.266-1.006-1.261-1.905-2.385-2.739-3.272.339.893.708,1.8,1.008,2.548.772,1.914,1.573,3.893,2.042,5.49l8.937,20.832c2.032,4.384,7.353,14.571,11.626,22.752l.15.287c3.743,7.162,6.055,11.6,6.581,12.81,1.694,3.916,1.057,9.156-2.936,11.147a6.691,6.691,0,0,1-2.982.693c-3.322,0-6.371-2.365-7.918-4.706-.718-1.092-2.857-5.189-6.3-11.8l-.077-.153c-4.351-8.364-9.764-18.773-12.425-23.038-.734-1.177-1.523-2.495-2.337-3.85l-.112-.184c-.533-.893-1.191-1.993-1.889-3.132.952,2.7,2.012,5.589,2.9,8.021,1.25,3.409,2.515,6.854,3.185,8.911,1.543,4.734,5.3,14.562,8.048,21.737,2.447,6.394,3.96,10.368,4.337,11.63,1.214,4.072-.044,9.191-4.249,10.711a6.649,6.649,0,0,1-2.264.4c-3.621,0-6.735-2.918-8.1-5.629-.626-1.25-2.6-5.928-5.1-11.85l-.168-.4c-3.043-7.2-6.832-16.168-8.86-20.487-.784-1.663-1.836-4.759-3.052-8.422,1.181,5.34,3.764,15.471,5.7,23.05,1.762,6.92,3.135,12.306,3.371,13.63.733,4.1-1.065,8.965-5.342,10.007a6.511,6.511,0,0,1-1.571.193c-3.715,0-6.844-3.223-8.015-6.406-.451-1.224-1.8-5.92-3.974-13.479-2.529-8.809-5.643-19.654-7.178-24.184-.473-1.382-1.143-3.6-1.853-5.96l-.013-.043c.268,4.04,1.072,12.914,1.844,19.793.729,6.482,1.145,10.2,1.177,11.238.128,3.569-1.793,7.425-5.716,7.886-4.1.464-6.9-2.963-7.621-6.143-.239-1.059-.827-5.128-1.642-10.763l-.044-.3c-.985-6.828-2.692-15.358-3.62-19.837-.278-1.342-.616-3.247-1-5.444-1.154-6.571-2.869-16.323-4.711-20.081-5.49-8.851-8.494-23.114-8.642-41.168a64,64,0,0,0-.751-9.912.939.939,0,0,1-.43-.578c-.781-3.155-3.279-9.7-5.1-14.487-.851-2.231-1.53-4.011-1.8-4.828-4.207-7.6-13.742-30.462-20.711-47.17-2.648-6.348-4.934-11.83-6.177-14.658-9.049-18.113-29.314-62.455-34.067-83.644-1.874-8.354-4.986-16.874-8-25.117-3.822-10.462-7.773-21.28-9.52-32.4-.4-2.627-1.536-6.841-2.976-12.176-2.859-10.6-6.935-25.711-8.678-41.365-1.171,8.736-2.5,15.618-3.709,21.867-2,10.36-3.585,18.543-3.4,29.828.072,4.3.53,9.271,1.061,15.023,1.072,11.61,2.4,26.059.822,41.006-.985,9.3,1.35,19.641,4.054,31.618a273,273,0,0,1,5.747,31.653c.522,4.82,2.347,10.864,4.659,18.516,4.631,15.338,11.631,38.518,13.683,72.282.8,13.1,1.286,28.29,1.41,43.914.163,21.133-.316,51.091-3.536,73.818-.955,6.772-1.862,12.726-2.771,18.205l-.972,5.853c-3.946,23.827-8.023,48.463-15.3,74.651-.609,16.519-4.119,32.616-7.832,49.658-.891,4.084-1.788,8.2-2.651,12.359-1.4,6.757-.538,17.2.56,30.412.543,6.554.527,12.715.507,19.236-.018,6.075-.038,12.963.4,21.151.2,3.888.481,7.946.767,12.14.736,10.818,1.571,23.078,1.326,35.539-.132,6.651-.566,13.591-1.3,20.624-2.213,21.337-7.646,48.185-12.9,74.146l-1.149,5.678c-3.8,18.74-8.1,39.98-9.848,50.938-.268,1.438.15,4.858.517,7.875a32.059,32.059,0,0,1,.461,6.638c.028,3.267-.1,6.383-.209,8.884-.063,1.477-.117,2.752-.128,3.776a32.341,32.341,0,0,0,.884,4.558,28.192,28.192,0,0,1,.8,4.066c.206,1.237.387,2.536.562,3.779.306,2.2.6,4.288,1.021,6.162.209.92.4,1.885.588,2.893a52.88,52.88,0,0,0,2.24,8.695c3.705,10.007,5.472,24.856,5.662,26.516a70.75,70.75,0,0,0,1.764,7.445c2.3,6.266,3.959,10.7,4.939,13.2.682,1.736,1.26,3.308,1.711,4.57,1.948,5.471,4.881,13.942,7.269,21.309.288.9.547,1.787.766,2.66,2.212,8.769.043,16.367-1.587,19.475a27.426,27.426,0,0,1-7.676,8.415c-2.192,2.885-8.178,6.648-11.183,7.007a.823.823,0,0,1-.112.008" transform="translate(141.629 54.701)" fill="#fff"/>
        <path id="パス_1346" data-name="パス 1346" d="M144.6,855.77a.927.927,0,0,1-.372-.079l-.254-.105a.935.935,0,1,1,.721-1.724l.278.119a.934.934,0,0,1-.374,1.79" transform="translate(92.746 552.206)" fill="#1a1311"/>
        <path id="パス_1347" data-name="パス 1347" d="M245.205,857.448c-1.515,0-5.065-.514-6.612-1.815a12.383,12.383,0,0,0-4.341.367.958.958,0,0,1-1.121-.39.9.9,0,0,1,.252-1.24c.025-.016.11-.066.137-.081a.93.93,0,0,1,.168-.069,13.975,13.975,0,0,1,5.456-.4.931.931,0,0,1,.563.3c.84.925,4.7,1.563,5.718,1.452a17.573,17.573,0,0,0,5.989-1.466l.186-.079a.934.934,0,0,1,.733,1.718l-.179.077a19.455,19.455,0,0,1-6.528,1.606,3.731,3.731,0,0,1-.42.018" transform="translate(150.69 552.153)" fill="#1a1311"/>
        <path id="パス_1348" data-name="パス 1348" d="M245.04,858.1a.934.934,0,0,1-.357-1.8c.362-.151.731-.295,1.153-.428,3.417-.492,6.5-3.111,8.348-4.675.5-.425.912-.774,1.227-1a.941.941,0,0,1,.909-.1,1.151,1.151,0,0,0,.451.005.933.933,0,0,1,.222,1.853,3.508,3.508,0,0,1-.818.01c-.226.183-.487.405-.784.657-2,1.7-5.342,4.534-9.145,5.069-.214.081-.535.207-.848.336a.947.947,0,0,1-.357.073" transform="translate(157.881 549.769)" fill="#1a1311"/>
        <path id="パス_1349" data-name="パス 1349" d="M244.879,855.77a.934.934,0,0,1-.374-1.79l.278-.119a.935.935,0,1,1,.721,1.724l-.252.105a.941.941,0,0,1-.374.079" transform="translate(157.776 552.206)" fill="#1a1311"/>
        <path id="パス_1350" data-name="パス 1350" d="M225.242,1347.026a.823.823,0,0,1-.112-.008c-3.005-.359-8.991-4.122-11.182-7.007a27.412,27.412,0,0,1-7.674-8.413c-1.634-3.109-3.8-10.707-1.589-19.476.219-.873.476-1.762.767-2.66,2.386-7.368,5.319-15.839,7.267-21.307.45-1.263,1.029-2.836,1.713-4.571.988-2.531,2.691-7.086,4.925-13.174a70.408,70.408,0,0,0,1.79-7.559c.173-1.574,1.937-16.413,5.647-26.432a53.062,53.062,0,0,0,2.24-8.7c.193-1.008.379-1.971.588-2.892.423-1.874.715-3.957,1.021-6.162.175-1.243.356-2.543.573-3.9a28.844,28.844,0,0,1,.786-3.942,32.589,32.589,0,0,0,.886-4.537c-.012-1.046-.066-2.32-.128-3.8-.105-2.5-.237-5.617-.222-9.047a32.4,32.4,0,0,1,.474-6.475c.367-3.017.786-6.437.52-7.849-1.747-10.984-6.054-32.224-9.851-50.964l-1.149-5.678c-5.253-25.961-10.686-52.809-12.9-74.146-.731-7.025-1.168-13.965-1.3-20.623-.247-12.451.588-24.7,1.324-35.511.287-4.2.563-8.272.767-12.168.441-8.189.422-15.076.4-21.151-.018-6.523-.035-12.683.509-19.238,1.1-13.217,1.963-23.656.56-30.412-.865-4.161-1.762-8.278-2.651-12.362-3.715-17.041-7.223-33.138-7.834-49.653-7.271-26.179-11.346-50.806-15.29-74.624l-.977-5.882c-.909-5.479-1.816-11.433-2.771-18.205-3.219-22.727-3.7-52.685-3.534-73.818.12-15.595.608-30.781,1.408-43.914C182.3,597,189.3,573.822,193.93,558.483c2.312-7.651,4.137-13.695,4.66-18.515a272.674,272.674,0,0,1,5.746-31.653c2.7-11.977,5.039-22.322,4.054-31.616-1.583-14.949-.25-29.4.822-41.008.53-5.752.988-10.72,1.061-15.023.188-11.285-1.393-19.468-3.4-29.828-1.212-6.266-2.544-13.164-3.707-21.886-1.742,15.662-5.82,30.783-8.68,41.385-1.439,5.336-2.576,9.55-2.976,12.171-1.747,11.124-5.7,21.943-9.522,32.407-3.01,8.24-6.123,16.761-8,25.113-4.751,21.187-25.013,65.532-34.083,83.686-1.224,2.788-3.511,8.272-6.161,14.622-6.967,16.706-16.5,39.567-20.708,47.165-.265.817-.944,2.6-1.795,4.827-1.821,4.782-4.318,11.33-5.1,14.488a.935.935,0,0,1-.427.576,64.174,64.174,0,0,0-.754,9.912c-.147,18.054-3.149,32.318-8.682,41.25-1.811,3.7-3.531,13.5-4.669,19.992-.387,2.205-.721,4.11-1,5.451-.925,4.454-2.628,12.953-3.623,19.839-.772,5.347-1.441,9.965-1.685,11.06-.716,3.182-3.506,6.6-7.621,6.144-3.923-.461-5.844-4.318-5.718-7.89.036-1.059.471-4.958,1.177-11.234.776-6.887,1.576-15.755,1.844-19.791l-.01.033c-.711,2.362-1.382,4.585-1.854,5.97-1.55,4.567-4.67,15.443-7.178,24.183l-.049.171c-1.933,6.732-3.46,12.048-3.926,13.309-1.168,3.182-4.3,6.4-8.013,6.4A6.5,6.5,0,0,1,52.39,770c-4.277-1.042-6.075-5.907-5.34-10.009.234-1.322,1.607-6.709,3.345-13.527,2.065-8.1,4.563-17.9,5.726-23.159-1.219,3.667-2.271,6.763-3.053,8.428-2.055,4.374-5.89,13.453-8.973,20.749-2.557,6.055-4.53,10.729-5.163,11.987-1.362,2.711-4.476,5.629-8.1,5.629a6.651,6.651,0,0,1-2.266-.4c-4.2-1.518-5.461-6.638-4.249-10.711.39-1.307,2.128-5.849,4.326-11.6l.071-.188c2.885-7.539,6.473-16.924,7.988-21.583.664-2.035,1.932-5.49,3.157-8.832.9-2.457,1.973-5.382,2.935-8.1-.7,1.14-1.355,2.238-1.889,3.131-.853,1.423-1.681,2.8-2.449,4.036C35.787,720.145,30.351,730.6,25.984,739c-3.249,6.248-5.571,10.714-6.322,11.857-1.548,2.343-4.6,4.708-7.921,4.708a6.644,6.644,0,0,1-2.976-.693c-4-1.989-4.636-7.229-2.943-11.144.553-1.278,3.214-6.368,6.582-12.814,4.344-8.318,9.723-18.612,11.789-23.063l8.962-20.914c.435-1.5,1.232-3.475,2-5.385.3-.743.667-1.652,1-2.542-.83.884-1.726,2-2.73,3.261-1.487,1.862-3.165,3.962-5.388,6.34-2.452,3.16-5.724,7.075-8.028,9.79-4.084,4.817-8.451,5.828-11.394,5.828-4.124,0-7.112-1.887-8.145-3.643-1.594-2.707,1.036-5.406,4.366-8.823a38.727,38.727,0,0,0,6.078-7.331l.094-.17a.933.933,0,0,1,.163-.212l.135-.132a21.878,21.878,0,0,0,3.381-5.143,82.8,82.8,0,0,1,11.919-17.01c.921-1.036,2.156-2.559,3.8-4.6,4.026-4.98,8.993-11.126,12.814-14.026a57.764,57.764,0,0,1,7.682-4.491c4.716-2.473,9.994-5.242,13.367-8.86a.94.94,0,0,1-.092-.786l17.075-51.616c.282-.921,1.1-3.185,1.976-5.581.888-2.442,1.8-4.968,2.179-6.152,3.692-11.827,8.949-29.39,11.939-45.281,2.192-11.643,4-22.661,5.36-32.746a140.928,140.928,0,0,1,6.006-26.977c2.745-8.132,6.449-14.744,9.719-20.578,4.865-8.682,9.065-16.179,8.464-25.6-1.217-19.042,5.257-52.623,10.457-79.6,1.823-9.464,3.546-18.4,4.713-25.564l.1-.593c.59-3.621,1.09-6.687,1.424-9.059.346-1.839.667-5.317.67-5.352,0-.973-1.018-16.369-1.706-22.684-.515-6.157-1.123-22.2,4.338-38.689,6.488-19.6,23.409-42.353,45.219-46,4.708-.786,27.163-10.434,35-14.134,1.135-.652,2.406-1.367,3.692-2.09l1.718-.967c2.333-1.319,5.266-2.781,8.665-4.474,9.592-4.782,21.533-10.732,27.728-17.444a29.5,29.5,0,0,0,7.328-16.759l.214-2.07c.183-1.772.371-3.578.52-5.406.494-2.4.491-10.884.487-17.079,0-3.3,0-6.152.061-7.574l-.851-13.359a.933.933,0,1,1,1.863-.117l.853,13.461c-.061,1.477-.059,4.308-.058,7.587,0,6.627.007,14.874-.51,17.347-.135,1.727-.323,3.547-.509,5.332l-.211,2.065a31.386,31.386,0,0,1-7.814,17.836c-6.431,6.966-18.539,13-28.268,17.849-3.374,1.681-6.289,3.134-8.581,4.43l-1.719.97c-1.283.72-2.549,1.433-3.746,2.116-8.2,3.875-30.605,13.5-35.552,14.32-21.047,3.522-37.434,25.667-43.755,44.749-5.35,16.156-4.756,31.9-4.252,37.922.678,6.223,1.713,21.629,1.713,22.949-.018.232-.338,3.687-.692,5.571-.329,2.338-.832,5.418-1.424,9.054l-.1.594c-1.173,7.188-2.9,16.14-4.723,25.617-5.181,26.877-11.628,60.329-10.427,79.132.637,9.973-3.689,17.693-8.7,26.635-3.229,5.762-6.89,12.293-9.579,20.26a139.165,139.165,0,0,0-5.923,26.632c-1.37,10.118-3.178,21.166-5.375,32.842-3.01,15.985-8.287,33.62-12,45.5-.385,1.225-1.309,3.769-2.2,6.23-.863,2.375-1.678,4.616-1.953,5.512L66.127,629.083l.089.1a.935.935,0,0,1,.012,1.223c-3.565,4.186-9.329,7.208-14.413,9.876a57.05,57.05,0,0,0-7.457,4.342c-3.641,2.763-8.527,8.809-12.455,13.668-1.7,2.1-2.946,3.643-3.895,4.71a81.176,81.176,0,0,0-11.676,16.662,23.008,23.008,0,0,1-3.72,5.592l-.064.081a39.709,39.709,0,0,1-6.329,7.682c-3.21,3.3-4.963,5.206-4.133,6.615.777,1.321,3.331,2.721,6.536,2.721,2.548,0,6.348-.9,9.971-5.166,2.291-2.7,5.543-6.6,8.031-9.795,2.228-2.39,3.883-4.459,5.342-6.284,2.21-2.763,3.8-4.753,5.655-5.6a.934.934,0,0,1,1.3,1.042,45.461,45.461,0,0,1-2.034,5.7c-.756,1.871-1.538,3.8-1.983,5.319L25.9,708.612c-2.1,4.517-7.485,14.833-11.816,23.122-3.241,6.2-6.021,11.521-6.546,12.734C6.19,747.585,6.59,751.7,9.594,753.2a4.787,4.787,0,0,0,2.147.5c2.632,0,5.09-1.94,6.361-3.867.7-1.062,3.242-5.956,6.19-11.623,4.417-8.5,9.871-18.987,12.581-23.331.761-1.22,1.586-2.6,2.431-4.007,1.678-2.8,4.216-7.043,5.869-9.156a.935.935,0,0,1,1.634.835c-.991,3.434-3.42,10.057-5.192,14.893-1.22,3.325-2.482,6.763-3.135,8.767-1.53,4.7-5.128,14.109-8.02,21.67l-.059.155c-2.2,5.744-3.923,10.254-4.291,11.5-.965,3.241-.071,7.277,3.1,8.422a4.747,4.747,0,0,0,1.629.283c2.831,0,5.316-2.383,6.429-4.6.6-1.2,2.666-6.083,5.054-11.738,3.145-7.447,6.991-16.545,9.061-20.952.84-1.79,2.058-5.469,3.47-9.732,1.429-4.316,3.59-10.839,5.1-14.042a.933.933,0,0,1,1.765.542c-.356,2.307-1.3,5.9-1.92,8.272-.583,2.22-1.173,4.468-1.545,6.287-.977,4.767-3.774,15.74-6.022,24.555-1.754,6.885-3.119,12.24-3.341,13.5-.583,3.252.736,7.084,3.947,7.868a4.664,4.664,0,0,0,1.126.137c2.862,0,5.316-2.605,6.261-5.181.443-1.2,1.961-6.485,3.883-13.179l.049-.171c2.513-8.758,5.642-19.658,7.2-24.268.463-1.355,1.128-3.562,1.835-5.9.777-2.572,1.838-6.085,2.709-8.651a.934.934,0,0,1,1.816.357c-.109,1.8-.354,3.972-.5,5.265-.153,1.367-.295,2.63-.357,3.578C76.6,724.2,75.786,733.172,75,740.126c-.7,6.253-1.133,10.119-1.168,11.091-.092,2.635,1.14,5.624,4.068,5.968,2.987.366,5.036-2.269,5.584-4.7.227-1.024.922-5.83,1.658-10.918,1-6.935,2.712-15.476,3.641-19.949.275-1.327.606-3.213.986-5.388,1.159-6.6,2.907-16.562,4.878-20.581,5.4-8.721,8.3-22.65,8.446-40.361a55.759,55.759,0,0,1,2.161-16.2.947.947,0,0,1,.978-.66c1.028-2.89,2.251-6.1,3.267-8.766.873-2.291,1.563-4.1,1.788-4.813a.855.855,0,0,1,.074-.175c4.132-7.422,14.08-31.274,20.662-47.058,2.651-6.358,4.942-11.85,6.193-14.7,9.054-18.129,29.238-62.281,33.951-83.3,1.9-8.469,5.033-17.047,8.064-25.344,3.793-10.38,7.714-21.112,9.431-32.053.415-2.722,1.564-6.979,3.019-12.371,3.409-12.641,8.56-31.746,9.35-50.4a.934.934,0,0,1,1.861-.066c.044.207.063.316.069.367,1.344,13.153,3.149,22.49,4.741,30.73,2.026,10.465,3.623,18.73,3.43,30.212-.072,4.372-.534,9.373-1.067,15.165-1.064,11.526-2.388,25.872-.825,40.637,1.019,9.6-1.349,20.086-4.091,32.226a271.589,271.589,0,0,0-5.711,31.442c-.542,4.991-2.388,11.109-4.728,18.854-4.881,16.168-11.569,38.31-13.607,71.857-.8,13.1-1.284,28.252-1.4,43.816-.165,21.067.311,50.928,3.516,73.543.952,6.755,1.858,12.7,2.767,18.159l.973,5.882c3.941,23.8,8.016,48.413,15.279,74.536a.865.865,0,0,1,.033.216c.593,16.387,4.092,32.438,7.8,49.434.893,4.091,1.79,8.214,2.655,12.379,1.459,7.022.581,17.581-.525,30.948-.538,6.475-.522,12.6-.5,19.078.018,6.1.036,13.015-.405,21.253-.206,3.906-.484,7.984-.771,12.2-.733,10.768-1.564,22.977-1.322,35.345.132,6.607.566,13.494,1.291,20.468,2.205,21.248,7.628,48.05,12.873,73.968l1.149,5.676c3.8,18.76,8.112,40.02,9.861,51.019.316,1.668-.1,5.087-.507,8.392a35.031,35.031,0,0,0-.474,6.095c0,3.551.13,6.641.234,9.125.064,1.5.12,2.794.13,3.835a27.718,27.718,0,0,1-.932,5,33.262,33.262,0,0,0-.751,3.685c-.226,1.474-.405,2.762-.578,3.992-.313,2.245-.609,4.366-1.049,6.317-.2.9-.387,1.848-.576,2.834a54.3,54.3,0,0,1-2.322,8.991c-2.951,7.969-4.881,20.142-5.556,26.078a64.368,64.368,0,0,1-1.891,7.934c-2.226,6.073-3.934,10.641-4.929,13.184-.675,1.719-1.248,3.272-1.691,4.519-1.945,5.456-4.869,13.907-7.251,21.256q-.417,1.29-.733,2.539c-2.072,8.224-.077,15.277,1.429,18.151a25.667,25.667,0,0,0,7.238,7.858.859.859,0,0,1,.2.2c1.918,2.632,7.676,6.1,9.984,6.375a.934.934,0,0,1-.109,1.861" transform="translate(0 54.7)" fill="#fff"/>
        <path id="パス_1351" data-name="パス 1351" d="M172.076,858.463a38.834,38.834,0,0,1-4.194-.3c-1.2-.13-2.335-.252-3.381-.259a20.078,20.078,0,0,1-9.5-2.149.933.933,0,1,1,.935-1.614,18.442,18.442,0,0,0,8.581,1.894c1.14.008,2.319.137,3.569.272,3.266.352,6.636.718,9.411-1.085a.933.933,0,0,1,1.016,1.566,11.456,11.456,0,0,1-6.434,1.675" transform="translate(99.947 552.352)" fill="#1a1311"/>
        <path id="パス_1352" data-name="パス 1352" d="M148.984,858.093a.94.94,0,0,1-.362-.074c-.31-.13-.629-.254-.991-.369-3.653-.5-7-3.338-8.995-5.034-.3-.252-.558-.474-.784-.657a3.517,3.517,0,0,1-.82-.01.933.933,0,0,1,.222-1.853,1.334,1.334,0,0,0,.455-.005.972.972,0,0,1,.907.1c.313.226.728.575,1.227,1,1.844,1.564,4.93,4.183,8.2,4.642a10.912,10.912,0,0,1,1.306.463.934.934,0,0,1-.362,1.795" transform="translate(88.097 549.77)" fill="#1a1311"/>
        <path id="パス_1353" data-name="パス 1353" d="M151.256,857.45a3.65,3.65,0,0,1-.418-.02,19.411,19.411,0,0,1-6.524-1.6l-.184-.079a.934.934,0,0,1,.733-1.718l.188.081a17.628,17.628,0,0,0,5.989,1.464c1.026.109,4.878-.525,5.718-1.452a.93.93,0,0,1,.563-.3,13.975,13.975,0,0,1,5.456.4.92.92,0,0,1,.179.077l-.394.85-.476.8a14.633,14.633,0,0,0-3.086-.376,10.61,10.61,0,0,0-1.13.059c-1.546,1.3-5.1,1.816-6.613,1.816" transform="translate(92.851 552.153)" fill="#1a1311"/>
        <path id="パス_1354" data-name="パス 1354" d="M143.525,861.55a.945.945,0,0,1-.333-.062.932.932,0,0,1-.538-1.206,22.752,22.752,0,0,0,1.54-5.578.955.955,0,0,1,1.016-.843.933.933,0,0,1,.843,1.016,24.036,24.036,0,0,1-1.657,6.072.933.933,0,0,1-.871.6" transform="translate(92.224 552.25)" fill="#1a1311"/>
        <path id="パス_1355" data-name="パス 1355" d="M152.144,870.685a.933.933,0,0,1-.932-.889c-.021-.44-.071-.9-.124-1.4-.306-2.948-.726-6.986,2.725-13.96a.932.932,0,1,1,1.671.827c-3.211,6.491-2.823,10.22-2.539,12.94.056.537.109,1.036.13,1.507a.934.934,0,0,1-.888.978l-.044,0" transform="translate(97.591 552.284)" fill="#1a1311"/>
        <path id="パス_1356" data-name="パス 1356" d="M151.77,867.458a.935.935,0,0,1-.878-1.252l.878.318-.833-.448.094-.26a4.44,4.44,0,0,0,.216-1.874.934.934,0,1,1,1.866-.092,6.407,6.407,0,0,1-.343,2.648l-.066.179c0,.005-.054.156-.056.163a.934.934,0,0,1-.878.618" transform="translate(97.556 558.138)" fill="#1a1311"/>
        <path id="パス_1357" data-name="パス 1357" d="M149.727,876.737a17.3,17.3,0,0,1-2.52-.2c-5-.734-6.436-5.319-6.849-7.985a11.665,11.665,0,0,1-.112-2.042.876.876,0,0,1,.952-.914.932.932,0,0,1,.914.953,9.872,9.872,0,0,0,.092,1.719c.334,2.156,1.464,5.861,5.276,6.422,4.59.672,6.358-.715,7.478-2.161.851-1.107,1.576-3.484,2.159-5.4.224-.733.43-1.408.622-1.953a.934.934,0,0,1,1.76.624c-.186.522-.382,1.169-.6,1.874-.659,2.164-1.4,4.616-2.467,5.993a7.817,7.817,0,0,1-6.709,3.066" transform="translate(90.705 559.17)" fill="#1a1311"/>
        <path id="パス_1358" data-name="パス 1358" d="M136.478,859.428a.982.982,0,0,1-.263-.038.937.937,0,0,1-.632-1.161c1.006-3.42,1.382-5.764,1.113-6.964a.934.934,0,1,1,1.823-.405c.346,1.555-.016,4.066-1.145,7.9a.934.934,0,0,1-.9.67" transform="translate(87.666 549.839)" fill="#1a1311"/>
        <path id="パス_1359" data-name="パス 1359" d="M137.166,852.03a.933.933,0,0,1-.912-.744.961.961,0,0,1,.657-1.171.9.9,0,0,1,1.125.624c.012.038.041.138.046.166a.932.932,0,0,1-.725,1.1.831.831,0,0,1-.191.021" transform="translate(88.104 549.807)" fill="#1a1311"/>
        <path id="パス_1360" data-name="パス 1360" d="M141.179,872.093a.934.934,0,0,1-.669-1.586,10.008,10.008,0,0,0,.792-.911l.054-.064a23.062,23.062,0,0,0,2.077-4.156,19.6,19.6,0,0,0,.53-4.637c.043-.809.084-1.647.147-2.48a.982.982,0,0,1,1-.863.934.934,0,0,1,.861,1c-.061.82-.1,1.645-.143,2.435a19.627,19.627,0,0,1-.655,5.222,25.771,25.771,0,0,1-2.3,4.544,1.069,1.069,0,0,1-.087.138l0,.006c-.084.107-.135.18-.16.216l-.008-.005c-.234.288-.491.576-.762.856a.933.933,0,0,1-.669.283" transform="translate(90.706 554.538)" fill="#1a1311"/>
        <path id="パス_1361" data-name="パス 1361" d="M140.866,871.807a9.611,9.611,0,0,1-1.4-.105c-3.55-.524-5.48-2.09-5.9-4.789a19.1,19.1,0,0,1,.128-5.115.918.918,0,0,1,1.059-.789.932.932,0,0,1,.789,1.059,17.22,17.22,0,0,0-.13,4.562c.2,1.307.874,2.717,4.323,3.224a5.509,5.509,0,0,0,5.168-1.675.934.934,0,0,1,1.339,1.3,7.209,7.209,0,0,1-5.38,2.325" transform="translate(86.309 556.867)" fill="#1a1311"/>
        <path id="パス_1362" data-name="パス 1362" d="M143.526,861.595c-.025,0-.046,0-.071,0a.932.932,0,0,1-.861-1c.151-2.058.456-4.639,1.459-6.342a.933.933,0,0,1,1.609.945c-.815,1.388-1.079,3.824-1.207,5.535a.933.933,0,0,1-.929.864" transform="translate(92.224 552.205)" fill="#1a1311"/>
        <path id="パス_1363" data-name="パス 1363" d="M130.444,850.224a.877.877,0,0,1-.9-.744l-.031-.232-.613-1.627a.934.934,0,1,1,1.75-.654l.642,1.724a2.475,2.475,0,0,1,.087.433.979.979,0,0,1-.794,1.09,1.064,1.064,0,0,1-.143.01" transform="translate(83.331 547.4)" fill="#1a1311"/>
        <path id="パス_1364" data-name="パス 1364" d="M136.53,859.428a.934.934,0,0,1-.93-.873l-.025-.382c-.181-2.691-.384-5.739,1.388-7.732a.934.934,0,1,1,1.395,1.242c-1.252,1.406-1.075,4.041-.919,6.365l.023.384a.932.932,0,0,1-.87.993c-.021,0-.041,0-.063,0" transform="translate(87.612 549.839)" fill="#1a1311"/>
        <path id="パス_1365" data-name="パス 1365" d="M130.25,850.6c-.021,0-.04,0-.059,0a.931.931,0,0,1-.873-.99,4.138,4.138,0,0,0-.043-.919.933.933,0,1,1,1.843-.3,5.968,5.968,0,0,1,.063,1.332.933.933,0,0,1-.93.876" transform="translate(83.603 548.204)" fill="#1a1311"/>
        <path id="パス_1366" data-name="パス 1366" d="M134.528,866.978a.934.934,0,0,1-.629-1.625,5.188,5.188,0,0,0,.618-.656,12.983,12.983,0,0,0,1.555-3.765c.2-.647.384-1.253.575-1.742a9.808,9.808,0,0,0,.163-3.555.929.929,0,0,1,.869-.99.946.946,0,0,1,.991.871,10.767,10.767,0,0,1-.285,4.354c-.176.45-.344,1.008-.525,1.606a14.144,14.144,0,0,1-1.866,4.364,7.358,7.358,0,0,1-.838.9.942.942,0,0,1-.627.242" transform="translate(86.405 552.757)" fill="#1a1311"/>
        <path id="パス_1367" data-name="パス 1367" d="M137.163,852.015a.934.934,0,0,1-.66-1.594.927.927,0,0,1,1.312-.086.937.937,0,0,1,.117,1.278,1.246,1.246,0,0,1-.11.129.928.928,0,0,1-.659.273" transform="translate(88.109 549.822)" fill="#1a1311"/>
        <path id="パス_1368" data-name="パス 1368" d="M134.7,867.605a13.936,13.936,0,0,1-2.062-.165c-5.256-.7-5.306-3.852-5.334-5.736a7.9,7.9,0,0,0-.056-1.026c-.061-.409-.127-.748-.184-1.056a7.648,7.648,0,0,1-.125-2.958.953.953,0,0,1,1.065-.781.935.935,0,0,1,.781,1.064,5.777,5.777,0,0,0,.115,2.329c.063.328.13.688.194,1.12a9.787,9.787,0,0,1,.077,1.279c.026,1.838.053,3.424,3.727,3.916,3.247.479,4.614-.362,5.355-1.039a.934.934,0,0,1,1.258,1.38,6.781,6.781,0,0,1-4.812,1.672" transform="translate(82.043 553.556)" fill="#1a1311"/>
        <path id="パス_1369" data-name="パス 1369" d="M128.585,870.586a19.238,19.238,0,0,1-2.767-.232c-3.886-.571-4.27-3.048-4.524-4.687a32.543,32.543,0,0,1-.143-6.915c.128-.757.642-2.539,1.352-5,1.357-4.71,3.881-13.477,3.419-15.249a.934.934,0,1,1,1.806-.473c.548,2.1-1.23,8.594-3.432,16.239-.639,2.221-1.192,4.14-1.3,4.8a31.7,31.7,0,0,0,.148,6.316c.239,1.536.427,2.755,2.949,3.125,2.625.384,4.227.257,4.911-.384a.933.933,0,1,1,1.276,1.36,5.162,5.162,0,0,1-3.692,1.1" transform="translate(78.273 541.56)" fill="#1a1311"/>
        <path id="パス_1370" data-name="パス 1370" d="M130.2,850.2a.932.932,0,0,1-.932-.914,12.246,12.246,0,0,1,.084-2,.934.934,0,1,1,1.849.259,10.61,10.61,0,0,0-.069,1.7.931.931,0,0,1-.911.954l-.021,0" transform="translate(83.601 547.478)" fill="#1a1311"/>
        <path id="パス_1371" data-name="パス 1371" d="M130.246,850.6a.937.937,0,0,1-.93-.866c-.028-.394-.043-.782-.053-1.169a.93.93,0,0,1,.909-.957.948.948,0,0,1,.957.907c.01.359.025.72.049,1.083a.932.932,0,0,1-.863,1c-.023,0-.046,0-.069,0" transform="translate(83.603 548.205)" fill="#1a1311"/>
        <path id="パス_1372" data-name="パス 1372" d="M127.835,862.653a.935.935,0,0,1-.639-1.615,2.943,2.943,0,0,0,.5-.7,5.72,5.72,0,0,1,.394-.611,23.06,23.06,0,0,0,2.78-4.488,11.429,11.429,0,0,0,.1-4.517c-.043-.476-.087-.955-.122-1.433a.936.936,0,0,1,.865-1,.912.912,0,0,1,1,.864c.035.466.077.932.119,1.395.186,1.989.359,3.868-.212,5.36a24.3,24.3,0,0,1-3.042,4.955,3.619,3.619,0,0,0-.26.413,4.688,4.688,0,0,1-.837,1.123.937.937,0,0,1-.639.252" transform="translate(82.076 548.646)" fill="#1a1311"/>
        <path id="パス_1373" data-name="パス 1373" d="M152.019,870.617a.862.862,0,0,1-.206-.025.931.931,0,0,1-.706-1.113c.036-.217.051-.308.072-.4a29.887,29.887,0,0,1,2.613-6.279c1.294-2.561,2.635-5.209,2.977-7.969a.934.934,0,0,1,1.853.232c-.384,3.08-1.8,5.876-3.163,8.58A28.481,28.481,0,0,0,153,869.514l-.068.374a.935.935,0,0,1-.909.729" transform="translate(97.717 552.352)" fill="#1a1311"/>
        <path id="パス_1374" data-name="パス 1374" d="M151.771,867.458c-.033,0-.063,0-.094,0a.934.934,0,0,1-.837-1.021,23.776,23.776,0,0,1,.425-2.735.934.934,0,1,1,1.825.4,21.548,21.548,0,0,0-.39,2.519.938.938,0,0,1-.929.843" transform="translate(97.556 558.138)" fill="#1a1311"/>
        <path id="パス_1375" data-name="パス 1375" d="M162.938,889.931a17.438,17.438,0,0,1-2.559-.189c-6.671-.983-9.306-6.633-9.535-11.172a46.044,46.044,0,0,1,.054-6.767.934.934,0,1,1,1.859.185,43.984,43.984,0,0,0-.048,6.487c.069,1.39.782,8.366,7.942,9.421a14.608,14.608,0,0,0,13.543-5.094c2.192-2.818,3.322-6.923,4.064-10.187a20.115,20.115,0,0,0,.117-5.27,29.539,29.539,0,0,1,1.2-12.062.933.933,0,1,1,1.762.614c-1.489,4.273-1.278,8.03-1.093,11.345a21.242,21.242,0,0,1-.161,5.788c-.782,3.45-1.993,7.809-4.412,10.918a16.374,16.374,0,0,1-12.73,5.983" transform="translate(97.498 552.767)" fill="#1a1311"/>
        <path id="パス_1376" data-name="パス 1376" d="M237.7,867.393a.824.824,0,0,1-.8-.553c0-.007-.054-.158-.056-.163l-.064-.176a6.35,6.35,0,0,1-.344-2.653.933.933,0,1,1,1.864.092,4.4,4.4,0,0,0,.219,1.877l.092.259a1,1,0,0,1-.55,1.255,1.1,1.1,0,0,1-.357.063" transform="translate(152.906 558.138)" fill="#1a1311"/>
        <path id="パス_1377" data-name="パス 1377" d="M238.34,870.683l-.046,0a.933.933,0,0,1-.886-.98c.023-.469.076-.967.13-1.5.285-2.722.674-6.45-2.538-12.942a.932.932,0,1,1,1.671-.827c3.452,6.974,3.03,11.014,2.724,13.961-.053.5-.1.963-.122,1.4a.936.936,0,0,1-.934.888" transform="translate(151.928 552.285)" fill="#1a1311"/>
        <path id="パス_1378" data-name="パス 1378" d="M246.5,876.737a7.815,7.815,0,0,1-6.707-3.065c-1.065-1.382-1.813-3.837-2.473-6.006-.212-.7-.408-1.344-.593-1.862a.934.934,0,0,1,1.76-.624c.191.54.4,1.214.619,1.942.583,1.915,1.309,4.3,2.164,5.41,1.118,1.448,2.885,2.831,7.476,2.159,3.812-.562,4.942-4.267,5.276-6.426a9.819,9.819,0,0,0,.092-1.716.932.932,0,0,1,.914-.953,1,1,0,0,1,.952.914,11.443,11.443,0,0,1-.112,2.039c-.413,2.669-1.853,7.254-6.849,7.989a17.3,17.3,0,0,1-2.52.2" transform="translate(153.072 559.17)" fill="#1a1311"/>
        <path id="パス_1379" data-name="パス 1379" d="M246.479,861.553a.933.933,0,0,1-.871-.6,24.045,24.045,0,0,1-1.658-6.073.934.934,0,1,1,1.859-.173,22.707,22.707,0,0,0,1.541,5.579.932.932,0,0,1-.538,1.205.942.942,0,0,1-.333.063" transform="translate(157.777 552.249)" fill="#1a1311"/>
        <path id="パス_1380" data-name="パス 1380" d="M249.713,872.093a.93.93,0,0,1-.669-.283c-.272-.28-.53-.568-.762-.856l-.008.005c-.025-.036-.076-.109-.16-.216l0-.006a1.071,1.071,0,0,1-.087-.138,25.766,25.766,0,0,1-2.3-4.544,19.621,19.621,0,0,1-.655-5.22c-.041-.792-.082-1.615-.143-2.436a.934.934,0,0,1,.861-1,.973.973,0,0,1,1,.863c.063.832.1,1.671.147,2.478a19.591,19.591,0,0,0,.53,4.637,23.057,23.057,0,0,0,2.077,4.156l.054.064a10,10,0,0,0,.792.911.934.934,0,0,1-.669,1.586" transform="translate(158.405 554.539)" fill="#1a1311"/>
        <path id="パス_1381" data-name="パス 1381" d="M252.907,871.807a7.208,7.208,0,0,1-5.38-2.325.934.934,0,0,1,1.339-1.3,5.536,5.536,0,0,0,5.168,1.675c3.445-.507,4.12-1.917,4.323-3.228a17.2,17.2,0,0,0-.13-4.558.932.932,0,0,1,.789-1.059.916.916,0,0,1,1.059.789,19.084,19.084,0,0,1,.128,5.112c-.42,2.7-2.348,4.27-5.9,4.792a9.6,9.6,0,0,1-1.4.105" transform="translate(159.922 556.867)" fill="#1a1311"/>
        <path id="パス_1382" data-name="パス 1382" d="M252.216,852.049a.929.929,0,0,1-.2-.021.949.949,0,0,1-.72-1.121c.007-.036.035-.132.046-.166a.954.954,0,0,1,1.158-.627.915.915,0,0,1,.646,1.11c0,.018-.023.082-.03.1a.912.912,0,0,1-.9.725" transform="translate(162.518 549.805)" fill="#1a1311"/>
        <path id="パス_1383" data-name="パス 1383" d="M246.373,861.6a.932.932,0,0,1-.929-.865c-.128-1.711-.392-4.147-1.209-5.535a.934.934,0,0,1,1.609-.948c1,1.7,1.309,4.287,1.461,6.345a.932.932,0,0,1-.861,1c-.025,0-.046,0-.071,0" transform="translate(157.881 552.205)" fill="#1a1311"/>
        <path id="パス_1384" data-name="パス 1384" d="M253.382,859.428a.934.934,0,0,1-.9-.67c-1.128-3.832-1.49-6.342-1.146-7.9a.934.934,0,1,1,1.823.405c-.267,1.2.109,3.544,1.115,6.964a.937.937,0,0,1-.632,1.161.981.981,0,0,1-.263.038" transform="translate(162.479 549.839)" fill="#1a1311"/>
        <path id="パス_1385" data-name="パス 1385" d="M259.029,867.834a6.775,6.775,0,0,1-4.81-1.672.934.934,0,1,1,1.258-1.38c.741.677,2.106,1.513,5.342,1.041,3.687-.494,3.712-2.078,3.74-3.916a9.939,9.939,0,0,1,.077-1.286c.066-.432.135-.8.2-1.123a5.71,5.71,0,0,0,.1-2.439c-.018-.112-.051-.24-.086-.374a.934.934,0,0,1,1.811-.459c.046.184.091.367.117.525a7.546,7.546,0,0,1-.1,3.093c-.059.31-.125.652-.186,1.059a8.088,8.088,0,0,0-.056,1.034c-.028,1.88-.079,5.031-5.347,5.734a13.98,13.98,0,0,1-2.05.163" transform="translate(164.224 553.327)" fill="#1a1311"/>
        <path id="パス_1386" data-name="パス 1386" d="M256.138,866.978a.936.936,0,0,1-.627-.242,7.1,7.1,0,0,1-.838-.9,14.139,14.139,0,0,1-1.869-4.372c-.181-.594-.347-1.151-.524-1.6a10.766,10.766,0,0,1-.285-4.354.957.957,0,0,1,.991-.871.93.93,0,0,1,.871.99,9.733,9.733,0,0,0,.163,3.555c.189.487.372,1.09.57,1.734a12.972,12.972,0,0,0,1.56,3.773,5.06,5.06,0,0,0,.616.655.934.934,0,0,1-.627,1.625" transform="translate(162.934 552.757)" fill="#1a1311"/>
        <path id="パス_1387" data-name="パス 1387" d="M252.19,852a.885.885,0,0,1-.674-.306c-.02-.021-.053-.066-.071-.089a.946.946,0,0,1,.168-1.288.924.924,0,0,1,1.276.105.944.944,0,0,1-.7,1.578" transform="translate(162.512 549.825)" fill="#1a1311"/>
        <path id="パス_1388" data-name="パス 1388" d="M253.343,859.428c-.021,0-.041,0-.063,0a.931.931,0,0,1-.869-.993l.023-.382c.156-2.325.331-4.96-.921-6.366a.934.934,0,0,1,1.395-1.242c1.772,1.993,1.569,5.041,1.39,7.732l-.026.382a.931.931,0,0,1-.929.873" transform="translate(162.519 549.838)" fill="#1a1311"/>
        <path id="パス_1389" data-name="パス 1389" d="M265.8,870.475a8.031,8.031,0,0,1-4.9-1.507.934.934,0,0,1,1.13-1.489,6.873,6.873,0,0,0,5.1,1.029c2.523-.374,2.709-1.588,2.946-3.127a31.688,31.688,0,0,0,.15-6.314c-.112-.657-.664-2.569-1.3-4.786-2.2-7.651-3.984-14.154-3.435-16.254a.934.934,0,0,1,1.808.473c-.464,1.774,2.065,10.549,3.422,15.264.708,2.455,1.219,4.229,1.349,4.988a32.39,32.39,0,0,1-.145,6.912c-.254,1.64-.634,4.117-4.52,4.69a11.057,11.057,0,0,1-1.609.12" transform="translate(168.506 541.56)" fill="#1a1311"/>
        <path id="パス_1390" data-name="パス 1390" d="M263.09,863.24a.938.938,0,0,1-.563-.19,5.467,5.467,0,0,1-1.054-1.018,24.377,24.377,0,0,1-3.042-4.953,12.844,12.844,0,0,1-.262-5.368,20.284,20.284,0,0,0,.058-4.166.934.934,0,1,1,1.849-.259,21.6,21.6,0,0,1-.044,4.575,11.854,11.854,0,0,0,.142,4.548,23.165,23.165,0,0,0,2.775,4.481,3.76,3.76,0,0,0,.7.67.935.935,0,0,1-.563,1.68" transform="translate(166.883 547.478)" fill="#1a1311"/>
        <path id="パス_1391" data-name="パス 1391" d="M239.545,870.555a.858.858,0,0,1-.873-.68l-.041-.227a27.843,27.843,0,0,0-2.485-6c-1.368-2.7-2.781-5.5-3.163-8.58a.934.934,0,1,1,1.853-.232c.343,2.76,1.681,5.408,2.976,7.969a29.67,29.67,0,0,1,2.612,6.276c.025.1.04.191.054.285a.992.992,0,0,1-.708,1.169,1.06,1.06,0,0,1-.224.025" transform="translate(150.682 552.352)" fill="#1a1311"/>
        <path id="パス_1392" data-name="パス 1392" d="M237.765,867.458a.937.937,0,0,1-.929-.843,20.924,20.924,0,0,0-.392-2.519.934.934,0,0,1,.711-1.113.944.944,0,0,1,1.113.711,23.216,23.216,0,0,1,.426,2.739.938.938,0,0,1-.93,1.026" transform="translate(152.911 558.138)" fill="#1a1311"/>
        <path id="パス_1393" data-name="パス 1393" d="M237.739,889.931a16.376,16.376,0,0,1-12.73-5.981c-2.416-3.107-3.629-7.468-4.413-10.92a21.361,21.361,0,0,1-.161-5.787c.186-3.317.4-7.074-1.092-11.346a.933.933,0,1,1,1.762-.614,29.568,29.568,0,0,1,1.194,12.064,20.174,20.174,0,0,0,.117,5.268c.743,3.266,1.876,7.371,4.066,10.189a14.6,14.6,0,0,0,13.543,5.092c7.162-1.056,7.872-8.031,7.941-9.42a43.47,43.47,0,0,0-.046-6.488.936.936,0,0,1,.837-1.023.946.946,0,0,1,1.023.838,46.045,46.045,0,0,1,.053,6.768c-.227,4.537-2.86,10.187-9.533,11.17a17.455,17.455,0,0,1-2.559.189" transform="translate(141.83 552.767)" fill="#1a1311"/>
        <circle id="楕円形_37" data-name="楕円形 37" cx="53.884" cy="53.884" r="53.884" transform="translate(265 491.958)" fill="url(#radial-gradient)"/>
      </g>
    </g>
  </g>
</svg>
