<svg xmlns="http://www.w3.org/2000/svg" xmlns:xlink="http://www.w3.org/1999/xlink" width="64" height="64" viewBox="0 0 64 64">
  <defs>
    <clipPath id="clip-path">
      <rect id="長方形_314" data-name="長方形 314" width="64" height="64" transform="translate(-5327.662 1039.123)" fill="#fff" stroke="#707070" stroke-width="1"/>
    </clipPath>
  </defs>
  <g id="runman-icon" transform="translate(5327.662 -1039.123)" clip-path="url(#clip-path)">
    <path id="パス_1399" data-name="パス 1399" d="M-3294.589-3228.01l-3.9-.55a.92.92,0,0,1-.78-1.05l2.51-17.6,6.71-6.83v-13.288l-1.356.824-2.613,1.609-8.13,2.495a1.357,1.357,0,0,1-.44.07,1.461,1.461,0,0,1-1.38-1.02l-.859-2.76a1.447,1.447,0,0,1,.949-1.81l9.121-2.845,4.839-6.436a1.953,1.953,0,0,1,1.44-1l6.89-1.03a2.774,2.774,0,0,1,.29-.02,1.992,1.992,0,0,1,1.46.64l8.8,9.55,2.75,8.15a1.633,1.633,0,0,1-1.029,2.09l-2.36.79a1.379,1.379,0,0,1-.53.09,1.636,1.636,0,0,1-1.55-1.12l-2.37-6.98-4.165-4.523.152,6.014.223,8.06v1.13a2.522,2.522,0,0,1-.39,1.34,2.374,2.374,0,0,1-.68.73l-3.84,2.75-1.471,1.06-5,5-2.25,15.69a.909.909,0,0,1-.91.79C-3294.5-3228-3294.539-3228.01-3294.589-3228.01Zm22.979-.936h0a1.151,1.151,0,0,1-.72-.253l-.037-.033a1.159,1.159,0,0,1-.181-.159l-9.52-12.82-1.771-5.34.761-.55,3.829-2.75a3.849,3.849,0,0,0,.32-.25l.007.02.006,0,.581,1.767,1.467,4.4,8.96,12.07a1.154,1.154,0,0,1-.23,1.63l-2.77,2.06a1.146,1.146,0,0,1-.7.215Zm-15.839-52.444a5.489,5.489,0,0,1-3.48-5.11,5.5,5.5,0,0,1,5.5-5.5,5.5,5.5,0,0,1,5.5,5.5,5.5,5.5,0,0,1-2.07,4.3h-.01a5.405,5.405,0,0,1-3.42,1.2A5.462,5.462,0,0,1-3287.448-3281.39Z" transform="translate(-2009.38 4331.123)" fill="#fff"/>
  </g>
</svg>
