<svg id="image_16_9_" data-name="image（16：9）" xmlns="http://www.w3.org/2000/svg" xmlns:xlink="http://www.w3.org/1999/xlink" width="658" height="370" viewBox="0 0 658 370">
  <defs>
    <clipPath id="clip-path">
      <rect id="長方形_13" data-name="長方形 13" width="658" height="370" transform="translate(6 243.343)" fill="#333f69"/>
    </clipPath>
    <linearGradient id="linear-gradient" x1="0.5" x2="0.5" y2="1" gradientUnits="objectBoundingBox">
      <stop offset="0" stop-color="#0b143f"/>
      <stop offset="0.418" stop-color="#333f69"/>
      <stop offset="0.577" stop-color="#bf1c25"/>
      <stop offset="0.724" stop-color="#333f69"/>
      <stop offset="1" stop-color="#0b143f"/>
    </linearGradient>
    <radialGradient id="radial-gradient" cx="0.5" cy="0.5" r="0.5" gradientUnits="objectBoundingBox">
      <stop offset="0" stop-color="red"/>
      <stop offset="1" stop-color="red" stop-opacity="0"/>
    </radialGradient>
  </defs>
  <g id="マスクグループ_34" data-name="マスクグループ 34" transform="translate(-6 -243.343)" clip-path="url(#clip-path)">
    <g id="グループ_407" data-name="グループ 407" transform="translate(-4636.109 -9888.23)">
      <path id="パス_1735" data-name="パス 1735" d="M467.267,18.91c-43.436,86.866,3.1,353.252,21.718,376.416l99.283,5.791c-21.719-37.642-62.052-156.358-55.847-231.641S541.729,27.6,551.037,18.91Z" transform="translate(4363.612 10110.976)" fill="#bfb592"/>
      <path id="パス_1736" data-name="パス 1736" d="M256.251,31.23C249.242,21.283,260.569,4.1,269.256,1.2s66.6,0,86.866,2.9,22.768,6.4,25.663,12.19-.374,24.339-11.956,24.339S266.837,46.253,256.251,31.23" transform="translate(4456.775 10120)" fill="#333f69"/>
      <path id="パス_1737" data-name="パス 1737" d="M295.418,193.942c-26.05,0-57.034-23.385-66-10.575s-18.469,55.145,7.167,56.084c16.265.6,81.341,8.967,97.993,7.686s22.242-31.92,19.347-46.4c-3.284-16.42-19.65-6.8-58.506-6.8" transform="translate(4473.026 10034.325)" fill="#333f69"/>
      <path id="パス_1738" data-name="パス 1738" d="M288.542,423.492c-25.491,5.366-63.421-9.914-72.388,2.9s-10.435,59.525,5.791,60.805,87.586-21.883,104.239-23.164,28.955-2.9,23.164-28.955c-3.633-16.347-5.791-23.165-60.806-11.582" transform="translate(4478.026 9920.662)" fill="#333f69"/>
      <path id="パス_1739" data-name="パス 1739" d="M340.373,633.468c-25.508,5.285-71.806-6.194-80.773,6.615s1.784,44.547,17.373,49.224c28.955,8.687,100.406-.595,116.465-5.183,20.269-5.791,7.8-36.928,2.251-52.727s-17.373-5.791-55.317,2.071" transform="translate(4455.688 9822.68)" fill="#333f69"/>
      <path id="パス_1740" data-name="パス 1740" d="M239.937,48.959c-13.343,22.631-18.361,75.434-8.967,78.886,13.663,11.834,109.309,11.518,120.41,6.511s16.893-59.717,11.1-75.15c-4.443-11.84-41.879-12.757-60.224-13.979-10.04-.669-22.391-1.812-33.752-1.812-11.832,0-22.592,1.239-28.57,5.544" transform="translate(4470.1 10099.282)" fill="#a5adbe" stroke="#fff" stroke-width="2"/>
      <path id="パス_1742" data-name="パス 1742" d="M266.195,267.489c-28.955,0-52.119-2.9-57.91,5.791s-17.374,81.075,0,89.761,125.071,1.728,133.193-14.477c6.615-13.2,8.687-72.388-2.9-78.178-7.238-2.9-18.1-3.62-30.766-3.62s-27.144.724-41.621.724" transform="translate(4483 9992.695)" fill="#a5adbe" stroke="#fff" stroke-width="2"/>
      <path id="パス_1744" data-name="パス 1744" d="M345.925,494.908c-20.268,5.791-70.15,11.455-70.15,11.455-26.06,2.9-53.129,3.236-56.025,11.923s5.951,46.047,11.742,60.525c3.233,4.45,8.54,11.315,24.552,10.461,27.438,2.662,83.516-9.06,97.993-11.956s20.184-15.939,17.288-36.207c-2.67-18.691-9.49-46.825-22.086-46.826a9.52,9.52,0,0,0-3.315.625" transform="translate(4473.42 9884.12)" fill="#a5adbe" stroke="#fff" stroke-width="2"/>
      <path id="パス_1746" data-name="パス 1746" d="M629.023,17.944c-9.693,3.877-22.848,61.025-8.37,63.92S640.921,67.387,640.921,58.7s2.579-46.547-11.9-40.756" transform="translate(4284.9 10111.723)" fill="#b69863"/>
      <path id="パス_1747" data-name="パス 1747" d="M610.423,187.127c-11.582,5.791-22.077,53.927-8.967,67.037,5.791,5.791,17.934-3.269,17.934-11.956s6.748-33.006.957-44.588-9.923-10.494-9.923-10.494" transform="translate(4293.893 10030.714)" fill="#b69863"/>
      <path id="パス_1748" data-name="パス 1748" d="M608.327,375.006c-8.687,2.9-5.555,56.395,8.923,65.081s17.372-8.687,14.477-17.373-5.791-28.955-5.791-34.746-17.609-12.962-17.609-12.962" transform="translate(4290.011 9941.041)" fill="#b69863"/>
      <path id="パス_1749" data-name="パス 1749" d="M643.1,572.575c-4.669,9.338,14.224,85.478,31.6,91.268s8.616-17.207,5.72-25.893-20.332-60.772-23.227-63.668-11.195-7.5-14.091-1.708" transform="translate(4271.464 9848.085)" fill="#b69863"/>
      <path id="パス_1750" data-name="パス 1750" d="M512.25,20.571C501.148,100.844,494.744,314.764,540,397.6l43.98,1.281c-43.552-90.521-46.968-356.107-22.2-379.164,0,0-48.677,0-49.531.854" transform="translate(4337.411 10110.591)" fill="#11244f"/>
      <path id="パス_1759" data-name="パス 1759" d="M612.5,404.959a3.475,3.475,0,0,1-2.862-1.5C574.906,353.4,560.23,94.578,581.116,17.985a3.479,3.479,0,0,1,6.713,1.831c-19.888,72.932-5.8,331.64,27.523,379.682a3.479,3.479,0,0,1-2.856,5.462Z" transform="translate(4300.613 10109.699)" fill="url(#linear-gradient)"/>
      <path id="パス_1759-2" data-name="パス 1759" d="M612.5,404.959a3.475,3.475,0,0,1-2.862-1.5C574.906,353.4,560.23,94.578,581.116,17.985a3.479,3.479,0,0,1,6.713,1.831c-19.888,72.932-5.8,331.64,27.523,379.682a3.479,3.479,0,0,1-2.856,5.462Z" transform="translate(4289.213 10109.699)" fill="url(#linear-gradient)"/>
      <path id="パス_1759-3" data-name="パス 1759" d="M612.5,404.959a3.475,3.475,0,0,1-2.862-1.5C574.906,353.4,560.23,94.578,581.116,17.985a3.479,3.479,0,0,1,6.713,1.831c-19.888,72.932-5.8,331.64,27.523,379.682a3.479,3.479,0,0,1-2.856,5.462Z" transform="translate(4278.367 10109.699)" fill="url(#linear-gradient)"/>
      <path id="パス_1762" data-name="パス 1762" d="M607.579,511.541c-8.687,8.686-5.791,23.164-2.9,31.851s8.687,17.373,46.328,17.373,37.642-20.268,31.851-37.641-26.06-14.478-31.851-14.478c-3.528,0-14.007-3.79-24.625-3.79-6.813,0-13.683,1.561-18.808,6.685" transform="translate(4290.491 9870.074)" fill="#a5adbe" stroke="#fff" stroke-width="2"/>
      <path id="パス_1764" data-name="パス 1764" d="M586.078,319.059c-2.9,5.791-7.322,21.909,1.365,27.7,13.628,9.085,27.59,7.045,42.067,9.941s34.747,8.686,43.433,0,21.37-40.016-24.335-52.639a88.284,88.284,0,0,0-23.475-3.456c-25.309,0-36.773,13.888-39.056,18.453" transform="translate(4300.113 9976.546)" fill="#a5adbe" stroke="#fff" stroke-width="2"/>
      <path id="パス_1766" data-name="パス 1766" d="M586.135,126.442c-6.268,5.76-9.232,18.321-6.191,24.123,6.947,13.257,21.373,12.51,32.5,11.763,2.961-.2,5.687-.4,7.977-.332,12.915.369,40.129,15.363,49.531,3.843s4.7-36.294-24.338-44.407c-7.076-1.977-18.378-4.89-30.021-4.89-10.487,0-21.251,2.363-29.453,9.9" transform="translate(4301.833 10064.385)" fill="#a5adbe" stroke="#fff" stroke-width="2"/>
    </g>
    <path id="パス_1782" data-name="パス 1782" d="M0,405V225H48V405ZM0,223V192l9-5.25V168a2,2,0,0,1,2-2h8V151a2,2,0,0,1,2-2h2V2l2-2V149h2a2,2,0,0,1,2,2v15h8a2,2,0,0,1,2,2v18.75L48,192v31Z" transform="matrix(0.259, -0.966, 0.966, 0.259, 297.818, 489.614)" fill="#c8c8c8"/>
    <circle id="楕円形_66" data-name="楕円形 66" cx="48.488" cy="48.488" r="48.488" transform="translate(219.025 415.867)" fill="url(#radial-gradient)"/>
  </g>
</svg>
