<svg xmlns="http://www.w3.org/2000/svg" xmlns:xlink="http://www.w3.org/1999/xlink" width="48" height="48" viewBox="0 0 48 48">
  <defs>
    <clipPath id="clip-path">
      <rect id="長方形_343" data-name="長方形 343" width="48" height="48" fill="#fff"/>
    </clipPath>
  </defs>
  <g id="icon_53" clip-path="url(#clip-path)">
    <path id="パス_1734" data-name="パス 1734" d="M-2697.971-9040.171a.582.582,0,0,1,0-.829l.89-.889-3.994-3.994a.588.588,0,0,1,0-.829.589.589,0,0,1,.828,0l3.994,4,4.391-4.392-3.995-3.994a.584.584,0,0,1,0-.826.584.584,0,0,1,.828,0l3.994,3.99.89-.886a.583.583,0,0,1,.827,0,.584.584,0,0,1,0,.826l-7.826,7.827a.584.584,0,0,1-.414.172A.581.581,0,0,1-2697.971-9040.171Zm-9.834-3.469-.733-.736a1.755,1.755,0,0,1,0-2.481l1.315-1.311-13.991-13.991,0,0-8.8-8.8a2.329,2.329,0,0,1-.685-1.657,2.325,2.325,0,0,1,.685-1.654l6.6-6.6a2.347,2.347,0,0,1,3.312,0l22.8,22.8,1.313-1.312a1.753,1.753,0,0,1,2.482,0l.736.732a1.757,1.757,0,0,1,0,2.482l-12.536,12.538a1.747,1.747,0,0,1-1.244.513A1.745,1.745,0,0,1-2707.805-9043.64Zm12.63-14.927-1.726,1.73-9.081,9.081-1.729,1.726a.587.587,0,0,0,0,.828l.733.732a.589.589,0,0,0,.831,0l12.533-12.535a.587.587,0,0,0,0-.828l-.733-.734a.584.584,0,0,0-.414-.17A.589.589,0,0,0-2695.175-9058.566Zm-13.3,1.1a.591.591,0,0,1,0,.832l-2.782,2.778,4.859,4.859,8.251-8.251-22.8-22.8a1.154,1.154,0,0,0-.827-.343,1.153,1.153,0,0,0-.827.343l-6.6,6.6a1.176,1.176,0,0,0,0,1.655l4.031,4.032,2.782-2.783a.592.592,0,0,1,.83,0,.586.586,0,0,1,0,.828l-2.782,2.781,3.529,3.533,2.785-2.782a.585.585,0,0,1,.827,0,.584.584,0,0,1,0,.826l-2.782,2.782,3.532,3.532,2.782-2.781a.586.586,0,0,1,.827,0,.586.586,0,0,1,0,.827l-2.782,2.781,3.529,3.533,2.784-2.784a.594.594,0,0,1,.414-.169A.594.594,0,0,1-2708.473-9057.469Zm-21.259-18.766-2.168-2.171a1.752,1.752,0,0,1,0-2.482l.52-.52-5.595-5.595a.58.58,0,0,1,0-.823.583.583,0,0,1,.83,0l5.592,5.592.519-.524a1.767,1.767,0,0,1,2.485,0l2.168,2.174a.584.584,0,0,1,0,.826.583.583,0,0,1-.827,0l-2.171-2.168a.585.585,0,0,0-.828,0l-1.866,1.865a.585.585,0,0,0,0,.827l2.168,2.171a.586.586,0,0,1,0,.828.581.581,0,0,1-.414.171A.578.578,0,0,1-2729.731-9076.234Z" transform="translate(2737.146 9088)" fill="#fff" stroke="rgba(0,0,0,0)" stroke-width="1"/>
  </g>
</svg>
