<svg xmlns="http://www.w3.org/2000/svg" xmlns:xlink="http://www.w3.org/1999/xlink" width="64" height="64" viewBox="0 0 64 64">
  <defs>
    <clipPath id="clip-path">
      <rect id="長方形_314" data-name="長方形 314" width="64" height="64" transform="translate(-5327.662 1039.123)" fill="#fff" stroke="#707070" stroke-width="1"/>
    </clipPath>
  </defs>
  <g id="time-icon" transform="translate(5327.662 -1039.123)" clip-path="url(#clip-path)">
    <path id="パス_1402" data-name="パス 1402" d="M1244.425,1029.447a20.2,20.2,0,0,0-.154-11.354,16.4,16.4,0,0,0-6.866-8.942c-4.544-2.787-10.633-3.184-14.087-7.245h-16.733c-3.454,4.06-9.543,4.458-14.087,7.245a16.4,16.4,0,0,0-6.866,8.942,20.2,20.2,0,0,0-.154,11.354c-2.739,6.7-3.026,29.305-1.905,36.459h7.025s2.608-11.369,2.39-19.336c0,0,1.708-2.137,2.768-7.82,1.019,3.322,2,6.4,2.892,9.76q.278,1.05.48,2.117a30.635,30.635,0,0,1-.075,11.257l-.743,4.022h8.651l.031-17.947c0-.755-.151-1.146-.3-1.2a1.427,1.427,0,0,0-.663.136,5.456,5.456,0,0,1-.617.18,2.954,2.954,0,0,1-2.245-.474,3.373,3.373,0,0,1-1.451-2.15,4.152,4.152,0,0,1,1.806-4.061,5.857,5.857,0,0,1,3.279-.972l-.027-13.695a.794.794,0,0,1,.793-.8h0a.793.793,0,0,1,.794.792l.029,14.525a.794.794,0,0,1-.875.792,4.6,4.6,0,0,0-3.087.656,2.584,2.584,0,0,0-1.152,2.462,1.8,1.8,0,0,0,.772,1.125,1.37,1.37,0,0,0,1.038.24,3.967,3.967,0,0,0,.435-.13,2.512,2.512,0,0,1,1.688-.133c.915.315,1.378,1.224,1.375,2.7l-.031,17.944h3.275l.207-.768a1.232,1.232,0,0,0-.008-.67l-.3-1a.732.732,0,0,1,.651-.94h0a2.4,2.4,0,0,1,1.1.2l.114.05a3.44,3.44,0,0,0,2.714.014l.114-.048a2.411,2.411,0,0,1,1.1-.188h0a.731.731,0,0,1,.641.947l-.287,1.067a1.232,1.232,0,0,0,.008.671l.2.667h13.637l-.75-3.657a30.066,30.066,0,0,1,.018-12.684q.12-.529.259-1.054,1.126-4.244,2.389-8.45a29.945,29.945,0,0,0,3.271,6.51c-.217,7.967,2.39,19.336,2.39,19.336h7.025c1.121-7.154.834-29.756-1.905-36.459m-40.8,4.146a.794.794,0,0,1-1.123,0l-5.79-5.791a.794.794,0,0,1,.561-1.356h2.949l-4.114-4.114a.794.794,0,0,1,1.123-1.123l5.469,5.469a.794.794,0,0,1-.561,1.356h-2.95l4.435,4.435a.793.793,0,0,1,0,1.123m9.207-27.9h0a1.972,1.972,0,0,1,.9.164l.093.041a2.822,2.822,0,0,0,2.227.011l.094-.04a1.972,1.972,0,0,1,.9-.154h0a.6.6,0,0,1,.526.777l-.236.875a1.013,1.013,0,0,0,.007.55l.243.821a.6.6,0,0,1-.534.771h0a1.973,1.973,0,0,1-.9-.164l-.094-.041a2.822,2.822,0,0,0-2.227-.012l-.094.04a1.97,1.97,0,0,1-.9.154h0a.6.6,0,0,1-.526-.777l.236-.875a1.011,1.011,0,0,0-.007-.55l-.243-.821a.6.6,0,0,1,.534-.771m-.456,9.405h0a2.4,2.4,0,0,1,1.1.2l.114.049a3.438,3.438,0,0,0,2.714.014l.114-.048a2.4,2.4,0,0,1,1.1-.188h0a.731.731,0,0,1,.641.947l-.287,1.067a1.232,1.232,0,0,0,.008.671l.3,1a.732.732,0,0,1-.651.94h0a2.394,2.394,0,0,1-1.1-.2l-.114-.049a3.438,3.438,0,0,0-2.714-.014l-.114.048a2.4,2.4,0,0,1-1.1.188h0a.732.732,0,0,1-.641-.946l.288-1.067a1.232,1.232,0,0,0-.008-.67l-.3-1a.731.731,0,0,1,.651-.94m5.16,42.279h0a2.4,2.4,0,0,1-1.1-.2l-.114-.049a3.439,3.439,0,0,0-2.714-.014l-.114.048a2.4,2.4,0,0,1-1.1.188h0a.732.732,0,0,1-.641-.947l.288-1.067a1.233,1.233,0,0,0-.008-.671l-.3-1a.731.731,0,0,1,.651-.94h0a2.4,2.4,0,0,1,1.1.2l.114.049a3.438,3.438,0,0,0,2.714.014l.114-.048a2.4,2.4,0,0,1,1.1-.188h0a.731.731,0,0,1,.641.947l-.287,1.067a1.233,1.233,0,0,0,.008.671l.3,1a.732.732,0,0,1-.651.94m0-9.407h0a2.394,2.394,0,0,1-1.1-.2l-.114-.049a3.438,3.438,0,0,0-2.714-.014l-.114.048a2.4,2.4,0,0,1-1.1.188h0a.731.731,0,0,1-.641-.946l.288-1.067a1.232,1.232,0,0,0-.008-.67l-.3-1a.731.731,0,0,1,.651-.94h0a2.4,2.4,0,0,1,1.1.2l.114.05a3.44,3.44,0,0,0,2.714.014l.114-.048a2.4,2.4,0,0,1,1.1-.188h0a.731.731,0,0,1,.641.947l-.287,1.067a1.232,1.232,0,0,0,.008.671l.3,1a.732.732,0,0,1-.651.94m0-9.407h0a2.406,2.406,0,0,1-1.1-.2l-.114-.05a3.441,3.441,0,0,0-2.714-.014l-.114.048a2.4,2.4,0,0,1-1.1.188h0a.731.731,0,0,1-.641-.947l.287-1.067a1.232,1.232,0,0,0-.008-.67l-.3-1a.731.731,0,0,1,.65-.94h0a2.4,2.4,0,0,1,1.1.2l.113.049a3.438,3.438,0,0,0,2.714.014l.114-.048a2.4,2.4,0,0,1,1.1-.188h0a.732.732,0,0,1,.641.946l-.288,1.067a1.236,1.236,0,0,0,.008.67l.3,1a.731.731,0,0,1-.651.94m0-9.407h0a2.4,2.4,0,0,1-1.1-.2l-.114-.049a3.436,3.436,0,0,0-2.714-.014l-.114.048a2.4,2.4,0,0,1-1.1.188h0a.731.731,0,0,1-.641-.947l.287-1.067a1.233,1.233,0,0,0-.008-.671l-.3-1a.731.731,0,0,1,.65-.94h0a2.4,2.4,0,0,1,1.1.2l.113.049a3.438,3.438,0,0,0,2.714.014l.114-.048a2.4,2.4,0,0,1,1.1-.188h0a.732.732,0,0,1,.641.947l-.288,1.067a1.236,1.236,0,0,0,.008.67l.3,1a.731.731,0,0,1-.651.94" transform="translate(-6510.742 37.217)" fill="#fff"/>
  </g>
</svg>
