<svg xmlns="http://www.w3.org/2000/svg" xmlns:xlink="http://www.w3.org/1999/xlink" width="402" height="413" viewBox="0 0 402 413">
  <defs>
    <clipPath id="clip-path">
      <rect id="長方形_515" data-name="長方形 515" width="402" height="413" transform="translate(290.177 2505.218)" fill="#fff" stroke="#707070" stroke-width="1"/>
    </clipPath>
    <filter id="back-part" x="209.775" y="208.845" width="191.909" height="192.765" filterUnits="userSpaceOnUse">
      <feOffset input="SourceAlpha"/>
      <feGaussianBlur stdDeviation="3" result="blur"/>
      <feFlood flood-opacity="0.161" result="color"/>
      <feComposite operator="out" in="SourceGraphic" in2="blur"/>
      <feComposite operator="in" in="color"/>
      <feComposite operator="in" in2="SourceGraphic"/>
    </filter>
    <filter id="back-part-2" x="209.775" y="0" width="191.909" height="192.765" filterUnits="userSpaceOnUse">
      <feOffset input="SourceAlpha"/>
      <feGaussianBlur stdDeviation="3" result="blur-2"/>
      <feFlood flood-opacity="0.161" result="color-2"/>
      <feComposite operator="out" in="SourceGraphic" in2="blur-2"/>
      <feComposite operator="in" in="color-2"/>
      <feComposite operator="in" in2="SourceGraphic"/>
    </filter>
    <filter id="back-part-3" x="0" y="208.845" width="191.909" height="192.765" filterUnits="userSpaceOnUse">
      <feOffset input="SourceAlpha"/>
      <feGaussianBlur stdDeviation="3" result="blur-3"/>
      <feFlood flood-opacity="0.161" result="color-3"/>
      <feComposite operator="out" in="SourceGraphic" in2="blur-3"/>
      <feComposite operator="in" in="color-3"/>
      <feComposite operator="in" in2="SourceGraphic"/>
    </filter>
    <filter id="back-part-4" x="0" y="0" width="191.909" height="192.765" filterUnits="userSpaceOnUse">
      <feOffset input="SourceAlpha"/>
      <feGaussianBlur stdDeviation="3" result="blur-4"/>
      <feFlood flood-opacity="0.161" result="color-4"/>
      <feComposite operator="out" in="SourceGraphic" in2="blur-4"/>
      <feComposite operator="in" in="color-4"/>
      <feComposite operator="in" in2="SourceGraphic"/>
    </filter>
    <filter id="楕円形_73" x="121" y="124" width="160" height="160" filterUnits="userSpaceOnUse">
      <feOffset dy="3" input="SourceAlpha"/>
      <feGaussianBlur stdDeviation="3" result="blur-5"/>
      <feFlood flood-opacity="0.161"/>
      <feComposite operator="in" in2="blur-5"/>
      <feComposite in="SourceGraphic"/>
    </filter>
    <filter id="楕円形_73-2" x="121" y="124" width="160" height="160" filterUnits="userSpaceOnUse">
      <feOffset input="SourceAlpha"/>
      <feGaussianBlur stdDeviation="2" result="blur-6"/>
      <feFlood flood-opacity="0.4" result="color-5"/>
      <feComposite operator="out" in="SourceGraphic" in2="blur-6"/>
      <feComposite operator="in" in="color-5"/>
      <feComposite operator="in" in2="SourceGraphic"/>
    </filter>
    <clipPath id="clip-path-2">
      <rect id="長方形_514" data-name="長方形 514" width="72" height="72" transform="translate(-0.267 -0.267)" fill="#0b143f" stroke="#707070" stroke-width="1"/>
    </clipPath>
  </defs>
  <g id="illust_30_" data-name="illust（30％）" transform="translate(-290.177 -2505.218)">
    <g id="マスクグループ_75" data-name="マスクグループ 75" clip-path="url(#clip-path)">
      <g id="グループ_444" data-name="グループ 444" transform="translate(290.176 2505.218)">
        <g data-type="innerShadowGroup">
          <path id="back-part-5" data-name="back-part" d="M-2185,234h191.909c-4.1,104.32-87.708,188.206-191.909,192.765Z" transform="translate(2394.776 -25.155)" fill="#bfb592"/>
          <g transform="matrix(1, 0, 0, 1, 0, 0)" filter="url(#back-part)">
            <path id="back-part-6" data-name="back-part" d="M-2185,234h191.909c-4.1,104.32-87.708,188.206-191.909,192.765Z" transform="translate(2394.78 -25.15)" fill="#fff"/>
          </g>
        </g>
        <g data-type="innerShadowGroup">
          <path id="back-part-7" data-name="back-part" d="M-2185,192.983V.218c104.2,4.559,187.81,88.445,191.909,192.765Z" transform="translate(2394.776 -0.218)" fill="#333f69"/>
          <g transform="matrix(1, 0, 0, 1, 0, 0)" filter="url(#back-part-2)">
            <path id="back-part-8" data-name="back-part" d="M-2185,192.983V.218c104.2,4.559,187.81,88.445,191.909,192.765Z" transform="translate(2394.78 -0.22)" fill="#fff"/>
          </g>
        </g>
        <g data-type="innerShadowGroup">
          <path id="back-part-9" data-name="back-part" d="M-2419.823,234h191.909V426.765C-2332.115,422.206-2415.724,338.32-2419.823,234Z" transform="translate(2419.823 -25.155)" fill="#b69863"/>
          <g transform="matrix(1, 0, 0, 1, 0, 0)" filter="url(#back-part-3)">
            <path id="back-part-10" data-name="back-part" d="M-2419.823,234h191.909V426.765C-2332.115,422.206-2415.724,338.32-2419.823,234Z" transform="translate(2419.82 -25.15)" fill="#fff"/>
          </g>
        </g>
        <g data-type="innerShadowGroup">
          <path id="back-part-11" data-name="back-part" d="M-2419.823,192.983c4.1-104.32,87.708-188.206,191.909-192.765V192.983Z" transform="translate(2419.824 -0.218)" fill="#11244f"/>
          <g transform="matrix(1, 0, 0, 1, 0, 0)" filter="url(#back-part-4)">
            <path id="back-part-12" data-name="back-part" d="M-2419.823,192.983c4.1-104.32,87.708-188.206,191.909-192.765V192.983Z" transform="translate(2419.82 -0.22)" fill="#fff"/>
          </g>
        </g>
        <g id="logo" transform="translate(129.534 129.533)">
          <g data-type="innerShadowGroup">
            <g transform="matrix(1, 0, 0, 1, -129.53, -129.53)" filter="url(#楕円形_73)">
              <circle id="楕円形_73-3" data-name="楕円形 73" cx="71" cy="71" r="71" transform="translate(130 130)" fill="#11244f"/>
            </g>
            <g transform="matrix(1, 0, 0, 1, -129.53, -129.53)" filter="url(#楕円形_73-2)">
              <circle id="楕円形_73-4" data-name="楕円形 73" cx="71" cy="71" r="71" transform="translate(130 130)" fill="#fff"/>
            </g>
          </g>
          <g id="マスクグループ_74" data-name="マスクグループ 74" transform="translate(35.733 35.733)" clip-path="url(#clip-path-2)">
            <g id="logo-2" data-name="logo" transform="translate(0.195 14.632)">
              <path id="パス_2479" data-name="パス 2479" d="M62.356,41.992H15.32a31.88,31.88,0,0,0,6.131-14.372C22.98,18.09,21.427,7.675,15.32,0H40.006L56.287,12.882c.411.877-.295,2.693-.38,3.733-.776,8.9.675,18.3,6.457,25.369Z" transform="translate(-3.431)" fill="#fff"/>
              <path id="パス_2480" data-name="パス 2480" d="M87.114,18.26c-2.429,4.711-2.289,9.181,0,13.914H72.641a23.878,23.878,0,0,1,0-13.914Z" transform="translate(-16.037 -4.09)" fill="#fff"/>
              <path id="パス_2481" data-name="パス 2481" d="M0,32.164c.551-2.212,1.831-4.478,1.831-6.829S.52,20.5,0,18.25H14.085a18.862,18.862,0,0,1,0,13.914Z" transform="translate(0 -4.087)" fill="#fff"/>
              <path id="パス_2482" data-name="パス 2482" d="M71.007,0A33.77,33.77,0,0,0,66.1,9.53L53.95,0Z" transform="translate(-12.083)" fill="#fff"/>
            </g>
          </g>
        </g>
        <path id="パス_2486" data-name="パス 2486" d="M-47.38-16.7A22.405,22.405,0,0,1-51.6-8.96,13.229,13.229,0,0,1-50.68-7a19.742,19.742,0,0,0,1.66-2.2V1.6h1.78V-12.36a30.4,30.4,0,0,0,1.58-3.84ZM-37.9-3.98h-2.78V-6.62h2.78Zm2.1-5.98v-1.38h-2.78V-13.5h-1.48v2.16h-2.68v1.38h2.68v2h-2v5.32h5.6V-7.96h-2.12v-2Zm-7.66,8.7V-14.04h8.24V-1.26Zm-1.7-14.4V1.56h1.7V.38h8.24v1h1.76V-15.66Zm16.14,8.3a25.362,25.362,0,0,0,.94-5.44l-1.36-.2a22.7,22.7,0,0,1-1,5.16Zm12.18,6.5V-5.4h3.88V-7.14h-3.88V-10.9h4.32v-1.76h-4.32V-16.7H-18.7v4.04h-2.1a26.939,26.939,0,0,0,.6-2.92l-1.82-.3a23.541,23.541,0,0,1-1.32,5.32,17.925,17.925,0,0,0-1.3-3l-1.18.48v-3.7h-1.86V1.56h1.86V-12.78a18.2,18.2,0,0,1,1.2,3.14l1.12-.54a8.89,8.89,0,0,1-.74,1.38,10.822,10.822,0,0,1,1.66.86A17.987,17.987,0,0,0-21.3-10.9h2.6v3.76h-4.06V-5.4h4.06V-.86h-5.56V.9H-12V-.86Zm12.9-15.62a21.729,21.729,0,0,1-5.64,7.9A12.765,12.765,0,0,1-8.46-6.64,21.932,21.932,0,0,0-6.14-9.16V1.54h1.86V-11.78a28.723,28.723,0,0,0,2.16-4.1ZM2.76-.44c-1.04,0-1.24-.2-1.24-1.34V-7.24a48.446,48.446,0,0,0,6.9-4.14L7.08-13A31.712,31.712,0,0,1,1.52-9.14V-16.3H-.34V-1.8c0,2.42.66,3.1,2.92,3.1H6.36C8.54,1.3,9.08.12,9.32-3.2A5.476,5.476,0,0,1,7.58-4C7.42-1.14,7.28-.44,6.24-.44Zm14.98-14.2a15.42,15.42,0,0,0-3.8-2.06l-1.02,1.4a15.762,15.762,0,0,1,3.72,2.22ZM16.66-9.46a16.509,16.509,0,0,0-3.86-1.86L11.78-9.9A16.193,16.193,0,0,1,15.6-7.86ZM14.04,1.3c1.18-1.88,2.48-4.24,3.52-6.32l-1.4-1.24A66.4,66.4,0,0,1,12.46.08ZM26.62-4.8V-.98h-6.1V-4.8Zm-7.9,6.38h1.8V.74h6.1v.78H28.5V-6.52H18.72Zm5.92-14.62c.68.78,1.38,1.7,2.02,2.6-1.96.1-3.9.2-5.68.28.92-1.82,1.9-4.14,2.68-6.16l-2.14-.5a41.8,41.8,0,0,1-2.54,6.76c-.7.04-1.34.06-1.92.08l.22,1.88c2.74-.18,6.66-.42,10.46-.68.34.6.64,1.16.86,1.64l1.72-.98a29.032,29.032,0,0,0-4.06-5.72ZM35.48-9.46A15.145,15.145,0,0,0,34.2-13.3l-1.36.56A16.626,16.626,0,0,1,34.02-8.8Zm4.5,6.88A8.933,8.933,0,0,1,37.14.18a7.581,7.581,0,0,1,1.38,1.1,11.639,11.639,0,0,0,3.14-3.4Zm6.48.76A16.855,16.855,0,0,1,49.34,1.3l1.5-.8a19.934,19.934,0,0,0-2.96-3.06Zm.76-4.42H41.4V-7.26h5.82Zm0,2.14H41.4V-5.14h5.82ZM45.2-10.46a11.142,11.142,0,0,0,1.5,2.04H42a12.141,12.141,0,0,0,1.54-2.04Zm4.36.06a12.7,12.7,0,0,1-1.38,1.32,9.04,9.04,0,0,1-1.26-1.38h4V-11.9H44.3a12.32,12.32,0,0,0,.52-1.34l-1.74-.22a8.332,8.332,0,0,1-.6,1.56H38.16v1.44H41.6a9.977,9.977,0,0,1-1.06,1.24c-.46-.36-1-.76-1.44-1.06l-.98.84a17.49,17.49,0,0,1,1.38,1.1A11.137,11.137,0,0,1,37.32-7c.02-.58.04-1.14.04-1.66v-4.8H51.12v-1.6H43.94v-1.72H42v1.72H35.62v6.4c0,.48,0,.98-.02,1.5-1.16.6-2.22,1.16-3,1.5L33.18-4c.74-.4,1.5-.86,2.26-1.34A10.069,10.069,0,0,1,33.16.34a7.713,7.713,0,0,1,1.32,1.24c2.02-2.26,2.66-5.6,2.82-8.44A4.386,4.386,0,0,1,38.34-5.7a14.752,14.752,0,0,0,1.46-.86v3.64h3.6V-.18c0,.22-.08.28-.34.28-.26.02-1.1.02-1.96,0a5.692,5.692,0,0,1,.58,1.5,8.324,8.324,0,0,0,2.74-.26c.6-.24.76-.64.76-1.46v-2.8h3.66V-6.6a8.486,8.486,0,0,0,1.44.8,6.146,6.146,0,0,1,1.06-1.32,9.388,9.388,0,0,1-2.2-1.18,10.405,10.405,0,0,0,1.54-1.3Z" transform="translate(101 128)" fill="#fff"/>
        <path id="パス_2485" data-name="パス 2485" d="M-31.28-9.1h-6.84v-5.86h1.52a4.906,4.906,0,0,1-1.24,1.86,5.071,5.071,0,0,1,.98.58,4.923,4.923,0,0,0,.58-.68h1v.76h-2.48v.98h2.28a3.159,3.159,0,0,1-2.28,1.44,3.849,3.849,0,0,1,.82.9,4.911,4.911,0,0,0,2.34-1.5,16.463,16.463,0,0,1,2.02,1.4l.74-.82a14.518,14.518,0,0,0-2.2-1.42h2.34v-.98h-2.36v-.76h1.96v-.94h-3.62c.1-.22.2-.42.28-.64l-.72-.18h4.74V-16.1h-8.12v8.14h8.26Zm.68,3.88h-2V-6h2Zm5.06,1.06v.82l-.04-.02c-.06.1-.16.12-.54.12H-28.4c-.64,0-.74-.06-.74-.46v-.46ZM-37.3.08v-.7h11.76v.7Zm3.16-4.24c-.24.6-.98,1.22-2.96,1.54a8.362,8.362,0,0,1,.86,1H-37.3V-4.16Zm8.24,1.84a2.174,2.174,0,0,0,.36-.02v.72H-36.06c2.4-.6,3.2-1.54,3.4-2.54h2.06v.44c0,1.14.4,1.4,2.02,1.4ZM-40.08-6h6.06v.78h-4.96V1.56h1.68V1.12h11.76v.44h1.74V-5.22h-5.34V-6h6.32V-7.24H-40.08Zm14.28-5.42a5.876,5.876,0,0,1-1.52,1.36,4.792,4.792,0,0,1-1.46-1.36Zm1.08-1.16-.28.04h-5.18A2.933,2.933,0,0,0-28.66-15h2.2v.38c0,.9.1,1.24.34,1.46a1.62,1.62,0,0,0,1.06.36h.9a2.1,2.1,0,0,0,.8-.14,1.035,1.035,0,0,0,.56-.44,3.741,3.741,0,0,0,.22-1.18,4.116,4.116,0,0,1-1.1-.6,5.379,5.379,0,0,1-.08.86.41.41,0,0,1-.2.24,1.063,1.063,0,0,1-.28.02h-.46c-.12,0-.2,0-.24-.06-.06-.06-.06-.22-.06-.48V-16.3h-5.08v1.04c0,.7-.26,1.36-1.72,1.92a6.674,6.674,0,0,1,1,1.12l.08-.04v.84h1.48l-.98.24a6.233,6.233,0,0,0,1.52,1.8,12.461,12.461,0,0,1-2.54.7,4.1,4.1,0,0,1,.74,1.16,14.079,14.079,0,0,0,3.06-1A11.7,11.7,0,0,0-23.5-7.28a4.505,4.505,0,0,1,.94-1.34,13.661,13.661,0,0,1-3.42-.78,6.492,6.492,0,0,0,2.16-2.86ZM-11.5-8.56v1.64h-4.78V-8.56Zm6.8,0v1.64H-9.66V-8.56Zm-10.92-3.88v-1.54h4.12v1.54Zm10.26-1.54v1.54h-4.3v-1.54ZM-16.28-5.54h4.78v.44l-.34-.2-1.22,1A12.836,12.836,0,0,1-9.9-1.74l1.3-1.1a10.036,10.036,0,0,0-1.76-1.52h.7V-5.54H-4.7V-5h1.8V-9.96H-9.66v-1.12h6.14v-4.26H-9.66v-1.44H-11.5v1.44h-5.84v4.26h5.84v1.12H-18v5h1.72Zm-1.9,6.58a7.911,7.911,0,0,0,2.82-4.42L-17-3.96A6.822,6.822,0,0,1-19.72-.04Zm6.74-1.36c-.98,0-1.16-.08-1.16-.6V-3.8h-1.82V-.9c0,1.74.54,2.24,2.78,2.24h3.52c1.74,0,2.28-.58,2.5-2.94a5.065,5.065,0,0,1-1.66-.66C-7.36-.56-7.5-.32-8.3-.32Zm4.98-2.9A14.641,14.641,0,0,1-3,.98L-1.34.04A14.862,14.862,0,0,0-4.96-4.08ZM6.9-3.84A17.49,17.49,0,0,1,1.74.28a15.533,15.533,0,0,1,1.5,1.3A22.6,22.6,0,0,0,8.86-3.08Zm5.18.9a60.5,60.5,0,0,1,5.36,4.5L19.24.48A63.424,63.424,0,0,0,13.72-3.9ZM7.92-10.96h5.16v4.32H7.92Zm7.1,4.32v-4.32h3.84v-1.8H15.02v-3.86H13.08v3.86H7.92v-3.86H6v3.86H2.3v1.8H6v4.32H1.54v1.82H19.52V-6.64ZM30.58-9.4v.96H25.84V-9.4ZM25.8-6.28c.02-.34.04-.68.04-1h4.74v1Zm5.12,3.74V-.58H26.86V-2.54Zm1.32-2.4v-5.8H24.22v3.08c0,2.26-.2,5.4-2.04,7.68a6.658,6.658,0,0,1,1.26,1.12,10,10,0,0,0,1.82-3.8v4.2h1.6V.82h4.06v.6h1.64V-3.9H25.54c.06-.34.1-.7.14-1.04Zm-5.62-8.02a21.786,21.786,0,0,0,1.78-2,29.035,29.035,0,0,1,2.22,2Zm.66-3.6a15.088,15.088,0,0,1-5.12,4.98,5.081,5.081,0,0,1,1.14,1.3,17.872,17.872,0,0,0,2.8-2.18v.8h4.74v-1.1c.46.48.86.9,1.18,1.26l1.22-1.4a43.917,43.917,0,0,0-4.28-3.66Zm8.16,2.18H33.7V-3.34h1.74Zm2.64-2V-.76c0,.34-.16.46-.48.48-.4,0-1.56.02-2.82-.04a9.271,9.271,0,0,1,.6,1.88,9.722,9.722,0,0,0,3.56-.34c.7-.32.94-.86.94-1.96V-16.38Z" transform="translate(101 291)" fill="#fff"/>
        <path id="パス_2484" data-name="パス 2484" d="M-24-16.56a72.292,72.292,0,0,1-9.56,1.02,4.792,4.792,0,0,1,.42,1.38A69.1,69.1,0,0,0-22.98-15.2Zm-3.32,4.78a11.48,11.48,0,0,0-.84-2.5l-1.4.36a10.68,10.68,0,0,1,.74,2.56ZM-39.84-5.34A15.311,15.311,0,0,1-40.96-.66a7.325,7.325,0,0,1,1.32.64,18.12,18.12,0,0,0,1.28-5.06Zm14.02.98a8.2,8.2,0,0,1-1.64,2.22A9,9,0,0,1-29.6-4.36Zm1.1-1.5-.3.06h-4.46c.08-.36.16-.72.24-1.1h6.7V-8.38h-6.44q.09-.66.18-1.38h6.1v-1.46h-2.02c.54-.8,1.16-1.94,1.68-2.92l-1.62-.52a21.1,21.1,0,0,1-1.58,3.24l.52.2h-5.6l.88-.3a8.872,8.872,0,0,0-1.08-2.44l-1.38.44a9.715,9.715,0,0,1,.96,2.3h-1.32v1.46h2.7c-.04.48-.1.94-.16,1.38h-2.8v1.32a18.254,18.254,0,0,0-1.44-3.38l-1.26.5a16.359,16.359,0,0,1,.7,1.58l-2.2.12c1.24-1.64,2.6-3.78,3.68-5.56l-1.5-.68a38.2,38.2,0,0,1-1.88,3.44,12.534,12.534,0,0,0-.86-1.06c.68-1.1,1.52-2.72,2.22-4.1l-1.6-.58a23.96,23.96,0,0,1-1.6,3.66c-.2-.2-.38-.38-.58-.56l-.92,1.2A19.673,19.673,0,0,1-38.34-9.6c-.34.54-.7,1.02-1.02,1.46l-1.5.08.18,1.62c.84-.04,1.82-.12,2.84-.18V1.56h1.6v-8.3l1.26-.08a9.52,9.52,0,0,1,.3,1.2l1.38-.58a6.041,6.041,0,0,0-.18-.7h2.5C-31.64-3.72-32.84-1.24-35,.36a12.345,12.345,0,0,1,1.42,1.18A11.652,11.652,0,0,0-30.4-3a11.627,11.627,0,0,0,1.68,1.88A11.294,11.294,0,0,1-31.66.26a4.892,4.892,0,0,1,.94,1.3A13.013,13.013,0,0,0-27.4-.14a13.878,13.878,0,0,0,4.16,1.76A7.559,7.559,0,0,1-22.14.1a13.9,13.9,0,0,1-3.94-1.38,10,10,0,0,0,2.42-4.18ZM-33.6-1.82a15.324,15.324,0,0,0-1-3.6l-1.28.4a14.913,14.913,0,0,1,.94,3.62ZM-14-5.04V-7.06h1.5v2.02Zm-2.82-2.02h1.52v2.02h-1.54c.02-.5.02-.98.02-1.44Zm2.62-6.48a16.829,16.829,0,0,1-.74,1.8h-2.04c.3-.56.58-1.18.84-1.8Zm.2,3.2h1.5v1.9H-14Zm-2.82,0h1.52v1.9h-1.52Zm13.3-3.9c-.1,2.04-.24,2.86-.46,3.1a.538.538,0,0,1-.54.18,14.26,14.26,0,0,1-1.62-.08A4.519,4.519,0,0,1-5.72-9.5,12.871,12.871,0,0,0-3.7-9.52a1.5,1.5,0,0,0,1.14-.56c.42-.48.6-1.82.74-5.06.02-.2.02-.64.02-.64h-8.7v1.54h2.48a4.852,4.852,0,0,1-2.94,3.94v-1.44h-2.38a25.676,25.676,0,0,0,1.2-2.64l-1.08-.68-.26.08h-2.1c.16-.48.3-.96.44-1.44l-1.7-.38a14.465,14.465,0,0,1-3.02,6.24,12.539,12.539,0,0,1,1.36,1.1l.18-.22V-6.5c0,2.24-.14,5.18-1.48,7.28a7.326,7.326,0,0,1,1.32.82,11.8,11.8,0,0,0,1.54-5.22h4.44V-.36c0,.26-.1.34-.36.36-.24,0-1.08,0-2.04-.02a5.911,5.911,0,0,1,.58,1.56,6.884,6.884,0,0,0,2.66-.28c.54-.28.7-.8.7-1.6v-9.78a5.081,5.081,0,0,1,.88,1.16c2.46-1.1,3.38-2.94,3.78-5.28ZM-1.26-3.66H-4.9V-5.82h3.26v-1.6H-4.9V-9.34H-6.66v1.92h-1.4q.21-.72.36-1.44l-1.54-.32a11.329,11.329,0,0,1-1.72,4.4,8.481,8.481,0,0,1,1.4.74,9.853,9.853,0,0,0,.94-1.78h1.96v2.16h-3.96v1.62h3.96V1.48H-4.9V-2.04h3.64Zm5.5-5.8A13.893,13.893,0,0,0,2.72-13.1l-1.38.68A14.924,14.924,0,0,1,2.8-8.66ZM8.52,1.34c2.52-.42,6.08-1,9.4-1.56l-.06-1.6C14.36-1.28,10.62-.7,8.2-.4Zm2.36-11.5h4.4a10.149,10.149,0,0,1-2.26,2.38,9.278,9.278,0,0,1-2.22-2.3Zm5.68-1.46-.32.06h-4.3a11.456,11.456,0,0,0,.76-1.24l-.72-.22h7.58V-14.7H12.44v-2.08H10.5v2.08H4.38v5.94c0,.56,0,1.16-.04,1.78-1.22.62-2.38,1.22-3.22,1.56L1.7-3.66c.76-.44,1.6-.94,2.44-1.42A9.676,9.676,0,0,1,1.66.28,6.584,6.584,0,0,1,3,1.52C5.74-1.22,6.16-5.62,6.16-8.74v-4.28h4.68A12.374,12.374,0,0,1,6.4-8.6,11.538,11.538,0,0,1,7.76-7.38,14.714,14.714,0,0,0,9.66-8.9,12.6,12.6,0,0,0,11.6-6.84a18.035,18.035,0,0,1-5.54,2.1,6.312,6.312,0,0,1,.92,1.48A23.18,23.18,0,0,0,11.3-4.82l-1,1.14a17.126,17.126,0,0,1,3.68,1.96l1.04-1.3a19.713,19.713,0,0,0-3.68-1.82c.56-.28,1.12-.6,1.66-.94a16.918,16.918,0,0,0,5.8,2.4,7.83,7.83,0,0,1,1.1-1.56,17.18,17.18,0,0,1-5.44-1.9,11.465,11.465,0,0,0,3.26-4.2Zm8.48,2.08a14.474,14.474,0,0,0-1.46-3.68l-1.36.64A15.364,15.364,0,0,1,23.6-8.8Zm9.64,6.52V-4.44h3.2v1.42Zm-4.76,0V-4.44h3.04v1.42Zm3.04-4.12v1.38H29.92V-7.14Zm4.92,1.38h-3.2V-7.14h3.2Zm1.76-2.76H36.56c-.34-.18-.74-.38-1.18-.6a22.936,22.936,0,0,0,3.88-2.44l-1.1-.94-.38.1H28.64v1.32h7.42a17.191,17.191,0,0,1-2.2,1.3c-.94-.36-1.9-.72-2.76-.98L30.06-9.74a27.478,27.478,0,0,1,3.2,1.22H28.18V1.56h1.74V-1.68h3.04V1.34h1.72V-1.68h3.2V-.14c0,.24-.06.32-.32.32-.22,0-1.02,0-1.82-.02a6.886,6.886,0,0,1,.48,1.36,8.251,8.251,0,0,0,2.66-.22c.58-.24.76-.62.76-1.42Zm-6.2-6.46v-1.8H31.5v1.8H25.2v6.24c0,.5,0,1.04-.04,1.58-1.18.66-2.34,1.22-3.16,1.6l.58,1.7c.78-.46,1.6-.94,2.42-1.42A9.938,9.938,0,0,1,22.64.28a5.537,5.537,0,0,1,1.32,1.24c2.6-2.76,3-7.14,3-10.26v-4.62H40.48v-1.62Z" transform="translate(298 128)" fill="#fff"/>
        <path id="パス_2483" data-name="パス 2483" d="M-37.1-9.54A24.235,24.235,0,0,0-31.58-15a26.176,26.176,0,0,0,5.76,5.46Zm6.52,6.02h5.82V-5.14h-5.82V-7.9h5V-9.38a25.049,25.049,0,0,0,2.2,1.4,10.906,10.906,0,0,1,1.22-1.64,23.667,23.667,0,0,1-8.56-7.22h-1.9A22.769,22.769,0,0,1-40.8-9.4a7.329,7.329,0,0,1,1.18,1.5,23.6,23.6,0,0,0,2.3-1.48V-7.9h4.78v2.76h-5.72v1.62h5.72v2.9h-7.34V1.06H-23V-.62h-7.58Zm26.44-7.64h-5.4V-14.4h5.4ZM-2.34-16h-8.92v6.44h8.92ZM-11.98-5.84a36.727,36.727,0,0,0-2.64-2.7v-.92h2.34v-1.76h-2.34v-3.1a24.411,24.411,0,0,0,2.48-.78l-1.28-1.42a29.4,29.4,0,0,1-6.24,1.6,5.733,5.733,0,0,1,.54,1.44c.86-.12,1.78-.26,2.7-.46v2.72H-19.5v1.76h2.84A20.384,20.384,0,0,1-19.88-3.6a10.016,10.016,0,0,1,.9,1.72,19.721,19.721,0,0,0,2.56-4.66V1.54h1.8V-6.7a24.837,24.837,0,0,1,1.56,2.32ZM-5.96-.56V-2.78h3.78v-1.6H-5.96V-6.44h4.24V-8.06H-11.98v1.62H-7.8v2.06h-3.7v1.6h3.7V-.56h-5V1.1H-1.28V-.56ZM4.28-7.24c.14-.8.3-1.66.42-2.48h5.9v-6.26H2.48v1.72h6.3v2.8H3.08C2.8-9.34,2.32-6.6,1.9-4.86l1.86.3.2-.96H8.7C8.44-2.34,8.12-.92,7.68-.54a1.267,1.267,0,0,1-.9.22c-.5,0-1.8-.02-3.06-.14A4.618,4.618,0,0,1,4.4,1.48a22.722,22.722,0,0,0,3.12,0A2.3,2.3,0,0,0,9.28.76c.7-.72,1.04-2.62,1.38-7.18a5.913,5.913,0,0,0,.08-.82Zm11.34-9.3V1.56H17.5v-18.1Zm21.4,5.28h-6.2V-12h6.2Zm0,1.66h-6.2v-.78h6.2Zm0,1.66h-6.2v-.78h6.2Zm-7.94-4.98v5.88h9.76v-5.88h-4.6c.1-.26.22-.54.34-.84h5.88v-1.3h-3.2a13.6,13.6,0,0,0,1-1.42l-1.74-.34a16.147,16.147,0,0,1-1,1.76H32.44A7.855,7.855,0,0,0,31.4-16.8l-1.5.34a9.6,9.6,0,0,1,.78,1.4H27.52v1.3h5.32c-.06.28-.12.58-.2.84Zm-2-1.1a12.811,12.811,0,0,0-2.74-2.44l-1.22,1.02a12.577,12.577,0,0,1,2.66,2.56ZM36.2-4.84c1.52-.02,3-.06,4.04-.1a6.606,6.606,0,0,1,.5-1.46c-2.64.16-7.8.22-10.14.14-1.76-.06-3.12-.54-3.84-1.66v-3.8H22.58v1.42h2.5v2.64A29.927,29.927,0,0,1,22.44-6.2l.68,1.52c1.06-.7,2.04-1.34,3-1.98,1,1.2,2.44,1.7,4.5,1.78.96.04,2.34.04,3.8.04V-3.8H22.5v1.44h4.4l-1.02.86A14.767,14.767,0,0,1,28.66.86L30.02-.3a15.084,15.084,0,0,0-2.56-2.06h6.96V-.34c0,.26-.1.32-.42.34-.3.02-1.42.02-2.56-.02a5.4,5.4,0,0,1,.58,1.58,10.862,10.862,0,0,0,3.3-.24c.7-.26.88-.72.88-1.62V-2.36h4.32V-3.8H36.2Z" transform="translate(298 291)" fill="#fff"/>
      </g>
    </g>
  </g>
</svg>
