<svg xmlns="http://www.w3.org/2000/svg" xmlns:xlink="http://www.w3.org/1999/xlink" width="40" height="40" viewBox="0 0 40 40">
  <defs>
    <clipPath id="clip-path">
      <rect id="長方形_376" data-name="長方形 376" width="40" height="40" transform="translate(971 2513)" fill="#fff"/>
    </clipPath>
    <clipPath id="clip-path-2">
      <rect id="長方形_287" data-name="長方形 287" width="40" height="40" transform="translate(330 50)" fill="#bfb592"/>
    </clipPath>
  </defs>
  <g id="マスクグループ_27" data-name="マスクグループ 27" transform="translate(-971 -2513)" clip-path="url(#clip-path)">
    <g id="icon_04" transform="translate(641 2463)" clip-path="url(#clip-path-2)">
      <g id="グループ_130" data-name="グループ 130" transform="translate(330.777 50)">
        <path id="パス_186" data-name="パス 186" d="M858.024,765.42l-8.238-8.6c-.012-.012-.025-.021-.038-.032a44.6,44.6,0,0,0,4.96-1.623c2.38-1.1,2.654-4.755.275-5.363,2.38-1.85,1.016-4.286-.748-4.98,2.181-1.922,1.471-5.675-.351-6.133,1.1-1.831-.549-4.3-2.654-4.577-1.99-.26-8.967,2.588-13.977,4.679a12.585,12.585,0,0,0-.564-1.532,5.027,5.027,0,0,0-1.959-2.488,20.614,20.614,0,0,0-4.069-1.567,9.6,9.6,0,0,1-2.667-1.061,2.666,2.666,0,0,1-.9-1.44,2.15,2.15,0,0,1-.073-1.069c1.581.136,8.5,1.409,11.861,2.082a4.756,4.756,0,0,1,3.2,1.709,24.335,24.335,0,0,0,2.268,2.046.916.916,0,0,0,1.145-1.429,7.357,7.357,0,0,0,2.537-3.956c.246-1.043.267-3.152-1.007-3.112-1.626.051-5.269,1.988-7.014,3.12-.235-.06-.49-.118-.77-.174-2.721-.544-10.594-2.021-12.2-2.121a1.688,1.688,0,0,0-1.732,1.194,4.59,4.59,0,0,0,1.638,4.646,10.932,10.932,0,0,0,3.2,1.319,19.114,19.114,0,0,1,3.727,1.426c.681.366,1.377,1.975,1.654,3a.927.927,0,0,0,.068.173q-.143.085-.278.175a2.562,2.562,0,0,0-1.959-2.1l-7.376-1.681a2.56,2.56,0,0,0-3.065,1.927l-.02.088a2.556,2.556,0,0,0,1.752,3.016l-.536-.122a2.605,2.605,0,1,0-1.158,5.08l7.882,1.8a2.577,2.577,0,0,0,1,.03q-.041.231-.084.458a2.584,2.584,0,0,0-1.036-.5l-7.8-1.778a2.605,2.605,0,1,0-1.158,5.08l7.8,1.778a2.611,2.611,0,0,0,.283.048q-.125.188-.259.382a2.586,2.586,0,0,0-1.276-.715l-6.061-1.381a2.605,2.605,0,1,0-1.158,5.08l5.319,1.212c-2.747,3.419-5.831,6.911-6.842,8.082l16.659.549s5.309-6.224,6.59-7.048a35.568,35.568,0,0,1,5.433-1.789.912.912,0,0,0,.221.867l8.238,8.6a.916.916,0,1,0,1.323-1.267m-25.163-22.393a2.592,2.592,0,0,0-.7-.331l.029.007a2.586,2.586,0,0,0,.574.065c.067,0,.133,0,.2-.008-.035.088-.069.178-.1.268m-8.189-4.663.02-.088a.729.729,0,0,1,.709-.567.734.734,0,0,1,.163.018l7.376,1.681a.729.729,0,0,1,.548.871l-.02.089a.728.728,0,0,1-.872.548l-7.376-1.681a.729.729,0,0,1-.548-.872m6.563,7.578-7.882-1.8a.774.774,0,1,1,.344-1.509l7.882,1.8a.773.773,0,0,1,.582.926h0a.775.775,0,0,1-.926.582m-9.078,3.29a.774.774,0,1,1,.344-1.509l7.8,1.778a.774.774,0,1,1-.344,1.509Zm-1.15,4.85a.774.774,0,0,1,.654-1.186.791.791,0,0,1,.173.02l6.061,1.381a.774.774,0,0,1,.583.926h0a.775.775,0,0,1-.926.582l-6.061-1.381a.768.768,0,0,1-.483-.342" transform="translate(-819.056 -726.969)" fill="#bfb592"/>
      </g>
    </g>
  </g>
</svg>
