<svg xmlns="http://www.w3.org/2000/svg" xmlns:xlink="http://www.w3.org/1999/xlink" width="40" height="40" viewBox="0 0 40 40">
  <defs>
    <clipPath id="clip-path">
      <rect id="長方形_287" data-name="長方形 287" width="40" height="40" transform="translate(780 50)" fill="#bfb592"/>
    </clipPath>
  </defs>
  <g id="icon_09" transform="translate(-780 -50)" clip-path="url(#clip-path)">
    <g id="グループ_133" data-name="グループ 133" transform="translate(783 50)">
      <path id="パス_170" data-name="パス 170" d="M820.633,1412.916a14.271,14.271,0,0,1,14.2-13.257,16.513,16.513,0,0,1,4.121.513.79.79,0,1,0,.394-1.529,18.1,18.1,0,0,0-4.516-.563,15.855,15.855,0,0,0-15.78,14.729,6.588,6.588,0,0,1-.427,1.943l-2.017,5.19a1.436,1.436,0,0,0,1.219,1.951l3.526.294.092.349-.269.978a.713.713,0,0,0,.308.858,2.531,2.531,0,0,1,.317.374,11.571,11.571,0,0,1,.173,2.52.792.792,0,0,0,.017.176l.137.642a1.869,1.869,0,0,0,1.845,1.585h.035l5.036-.164a.074.074,0,0,1,.055.021.072.072,0,0,1,.023.054v4.044a.789.789,0,1,0,1.579,0v-4.044a1.654,1.654,0,0,0-1.708-1.653l-5.024.163a.288.288,0,0,1-.281-.249c0-.021-.006-.041-.011-.061l-.124-.582a6.965,6.965,0,0,0-.445-3.337c-.105-.147-.2-.27-.288-.37l.2-.74a.79.79,0,0,0,0-.411l-.14-.531a1.447,1.447,0,0,0-1.3-1.185l-3.439-.287,1.948-5.011a8.168,8.168,0,0,0,.531-2.408" transform="translate(-816.514 -1394.413)" fill="#bfb592"/>
      <path id="パス_171" data-name="パス 171" d="M1017.076,1454.547a.79.79,0,1,0-1.395.741,12.863,12.863,0,0,1,1.475,6.1,16.764,16.764,0,0,1-4.945,11.8,5.223,5.223,0,0,0-1.681,3.8v5.179a.79.79,0,0,0,1.579,0V1477a3.638,3.638,0,0,1,1.177-2.648,18.414,18.414,0,0,0,5.449-12.961,14.425,14.425,0,0,0-1.659-6.844" transform="translate(-984.595 -1442.969)" fill="#bfb592"/>
      <path id="パス_172" data-name="パス 172" d="M986.276,1377.037l1.643-6.216a.136.136,0,0,0-.229-.13l-8.284,8.529,4.044,1.069-1.7,6.444a.136.136,0,0,0,.228.13l8.56-8.7Z" transform="translate(-957.63 -1370.649)" fill="#bfb592"/>
    </g>
  </g>
</svg>
