<svg xmlns="http://www.w3.org/2000/svg" xmlns:xlink="http://www.w3.org/1999/xlink" width="402" height="413" viewBox="0 0 402 413">
  <defs>
    <clipPath id="clip-path">
      <rect id="長方形_515" data-name="長方形 515" width="402" height="413" transform="translate(290.177 2505.218)" fill="#fff" stroke="#707070" stroke-width="1"/>
    </clipPath>
    <filter id="back-part" x="209.775" y="208.845" width="191.909" height="192.765" filterUnits="userSpaceOnUse">
      <feOffset input="SourceAlpha"/>
      <feGaussianBlur stdDeviation="3" result="blur"/>
      <feFlood flood-opacity="0.161" result="color"/>
      <feComposite operator="out" in="SourceGraphic" in2="blur"/>
      <feComposite operator="in" in="color"/>
      <feComposite operator="in" in2="SourceGraphic"/>
    </filter>
    <filter id="back-part-2" x="209.775" y="0" width="191.909" height="192.765" filterUnits="userSpaceOnUse">
      <feOffset input="SourceAlpha"/>
      <feGaussianBlur stdDeviation="3" result="blur-2"/>
      <feFlood flood-opacity="0.161" result="color-2"/>
      <feComposite operator="out" in="SourceGraphic" in2="blur-2"/>
      <feComposite operator="in" in="color-2"/>
      <feComposite operator="in" in2="SourceGraphic"/>
    </filter>
    <filter id="back-part-3" x="0" y="208.845" width="191.909" height="192.765" filterUnits="userSpaceOnUse">
      <feOffset input="SourceAlpha"/>
      <feGaussianBlur stdDeviation="3" result="blur-3"/>
      <feFlood flood-opacity="0.161" result="color-3"/>
      <feComposite operator="out" in="SourceGraphic" in2="blur-3"/>
      <feComposite operator="in" in="color-3"/>
      <feComposite operator="in" in2="SourceGraphic"/>
    </filter>
    <filter id="back-part-4" x="0" y="0" width="191.909" height="192.765" filterUnits="userSpaceOnUse">
      <feOffset input="SourceAlpha"/>
      <feGaussianBlur stdDeviation="3" result="blur-4"/>
      <feFlood flood-opacity="0.161" result="color-4"/>
      <feComposite operator="out" in="SourceGraphic" in2="blur-4"/>
      <feComposite operator="in" in="color-4"/>
      <feComposite operator="in" in2="SourceGraphic"/>
    </filter>
    <filter id="楕円形_73" x="121" y="124" width="160" height="160" filterUnits="userSpaceOnUse">
      <feOffset dy="3" input="SourceAlpha"/>
      <feGaussianBlur stdDeviation="3" result="blur-5"/>
      <feFlood flood-opacity="0.161"/>
      <feComposite operator="in" in2="blur-5"/>
      <feComposite in="SourceGraphic"/>
    </filter>
    <filter id="楕円形_73-2" x="121" y="124" width="160" height="160" filterUnits="userSpaceOnUse">
      <feOffset input="SourceAlpha"/>
      <feGaussianBlur stdDeviation="2" result="blur-6"/>
      <feFlood flood-opacity="0.4" result="color-5"/>
      <feComposite operator="out" in="SourceGraphic" in2="blur-6"/>
      <feComposite operator="in" in="color-5"/>
      <feComposite operator="in" in2="SourceGraphic"/>
    </filter>
    <clipPath id="clip-path-2">
      <rect id="長方形_514" data-name="長方形 514" width="72" height="72" transform="translate(-0.267 -0.267)" fill="#0b143f" stroke="#707070" stroke-width="1"/>
    </clipPath>
  </defs>
  <g id="illust_30_" data-name="illust（30％）" transform="translate(-290.177 -2505.218)">
    <g id="マスクグループ_75" data-name="マスクグループ 75" clip-path="url(#clip-path)">
      <g id="グループ_444" data-name="グループ 444" transform="translate(290.176 2505.218)">
        <g data-type="innerShadowGroup">
          <path id="back-part-5" data-name="back-part" d="M-2185,234h191.909c-4.1,104.32-87.708,188.206-191.909,192.765Z" transform="translate(2394.776 -25.155)" fill="#bfb592"/>
          <g transform="matrix(1, 0, 0, 1, 0, 0)" filter="url(#back-part)">
            <path id="back-part-6" data-name="back-part" d="M-2185,234h191.909c-4.1,104.32-87.708,188.206-191.909,192.765Z" transform="translate(2394.78 -25.15)" fill="#fff"/>
          </g>
        </g>
        <g data-type="innerShadowGroup">
          <path id="back-part-7" data-name="back-part" d="M-2185,192.983V.218c104.2,4.559,187.81,88.445,191.909,192.765Z" transform="translate(2394.776 -0.218)" fill="#333f69"/>
          <g transform="matrix(1, 0, 0, 1, 0, 0)" filter="url(#back-part-2)">
            <path id="back-part-8" data-name="back-part" d="M-2185,192.983V.218c104.2,4.559,187.81,88.445,191.909,192.765Z" transform="translate(2394.78 -0.22)" fill="#fff"/>
          </g>
        </g>
        <g data-type="innerShadowGroup">
          <path id="back-part-9" data-name="back-part" d="M-2419.823,234h191.909V426.765C-2332.115,422.206-2415.724,338.32-2419.823,234Z" transform="translate(2419.823 -25.155)" fill="#b69863"/>
          <g transform="matrix(1, 0, 0, 1, 0, 0)" filter="url(#back-part-3)">
            <path id="back-part-10" data-name="back-part" d="M-2419.823,234h191.909V426.765C-2332.115,422.206-2415.724,338.32-2419.823,234Z" transform="translate(2419.82 -25.15)" fill="#fff"/>
          </g>
        </g>
        <g data-type="innerShadowGroup">
          <path id="back-part-11" data-name="back-part" d="M-2419.823,192.983c4.1-104.32,87.708-188.206,191.909-192.765V192.983Z" transform="translate(2419.824 -0.218)" fill="#11244f"/>
          <g transform="matrix(1, 0, 0, 1, 0, 0)" filter="url(#back-part-4)">
            <path id="back-part-12" data-name="back-part" d="M-2419.823,192.983c4.1-104.32,87.708-188.206,191.909-192.765V192.983Z" transform="translate(2419.82 -0.22)" fill="#fff"/>
          </g>
        </g>
        <g id="logo" transform="translate(129.534 129.533)">
          <g data-type="innerShadowGroup">
            <g transform="matrix(1, 0, 0, 1, -129.53, -129.53)" filter="url(#楕円形_73)">
              <circle id="楕円形_73-3" data-name="楕円形 73" cx="71" cy="71" r="71" transform="translate(130 130)" fill="#11244f"/>
            </g>
            <g transform="matrix(1, 0, 0, 1, -129.53, -129.53)" filter="url(#楕円形_73-2)">
              <circle id="楕円形_73-4" data-name="楕円形 73" cx="71" cy="71" r="71" transform="translate(130 130)" fill="#fff"/>
            </g>
          </g>
          <g id="マスクグループ_74" data-name="マスクグループ 74" transform="translate(35.733 35.733)" clip-path="url(#clip-path-2)">
            <g id="logo-2" data-name="logo" transform="translate(0.195 14.632)">
              <path id="パス_2479" data-name="パス 2479" d="M62.356,41.992H15.32a31.88,31.88,0,0,0,6.131-14.372C22.98,18.09,21.427,7.675,15.32,0H40.006L56.287,12.882c.411.877-.295,2.693-.38,3.733-.776,8.9.675,18.3,6.457,25.369Z" transform="translate(-3.431)" fill="#fff"/>
              <path id="パス_2480" data-name="パス 2480" d="M87.114,18.26c-2.429,4.711-2.289,9.181,0,13.914H72.641a23.878,23.878,0,0,1,0-13.914Z" transform="translate(-16.037 -4.09)" fill="#fff"/>
              <path id="パス_2481" data-name="パス 2481" d="M0,32.164c.551-2.212,1.831-4.478,1.831-6.829S.52,20.5,0,18.25H14.085a18.862,18.862,0,0,1,0,13.914Z" transform="translate(0 -4.087)" fill="#fff"/>
              <path id="パス_2482" data-name="パス 2482" d="M71.007,0A33.77,33.77,0,0,0,66.1,9.53L53.95,0Z" transform="translate(-12.083)" fill="#fff"/>
            </g>
          </g>
        </g>
        <path id="パス_2492" data-name="パス 2492" d="M-43.24.26c3.22,0,5.18-1.92,5.18-4.28,0-2.16-1.26-3.24-3-3.98l-2.02-.86c-1.2-.48-2.38-.96-2.38-2.24,0-1.16.98-1.88,2.48-1.88a4.688,4.688,0,0,1,3.24,1.32l1.22-1.48A6.305,6.305,0,0,0-42.98-15c-2.8,0-4.84,1.74-4.84,4.06,0,2.14,1.58,3.26,3,3.86l2.04.88c1.36.6,2.36,1.02,2.36,2.36,0,1.24-1,2.08-2.78,2.08A5.707,5.707,0,0,1-47.12-3.5l-1.36,1.6A7.344,7.344,0,0,0-43.24.26Zm14.36,0c3.26,0,5.46-1.78,5.46-6.58v-8.42h-2.24v8.58c0,3.32-1.36,4.4-3.22,4.4-1.84,0-3.16-1.08-3.16-4.4v-8.58h-2.32v8.42C-34.36-1.52-32.14.26-28.88.26ZM-18.62,0h2.32V-5.58h2.22c3.2,0,5.54-1.48,5.54-4.7,0-3.32-2.34-4.46-5.62-4.46h-4.46Zm2.32-7.44v-5.42h1.92c2.34,0,3.56.64,3.56,2.58s-1.12,2.84-3.48,2.84ZM-4.68,0h2.32V-5.58H-.14c3.2,0,5.54-1.48,5.54-4.7,0-3.32-2.34-4.46-5.62-4.46H-4.68Zm2.32-7.44v-5.42H-.44c2.34,0,3.56.64,3.56,2.58S2-7.44-.36-7.44ZM14.86.26c3.78,0,6.42-2.94,6.42-7.68S18.64-15,14.86-15s-6.4,2.84-6.4,7.58S11.08.26,14.86.26Zm0-2.02c-2.44,0-4.02-2.22-4.02-5.66,0-3.46,1.58-5.56,4.02-5.56s4.04,2.1,4.04,5.56C18.9-3.98,17.3-1.76,14.86-1.76ZM25.34,0h2.32V-5.94h2.38L33.38,0H36L32.4-6.24a4.1,4.1,0,0,0,3.08-4.22c0-3.18-2.28-4.28-5.32-4.28H25.34Zm2.32-7.8v-5.06h2.22c2.14,0,3.3.62,3.3,2.4S32.02-7.8,29.88-7.8ZM42.12,0h2.32V-12.78h4.34v-1.96H37.8v1.96h4.32Z" transform="translate(100.5 128)" fill="#fff"/>
        <path id="パス_2491" data-name="パス 2491" d="M-63.736.208a4.65,4.65,0,0,0,3.664-1.7l-.992-1.168a3.407,3.407,0,0,1-2.608,1.248c-2.08,0-3.392-1.712-3.392-4.512,0-2.768,1.408-4.464,3.44-4.464a3.132,3.132,0,0,1,2.3,1.056l1.008-1.184A4.538,4.538,0,0,0-63.656-12c-2.976,0-5.312,2.3-5.312,6.144C-68.968-2-66.7.208-63.736.208Zm10.464,0c3.024,0,5.136-2.352,5.136-6.144S-50.248-12-53.272-12s-5.12,2.272-5.12,6.064S-56.3.208-53.272.208Zm0-1.616c-1.952,0-3.216-1.776-3.216-4.528,0-2.768,1.264-4.448,3.216-4.448S-50.04-8.7-50.04-5.936C-50.04-3.184-51.32-1.408-53.272-1.408ZM-44.888,0h6.848V-1.568h-4.992V-11.792h-1.856Zm9.728,0h6.848V-1.568H-33.3V-11.792H-35.16Zm11.984-6.4c.384-1.28.752-2.576,1.088-3.92h.08c.352,1.328.7,2.64,1.1,3.92l.464,1.584h-3.216ZM-26.984,0H-25.1l1.008-3.36h4.1L-19,0h1.968l-3.9-11.792H-23.08Zm12.3,0h3.936c2.608,0,4.512-1.12,4.512-3.456a2.7,2.7,0,0,0-2.32-2.8v-.08A2.619,2.619,0,0,0-6.872-8.88c0-2.128-1.744-2.912-4.16-2.912H-14.68Zm1.856-6.864v-3.472h1.632c1.664,0,2.5.464,2.5,1.7,0,1.1-.752,1.776-2.544,1.776Zm0,5.408V-5.472h1.872c1.872,0,2.9.592,2.9,1.92,0,1.44-1.056,2.1-2.9,2.1ZM1.272.208C4.3.208,6.408-2.144,6.408-5.936S4.3-12,1.272-12s-5.12,2.272-5.12,6.064S-1.752.208,1.272.208Zm0-1.616c-1.952,0-3.216-1.776-3.216-4.528,0-2.768,1.264-4.448,3.216-4.448S4.5-8.7,4.5-5.936C4.5-3.184,3.224-1.408,1.272-1.408ZM9.656,0h1.856V-4.752h1.9L16.088,0h2.1L15.3-4.992a3.278,3.278,0,0,0,2.464-3.376c0-2.544-1.824-3.424-4.256-3.424H9.656Zm1.856-6.24v-4.048h1.776c1.712,0,2.64.5,2.64,1.92S15-6.24,13.288-6.24Zm11.6-.16c.384-1.28.752-2.576,1.088-3.92h.08c.352,1.328.7,2.64,1.1,3.92l.464,1.584H22.632ZM19.3,0h1.888L22.2-3.36h4.1L27.288,0h1.968l-3.9-11.792H23.208ZM32.92,0h1.856V-10.224h3.472v-1.568H29.464v1.568H32.92Zm8.16,0h1.856V-11.792H41.08ZM51.3.208c3.024,0,5.136-2.352,5.136-6.144S54.328-12,51.3-12s-5.12,2.272-5.12,6.064S48.28.208,51.3.208Zm0-1.616c-1.952,0-3.216-1.776-3.216-4.528,0-2.768,1.264-4.448,3.216-4.448s3.232,1.68,3.232,4.448C54.536-3.184,53.256-1.408,51.3-1.408ZM59.688,0h1.76V-5.552c0-1.28-.144-2.64-.24-3.856h.08L62.52-6.944,66.424,0h1.9V-11.792h-1.76v5.5c0,1.28.144,2.7.24,3.92h-.08L65.5-4.864l-3.9-6.928h-1.9Z" transform="translate(100.5 291.863)" fill="#fff"/>
        <path id="パス_2490" data-name="パス 2490" d="M-45.89.26a6.613,6.613,0,0,0,4.66-1.72V-7.84h-5.02v1.9h2.92v3.46a3.651,3.651,0,0,1-2.32.72c-3.04,0-4.66-2.14-4.66-5.64,0-3.46,1.82-5.58,4.56-5.58a4.06,4.06,0,0,1,3.06,1.32l1.24-1.48A5.872,5.872,0,0,0-45.83-15c-3.9,0-6.86,2.88-6.86,7.68C-52.69-2.5-49.81.26-45.89.26Zm14.42,0c3.26,0,5.46-1.78,5.46-6.58v-8.42h-2.24v8.58c0,3.32-1.36,4.4-3.22,4.4-1.84,0-3.16-1.08-3.16-4.4v-8.58h-2.32v8.42C-36.95-1.52-34.73.26-31.47.26ZM-21.21,0h2.32V-14.74h-2.32Zm7.18,0h3.94c4.4,0,6.98-2.64,6.98-7.42,0-4.8-2.58-7.32-7.1-7.32h-3.82Zm2.32-1.9V-12.84h1.34c3.16,0,4.86,1.74,4.86,5.42,0,3.66-1.7,5.52-4.86,5.52ZM3.55-8c.48-1.6.94-3.22,1.36-4.9h.1c.44,1.66.88,3.3,1.38,4.9l.58,1.98H2.95ZM-1.21,0H1.15L2.41-4.2H7.53L8.77,0h2.46L6.35-14.74H3.67ZM14.17,0h2.2V-6.94c0-1.6-.18-3.3-.3-4.82h.1l1.54,3.08L22.59,0h2.38V-14.74h-2.2v6.88c0,1.6.18,3.38.3,4.9h-.1L21.43-6.08l-4.88-8.66H14.17ZM35.59.26a5.813,5.813,0,0,0,4.58-2.12L38.93-3.32a4.258,4.258,0,0,1-3.26,1.56c-2.6,0-4.24-2.14-4.24-5.64,0-3.46,1.76-5.58,4.3-5.58a3.915,3.915,0,0,1,2.88,1.32l1.26-1.48A5.673,5.673,0,0,0,35.69-15c-3.72,0-6.64,2.88-6.64,7.68C29.05-2.5,31.89.26,35.59.26ZM43.77,0h8.92V-1.96h-6.6V-6.72h5.4V-8.68h-5.4v-4.1h6.38v-1.96h-8.7Z" transform="translate(297.97 291.863)" fill="#fff"/>
        <path id="パス_2489" data-name="パス 2489" d="M-33.45,0h2.32V-5.94h2.38L-25.41,0h2.62l-3.6-6.24a4.1,4.1,0,0,0,3.08-4.22c0-3.18-2.28-4.28-5.32-4.28h-4.82Zm2.32-7.8v-5.06h2.22c2.14,0,3.3.62,3.3,2.4s-1.16,2.66-3.3,2.66ZM-19.33,0h8.92V-1.96h-6.6V-6.72h5.4V-8.68h-5.4v-4.1h6.38v-1.96h-8.7Zm13,0H2.23V-1.96H-4.01V-14.74H-6.33ZM5.83,0H8.15V-14.74H5.83Zm7.18,0h8.92V-1.96h-6.6V-6.72h5.4V-8.68h-5.4v-4.1h6.38v-1.96h-8.7Zm13,0h2.32V-6.34h5.44V-8.28H28.33v-4.5h6.4v-1.96H26.01Z" transform="translate(297.76 128)" fill="#fff"/>
      </g>
    </g>
  </g>
</svg>
