<svg xmlns="http://www.w3.org/2000/svg" xmlns:xlink="http://www.w3.org/1999/xlink" width="40" height="40" viewBox="0 0 40 40">
  <defs>
    <clipPath id="clip-path">
      <rect id="長方形_377" data-name="長方形 377" width="40" height="40" transform="translate(420 140)" fill="#bfb592"/>
    </clipPath>
  </defs>
  <g id="icon_21" transform="translate(-420 -140)" clip-path="url(#clip-path)">
    <g id="グループ_290" data-name="グループ 290" transform="translate(420 143)">
      <path id="パス_1070" data-name="パス 1070" d="M1771.994,1981.622a36.076,36.076,0,0,1-4.874,1.212,2.4,2.4,0,0,0,.113-.7,1.459,1.459,0,0,0-1.1-1.462,7.113,7.113,0,0,0-1.7-.251,9.5,9.5,0,0,1-2.052-.3,10.221,10.221,0,0,1-1.97-.937,14.416,14.416,0,0,0-4.862-1.87c-3.214-.582-6.265.58-8.827,1.794a.712.712,0,0,0,.609,1.287c2.358-1.117,5.147-2.19,7.964-1.68a13.008,13.008,0,0,1,4.418,1.71,11.44,11.44,0,0,0,2.249,1.056,10.584,10.584,0,0,0,2.368.359,4.551,4.551,0,0,1,1.477.239.254.254,0,0,1,0,.033.774.774,0,0,1-.292.641c-.457.374-1.872.881-6.213.073a.712.712,0,0,0-.346,1.378c4.956,1.579,13.141-1.113,13.487-1.228.473-.158.849-.063,1.006.254a.543.543,0,0,1-.22.72c-.63.43-7.361,4.221-11.584,4.23a18.454,18.454,0,0,1-7.084-1.6,18.012,18.012,0,0,0-3.61-1.116,20.052,20.052,0,0,0-5.343-.048,8.612,8.612,0,0,0-4,1.3.712.712,0,1,0,.938,1.072c.941-.823,4.983-1.418,8.184-.913a17.011,17.011,0,0,1,3.32,1.038,19.728,19.728,0,0,0,7.564,1.693h.035c4.6-.01,11.605-3.947,12.383-4.477a1.958,1.958,0,0,0,.693-2.529,2.14,2.14,0,0,0-2.732-.972" transform="translate(-1741.367 -1955.302)" fill="#bfb592"/>
      <path id="パス_1071" data-name="パス 1071" d="M1828.107,1797.743a.712.712,0,0,0-1-.067c-.941.823-4.983,1.418-8.183.913a17.012,17.012,0,0,1-3.32-1.038,19.73,19.73,0,0,0-7.564-1.694H1808c-4.6.01-11.605,3.947-12.383,4.477a1.958,1.958,0,0,0-.693,2.529,2.14,2.14,0,0,0,2.732.972,36.051,36.051,0,0,1,4.874-1.212,2.4,2.4,0,0,0-.113.7,1.459,1.459,0,0,0,1.1,1.462,7.113,7.113,0,0,0,1.7.251,9.516,9.516,0,0,1,2.052.3,10.224,10.224,0,0,1,1.97.937,14.416,14.416,0,0,0,4.862,1.87,9.785,9.785,0,0,0,1.746.155,16.816,16.816,0,0,0,7.081-1.948.712.712,0,1,0-.61-1.287c-2.357,1.117-5.147,2.189-7.964,1.679a13.014,13.014,0,0,1-4.419-1.71,11.415,11.415,0,0,0-2.248-1.056,10.589,10.589,0,0,0-2.368-.359,4.552,4.552,0,0,1-1.477-.239.274.274,0,0,1,0-.033.775.775,0,0,1,.292-.641c.457-.374,1.873-.881,6.213-.073a.712.712,0,0,0,.346-1.378c-4.957-1.579-13.141,1.112-13.487,1.228-.473.158-.849.063-1.006-.254a.543.543,0,0,1,.219-.72c.631-.43,7.362-4.221,11.584-4.23h.031a18.546,18.546,0,0,1,7.053,1.6,18.014,18.014,0,0,0,3.61,1.116,20.043,20.043,0,0,0,5.343.048,8.615,8.615,0,0,0,4-1.3.712.712,0,0,0,.067-1" transform="translate(-1788.283 -1795.857)" fill="#bfb592"/>
      <path id="パス_1072" data-name="パス 1072" d="M1867.3,1912.129a.6.6,0,0,0,.692,0,25.272,25.272,0,0,0,4.363-3.536c1.658-1.968,1.806-3.885.95-5.6-1.169-2.34-4.86-2.2-5.659-.1-.8-2.1-4.49-2.241-5.659.1-.856,1.713-.708,3.63.95,5.6a25.268,25.268,0,0,0,4.363,3.536" transform="translate(-1846.999 -1888.572)" fill="#bfb592"/>
    </g>
  </g>
</svg>
